<?xml version="1.0" encoding="utf-8"?>
<!-- Generator: Adobe Illustrator 26.0.2, SVG Export Plug-In . SVG Version: 6.00 Build 0)  -->
<svg version="1.1" id="Layer_1" xmlns="http://www.w3.org/2000/svg" xmlns:xlink="http://www.w3.org/1999/xlink" x="0px" y="0px"
	 viewBox="0 0 78 67.1" style="enable-background:new 0 0 78 67.1;" xml:space="preserve">
<g id="Calque_2">
	<g id="Calque_1-2">
		<path d="M32,52.3c0.7-0.8,1.4-1.5,2.1-2.3c2.5-2.8,4.9-5.7,7.3-8.5c0.4-0.4,0.6-1,0.6-1.6c0-12.1,0-24.1,0-36.2
			C42,1.2,43.2,0,45.7,0H76c0.7,0,1.5-0.1,1.9,0.7s-0.2,1.4-0.7,1.9c-4.6,5.3-9.1,10.7-13.7,16.1c-1.5,1.8-3.8,2.8-6.1,2.8h-5v-5.9
			H56h1.7c0.3,0,0.7-0.1,0.9-0.4c2.5-2.9,4.9-5.7,7.4-8.6c0.1-0.2,0.3-0.4,0.4-0.6c-0.4,0-0.6,0-0.9,0C60,6,54.4,6,48.8,5.9
			c-0.7,0-0.9,0.2-0.9,0.9c0,5.7,0,11.4,0,17.1v15.5c0,2.3-0.8,4.5-2.3,6.2c-5.9,6.9-11.8,13.7-17.7,20.5c-8.9,10.2-0.1,0.1-0.1,0.1
			l-1.4,0.7c-0.3-0.5-0.5-1-0.6-1.5c0-6.1,0-12.1,0-18.2c0-8.3,0-16.6,0-25c0-0.8-0.2-1-1-1c-7.5,0-15.1,0-22.6,0
			c-0.8,0-1.7,0.1-2.1-0.7s0.3-1.5,0.8-2c4.5-5.3,9-10.6,13.6-15.9C16,1,18.3-0.1,20.7,0c5.2,0,10.3,0,15.5,0h0.9v6h-1
			c-5.2,0-10.5,0-15.7,0c-0.4,0-0.8,0.1-1.1,0.4c-2.5,2.8-4.9,5.7-7.3,8.5c-0.1,0.1-0.2,0.3-0.4,0.5c0.4,0,0.7,0,1,0h15.4
			c2.4,0,3.7,1.2,3.7,3.6v33.1L32,52.3z"/>
	</g>
</g>
</svg>
