<svg width="69" height="68" xmlns="http://www.w3.org/2000/svg" xmlns:xlink="http://www.w3.org/1999/xlink" overflow="hidden"><defs><clipPath id="clip0"><rect x="1206" y="521" width="69" height="68"/></clipPath></defs><g clip-path="url(#clip0)" transform="translate(-1206 -521)"><path d="M71.7778 11.3333 18.8889 11.3333C14.7144 11.3333 11.3333 14.7144 11.3333 18.8889L11.3333 71.7778C11.3333 75.9522 14.7144 79.3333 18.8889 79.3333L71.7778 79.3333C75.9522 79.3333 79.3333 75.9522 79.3333 71.7778L79.3333 18.8889C79.3333 14.7144 75.9522 11.3333 71.7778 11.3333ZM34 64.2222 26.4444 64.2222 26.4444 37.7778 34 37.7778 34 64.2222ZM49.1111 64.2222 41.5556 64.2222 41.5556 26.4444 49.1111 26.4444 49.1111 64.2222ZM64.2222 64.2222 56.6667 64.2222 56.6667 49.1111 64.2222 49.1111 64.2222 64.2222Z" fill="#594D6C" transform="matrix(1.01471 0 0 -1 1194.5 600.333)"/></g></svg>