<svg xmlns="http://www.w3.org/2000/svg" viewBox="0 0 32.19 21.68"><defs><style>.cls-1{fill:#fff;}</style></defs><g id="Calque_2" data-name="Calque 2"><g id="Calque_1-2" data-name="Calque 1"><g id="Groupe_50" data-name="Groupe 50"><path id="Tracé_204" data-name="Tracé 204" class="cls-1" d="M16.11,0c3.66,0,7.33,0,11,0a3.79,3.79,0,0,1,4.12,3.05,30.33,30.33,0,0,1-.07,15.6c-.6,2.21-2.37,2.91-4.47,2.94-2.73,0-5.46.07-8.2.07-4.26,0-8.53,0-12.79-.08-3.16-.08-4.34-1-5-4.1A31.48,31.48,0,0,1,.89,3.44C1.54.88,2.57.1,5.13.06c3.66-.06,7.32,0,11,0M12.19,16.68l9.88-5.92L12.19,4.87Z"/></g></g></g></svg>