<svg xmlns="http://www.w3.org/2000/svg" viewBox="0 0 31.68 31.82"><defs><style>.cls-1{fill:#fff;}</style></defs><g id="Calque_2" data-name="Calque 2"><g id="Calque_1-2" data-name="Calque 1"><path id="Tracé_206" data-name="Tracé 206" class="cls-1" d="M11.42,10.77h6.13c.06.8.12,1.5.2,2.56a8,8,0,0,1,7.94-3.08c3.3.47,5.62,2.23,5.83,5.57.31,5.28.08,10.6.08,16H25.42c0-1.57,0-3.07,0-4.58-.05-2.66-.07-5.33-.2-8A3.1,3.1,0,0,0,22.38,16a3.39,3.39,0,0,0-4.05,2.56.43.43,0,0,1,0,.11A18,18,0,0,0,18,22.57c-.05,3.05,0,6.09,0,9.24H11.42Z"/><rect id="Rectangle_219" data-name="Rectangle 219" class="cls-1" x="0.62" y="10.82" width="6.5" height="20.97"/><path id="Tracé_209" data-name="Tracé 209" class="cls-1" d="M3.83,7.68A3.81,3.81,0,0,1,0,3.93,3.81,3.81,0,1,1,7.62,3.7v.21A3.75,3.75,0,0,1,3.89,7.68H3.82"/></g></g></svg>