<svg xmlns="http://www.w3.org/2000/svg" xmlns:xlink="http://www.w3.org/1999/xlink" viewBox="0 0 573.8 479.13"><defs><style>.cls-1{fill:none;}.cls-2{clip-path:url(#clip-path);}.cls-3{fill:#f5f4fa;}.cls-4{fill:#8782bd;}.cls-5{fill:#474b97;}.cls-6{fill:#d2cce7;}.cls-7{fill:#d4cee8;}.cls-8{fill:#ea7e99;}.cls-9{fill:#e9e6f4;}.cls-10{fill:#d2cde8;}.cls-11{fill:#d1cbe7;}.cls-12{fill:#d8d3eb;}.cls-13{fill:#d3cee8;}.cls-14{fill:#d7d2ea;}.cls-15{fill:#d9d4ec;}.cls-16{fill:#d6d1ea;}.cls-17{fill:#d7d3eb;}.cls-18{fill:#d6d0e9;}.cls-19{fill:#d5d0e9;}.cls-20{fill:#d4cfe9;}.cls-21{fill:#d1cbe6;}.cls-22{fill:#ffb445;}.cls-23{fill:#e6698e;}.cls-24{fill:#8783bd;}.cls-25{fill:#e66a8f;}.cls-26{fill:#fef5f7;}.cls-27{fill:#d5cfe9;}.cls-28{fill:#a19fc4;}.cls-29{fill:#625ea4;}.cls-30{fill:#605ba2;}.cls-31{fill:#9b99c0;}.cls-32{fill:#615ca3;}.cls-33{fill:#7572a4;}.cls-34{fill:#5e5b93;}.cls-35{fill:#fbf0f5;}.cls-36{fill:#fdfaf8;}.cls-37{fill:#faf9fc;}.cls-38{fill:#fdfdfe;}.cls-39{fill:#6964a8;}.cls-40{fill:#f2f1f9;}.cls-41{fill:#f0eff8;}.cls-42{fill:#f5f3f9;}.cls-43{fill:#fffeff;}.cls-44{fill:#fff;}.cls-45{fill:#fefeff;}.cls-46{fill:#fffefd;}.cls-47{fill:#bc844f;}.cls-48{fill:#fffdfd;}.cls-49{fill:#b35383;}.cls-50{fill:#e8e5f4;}.cls-51{fill:#8883bd;}.cls-52{fill:#d1cce7;}.cls-53{fill:#d3cde8;}.cls-54{fill:#8e89c1;}.cls-55{fill:#ada8d4;}.cls-56{fill:#e76b90;}.cls-57{fill:#ffb446;}.cls-58{fill:#aea9d4;}</style><clipPath id="clip-path" transform="translate(0 0)"><rect class="cls-1" width="573.8" height="479.13"/></clipPath></defs><g id="Calque_2" data-name="Calque 2"><g id="Calque_1-2" data-name="Calque 1"><g id="Groupe_60" data-name="Groupe 60"><g class="cls-2"><g id="Groupe_59" data-name="Groupe 59"><path id="Tracé_213" data-name="Tracé 213" class="cls-3" d="M515,469.45c1.12-1.65,1.79-2.8,2.61-3.81a193.6,193.6,0,0,0,16.77-23.74c7.6-13,14.42-26.39,19.38-40.76a171.91,171.91,0,0,0,8.51-80.86c-.6-4.94-.86-10-2.82-14.76-1.47-.44-2.27.67-3.17,1.46-10.22,9-22,12.82-35.57,10.9-17.53-2.48-29.59-12.34-35.57-28.7-9.54-26.1,7.1-53.71,34.49-58.34,1.08-.19,2.67.21,2.74-1.7-2.36-4.3-6.74-6.24-10.59-8.7A23.16,23.16,0,0,0,484,221.88c-9.34,7.58-17.11,16.66-24.8,25.77-8.26,9.78-16.38,19.66-26.45,27.65-5.59,4.43-11.66,7.63-19.31,5.17-6.48-2.08-9.73-7.34-12.88-12.59-7.29-12.12-14.56-24.24-22.77-35.77-1.62-2.28-3.21-4.59-4.8-6.9l.34-.57c-7.22-11.79-14.08-21.75-20-29.81-7.1-9.69-12.59-16.32-21.44-18.2a23.73,23.73,0,0,0-7.28-.4,44.82,44.82,0,0,0-8.9,1.61c-30.76,8.89-46.79,50.13-50,58-6.63,16.27-9.5,32.54-17.9,33.3-.26,0-.52,0-.78,0,0,0,0-.08,0-.12a16.19,16.19,0,0,0-3.08-.63l-.15-.07s0,0,0,0c-7.51-1.29-26.23-4.47-33.66-11-.45-.27-1.25-.77-2.21-1.45-6.66-4.67-10-10.36-11.25-11.75-11.3-12.84-22.34-26-35.63-36.85-8.82-7.21-18.7-12.22-30.78-10.8-6.38.75-14.69,4.73-15,12.15a35.85,35.85,0,0,0,1.35,12.4c2.63,8.5,6.82,16.24,11,24,8.35,15.6,17.83,30.57,25.79,46.39,2.92,5.81,6.1,11.49,7.84,17.81,1.87-.12,2.07-1.9,2.88-3,3.14-4.26,8.68-6.5,13.35-5.25,5.75,1.53,9.79,5.85,10.2,10.92.54,6.58-1.86,11.13-7.26,13.71-3.56,1.7-7.15,1.5-10.8.25-1.06-.36-2.4-1.73-3.24.39a34.5,34.5,0,0,1,2.14,16.06,54.67,54.67,0,0,1-11.29,14.38c-.2,0-.23.06-.13.12a50.33,50.33,0,0,1-25,12.52c-25.05,4.58-42.74-11.48-44.57-13.2a57.45,57.45,0,0,0-22.76-13.4h0c-2.44-1.35-4.9-2.66-7.4-3.92C46.67,333.43,36,328,23.75,327.58c-8.64-.33-14.72,2.95-17.87,10.7-3.29,8.06-2.86,16.59-1.52,25,2.42,15.25,7.45,29.72,14,43.64a272.34,272.34,0,0,0,20.77,36.57c6,8.84,12.36,17.43,18.93,25.86,10.27.88,20.55.2,30.82.36a3,3,0,0,0,.79-.1l65.55.52a12.15,12.15,0,0,0,3.4.31H364.32c1.58,0,3.23.21,4.65-.83,1.36-1.85,1-4,1-6.07q.06-25,0-49.92c0-6.8,0-6.78,6.63-6.81,4.07,0,8.14.11,12.2-.08,6.68,0,13.35.35,20-.24,4.17-.72,8.38-.39,12.57-.41,5.35,0,5.54.18,5.55,5.69,0,17.28,0,34.57,0,51.85,0,2.07-.35,4.24,1.1,6.06,1.78,1.15,3.8.89,5.75.9q16.08,0,32.15,0a14.12,14.12,0,0,0,5.13-.51c2-2.15-.43-2.67-1.42-3.3-5.13-3.28-7.33-8-7.18-13.93.08-2.93,0-5.87,0-8.8.08-.84,0-1.68,0-2.51.2-5.86.2-5.86,6-5.87,1.1,0,2.2.07,3.3,0,3.49-.26,7.09.74,10.48-.83,1.49-2.11.89-4.46.73-6.75a5.66,5.66,0,0,0-1.81-2.69c-3.32-3.22-6.52-6.56-9.85-9.77a4.42,4.42,0,0,0-1.87-1.12c-2.4-.61-4.77-1.27-7.2-1.72a12.32,12.32,0,0,1-3.51-1.13,6.25,6.25,0,0,1-3.6-6.7,7,7,0,0,1,5.69-5.6,6.07,6.07,0,0,1,6.62,3.69c1.51,3.4,1.72,7.18,2.85,10.7a4.42,4.42,0,0,0,1.18,1.88q4.05,4.2,8.25,8.26c1.15,1.1,2.41,2,3.28-.32.46-9.41.28-18.83.19-28.25a7.52,7.52,0,0,0-.29-1.84c-2.11-4.5-5.38-8.3-7.54-12.74A9,9,0,0,1,480,368.77l.24-.1a9.16,9.16,0,0,1,11.53,4.68c1.39,3.25.63,6.24-1.11,9.17-2.27,3.81-5,7.35-6.8,11.44a5.51,5.51,0,0,0-.24,1.14c-.24,5.55-.14,11.1,0,16.65,0,1.08,0,2.42,1.32,2.8,1,.29,1.84-.55,2.56-1.22,1.89-1.77,3.72-3.6,5.46-5.52a6,6,0,0,0,1.24-2.06c1.14-4.29,1.75-8.71,3.23-12.9,1.66-4.72,5.23-6.87,10-6.16a8.57,8.57,0,0,1,7.25,8.13,8.87,8.87,0,0,1-7,9.19c-4.16,1.1-8.33,2.22-12.56,3.06a5.45,5.45,0,0,0-2,1c-3.14,3.45-7.19,6.07-9.39,10.36-.37,2.74-.11,5.51-.21,8.26.25,2.66-.63,5.44.85,8,1.4,1.05,3,.92,4.62.94,4.19.05,8.37,0,12.56,0,2.26,0,3.46.95,3.39,3.31a18.53,18.53,0,0,0,.07,2.58c0,.84-.06,1.68,0,2.52-.08,3.66.34,7.34-.23,11a16.78,16.78,0,0,1-8,12.14c-.84.53-3.45,1.13-.92,2.94,5.25,1,10.56.13,15.83.54,18.07,1.38,36.16.34,54.24.57,1.49,0,3.33.27,4-1.79Z" transform="translate(0 0)"/><path id="Tracé_214" data-name="Tracé 214" class="cls-4" d="M428.22,469.43h44a111.14,111.14,0,0,1,22.63,0c24.08.65,48.17.56,72.26.54a4.34,4.34,0,0,0,2.86-.52c5.92-.37,3.15,4.13,3.65,6.69.67,3.46-1.93,2.93-4,2.93q-282.78,0-565.57.06c-3,0-4.4-.62-4-3.83a49.72,49.72,0,0,0,.18-5.18c1.16-.64,2.42-.33,3.64-.34,7,0,14.09,0,21.13,0,41.12-.34,82.25-1.65,123.37-.74,71.65,1.59,143.29.24,214.94.68,6.88,0,13.77-.86,20.68-.63a3.46,3.46,0,0,0,3-1.13c.95-1.74.64-3.62.64-5.44,0-17,0-33.92,0-50.88,0-2.07-.32-4.22,1.06-6.05h19.91c1.89,1.62,1.37,3.85,1.37,5.87.06,17.18,0,34.36,0,51.53,0,5.92.06,5.85,6,6,4.05.11,8.14-.66,12.15.45" transform="translate(0 0)"/><path id="Tracé_215" data-name="Tracé 215" class="cls-3" d="M391.07,138.63a32.35,32.35,0,0,1,1.35-12c2.4-7.09,8.91-10.43,17.23-9.42a69.79,69.79,0,0,1,30.26,10.74c11.85,7.71,20.39,17.48,21,32.61.51,12.16-2.35,23.2-10.37,32.33-9.88,11.22-18.68,10.11-29.49,1.93-17.87-13.52-24.62-33.08-26.48-39.11a90.32,90.32,0,0,1-3.52-17.07" transform="translate(0 0)"/><path id="Tracé_216" data-name="Tracé 216" class="cls-5" d="M161.2,309.25c2.12-4.18,4.88-7.64,9.7-8.93a14.12,14.12,0,0,1,15.77,5.89,14.29,14.29,0,0,1-1,16.57,14.48,14.48,0,0,1-16.1,4.25c-1-.38-1.89-1.86-3.28-.77l-7.26,3.29a5.8,5.8,0,0,1,.45-1.41c2.64-3.19,4.66-6.2,1.79-10.6-1.51-2.32-.5-5.5-.12-8.29" transform="translate(0 0)"/><path id="Tracé_217" data-name="Tracé 217" class="cls-6" d="M559.42,305.52c-6.42,6.16-13.76,10.68-22.55,12.65-13.94,3.12-26.63.37-37.92-8.3A44.81,44.81,0,0,1,490.82,247l.26-.33c7.63-9.74,17.58-15.56,30-16.89a3.89,3.89,0,0,0,1.26-.66c15-.35,28.12,4.08,38.24,15.63a44.43,44.43,0,0,1,10.75,23.8c1.95,14.28-2.9,26.26-11.9,36.95" transform="translate(0 0)"/><path id="Tracé_218" data-name="Tracé 218" class="cls-7" d="M71.42,272.12c-12.6,0-25.21.08-37.81-.07-2.93,0-3.82.82-3.75,3.76.19,8.15.12,16.31,0,24.46,0,2.18.59,3.06,2.92,3q20.38-.12,40.77,0c2.49,0,3.18-.87,3.13-3.23-.14-5.56-.06-11.12,0-16.68,0-1-.26-2.42.95-2.48,1.64-.08,1.21,1.55,1.21,2.54,0,6.3,0,12.6,0,18.9,0,2.18-.83,3.14-3.06,3.13q-22.61-.06-45.22,0c-2,0-2.9-.87-2.9-2.9,0-10,.08-20,0-30,0-2.58,1.35-2.68,3.28-2.68,13.46,0,26.93,0,40.4,0a1.46,1.46,0,0,1,.22,2.06,1.29,1.29,0,0,1-.16.17" transform="translate(0 0)"/><path id="Tracé_219" data-name="Tracé 219" class="cls-6" d="M122,317.36h8.52c5.91,0,8.38,2.44,8.41,8.25,0,3.58,0,7.16,0,10.74a18.84,18.84,0,0,0,.66,4.36c.28,1.27,2,2.5,1,3.64s-2.92.06-4.11-.54a14.28,14.28,0,0,0-6.82-1.22q-8.9.07-17.79,0c-4.77,0-7.74-3-7.79-7.84q0-4.81,0-9.63c.05-4.58,3-7.53,7.58-7.76H122" transform="translate(0 0)"/><path id="Tracé_220" data-name="Tracé 220" class="cls-8" d="M71.42,272.12l-.06-2.23q2.82-6.67,8.39-5.06a6.29,6.29,0,0,1,4.34,6.84c-.49,4.72-5.27,6.64-10.4,4.18a2.24,2.24,0,0,1-1.42-1.54l-.85-2.19" transform="translate(0 0)"/><path id="Tracé_221" data-name="Tracé 221" class="cls-9" d="M113.29,114.35c1,0,1,.82,1.2,1.54a11.54,11.54,0,0,0,8.68,8.66c.73.2,1.58.23,1.49,1.23s-1,.9-1.68,1c-4.79.84-7.62,3.68-8.51,8.44-.13.71,0,1.63-1,1.73-1.29.13-1.1-1-1.33-1.78-1.31-4.43-3.84-7.62-8.68-8.41-.61-.1-1.28-.1-1.43-.88-.2-1,.58-1.23,1.3-1.41,4.87-1.25,7.94-4.22,9-9.2a1.11,1.11,0,0,1,1-1" transform="translate(0 0)"/><path id="Tracé_222" data-name="Tracé 222" class="cls-10" d="M72.27,274.31l1.42,1.54c-6,5.12-12,10.19-17.84,15.42-1.42,1.26-2.36,1.27-3.72.15-5.76-4.79-11.56-9.53-17.35-14.28-.5-.41-1-.82-.43-1.48s1.41-.36,2,.09c2.4,1.91,4.76,3.88,7.12,5.83,2.84,2.35,5.78,4.59,8.48,7.09,1.7,1.56,2.79,1.25,4.35-.18,5.27-4.8,10.66-9.46,16-14.18" transform="translate(0 0)"/><path id="Tracé_223" data-name="Tracé 223" class="cls-9" d="M349.55,6.17a6.68,6.68,0,1,1-13.32.94c0-.13,0-.27,0-.41,0-4.2,2.46-6.69,6.66-6.7s6.62,2.21,6.68,6.17" transform="translate(0 0)"/><path id="Tracé_224" data-name="Tracé 224" class="cls-11" d="M375.39,82.34c-1-.23-2.62.46-2.57-1.16s1.65-1,2.63-1,2.62-.14,2.57,1.23c-.06,1.58-1.73.66-2.63,1" transform="translate(0 0)"/><path id="Tracé_225" data-name="Tracé 225" class="cls-12" d="M182,37.48c-1.4-.93-3.13-1.31-3.59-3-.18-.66.57-1.1,1.23-.71,1.28.78,3.25.79,3.56,2.72.1.6-.6,1-1.2,1" transform="translate(0 0)"/><path id="Tracé_226" data-name="Tracé 226" class="cls-13" d="M390.32,96.86c.21-.85-.42-2.36,1-2.26s1.24,1.57,1.2,2.65.11,2.6-1.38,2.38-.57-1.81-.82-2.77" transform="translate(0 0)"/><path id="Tracé_227" data-name="Tracé 227" class="cls-14" d="M407.09,80.09c.9.13,2.34-.27,2.3,1.09,0,1.62-1.61,1.08-2.59,1.1s-2.28.32-2.1-1.2c.16-1.36,1.51-.82,2.4-1" transform="translate(0 0)"/><path id="Tracé_228" data-name="Tracé 228" class="cls-14" d="M183.26,50.46c-.62,1.68-2.36,1.86-3.69,2.57-.7.38-1.35-.14-1.18-.78.47-1.75,2.41-1.81,3.62-2.73.64-.49,1,.28,1.25.94" transform="translate(0 0)"/><path id="Tracé_229" data-name="Tracé 229" class="cls-15" d="M392.56,65.56c-.17.86.38,2.28-.95,2.38-1.76.15-1.19-1.46-1.24-2.42s-.31-2.27,1.07-2.27,1,1.38,1.12,2.31" transform="translate(0 0)"/><path id="Tracé_230" data-name="Tracé 230" class="cls-13" d="M210.56,44.51c-.86-.18-2.28.38-2.4-1-.14-1.77,1.47-1.19,2.43-1.24s2.28-.32,2.28,1.08-1.38,1-2.31,1.12" transform="translate(0 0)"/><path id="Tracé_231" data-name="Tracé 231" class="cls-7" d="M178.54,44.51c-.92-.13-2.36.26-2.29-1.12.09-1.6,1.65-1.06,2.64-1.08s2.29-.29,2.07,1.24c-.2,1.35-1.55.78-2.42,1" transform="translate(0 0)"/><path id="Tracé_232" data-name="Tracé 232" class="cls-16" d="M401.2,66.38c-1,1-1.12,2.77-2.6,3.51-.41.2-1.36-.24-1-1,.58-1.38.79-3.16,2.7-3.51.48-.09.91.23.93,1" transform="translate(0 0)"/><path id="Tracé_233" data-name="Tracé 233" class="cls-17" d="M406.25,71.45c1,0,1.15.58,1,1-.46,1.84-2.2,2.1-3.62,2.64-.68.25-1.2-.9-.94-1.13a38.34,38.34,0,0,1,3.52-2.54" transform="translate(0 0)"/><path id="Tracé_234" data-name="Tracé 234" class="cls-16" d="M397,92.94a7.66,7.66,0,0,1,1.17-.16c2.07.48,2.18,2.42,2.84,3.92.06.15-.77,1-.9.88-1.83-.91-1.8-2.93-3.11-4.64" transform="translate(0 0)"/><path id="Tracé_235" data-name="Tracé 235" class="cls-16" d="M209.33,33.82c.86-.07,1.48.44,1.22,1-.72,1.5-2.5,1.68-3.76,2.55-.06,0-.92-.64-.88-.9.35-1.92,2.28-1.85,3.42-2.64" transform="translate(0 0)"/><path id="Tracé_236" data-name="Tracé 236" class="cls-18" d="M188.24,30.55c.2.76,0,1.22-.58,1.21-2.1,0-2.14-2-2.87-3.24a.8.8,0,0,1,.22-1.11.82.82,0,0,1,.55-.13c1.75.4,1.58,2.48,2.68,3.27" transform="translate(0 0)"/><path id="Tracé_237" data-name="Tracé 237" class="cls-17" d="M404.14,87.57A4.8,4.8,0,0,1,407.26,90c.17.41-.21,1.11-.76.92-1.44-.5-3.14-.78-3.81-2.37-.2-.46.59-1,1.45-1" transform="translate(0 0)"/><path id="Tracé_238" data-name="Tracé 238" class="cls-16" d="M201.63,32.21c-.79-.25-1.15-.81-.9-1.41.59-1.37,1.12-2.91,2.69-3.47.33-.12.79.63.56,1.11-.66,1.34-.89,3-2.35,3.77" transform="translate(0 0)"/><path id="Tracé_239" data-name="Tracé 239" class="cls-16" d="M210.65,52c-.27.73-.71,1.23-1.38.86-1.2-.67-3-.69-3.24-2.5-.08-.55.63-.76,1.1-.57,1.3.53,2.81.79,3.53,2.21" transform="translate(0 0)"/><path id="Tracé_240" data-name="Tracé 240" class="cls-16" d="M201.61,55c1.61.46,1.77,2.1,2.35,3.36.3.66-.35,1.44-.88,1.26-1.42-.5-1.54-2.09-2.18-3.23-.34-.6-.25-1.19.71-1.39" transform="translate(0 0)"/><path id="Tracé_241" data-name="Tracé 241" class="cls-19" d="M188.31,56.15c-1.17.81-1,2.92-2.78,3.34-.4.09-1.05-.38-.81-1,.6-1.44,1.16-3,2.86-3.53.54-.16.81.39.73,1.14" transform="translate(0 0)"/><path id="Tracé_242" data-name="Tracé 242" class="cls-16" d="M379.7,74.07a1,1,0,0,1-1.1.79,1.11,1.11,0,0,1-.39-.16c-1.13-.62-2.83-.67-3.13-2.18-.15-.74.75-1.2,1.6-.71,1.1.64,2.63.76,3,2.26" transform="translate(0 0)"/><path id="Tracé_243" data-name="Tracé 243" class="cls-19" d="M379.67,88.71a7.28,7.28,0,0,1-3.5,2.25.8.8,0,0,1-.85-1.19,4.55,4.55,0,0,1,3.6-2.15c.6-.06.8.42.75,1.09" transform="translate(0 0)"/><path id="Tracé_244" data-name="Tracé 244" class="cls-20" d="M382.73,65.33c1.38.71,1.71,2.18,2.21,3.5.17.46-.31,1.22-.67,1a5.43,5.43,0,0,1-2.55-3.68c-.16-.57.42-.76,1-.85" transform="translate(0 0)"/><path id="Tracé_245" data-name="Tracé 245" class="cls-6" d="M194.76,24.79c.65,2.35.9,3.81.1,5.16-.21.36-1,.17-1.25-.31-1-1.67-.26-2.92,1.16-4.85" transform="translate(0 0)"/><path id="Tracé_246" data-name="Tracé 246" class="cls-20" d="M382.58,97.48c-.81-.27-1.23-1-.85-1.4.89-1,.95-2.92,2.74-3,.53,0,.76.67.53,1.11-.65,1.23-1.15,2.61-2.42,3.34" transform="translate(0 0)"/><path id="Tracé_247" data-name="Tracé 247" class="cls-21" d="M194.89,56.33c.51,2.18.72,3.84-.43,5.45-.63-1.69-1.23-3.37.43-5.45" transform="translate(0 0)"/><path id="Tracé_248" data-name="Tracé 248" class="cls-22" d="M388.76,469.32a148,148,0,0,1-20,0c0-20,.11-39.95,0-59.92,0-3.25.79-4.32,4.1-4.12,5.28.33,10.6.19,15.89.25q0,31.88,0,63.75" transform="translate(0 0)"/><path id="Tracé_249" data-name="Tracé 249" class="cls-23" d="M494.81,469.43a85.73,85.73,0,0,1-22.63,0c-5.56-2.9-10-6.79-10.58-13.5-.33-3.89-.07-7.84-.07-11.77,1.2-1.1,2.68-1.09,4.17-1.09h36.18c1.49,0,3,0,4.1,1.24-.27,4.51.5,9.07-.72,13.54-1.53,5.64-5.43,9.11-10.45,11.58" transform="translate(0 0)"/><path id="Tracé_250" data-name="Tracé 250" class="cls-23" d="M428.22,469.43c-5.86,1.27-11.79.33-17.68.53-2.08.06-1.77-1.64-1.78-2.95,0-7.65,0-15.3,0-22.95q0-19.24-.1-38.48c6-1.21,12-.41,18.05-.44,2.31,0,1.46,2.22,1.47,3.51q.07,29.46,0,58.93c0,.62,0,1.23,0,1.85" transform="translate(0 0)"/><path id="Tracé_251" data-name="Tracé 251" class="cls-6" d="M240.5,420.2c4.49-6,2.55-12.46,3-18.63.16-2.25-1-2.67-2.92-2.65-5.93.07-11.93.58-17.77-.15-4.75-.59-8.74,0-12.59,2.67a7.2,7.2,0,0,1-2.43.86c-1.79.43-4,1.11-5.22-.22-.87-1,1.08-2.43,1.76-3.68a12.3,12.3,0,0,0,1.38-6c0-9.75-.16-19.52,0-29.27.13-6.19,1.55-11.91,7.28-15.7a14.31,14.31,0,0,1,8.27-2.6c14.95,0,29.9,0,44.86,0a15.78,15.78,0,0,1,15.9,15.65v.34c0,7.16.07,14.33,0,21.5,0,2.2.38,3.15,3,3.44,7.09.8,9.7,4.11,9.7,11.38,0,3.71,0,7.41,0,11.12-.05,5.7-3.6,9.88-9.27,9.91-11.48.07-23,.56-34.42-.32a4.46,4.46,0,0,0-2.65.92,11.42,11.42,0,0,1-7.83,1.46" transform="translate(0 0)"/><path id="Tracé_252" data-name="Tracé 252" class="cls-24" d="M482.25,393.08c-2.48-3.8-5.15-7.5-7.38-11.45-2.54-4.49-1.18-9.56,3-12.75A9.87,9.87,0,0,1,492.06,382c-2.37,4-5,7.9-7.48,11.84-2.08-2.85-.6-6.1-1.12-8.86-.76,2.45.86,5.57-1.21,8.11" transform="translate(0 0)"/><path id="Tracé_253" data-name="Tracé 253" class="cls-4" d="M493.49,405.63a70.93,70.93,0,0,1,3.21-13.95c1.54-4.55,6.06-6.86,11-6.08a9.78,9.78,0,0,1,8,8.91c.31,4.94-2.49,9.13-7.15,10.31s-9.09,2.05-13.64,3.06c-.53-1.7.89-2.43,1.76-3.35,2.07-2.22,4.29-4.31,6.32-6.57-2.22,1.76-4.08,3.89-6.14,5.79-1,.88-1.71,2.22-3.36,1.88" transform="translate(0 0)"/><path id="Tracé_254" data-name="Tracé 254" class="cls-25" d="M484.61,434.5c5.75,0,11.5.31,17.22,0,3.51-.17,4.61,1.06,4.14,4.32a20.47,20.47,0,0,0,0,2.93c-1.21,1.39-2.85,1.27-4.45,1.28H466.07c-1.6,0-3.23.08-4.52-1.16-.24-7.28-.24-7.27,6.88-7.29,4.65,0,9.3-.07,13.95-.1a2.06,2.06,0,0,1,.86-.49,1.72,1.72,0,0,1,1.37.48" transform="translate(0 0)"/><path id="Tracé_255" data-name="Tracé 255" class="cls-24" d="M469.69,415.25c-3.47-.77-7-1.34-10.4-2.35a7.24,7.24,0,0,1-5.14-8,8.3,8.3,0,0,1,6.61-6.63,7.3,7.3,0,0,1,8,5.13c1,3.4,1.6,6.93,2.37,10.4-2.86.23-3.31-2.9-5.09-3.55.87,1.61,3.73,2.24,3.61,5" transform="translate(0 0)"/><path id="Tracé_256" data-name="Tracé 256" class="cls-6" d="M328.83,239.88c1.4,1.11.86,2.42.87,3.53.05,6.79.12,13.58,0,20.37-.16,8.91,2.55,16.47,8.91,23,9.78,10.06,9,28-1.18,37.39-.57.52-1,1.53-2.44.83,1.49-2.08,3-4.06,4.38-6.14a25.14,25.14,0,0,0-2.7-31.24c-5.5-5.84-8.85-12.55-8.52-20.92.31-7.76.06-15.55.08-23.33,0-1.13-.3-2.37.6-3.5" transform="translate(0 0)"/><path id="Tracé_257" data-name="Tracé 257" class="cls-26" d="M461.55,441.9l44.41-.12v2.53l-44.44-.15c0-.76,0-1.51,0-2.26" transform="translate(0 0)"/><path id="Tracé_258" data-name="Tracé 258" class="cls-27" d="M286.71,287c0-6.16,0-12.32,0-18.48,0-1-.54-2.63,1-2.73s1.16,1.58,1.16,2.56q.06,18.66,0,37.32c0,1,.52,2.65-1.17,2.54s-1-1.73-1-2.73c-.05-6.16,0-12.32,0-18.48" transform="translate(0 0)"/><path id="Tracé_259" data-name="Tracé 259" class="cls-28" d="M493.48,408.67l-8.79,9a1.88,1.88,0,0,1-.89-1.3c-.1,2.7.09,5.21-.12,7.72a1.92,1.92,0,0,1-.56,1l-.56.07-.39-.41.3-30.26a2,2,0,0,1,2,.06v20.2l8.23-7.52a1.79,1.79,0,0,1,.77,1.52" transform="translate(0 0)"/><path id="Tracé_260" data-name="Tracé 260" class="cls-6" d="M344.12,248.07a2.33,2.33,0,0,1,2.4-1.75c10.63-.86,15.46-14.93,9.17-22.29-.24-.28-.4-.63-.61-.93-.41-.58-1.14-1.26-.21-1.83.77-.47,1.23.32,1.76.87,4.94,5.17,4.92,15.17-.08,20.65-3.91,4.28-7.78,6-12.43,5.28" transform="translate(0 0)"/><path id="Tracé_261" data-name="Tracé 261" class="cls-19" d="M307.46,271.35c0-3.94,0-7.88,0-11.81,0-.84-.08-2,1.12-1.94s1.08,1.14,1.08,2q0,12,0,24c0,.73,0,1.63-.95,1.73-1.28.13-1.23-.94-1.24-1.77,0-4.06,0-8.12,0-12.18" transform="translate(0 0)"/><path id="Tracé_262" data-name="Tracé 262" class="cls-29" d="M493.48,408.67a1.57,1.57,0,0,1-.77-1.51l.78-1.53c2.81-2.7,5.6-5.43,8.45-8.1.71-.66,1.46-2.19,2.63-.92,1,1.08-.52,1.65-1.09,2.26-2.81,3-5.7,6-8.57,9l-1.43.8" transform="translate(0 0)"/><path id="Tracé_263" data-name="Tracé 263" class="cls-13" d="M189.24,301.75a3.08,3.08,0,0,1-.55.92c-.47.37-.94.1-1.28-.27a17.76,17.76,0,0,0-11.55-5.82c-.52-.06-1-.28-1-.85a1.09,1.09,0,0,1,1.09-1.09h.14c4.89.58,9.28,2.25,12.57,6.13a5.87,5.87,0,0,1,.57,1" transform="translate(0 0)"/><path id="Tracé_264" data-name="Tracé 264" class="cls-30" d="M484.48,394.48a1.38,1.38,0,0,1-2,0l0-.05-.22-1.34c0-3.19.05-6.37.09-9.56,0-.9.21-1.95,1.21-2,1.25,0,.95,1.2,1,2,.05,3.43.05,6.86.06,10.29a3.63,3.63,0,0,1-.09.65" transform="translate(0 0)"/><path id="Tracé_265" data-name="Tracé 265" class="cls-31" d="M482.14,427.28l-11.06-11.16a1.09,1.09,0,0,1,.95-.95l10.14,9.51a3.28,3.28,0,0,0,.2.31,1.5,1.5,0,0,1,0,2.13l-.19.16" transform="translate(0 0)"/><path id="Tracé_266" data-name="Tracé 266" class="cls-32" d="M472,415.17l-.95.95-1.39-.87c-1.5-2.48-4.32-3.87-6-7.24,3.74,1.18,4.95,4.37,7.5,5.77l.87,1.39" transform="translate(0 0)"/><path id="Tracé_267" data-name="Tracé 267" class="cls-33" d="M483,424.89c0-2.53,0-5.06,0-7.6,0-.6.08-1.62,1.12-1.27.31.1.33,1.05.5,1.61l-.25,8.74c-1.21.21-1.26-.68-1.41-1.48" transform="translate(0 0)"/><path id="Tracé_268" data-name="Tracé 268" class="cls-11" d="M307.36,296.53c.38-1.29-.57-3.16,1.11-3.26,1.84-.12,1.09,1.77,1.16,2.82s.38,3-1.1,3.06c-2,.1-.41-2-1.17-2.62" transform="translate(0 0)"/><path id="Tracé_269" data-name="Tracé 269" class="cls-34" d="M483,424.89l1.4,1.49q.09,4,.17,8.12h-1.56a26.26,26.26,0,0,1,0-9.6" transform="translate(0 0)"/><path id="Tracé_270" data-name="Tracé 270" class="cls-20" d="M183.85,292.43c1.49.84,3.52,1.1,4.3,3,.24.56-.62,1.29-1.13.94-1.43-1-3.51-1.19-4.18-3.12-.17-.51.38-.8,1-.8" transform="translate(0 0)"/><path id="Tracé_271" data-name="Tracé 271" class="cls-33" d="M483,424.89v9.6l-.34,0-.33,0-.24-7.23c.08-.76.15-1.53.23-2.29a3.74,3.74,0,0,1,.67-.1" transform="translate(0 0)"/><path id="Tracé_272" data-name="Tracé 272" class="cls-35" d="M171.41,387.78q0,5.61,0,11.21c-1,.5-2,.84-2-.82-.05-3.2-.06-6.4,0-9.6,0-1.67,1.06-1.26,2-.79" transform="translate(0 0)"/><path id="Tracé_273" data-name="Tracé 273" class="cls-36" d="M173.87,403.47a71.12,71.12,0,0,0-1.71,11.8c-1.3,0-2.26-.4-2-1.9.47-3,1-6,1.59-9,.23-1.13,1.31-.87,2.15-.87" transform="translate(0 0)"/><path id="Tracé_274" data-name="Tracé 274" class="cls-37" d="M170.77,371.54l1.59,8.83c-.45,1.8-1.53,1.75-2,.26a87.49,87.49,0,0,1-1.76-8.9c-.1-.57,0-1.41.78-1.3.49.06.9.72,1.35,1.11" transform="translate(0 0)"/><path id="Tracé_275" data-name="Tracé 275" class="cls-38" d="M395.43,424.76c0-3.57.1-7.14,0-10.69-.1-2.43,1.33-2.52,3.07-2.43s3.64-.44,3.64,2.32c0,7.38,0,14.75,0,22.12,0,3-2.15,2-3.67,2.13-1.72.17-3.15.05-3.06-2.39.15-3.68,0-7.37,0-11.06" transform="translate(0 0)"/><path id="Tracé_276" data-name="Tracé 276" class="cls-39" d="M402.24,453.35c-.05,2.83-1.14,4.12-3.56,4.18s-3.84-.89-3.85-3.34,1.27-4.05,3.75-4c2.1.06,3.79,1.06,3.66,3.14" transform="translate(0 0)"/><path id="Tracé_277" data-name="Tracé 277" class="cls-40" d="M177,310.64c-1,1.8.87,5-2.09,4.95-3.24,0-1.51-3.18-1.81-4.93-.27-1.58-1.07-4,2.23-3.62,2.92.35.59,2.66,1.67,3.6" transform="translate(0 0)"/><path id="Tracé_278" data-name="Tracé 278" class="cls-41" d="M174.76,317.16c1.07.11,2,.48,1.94,1.73s-1,1.58-2,1.56S173,320,173,319c-.06-1.25.7-1.71,1.8-1.81" transform="translate(0 0)"/><path id="Tracé_279" data-name="Tracé 279" class="cls-42" d="M560.18,301.07c-14,18.26-39.56,21.21-57.6,9-23.2-15.7-25.64-49.08-4.8-67.77a41.19,41.19,0,0,1,28.27-10.95c1.13,1.85,4.32,1.86,4.23,4.79-4.25,1.37-8.73.61-13.12,1.63-14.92,3.47-28.51,19.9-28.14,36.1.33,14.15,6.25,24.63,17.59,32.29,13.79,9.31,33.74,7.26,45.84-4.3,1.68-1.6,2.93-3.69,5.13-4.72,2,.57,2,2.42,2.59,3.93" transform="translate(0 0)"/><path id="Tracé_280" data-name="Tracé 280" class="cls-43" d="M530.51,235.68c-1.87-1-4.15-1.67-4.46-4.32,24.92-.85,46,21.38,43.64,47-.77,8.4-3.62,16.27-9.51,22.7-2.3-.3-1.13-2.69-2.24-3.71-.62-1.52.43-2.58,1.07-3.72,13.1-23.25,1.15-50.16-25-56.21-1.3-.3-2.7-.45-3.52-1.75" transform="translate(0 0)"/><path id="Tracé_281" data-name="Tracé 281" class="cls-44" d="M137.21,332.35v8.84c-2.65-1.13-5.33-.14-8-.11-5.19,0-10.38.05-15.56,0-5.45-.07-7.94-2.53-8.06-7.89,0-2.34-.1-4.7,0-7,.22-4.59,2.61-7.11,7.18-7.23q8.7-.24,17.41,0c4.77.13,7.18,2.77,7.24,7.5,0,2,0,3.95,0,5.93h-.24" transform="translate(0 0)"/><path id="Tracé_282" data-name="Tracé 282" class="cls-45" d="M119.44,125.56a17,17,0,0,0-6.09,6.29,30.28,30.28,0,0,0-6-6.31c1.9-1.55,3.93-2.77,5.06-4.9.54-1,1.31-1.16,1.9-.06,1.13,2.14,3.11,3.4,5.15,5" transform="translate(0 0)"/><path id="Tracé_283" data-name="Tracé 283" class="cls-43" d="M347.34,6.3c.17,3.15-1.79,4.65-4.44,4.68-2.44,0-4.45-1.26-4.48-4.25s2-5.41,4.49-5.14,4.62,1.6,4.43,4.71" transform="translate(0 0)"/><path id="Tracé_284" data-name="Tracé 284" class="cls-46" d="M375.52,424.77c0-3.57.12-7.14,0-10.71-.11-2.5,1.39-2.49,3.08-2.36s3.64-.76,3.6,2.2q-.12,11.07,0,22.16c0,3-2.12,2-3.62,2.14-1.7.17-3.17.13-3.06-2.35.16-3.69,0-7.39,0-11.08" transform="translate(0 0)"/><path id="Tracé_285" data-name="Tracé 285" class="cls-47" d="M382.73,453.85c-.63,2-1.52,3.79-4,3.67-2.25-.12-3.89-1.47-3.75-3.67a3.7,3.7,0,0,1,3.67-3.73h.15c2.44,0,3.3,1.74,3.9,3.72" transform="translate(0 0)"/><path id="Tracé_286" data-name="Tracé 286" class="cls-48" d="M415,425.27c0-3.45.13-6.91-.05-10.36-.14-2.71,1.07-3.3,3.52-3.31s3.25.65,3.19,3.13c-.15,6.78-.17,13.57,0,20.34.08,2.76-1,3.18-3.45,3.24-2.68.06-3.41-.91-3.27-3.43.19-3.19.05-6.41.05-9.61" transform="translate(0 0)"/><path id="Tracé_287" data-name="Tracé 287" class="cls-49" d="M414.79,453.84c.37-2.35,1.64-3.89,3.93-3.61a3.55,3.55,0,0,1,3.42,3.68c0,.13,0,.25,0,.37-.27,2.28-1.91,3.35-4.19,3.21s-3.11-1.64-3.12-3.65" transform="translate(0 0)"/><path id="Tracé_288" data-name="Tracé 288" class="cls-3" d="M279.86,370.93c0,3.71-.16,7.43.05,11.12.14,2.73-.7,3.69-3.53,3.62-6.92-.19-13.84-.07-20.76-.06-7.61,0-10.38,2.09-12.11,9.44-.48,2.05-1.84,1.65-3.11,1.66-6.3,0-12.74.8-18.86-.24-4.88-.83-8.26.66-11.87,3.06-.9.6-2.17,1.4-3.08.68s0-2,.33-3a17.93,17.93,0,0,0,1-6.53c-.05-9.51,0-19,0-28.54,0-9.83,6.07-15.84,16-15.85,13.35,0,26.7.21,40-.07,9.11-.18,17,6.71,16,16.18-.28,2.82,0,5.68,0,8.52" transform="translate(0 0)"/><path id="Tracé_289" data-name="Tracé 289" class="cls-50" d="M244.66,417.78a82.52,82.52,0,0,0,.24-14.66c-.18-3.58,1.14-4.39,4.43-4.24,5.3.24,10.62,0,15.94.08,6.27.09,10.83-3,14.32-7.81,3.25-4.5,9.93-4.57,12,.51a27.77,27.77,0,0,1,0,20.54,5.87,5.87,0,0,1-5.88,3.79c-11.85-.21-23.71.57-35.54-.42-2.42-.2-3.11,2.92-5.57,2.21" transform="translate(0 0)"/><path id="Tracé_290" data-name="Tracé 290" class="cls-50" d="M265,387.82c3.95,0,7.9.05,11.85,0,2.06,0,2.1.86,1.11,2.16-3,4-6.57,6.9-12,6.79-6-.13-12.08-.08-18.13,0-2.32,0-3.14-.51-2.26-3,1.34-3.76,3.81-5.84,7.94-5.92,3.83-.07,7.65,0,11.47,0" transform="translate(0 0)"/><path id="Tracé_291" data-name="Tracé 291" class="cls-51" d="M530.51,235.68c16,2.67,27.45,11,32.82,26.6,4.32,12.54,1.73,24.21-5.39,35.09-8.77,10.68-19.91,16.11-33.88,15.6-18.45-.68-34.88-17.54-36-35.93a39.09,39.09,0,0,1,32.85-41c3.13-.51,6.4-.25,9.6-.35" transform="translate(0 0)"/><path id="Tracé_292" data-name="Tracé 292" class="cls-7" d="M243.64,358.16c-7,0-14,0-21.06,0-1,0-2.59.54-2.5-1.21.06-1.36,1.5-1,2.4-1q21.06,0,42.12,0c1.14,0,2.95-.36,2.87,1.34-.06,1.46-1.8.82-2.77.83-7,.06-14,0-21.06,0" transform="translate(0 0)"/><path id="Tracé_293" data-name="Tracé 293" class="cls-6" d="M240.77,369.28c-5.44,0-10.88.08-16.31,0-1.44,0-4.13.9-4.08-.88.06-2.17,2.8-1.22,4.36-1.23,10.14-.09,20.27-.05,30.4-.05h4.08c1,0,2.35,0,2.39,1.19.05,1.47-1.44,1-2.3,1-6.18,0-12.36,0-18.54,0" transform="translate(0 0)"/><path id="Tracé_294" data-name="Tracé 294" class="cls-11" d="M261.52,379.33c-2.9,1.35-38.23,1.37-41.23,0Z" transform="translate(0 0)"/><path id="Tracé_295" data-name="Tracé 295" class="cls-10" d="M233.49,375.2c-3.56,0-7.13,0-10.69,0-1.08,0-2.6.13-2.57-1.32s1.53-.85,2.4-.85q10.89-.07,21.76,0c1,0,2.65-.53,2.53,1.16-.1,1.53-1.73,1-2.73,1-3.57.07-7.13,0-10.7,0" transform="translate(0 0)"/><path id="Tracé_296" data-name="Tracé 296" class="cls-52" d="M254.86,363.12h-22v-.75h21.95c0,.25,0,.5,0,.75" transform="translate(0 0)"/><path id="Tracé_297" data-name="Tracé 297" class="cls-10" d="M260.48,373c1.84,0,3.67,0,5.5,0,.72,0,1.63,0,1.6,1a1.27,1.27,0,0,1-1.3,1.1c-4.15,0-8.31,0-12.46,0-.67,0-1.23-.36-1.2-1.09s.61-1,1.26-1c2.2,0,4.4,0,6.6,0v0" transform="translate(0 0)"/><path id="Tracé_298" data-name="Tracé 298" class="cls-19" d="M226.59,384.13c1.59,0,3.17,0,4.76,0,.76,0,1.55.16,1.54,1.13,0,.73-.62,1-1.27,1q-5.13,0-10.26,0c-.64,0-1.27-.2-1.34-.95-.09-1,.68-1.19,1.44-1.2,1.71,0,3.42,0,5.13,0" transform="translate(0 0)"/><path id="Tracé_299" data-name="Tracé 299" class="cls-53" d="M228.14,362.61c-2.6,1.11-5.21.65-7.85.15a10.41,10.41,0,0,1,7.85-.15" transform="translate(0 0)"/><path id="Tracé_300" data-name="Tracé 300" class="cls-44" d="M527,304.09a2.56,2.56,0,0,0-1.22,2.85c.32,4.24-2.32,4.19-5.19,3.67a44.88,44.88,0,0,1-5.71-1.52c-5.37-1.74-5.36-1.77-3.1-7,.27-.62.92-1.3,0-1.9s-1.22.27-1.63.83c-3.26,4.4-3.24,4.38-7.49,1a24.46,24.46,0,0,1-3.86-3.95c-3.19-4-3.23-4,.83-7,.67-.51,1.79-.93,1-1.94s-1.52.08-2.2.44c-4.49,2.33-4.55,2.33-6.3-2.53a66.59,66.59,0,0,1-2-8.62c-.54-2.44-.09-3.49,2.57-3.31,1.31.09,2.71.38,4.18-.5-1.29-1.8-3.12-.9-4.61-1s-2.72-.34-2.33-2.3a63.81,63.81,0,0,1,2.77-11.09c1.1-2.81,2.38-3.33,4.89-1.6.81.57,2.09,2.35,3.05.86s-1-2-2-2.44c-3.05-1.23-3.14-2.67-1.07-5.09a57.26,57.26,0,0,1,7.1-7c2-1.66,3.34-1.7,4.4.85a18.38,18.38,0,0,0,1.11,1.92c.37.67.72,1.32,1.67.73s.29-1.07.08-1.58c-.69-1.65-3-3.24-2.06-4.79,1.1-1.8,3.8-2,5.9-2.72a32.9,32.9,0,0,1,4.26-1.22c4.62-.84,5.14-.39,5.51,4.22.08.89-.32,2.28,1.23,2.14,1.22-.1.79-1.33.84-2.11.36-4.73.75-5.13,5.46-4.25a44.4,44.4,0,0,1,8.79,2.76c1.83.75,2.35,1.58,1.2,3.25a6.81,6.81,0,0,0-1,1.55c-.32.92-1.87,1.95-.36,2.81,1.28.73,1.39-1,2-1.62a7.67,7.67,0,0,0,1.14-1.9c.77-1.73,1.65-1.67,3.09-.61a52,52,0,0,1,8.46,8.25c1.67,1.95,1.36,3.16-1,4.07A18.63,18.63,0,0,0,553,258c-.61.34-1,.8-.57,1.47s1,.49,1.6.18l.67-.33c4.68-2.18,4.89-2.11,6.59,2.88a43.4,43.4,0,0,1,1.19,4.65c1.39,6.12,1.38,6.12-4.67,6.77-.46.05-1,.09-1.14.8.41,1,1.37.7,2.14.73,4.63.18,4.89.37,4.11,4.82a39.55,39.55,0,0,1-2.54,8.86c-1,2.28-1.92,3.24-4.3,1.49-.92-.67-2.58-2.45-3.38-1.08-1,1.76,1.45,2.14,2.54,2.73,2.06,1.11,2.76,1.94,1,4.09a56.24,56.24,0,0,1-8.1,8.08c-1.62,1.27-2.69,1.45-3.58-.68a16.67,16.67,0,0,0-1.51-2.54c-.31-.49-.61-1.2-1.38-.79s-.62,1.13-.23,1.87c.8,1.49,2.75,3.13,2,4.5-1,1.74-3.48,2.13-5.47,2.78-1.05.35-2.14.55-3.22.82-6.53,1.59-6.57,1.55-7.26-4.85a4.32,4.32,0,0,0-.53-1.13" transform="translate(0 0)"/><path id="Tracé_301" data-name="Tracé 301" class="cls-54" d="M544.26,275.1c-5.81,0-11.62,0-17.44,0-1.38,0-1.36-1.2-1.36-2.2q0-9.63,0-19.25c0-.83-.18-2,1-2.06,1.57-.07,1.12,1.35,1.12,2.21.05,5.55.14,11.11,0,16.66-.07,2.45.72,3.23,3.15,3.14,4.52-.17,9-.05,13.56-.05v1.57" transform="translate(0 0)"/><path id="Tracé_302" data-name="Tracé 302" class="cls-21" d="M188.63,415.47c-1.39-2.51-4.15-1.33-6.13-2.25-1-.23-1.88-.64-1.62-1.9.48-2.35.59-4.77,1.3-7.08.28-.9.9-1,1.65-1,1.61,0,3.31,1.06,4.8-.43v-4.34c-2-1.76-4.53-.72-6.76-1.28-.68-.18-1.63-.07-1.75-1a30.91,30.91,0,0,1,0-8c.11-.94,1-.84,1.72-1.05,2.23-.58,4.76.45,6.79-1.27q0-3.3.05-6.6c-2.09-1.3-4.37.71-6.48-.37-1.71-1.19-3.25-6.56-2.28-8.16.16-.24.68-.24,1-.42,1.49-1.19,3.33-1.4,5.08-1.91.73-.21,1.77-.1,2.29-.7a1.87,1.87,0,0,0,.34-1.12c.16-1.6-.2-2.28-.36-4.44-.05-.6-.05-1-.16-1.7a5.57,5.57,0,0,0-.4-1.75c-.61-1.11-2.46-1.23-3.11-1.27-5.95-.31-97.8.56-111,.59-3.11,0-8.13,0-14.39-.33a3.47,3.47,0,0,1-.9.21,2.65,2.65,0,0,1-1.22.71,2.83,2.83,0,0,1-.4.65,2.85,2.85,0,0,0,0,.92c-.36,5.25-.44,9.54-.45,12.53,0,4.8.16,8.57.14,17.57,0,.73,0,1.44,0,2.28-.08,8.69-.45,12-.45,19,0,0-.08,4.11-.33,8.14h0c-.53,8.51-.23,13.2,0,22.61.07,2.78,1.71,3.91,4.32,4a91.76,91.76,0,0,0,11.49.07c.33,0-.15,0,9.57,0,7.54,0,8.22.15,13,.05,2.73-.06,4.92-.17,6.24-.25a15.35,15.35,0,0,0,2.43-.88c5.87-2.9,1.14-44.43,1.14-44.43-.08-.71-.26-2.42.77-3.43.6-.59,1.68-.7,3.68-.72,6.17-.05,12.35,0,18.52,0,4.7,0,5,0,5.27,4.58.78,11.7,1.32,23.4,1.34,35.12,0,3.06-.19,6.21,1.9,8.84,16.62,0,33.23-.06,49.84,0,2.7,0,3.65-.68,3.6-3.5-.16-8.73-.06-17.47,0-26.21" transform="translate(0 0)"/><path id="Tracé_303" data-name="Tracé 303" class="cls-55" d="M166.77,468.13c-.37,0-.74,0-1.11,0-1.54.1-2.42-.55-2.21-2.14.37-2.88-1.23-3.17-3.55-3.13-6.91.1-13.83-.06-20.75.08-2.33.05-3.32-.71-3.58-3-.57-4.92-.23-9.86-.32-14.79a40.17,40.17,0,0,1-.7-6.19c.41-10.72-1-21.38-.86-32.09,0-3.17-.5-6.35-.67-9.53-.1-1.74-1.17-1.9-2.51-1.9-8.51,0-17,0-25.52,0-1.74,0-2.49.69-2.38,2.41.34,5.67-.72,11.29-.69,16.93.07,12.8-1.34,25.56-.82,38.37a2.69,2.69,0,0,1-.68,2.39c0,3.07-.16,6.15,0,9.22.08,2.55-1,3.45-3.49,3.42h-.13a.56.56,0,0,0,0,.12,5.35,5.35,0,0,1,.11.55h72.93c0-.23,0-.47.06-.7h-3.12" transform="translate(0 0)"/><path id="Tracé_304" data-name="Tracé 304" class="cls-56" d="M179.85,386.5c2.43-1.29,5.07-.26,7.58-.71,6.61.3,6.61.3,6.61,5.95,0,6.41,0,6.41-6.61,6.7-2.51-.47-5.17.57-7.6-.73a14.94,14.94,0,0,1,0-11.21" transform="translate(0 0)"/><path id="Tracé_305" data-name="Tracé 305" class="cls-57" d="M182.16,402.19l5.12.59c.71.2,1.41.46,2.13.61,2.18.47,5.8-.5,6.18,1.82.53,3.22-.65,6.77-1.36,10.13-.24,1.17-1.64.9-2.57.65a12,12,0,0,0-4.38-.52L180.44,414a13.75,13.75,0,0,1,1.72-11.8" transform="translate(0 0)"/><path id="Tracé_306" data-name="Tracé 306" class="cls-58" d="M179.19,370.26a2.36,2.36,0,0,1,.49-1.34,3.85,3.85,0,0,1,2.58-1c1.5-.24,6-1,7.37-1.37a2.26,2.26,0,0,0,.68-.17c1.92-.77,2.37.34,2.7,1.76.2.82.27,1.67.43,2.51,1.38,7.2,1.38,7.2-6,8.57-2.22-.15-4.49,2.58-6.68-.1-1.85-2.7-2.82-5.57-1.59-8.83" transform="translate(0 0)"/><path id="Tracé_307" data-name="Tracé 307" class="cls-11" d="M117.91,415.45c4.51,0,8.47,3.43,8.23,7.68s-3.22,8.18-8,7.95c-4.53-.22-8.1-3.49-8.1-7.85,0-4.69,3.16-7.8,7.89-7.78" transform="translate(0 0)"/><path id="Tracé_308" data-name="Tracé 308" class="cls-55" d="M68.69,468.13c.37,0,.74,0,1.11,0,1.54.1,2.42-.55,2.21-2.14-.37-2.88,1.23-3.17,3.54-3.13,6.92.1,13.84-.06,20.76.08,2.33.05,3.32-.71,3.58-3,.57-4.92.23-9.86.32-14.79a40.17,40.17,0,0,0,.7-6.19c-.41-10.72,1-21.38.86-32.09,0-3.17.5-6.35.67-9.53.1-1.74,1.17-1.9,2.51-1.9,8.5,0,17,0,25.52,0,1.74,0,2.48.69,2.38,2.41-.34,5.67.72,11.29.69,16.93-.07,12.8,1.34,25.56.82,38.37a2.69,2.69,0,0,0,.68,2.39c0,3.07.16,6.15.05,9.22-.08,2.55.94,3.45,3.49,3.42h.13l0,.12a5.35,5.35,0,0,0-.11.55H65.63c0-.23,0-.47-.06-.7h3.12" transform="translate(0 0)"/><path id="Tracé_309" data-name="Tracé 309" class="cls-11" d="M117.55,415.45c-4.52,0-8.47,3.43-8.23,7.68s3.22,8.18,8,7.95c4.53-.22,8.1-3.49,8.1-7.85,0-4.69-3.16-7.8-7.89-7.78" transform="translate(0 0)"/></g></g></g></g></g></svg>