<svg xmlns="http://www.w3.org/2000/svg" viewBox="0 0 69 68"><defs><style>.cls-1{fill:#fff;}.cls-2{fill:#594d6c;}</style></defs><g id="Calque_2" data-name="Calque 2"><g id="Calque_1-2" data-name="Calque 1"><path class="cls-1" d="M61.33,68H7.67A7.61,7.61,0,0,1,0,60.44V7.56A7.61,7.61,0,0,1,7.67,0H61.33A7.61,7.61,0,0,1,69,7.56V60.44A7.61,7.61,0,0,1,61.33,68ZM23,15.11H15.33V41.56H23Zm15.33,0H30.67V52.89h7.66Zm15.34,0H46V30.22h7.67Z"/><rect class="cls-2" x="15.33" y="15.11" width="7.67" height="26.44"/><rect class="cls-2" x="30.67" y="15.11" width="7.67" height="37.78"/><rect class="cls-2" x="46" y="15.11" width="7.67" height="15.06"/></g></g></svg>