<svg xmlns="http://www.w3.org/2000/svg" viewBox="0 0 30.36 25.97"><defs><style>.cls-1{fill:#fff;}</style></defs><g id="Calque_2" data-name="Calque 2"><g id="Calque_1-2" data-name="Calque 1"><path id="Tracé_205" data-name="Tracé 205" class="cls-1" d="M1.29,1.32A18.88,18.88,0,0,0,14.52,7.94c.05-.73.07-1.37.14-2,.48-4.37,5.07-7.28,9-5.29,2.15,1.11,3.93,1.54,6.28.51L28,3.91l2.38-.41c0,.18,0,.35,0,.4C28,5.55,27.76,8,27.37,10.63,25.48,22.94,11.18,29.8.3,23.71L0,23.56l8.34-2.48,0-.67C5.83,19.76,3.72,18.68,2.74,16l2.31-.28C2.42,14.3.55,12.62.38,9.48l2.56.39C.57,7.32-.42,4.67,1.29,1.32"/></g></g></svg>