<svg xmlns="http://www.w3.org/2000/svg" viewBox="0 0 130.85 130.96"><defs><style>.cls-1{fill:#fff;}.cls-2{fill:#473f57;}.cls-3{fill:#b7a5db;}</style></defs><g id="Calque_2" data-name="Calque 2"><g id="Calque_1-2" data-name="Calque 1"><polygon class="cls-1" points="78.8 80.13 102.5 80.13 102.5 93.24 129.02 66.72 102.5 40.21 102.5 52.77 79.35 52.77 79.35 29.62 91.91 29.62 65.4 3.1 38.88 29.62 51.45 29.62 51.45 52.77 28.29 52.77 28.29 40.21 1.78 66.72 27.83 92.78 27.83 79.76 51.45 79.76 51.45 103.38 38.43 103.38 65.4 130.34 91.91 103.83 78.8 103.83 78.8 80.13"/><path class="cls-2" d="M79.47,80.13c-.09-.31-.28-.14-.24.72l.33.61Z"/><path class="cls-2" d="M78.86,85.88c.16,1,.44,2.17.74,1.52-.32-1-.18-1.24-.56-2.31,0-.86.1-1.49.23-1.35A10,10,0,0,0,79.13,82a11,11,0,0,0,0,4C79,86.26,78.92,86,78.86,85.88Z"/><path class="cls-2" d="M55.06,119.35l.35.41A5.19,5.19,0,0,0,55.06,119.35Z"/><path class="cls-2" d="M52.09,87.63a1.4,1.4,0,0,0,.07.58C52.14,87.84,52.12,87.54,52.09,87.63Z"/><path class="cls-2" d="M50.86,78.75l.84,0A4.9,4.9,0,0,0,50.86,78.75Z"/><path class="cls-2" d="M55.06,119.35l-.91-1C54,118.3,54.6,118.85,55.06,119.35Z"/><path class="cls-2" d="M79.65,97.42a5.38,5.38,0,0,0-.08-.76l0,.71A.08.08,0,0,1,79.65,97.42Z"/><path class="cls-2" d="M70.36,124.34l.3-.3a2.52,2.52,0,0,0,.15-.34Z"/><path class="cls-2" d="M82.72,111.91c-.28.27-.18.56-.2.76a2.1,2.1,0,0,1,.47-.75S82.88,111.87,82.72,111.91Z"/><path class="cls-2" d="M78.51,101.35l0-.5Z"/><path class="cls-2" d="M62.57,126.4a.34.34,0,0,0,0-.19S62.52,126.3,62.57,126.4Z"/><path class="cls-2" d="M99.12,81.45s0,0,0,0S99,81.45,99.12,81.45Z"/><path class="cls-2" d="M78.8,80.06l.28,0a.33.33,0,0,0,.07-.16Z"/><path class="cls-2" d="M34.28,78.39h.07C34.77,78.37,34.53,78.37,34.28,78.39Z"/><path class="cls-2" d="M52.61,33.67c-.25,1.68-.32-2.74-.6-.21C52.12,33.22,52.45,35.76,52.61,33.67Z"/><path class="cls-2" d="M79.62,97.87v.72C79.63,98.26,79.63,98,79.62,97.87Z"/><path class="cls-2" d="M52,33.46h0l0,.26Z"/><path class="cls-2" d="M16.06,79.31a1.7,1.7,0,0,0,.18.36S16.22,79.55,16.06,79.31Z"/><path class="cls-2" d="M27,82.83l0,.69A6.12,6.12,0,0,0,27,82.83Z"/><path class="cls-2" d="M5.58,69.39a5.09,5.09,0,0,0-.7-.73.77.77,0,0,0,.09.13A2.69,2.69,0,0,1,5.58,69.39Z"/><path class="cls-2" d="M9.73,59.9l-.24.16-.32.35Z"/><path class="cls-2" d="M124,73.45a3.18,3.18,0,0,1-.67.32C123.59,73.74,122.08,75.35,124,73.45Z"/><path class="cls-2" d="M79.5,97.42a.84.84,0,0,1,.12.45l0-.5S79.52,97.32,79.5,97.42Z"/><path class="cls-2" d="M3.58,70.52,1.9,68.78C2.4,69.32,3,69.91,3.58,70.52Z"/><path class="cls-2" d="M82.38,30.76l-.54,0A2.21,2.21,0,0,0,82.38,30.76Z"/><path class="cls-2" d="M4.67,61.83A9.9,9.9,0,0,0,5.76,61a1.66,1.66,0,0,0,.14-.25Z"/><path class="cls-2" d="M123.28,73.77h0Z"/><path class="cls-2" d="M112.64,85.35c1.61-1.6.5-1,.69-1.5,1.85-2,1.08-.69,1.87-1.21,1.13-1.27,1.81-2.43,2.71-3.31.11,0,.3-.18.15.07,1.06-1.47,3.75-3.77,5-5.5a.82.82,0,0,1,.25-.13c-.37.11-.54,0-.58-.13.71-.73,1.17-1.51,1.61-1.61a2.49,2.49,0,0,0-.57.81l.69-.83c.92-.44-1,1.11-.77,1.29,1.39-1.55,2.91-3.47,4.1-4.53.48,0-2.55,2.72-.83,1.43l-1.84,1.65c1.71-.95-1.09,1,.54.22,1.08-1,1.68-1.67,2.25-2.29l.89-1c.55-.57,1.24-1.27,2.08-2.1l-.88-.9c-.56-.43-.54-.31-.54-.22s0,.19-.5-.16l-.76-.69-.49-.48a8.19,8.19,0,0,1-.73-.79,8.71,8.71,0,0,1-.81-1.17,6.25,6.25,0,0,0-2-2.27,6.54,6.54,0,0,1-2.87-2.27l.85.31c-2.2-2.25-1.66-.88-3.81-3.39.52.31,1.84,1.66,1.54,1.29-1.3-1.72-1.23-.91-2.39-2.07v-.48c-2.4-2.33-5.18-4.77-7.85-7.35.21.08.74.45.2-.24-1.07-1-2.15-2.05-3.23-3.15l-5.23-5.35c0,1.59-.06,3.16-.09,4.7q0,1.14-.06,2.25l-.06,1.3.3,1.72c0,.4-.14.74-.19.31-.11,1.76.18.09.3.94s-.17,1.32-.26.68l.12,1.63c0,.39,0,.35,0,.5l.06.38-.4,0-.26,0-.57,0-2.29,0c-1.5,0-2.92,0-4-.14l.64-.08c-2.55-.12-2.88.6-5.24.33l.45-.06c-1.72,0-3.5,0-5.27,0H80.23l.07-2c0-.91.1-1.77.19-2.56-.43-.8.18-5.47-.41-5.83.3-3.15.4-2.25.6-6.69,0-1.19-.37-1.77-.43-3.24l.31,0A1.47,1.47,0,0,0,80.4,31c-.05-.14-.1-.3-.16-.5h0a2.08,2.08,0,0,1,.59.37l.08,0h.22l.69,0a5.53,5.53,0,0,1-.78-.08c-.13,0-.12-.05-.15-.07s0-.05,0-.07l.08,0h1.52c.59,0,1.18.06,1.71.1a6.55,6.55,0,0,1,1.86.3l1.27-.07.64,0,1.07,0,4.16-.13a11,11,0,0,1-2.48.24,9.54,9.54,0,0,1,2.77,0A5,5,0,0,0,95.3,31l-.88-.8c.27.37-.63-.37-.81-.46-.54-.67-1.75-1.94-3.15-3.36L89.05,25l-1.21-1.15.44.13c-2.63-2.7-5.7-5.55-8.69-8.54,1,1.14.5,1.15-.41.3l-.12-.58c-.71-.43.83,1-.51,0-1.09-1.14-.49-1,.23-.44l-1.44-1.28c0-.15.35.13.52.13-.7-.42-2.12-2.58-3.17-3.14v-.14c-3-3-4.43-4.28-6.88-6.7,0,0-.14,0-.25,0l-.18-.12L67,3.13c-.49-.43-1.09-1-1.62-1.42L65,2.25l-1.09,1L63,4.06,61.5,5.44c-1,.95-2.1,1.95-3.18,3-1.41,1.61-.27.61-.83,1.41-.3-.07-2.44,2.1-1.45.85-2.56,2.62-3.27,3.35-6.4,6.77.43-.28.86-.65.72-.38-.57.63-1.43,1.28-1.43,1.11l.13-.18a61.56,61.56,0,0,1-5.71,5.53l-1.5,1.34-.73.66-.35.32-.6.57c-1.63,1.58-3.21,3.16-4.34,4.4l1.54-.08-.45,0,3.85-.14,1.79-.07,1.16-.07c2,0-1.18.19.28.35,1.51-.14,2.82-.18,4-.19l1.75,0,.53,0v.65c0,.61,0,1.24.09,1.9-.76,2.95,0,10.48-.43,14.47l.17-.23a5.62,5.62,0,0,1-.14,2c.14-.11.16-1.12.26-.48,0,.84,0,1.69,0,2.56l-4.59,0-5.81-.13-5.82-.17-2.9-.07-1.28,0s0,0,0,0h-.08v-.07l0-.16a7.72,7.72,0,0,0-.27-.93,7.53,7.53,0,0,1-.11-3.32l.33,1.18c-.07-1.29-.12-2.48-.15-3.86q0-3.41,0-6.84L23,43.71c-1.46,1.46-2.88,2.93-4.22,4.42a3.2,3.2,0,0,1,.6-.85A17.36,17.36,0,0,0,15.91,51c-.72.7-.29,0-.79.41-1.07.87-2.22,2.65-2.9,3-.12.06.21-.33.38-.52-.55.72-3,2.92-2.16,2.52C8.63,58,7.24,59.77,5.76,61c-.68,1.11-3,2.83-3,3.42-.05-.11-.28,0-.62.27-.5.43-1.31,1.21-2.12,2l1.23,1.22c.41.39.91.88,1.06,1,.46.42.89.78,1.19,1-.46-.27.85,1,.29.75C5,72,6.2,73,6.15,72.64c1.9,2.66,4.9,4.28,5.69,6,3.85,3.51,7.37,6.8,10.75,10-.43.2-3.68-3.62-3.88-3.15,1.64,1.51,3,2.64,4.29,3.8l1,.88.52.48.76.74c1,1,2.08,2,3.31,3.3l.16.18c0-.47.07-.25.11.25l-1.27-1L29,95.48c-.05-3.36,0-7.19,0-8.53,0-1.89,0-3.72-.12-5.52a3.28,3.28,0,0,1,.12.84v-1a.25.25,0,0,0-.14-.25l.06.32c0,.09-.09.22-.13.18s-.09-.17-.13-.24a4.75,4.75,0,0,1-.25-1A9.91,9.91,0,0,0,29.51,80c-1.32.59,3.9.15,1.81.89.51,0,1.15-.14,1-.27.76,0,1,.12.23.27,2.79-.11,1.8-.33,4.32-.32,0,.1-.52.14-.78.25a21.84,21.84,0,0,1,4.7-.3c-.13.06.12.14-.52.14,1.83,0,3.39-.15,5-.25.8,0,1.62-.1,2.48-.12h2l.49,0c-.6.29,0,.25.26.31a.67.67,0,0,1-.19.44l0,.18a1.92,1.92,0,0,1,0,.3l.06,1.08.18-.87c0,1.9.26,3.57.14,5.2l-.15-1.41.07,3.55.14-2c.19,1.91.47-.21.37,2.31,0-.51,0,1.9-.23,2.88h0a15,15,0,0,1,.15,3.3c-.12.36-.41-.3-.49-.06.31.92.09,4.43.42,5.6-.08-.39-.27-.41-.31-.28l.25.78c-.08.73-.12.69-.28.56a2.21,2.21,0,0,0,0,.55c-.15,0,.11.15.22.22s0,0,0,0-.19.07-1,0c.18,0,.09,0,.42-.09l-.4,0H48.38l-2.26,0-2.21,0H42.82l-1.26,0c-.31-.09-.28-.14,0-.18l.49,0h.55c.61,0,1.21,0,.72-.19l-3.14.07-3.43.11,4.13,3.89c.95.9,1.88,1.8,2.74,2.7l-.5-.56c.77,0,1.93,2.31,3.55,3.57-.38-.32-.67-.25-.53-.2,1.89,2,4.08,3.9,7.16,6.74l-.47-.27c1.07,1.24,3,3.08,4.18,4.37.47.27,1.16,1,.87.42a32.76,32.76,0,0,0,3.55,3.92l4,3.71a32,32,0,0,1,3.86-3.61c-.41.41-.89,1.05-.56.73l2.8-3c-.39.06-.48.28-1.21.76A12.92,12.92,0,0,1,72,123.79c-1.2,1.41.27.25.93-.22-.15,0,0-.21-.11-.21,1.8-1.22-.08-.58,2.19-2.45l0,.19c.73-.81,1.33-1.64,2.19-2.45.53-.16-.74.91-.63,1.12,1.16-1.18,2-2.67,3.2-3.54-.45.55-1.16,1.27-1.61,1.82a14.38,14.38,0,0,0,2.35-2l-.09.08,2.08-1.88-.56.44c1-1.95,2.89-3.07,4.54-5.36-1.61,2.22-.14.49-.07.85.56-.44,1.39-1.14,1.23-.87A7.59,7.59,0,0,1,88.9,108a9,9,0,0,0,.72-.69l.51-.58c.2-.23.4-.47.59-.72.2-.07,1.47-1.46,1.56-1.2.91-1,.69-.81.28-.47a6,6,0,0,1-1,.8,23.92,23.92,0,0,1,1.83-2c-1.53,0-3.18-.11-5.18-.16a29.1,29.1,0,0,0-4.27.13c-1.25.07-2.11.16-2.87.26l-.55.07-.48.07c-.32,0-.68.1-1.12.14-.05-.42-.1-1-.14-1.72.08-.51.17-.3.24,0s.11.68.11.68l0-.49,0-.56c0-.38,0-.74,0-1.09,0-.72,0-1.42-.09-2.2.09.32.16,0,.27-.49,0-1.25-.36-.83-.21-2.49a6.72,6.72,0,0,1,.39,1.25c-.09-1.47-.27-2.93-.36-4.46.17-.4.26.92.37,1.46a27.83,27.83,0,0,0-.43-5l-.09,1.1c0-.62.23-.32.28.14.21,1.48-.1,2.13-.19,2.21L79.08,91c-.57,1.12.1,4.37.06,6.56l-.41-.91.34,2.25c-.11.48-.34.8-.4-.28-.21,1.57.15,1.39-.08,2.74,0,.15-.06.08-.08-.05l.13,1.6c-.09-.31-.29.42-.23-.76-.06.74-.07,1.47-.07,2.1,1.19,0,2.22-.09,2.76-.13a4.69,4.69,0,0,1,1.55.07l-.23,0c3.82-.14.37-.3,3.23-.66l1.93.75L88,104c.36,0,1,0,.81.15.64-.1.67-.13.57-.16s-.29-.07.22-.17a10.92,10.92,0,0,0,2,.11c-1,1-2,2-2.39,2-.08.25.21,0,.44-.16s.35-.26-.26.46c-.76,0-1.59,1.72-3,2.77.19-.57,1.45-1.63,0-.57C86,109.57,84,110.83,83,111.92c.21.31-2.14,2.36-3.79,4.18,0-.2-3.41,3.12-5.11,4.64v-.09c0,.58-1.77,2.19-2.93,3.46-.1-.21,0-.48.64-1.21L70.66,124a7.72,7.72,0,0,1-1.21,1.52l.1-.48c-.72.72-1.39,1.5-2.12,2.31-.37.4-.75.82-1.15,1.24l-.46.46c-.14.13-.28.26-.42.37l-.19-.21a1.21,1.21,0,0,0,.19.63c.15.06.39,0,0,.61a5.1,5.1,0,0,1-.94-.74c0-.22.08-.46.56-.06a5.28,5.28,0,0,1-.94-.86c.35.24.62.4.86.54-.61-.76-.5-.23-1.17-.93.16-.13-.42-.63-.21-.64a8.25,8.25,0,0,0,.89.9,16.44,16.44,0,0,1-1.88-2.3c0,.14-.19.18-.79-.39-1.53-1.5-.35-.68-1.17-1.64-.46-.27-1.33-1.34-1.56-1.15a2.06,2.06,0,0,1-.55-.86c-.87-.69-3.69-3.64-3-2.53l.19.21-.14-.11h0c-2.78-2.37-5.23-5.47-7.87-7.93l.08-.07c-1.61-1.44-3.44-3.34-4.68-4.28-.45-.45-.94-1.19-.66-1.08l-1.24-1.1a9.55,9.55,0,0,1-1.06-1.17c1.08.83,0-.17,1,.8-.43-.49-.54-.7-.78-.95A3.9,3.9,0,0,0,41.4,104c-.11.12.23.2.53.24l.24,0h.33c.35,0,.69,0,1,0l-.75-.09-.37-.05-.22,0h1.46l1.54,0-.55.33a24.4,24.4,0,0,0,3.61,0l1.69-.11,2.44-.11c0-.59,0-1.17-.06-1.73v-1.34A11.57,11.57,0,0,1,52.46,99c-.24-1.16-.17,2.38-.44,1.34,0-2,.52-4.12.52-4.75.19-2.76-.48-2.57-.36-5.46-.11.37-.43.72-.54-1.44s.49-2.48.59-1.21c0,.49,0,.72-.07.7.05.65.1,1.51.22.71l-.11-.27c.12-1,.1-3.77.3-3.12-.11-1.52-.2-.65-.26.48.08-1.21.09-2.18.09-3.14,0-.48,0-1,0-1.46,0-.81,0-1.67,0-2.62l-.71,0a3.92,3.92,0,0,1,.63.11c0,.25-.09.34-.1.1h-.1c-3.06-.08-3,0-3.41.06a4.21,4.21,0,0,1-1.71.21c-1.5-.18.54-.43-2.12-.28-1.63-.12-.35-.31.3-.41a38,38,0,0,1-5.92-.19l1.28-.1c-.77.06-1.39.06-2,.06l.73.24c-.75,0-1.39,0-1.37-.14-.78.15.59.39-1,.6-1-.12-3,.13-3.39-.18,3.15.1-.35-.32,2.32-.37a13.46,13.46,0,0,1-1.9,0c-.11,0,.11-.06.32-.08-3-.28-1.39.36-4.51.35.2-.09,0-.17-.28-.23a12.15,12.15,0,0,0-1.7-.07c2.32,0,1,.3-.61.43h-.25c0,.7,0,1.27,0,1.74a9,9,0,0,0,.05,1A8.81,8.81,0,0,1,27,82.83l.07-1.19a13.29,13.29,0,0,1,.21,2.8c-.14.12-.1-1.27-.16-.77a9.09,9.09,0,0,1,0,2.6c-.05.47-.1,1-.12,1.48,0,.26,0,.51,0,.78l0,.37,0,.2c-.06.24-.15.18-.23.14s-.15-.08-.19,0c.11.43.06.63,0,.61-.21-.3-.28-.47-.47-.53.07.41.29.54-.38.2.43.37.79.65,1.07.86l0-.26.08.39a1.31,1.31,0,0,1-.61-.22,7.51,7.51,0,0,0,.8.68,4.19,4.19,0,0,1,0-.74c.2,1,.14,1,.33.93a.81.81,0,0,0-.1.3,6.06,6.06,0,0,0-1.05-1,6.75,6.75,0,0,1-.61-.53,8.6,8.6,0,0,1-.75-.83l.46-.38c-1.93-2.31-4-3.55-6.63-6.42l.81,1c-.54-.2-1.73-1.68-2.69-2.5.23-.06-.28-.67-.58-1.13,0,.15-2-2-2.53-2l-1.05-1.42c-2.15-2.3-2.94-2.14-5-4.33.8.5-.08-.57,1.47.75-.72-.72-1.33-1.38-1.44-1.3-.33-.5-2.17-1.79-2.69-2.58a4.09,4.09,0,0,1-1.4-1c-.06-.11.07-.06.07-.06-.16,0-1.08-.9-.76-.26a8.63,8.63,0,0,0-.49-.74A44.93,44.93,0,0,0,6,63.29a27.38,27.38,0,0,1,3.53-3.23c1.52-1.61,3.35-3.53,4.75-5-.05.13.07.07-.21.32,2.08-1.82.8-1.6,3.16-3.67,1.36-.91-1.06,1.3-.26.68.76.15,2.62-2.75,4.38-4l-.34.39c1.3-1,2.62-3,4.52-4.79,0,0,0,.13.06.08l.53-.74c.12-.17.27-.38.45-.6.36-.45.82-1,1.33-1.57.05.66.09,1.44.12,2.19-.25-.47-.13-.71-.39-.18,0,.31.12.2.23.17s.22,0,.26,1.11c-.14.74-.26,2.38-.54,2.6V45c-.36,1.1,0,2.78-.05,3.91l-.16-.15c0,1,.07,1.75.13,2.35l.18,2.35c1-.07,2.32-.12,3.48-.1l-.36-.12c1.93-.39,1.61.22,3.54-.07l.58.39c1.28-.09,4.46-.38,6.75-.45-1.3.29-4,.44-5.62.61a37.3,37.3,0,0,0,4.94-.22,9.16,9.16,0,0,1-1.65.07,31.65,31.65,0,0,1,6.1-.45c-.16.28.68.38,1.89.42l5,.09c0-.73,0-1.41.1-2l0-.44,0-.25a3,3,0,0,1,.11-.43c-.29-4.45.12-8.83.07-14-.59,1.83,0-1.52-.63-1.2a12.29,12.29,0,0,1,0-1.77l.19-1.83,0-.49.05-.69L52.37,29c0-.18,0-.3.05-.35s0,0,0,0,.08,2.12.18,2c0-1.06,0-1.75.06-2.2A27,27,0,0,0,49.81,28c.36.22-.91.31-2.42.23l2.12.28a12.34,12.34,0,0,1-3.45-.09,10.79,10.79,0,0,0-1.33-.16,9.11,9.11,0,0,0-.92,0l-.56,0-.32,0h-.15l0,0s.26-.07.43-.1l.59-.09-.93,0-.18,0-.46.06a1.33,1.33,0,0,0,.08-.24l0-.2,0-.13a.46.46,0,0,1,.09-.2c.29-.18.72-.38.16.24,3.28-3.17,6.82-7.55,9.54-9.85l-.14.35a10.4,10.4,0,0,1,1.71-1.89c0,.08-.13.34.15.07a22.38,22.38,0,0,1,2.28-2.52l-.57.8c3.29-3,4.55-5.12,7.11-7.84.14.14.72-.24,1.43-.81l1.06-.9L65.4,5l.07.11,0,.07.08.07.63.63,1.27,1.22c.83.79,1.64,1.52,2.45,2.24,1.6,1.44,3.2,2.82,5,4.46,1.77,2.44,7,7.28,10.2,10.86-.46-.58.32-.16,1,.41.73.86,2.41,2,2,2.14l-.28-.29a3,3,0,0,0,.46.76c.08.09.07.1.07.12l0,.05a.59.59,0,0,0,0,.08,2.69,2.69,0,0,0,.29.3h0c.4.18.76.35,1.1.53-.73-.14-1.14-.22-1.49-.26l-.12,0H87l-1.62,0-3.19.08-1.65,0H78.34c0,.94,0,1.78-.06,2.56a6.54,6.54,0,0,1-.19,1.22c.14,1.14.13,2.55.27,3.68L78.07,36c-.07,3.15-.1,4.73,0,8.63l-.2-.8c0,2.2.82,2.78.83,4.81l-.42.61c0,1.56,0,3.12-.07,4.68l5.19.09c1.34,0,2.67,0,4-.17-.06.06-.17.18-.79.2,1.8,0,7,.29,6.33-.29,0,.37,4,0,6-.13l-.32.27a17.06,17.06,0,0,1,4.51-.53l0-.49c0-.77.22-.59.15.5,0-.67,0-1.18,0-1.58a6,6,0,0,0-.09-.89,8.54,8.54,0,0,1-.05-2.08l.18.88A8.65,8.65,0,0,0,103,46.8a17.65,17.65,0,0,1,0-2.39l0-.3,0-.18.07-.28c.06-.15.11-.21.18-.19a2.36,2.36,0,0,1-.23-.77,4.42,4.42,0,0,1-.06-1.13v0a.35.35,0,0,1,.06.14,3.6,3.6,0,0,1,.11.53l0-.2a9.13,9.13,0,0,0,1.42,1.29c.09.06.34.29.51.45l.54.51a11.64,11.64,0,0,1,1,1.15c0,.1,0,.23.16.39l-2.31-2.33a4.31,4.31,0,0,1-.41-.45,4.27,4.27,0,0,0,.16.57c0,.17-.08.19-.21.31l.1,0h0l.14.1.31.25,1.37,1.1a23.85,23.85,0,0,1,2.56,2.38,2.1,2.1,0,0,1,.13.26l-.17-.13a7.79,7.79,0,0,0,1,.89c.43.5.71.82,1.16,1.27a16.52,16.52,0,0,0,2.39,2.57c.13-.26,1.08.76.33-.33.1.13-.17-.12-.68-.61a2.81,2.81,0,0,0-.34-.3l.07,0-1.88-1.85a8.83,8.83,0,0,1,2.12,2c.51.26,1.07.55,1.37.73.75,1.3,2.58,3.43,2.69,3.88,2.4,2.18,5.47,5.33,7.29,6.4a2.59,2.59,0,0,1,.83,1.16c-.42-.34-.86-.8-1.12-1,1.39,1.19,4,3.91,4.27,3.68a2.72,2.72,0,0,1,.22.29c-.33.23-.25.06-.26,0s-.1,0-.07,0-.2.2-.5.51a1.6,1.6,0,0,0,0-.21,14.26,14.26,0,0,0-1.42,1.24c-.52.5-1,1-1.47,1.49-.93,1-1.76,2-2.62,3A43.55,43.55,0,0,1,115.79,79a2.82,2.82,0,0,1,.67-.49c-2.44,2.24-4.82,4.67-7.2,7.11l-3.56,3.64-1.47,1.48c-.41.39-.8.77-1.17,1.11,0-.95.09-1.85.18-2.58a13.4,13.4,0,0,0-.31-3.83l.3-.48-.34-2.32a22.24,22.24,0,0,1,0-2.94l-2-.15c-.56-.06-1.12-.12-1.71-.16a20.07,20.07,0,0,0-4,.07l.54.2c-1.5,0-4.75.12-4.5-.11a2,2,0,0,1-1.07.1l0-.16-3.68.27c-2.85-.11.45-.62-3.72-.65-1.54.06-4.4.46-3.82.56s1.59.1,1.64.26L79.08,80c-.25.47-1.34.94,2.13,1.27L83.64,81l.78.23h-2a6.79,6.79,0,0,0,2.71-.1,2.55,2.55,0,0,0,1,.25L88.48,81c.29.19-1.07.37.53.47,1.11-.21-1.07-.41.77-.55,1.16.21.82.39,2.18.21.19.12-.09.19-.63.24a33.54,33.54,0,0,0,3.83-.3c1.2.26,4.08-.07,4,.37.19-.05.72-.14,1.35-.22a3.88,3.88,0,0,0,.44-.05l.2,0,.43,0c-.43.18-.32.24-.21.27s0,.2,0,.31l0,.84c0,.77-.1,1.35-.29,1.17a15.59,15.59,0,0,1,.32,3.61c0,.8,0,1.63,0,2.45,0,1.3,0,2.55.11,3.54a4.62,4.62,0,0,1-.09-1c0,1.88-.11,3-.19,4.19l.83-.72a18.31,18.31,0,0,1,2-2.57l1.29-1.49.54-.65.31-.43c1.56-1-.47,1.12.2,1-.29-.16,2-2.49,1.4-2.23,1.16-.83.94-.78,1.68-1.06-.17-.52.87-1,1.48-2,1.61-1.26.69,0,2.17-1.73C113.92,83.83,112.64,85.35,112.64,85.35ZM109.5,46.14h0l.79.76ZM106.34,43l1.36,1.38c0,.18-.15.13-.46-.19C107.45,44.3,106.75,43.52,106.34,43Zm5.3,8c-.53-.47-.66-.67-.69-.78l.9.85.08,0A.71.71,0,0,1,111.64,51Z"/><path class="cls-2" d="M112.79,51.68c.08.07.13.1.22.19l-.25-.34-.24-.12Z"/><path class="cls-2" d="M55.47,119.83l-.06-.07a.69.69,0,0,1,.11.17Z"/><polygon class="cls-2" points="80.63 31.55 80.56 31.55 80.62 31.94 80.63 31.55"/><path class="cls-2" d="M73,123.57a1.29,1.29,0,0,0,.27-.18A1.4,1.4,0,0,0,73,123.57Z"/><path class="cls-2" d="M80.5,116.1l1.13-1C81.13,115.53,80.78,115.85,80.5,116.1Z"/><path class="cls-2" d="M86.37,110.43a.44.44,0,0,0,0-.2h0Z"/><path class="cls-2" d="M28.91,82.27v.31C29,83.32,29,82.82,28.91,82.27Z"/><path class="cls-2" d="M51,92.27c-.05-.41-.1-.82-.13-1.24C50.87,91.71,50.86,92.25,51,92.27Z"/><path class="cls-2" d="M3.76,70.71h0l-.19-.19Z"/><path class="cls-2" d="M50.89,89.23a12,12,0,0,0,0,1.8A15.44,15.44,0,0,0,50.89,89.23Z"/><path class="cls-2" d="M79.68,90.14v-.4s0,0,0,0Z"/><path class="cls-2" d="M79.65,89.7l0-.44A1.46,1.46,0,0,0,79.65,89.7Z"/><path class="cls-2" d="M79.54,88.34l.07.92A3.21,3.21,0,0,0,79.54,88.34Z"/><path class="cls-2" d="M79.55,100.94l.1.13A.17.17,0,0,0,79.55,100.94Z"/><path class="cls-2" d="M79.79,103.05l-.19,0,.11-.66,0-.15v-.35a5.45,5.45,0,0,0,0-.7l-.08-.1a3.93,3.93,0,0,1,0,1.18,4.14,4.14,0,0,0-.09.84A.69.69,0,0,0,79.79,103.05Z"/><path class="cls-2" d="M90.25,104.81l.56-.53-1.19,0c.24.11.3.25-.45.28,1.2.28.29-.12,1.55-.19C90.63,104.42,90.48,104.59,90.25,104.81Z"/><path class="cls-2" d="M84.71,110.12c1-1.08-.12-.1-.11-.2C84,110.65,83.87,110.83,84.71,110.12Z"/><path class="cls-2" d="M42,106.06l.28-.08C41.47,105.2,42.23,106,42,106.06Z"/><polygon class="cls-2" points="45.78 102.7 44.67 102.54 44.15 102.77 45.78 102.7"/><polygon class="cls-2" points="52.59 102.3 52.62 103.17 52.58 101.62 52.53 100.67 52.59 102.3"/><path class="cls-2" d="M8,62l-.47,0C7,62.57,7.18,62.94,8,62Z"/><path class="cls-2" d="M30.71,53.5a6.61,6.61,0,0,0,2.52.11C32.23,53.58,31.22,53.46,30.71,53.5Z"/><path class="cls-2" d="M88.3,28.37a.14.14,0,0,0,.06-.1.81.81,0,0,1-.25.08Z"/><polygon class="cls-1" points="128.92 1.6 91.68 1.6 128.92 38.84 128.92 1.6"/><path class="cls-3" d="M129.58,1.6a.15.15,0,0,0-.24.15l.33.13Z"/><path class="cls-3" d="M129,2.84c.16.21.44.46.75.32-.32-.21-.19-.26-.57-.49,0-.19.11-.33.23-.3-.08-.06.08-.28-.13-.38a.61.61,0,0,0-.06.86C129.12,2.92,129,2.85,129,2.84Z"/><path class="cls-3" d="M128.46,20.87l0-.12A.16.16,0,0,0,128.46,20.87Z"/><path class="cls-3" d="M128.27,32c0-.09,0-.12-.07-.13S128.25,32.06,128.27,32Z"/><path class="cls-3" d="M127.91,34l0-.12C127.9,33.88,127.88,33.92,127.91,34Z"/><path class="cls-3" d="M128.46,20.87l-.11.3C128.46,21.19,128.43,21,128.46,20.87Z"/><path class="cls-3" d="M129.77,5.32a.51.51,0,0,0-.09-.16.83.83,0,0,1,0,.15Z"/><path class="cls-3" d="M128.19,15.94v-.09l-.14-.07Z"/><path class="cls-3" d="M128.14,12.16c0,.09.27.12.39.15a.28.28,0,0,1-.19-.18A.51.51,0,0,0,128.14,12.16Z"/><path class="cls-3" d="M128.63,6.17l0-.11Z"/><path class="cls-3" d="M128.13,18.65a.2.2,0,0,0-.1,0Z"/><path class="cls-3" d="M124.54.28v0S124.57.28,124.54.28Z"/><path class="cls-3" d="M128.92,1.67h-.06a.92.92,0,0,0,0,.16Z"/><path class="cls-3" d="M127.55,35.31h0C127.52,35.26,127.53,35.27,127.55,35.31Z"/><path class="cls-3" d="M108.07,16.34c.08.44-.64-.19-.46.4C107.66,16.62,108.28,16.78,108.07,16.34Z"/><path class="cls-3" d="M129.73,5.42a.81.81,0,0,1,0,.16A.39.39,0,0,0,129.73,5.42Z"/><path class="cls-3" d="M107.61,16.74h0l0,.06Z"/><path class="cls-3" d="M125.07,33.29a.32.32,0,0,0,0,.14S125.07,33.37,125.07,33.29Z"/><path class="cls-3" d="M127.89,36.67l-.08-.13A.42.42,0,0,0,127.89,36.67Z"/><path class="cls-3" d="M122.59,31.37c0-.07,0-.12-.14-.17v.05C122.51,31.25,122.56,31.27,122.59,31.37Z"/><path class="cls-3" d="M120.3,29.08v.08l.08.06Z"/><path class="cls-3" d="M114.7.41a1.1,1.1,0,0,1,.15.25C114.8.47,115.27.39,114.7.41Z"/><path class="cls-3" d="M129.61,5.33q.1,0,.12.09V5.31A.11.11,0,0,0,129.61,5.33Z"/><path class="cls-3" d="M120.93,32.84l-.34-.39A3.78,3.78,0,0,0,120.93,32.84Z"/><path class="cls-3" d="M89.18.71,89,.54A1.11,1.11,0,0,0,89.18.71Z"/><path class="cls-3" d="M119.49,31.4a.89.89,0,0,0-.07-.34.18.18,0,0,0-.1,0Z"/><path class="cls-3" d="M114.85.67h0Z"/><path class="cls-3" d="M118.24,0c-.49,0-.23.36-.34.57-.58.11-.27-.27-.47-.46-.36.1-.64.44-.92.43,0-.07-.07-.09,0-.16-.38.29-1.14,0-1.59.38a.16.16,0,0,1-.06-.09,1.18,1.18,0,0,1,.07.5c-.22,0-.41.24-.49,0,.13,0,.14-.09.21-.17l-.23.11c-.21-.35.31-.12.31-.38-.45.11-1,.4-1.32.3-.07-.34.81-.11.35-.42l.53.13c-.41-.53.32,0,0-.53-.7-.1-.78.17-1.48.07-.16.19,0,.28-.11.47-1,.34-.78-.85-1.51-.4-.19.23-.26.66-.78.43l.18-.39c-.68,0-.39.56-1.1.3.12-.15.53-.13.43-.18-.46-.3-.33.22-.68.22l-.07-.34c-.73.06-1.52.3-2.32.36,0-.1.18-.2,0-.31A8.84,8.84,0,0,1,103.66.2l-.38.29c-.08,0-.16-.13-.06-.19-.38-.11,0,.19-.2.3s-.29-.16-.15-.25a4.18,4.18,0,0,1-2.61.22l.13-.09c-.55-.12-.62.6-1.13.33l.1-.05C98.17.63,96.85.9,95.94.46c-.09.21-.31.16-.85.13s-.93,0-.81.27L93.07.52A12.49,12.49,0,0,0,91.32.26c-.53,0-.11.37-.47.43L90.26.38a.65.65,0,0,0-.06.33L89,.34l-.22,0L89,.54s0-.07,0-.09a3,3,0,0,1,.68.2l-.15,0c.58.51.57.93.33.89L91.57,3a2.74,2.74,0,0,1-.81-.47c1.22.78-.36.11.77.83,0-.1.3,0,.4,0A5.47,5.47,0,0,0,93.42,5l-.28,0c.31.34.42.44.58.59l.48.44c.34.28.68.58,1,.9a.25.25,0,0,1,.36-.34l-.15.3c.26,0-.11-.28.31-.2.22.26-.1.42-.31.36l.37.21c-.05.09-.15,0-.26.12.26,0,.27.74.7.67l-.06.08c.65.65,1,.86,1.56,1.38.21-.19.37.06.68,0a9.31,9.31,0,0,0,1.08,1.49c.43.22.27-.08.53,0-.16.21.33.66,0,.54a9.6,9.6,0,0,0,1.6,1.24c0-.15-.06-.27,0-.29s.21.37.11.44h0c1.06.52,1.3,2.35,2.31,2.61l-.06,0,.86.46c.27.33-.32-.05-.21.29,1,.4,1.07,1.16,1.85,1.54-.08,1,1.64,1.56,1.91,2.51l.09-.16c.28,0,.12.26.2.41.08-.12,0-.29.11-.26a31.35,31.35,0,0,1,3.82,4.41c.46.53.93-.37,1.26.56l-.41.06c1.28.72,2,2.07,3.27,2.81-.11,0-.19.07-.28,0,0,.38.76.78.9.64.14.17-.09.16-.06.33s.74.31.68.59c0,0-.11,0-.16,0,.21.05.61.65.67.33.28.46.8.62,1,1,.41,0,.53.74.9.49-.35.29.39.9.77,1-.17,0,.11.3-.12.34.27.27.58.45.69.24.11.88,1.3.68,1.09,1.45a29.62,29.62,0,0,1,2.6,1.88c-.35.29-.82-.76-1.13-.39.41.27.78.43,1.12.62l.13.08.18.13.35.28a6.78,6.78,0,0,1,.71.71c.26.35-.2.08-.33.06A17.4,17.4,0,0,1,128,39.49a8.05,8.05,0,0,0,1.44,1.26c0,.1,0,.09-.11.07.19.16.52.61.31.11l-.13-.06c-.32-.55-.2-.68-.13-.83-.12-.51-.22-.94-.28-1.1.58,1.67.14-.8.89,1.29a2.41,2.41,0,0,0-.28-.87c0-.17.12-.14.28.41-.11-1.19-.33-1.15-.32-2,.09.12.13.34.25.58a4.63,4.63,0,0,1-.3-1.86c.06.08.13,0,.13.26a8.69,8.69,0,0,0-.24-1.68,2.5,2.5,0,0,1-.09-1.18c.44.25.15-.3.52-.34l-.11-.47-.18.19c0-.41-.27-.77-.15-1.12l.16.3-.07-.76-.14.43c-.2-.41-.48,0-.37-.5,0,.11,0-.41.22-.62h0a.82.82,0,0,1-.15-.71c.12-.08.41.06.49,0-.31-.2-.08-1-.42-1.21a.33.33,0,0,0,.32.06l-.26-.16c.09-.19.13-.22.28-.19.05-.57-.47.18-.27-.49,0,0,.06,0,.1.13.11-.67-.16-1.31,0-1.93.38-.18.09.55.41.33a16.11,16.11,0,0,1-.36-2.72l0,.16c-.53-.12.26-.65,0-1.09,0,.11.29.14.24.11a7.46,7.46,0,0,0-.3-2.12l.13.12a9.22,9.22,0,0,0,.14-1.31c-.14-.11-.12-.33-.32-.19.78-1.17-.41-2.23.24-3.27,0,.13.11.3.11.2l-.12-.88c-.23.07-.14.11-.32.3a.81.81,0,0,1-.24-.58c.15.39.37,0,.5-.18-.07,0-.15,0-.22,0,.41-.46-.47-.08-.19-.71l.12,0c-.06-.23-.22-.45-.19-.7.27-.11.13.25.35.26,0-.35-.51-.7-.24-1,.07.15.07.37.15.52a.85.85,0,0,0,.28-.66v0l.14-.61-.08.16c-.7-.45-.13-.91-.58-1.51.43.58.25.09.55.14.08-.16.18-.39.26-.32-.24-.29.19-.48-.16-.88.09,0,0-.3.25-.24-.08-.37-.17.09-.29.06-.33-.57.4-1.34-.05-2.16-.19-.71-.52-.84-.68-1.5.15-.22.35.19.35.19a1.3,1.3,0,0,0,0-1c.08.07.15,0,.26-.1,0-.27-.35-.18-.21-.54a1.31,1.31,0,0,1,.39.27c-.09-.32-.27-.63-.36-1,.17-.09.26.2.37.31-.07-.37-.15-1-.42-1.07l-.1.24c0-.14.23-.07.28,0a.28.28,0,0,1-.19.47L129.2,4c-.57.24.09.94.06,1.41l-.42-.19.35.48c-.11.1-.34.18-.41-.06-.2.34.15.3-.08.59,0,0,0,0-.07,0l.13.33c-.09-.06-.3.06-.24-.15-.24.6.31,1,0,1.18l0,0c.14.82.31.07.67.69l-.76.42.31.08c0,.09,0,.25-.16.22.21.32.14-.05.33.13-.28.41.13,1.13-.35,1.22.23.15.18-.39.34.05-.53.12.09.5-.15.88-.27-.12-.13-.47-.37-.1.45.23-.1.73,0,1.05.36,0,.15.68.27,1.21-.12,0-.2,1-.33,1.49l-.06,0c.36.1.29.61.37,1a.4.4,0,0,1-.4-.29v.35a.58.58,0,0,1,.22.42l-.28-.09c0,.46.33.93.14,1.53.26,0,.72-.48.89.15-.14,0-.38.05-.43-.11,0,.05.11.19.05.3l-.23-.25c-.1.27.19.14.17.35-.2,0-.14.16-.3.13,0-.05.09-.19,0-.27a1,1,0,0,1-.3.64.22.22,0,0,1,.29.18c0,.46-.24.16-.34.43.14.11,0,.4.29.41,0,.14-.14.16-.22.21.13.24,0,1.12.35.85l0-.06,0,0h0c.29.78-.17,1.63,0,2.41h-.09a5.2,5.2,0,0,0,.27,1.36c0,.14-.18.33-.29.27a1.21,1.21,0,0,1,0,.91c-.17-.36-.15.12-.13-.37-.08.46-.24.57,0,1.06-.25-.17-.32.35-.24.57l.18-.32a3.07,3.07,0,0,1,0,.68l-.33-.12c-.41.94.69,1.7,0,2.42.23.25.16-.51.43-.29,0,.44-.52.89-.52,1-.18.59.49.55.36,1.17.12-.08.44-.15.55.31,0,.44-.5.54-.59.26,0-.1,0-.15.06-.15s-.09-.32-.22-.15l.12.06c-.12.21-.11.81-.3.67.11.33.19.14.25-.1-.17.56,0,.87-.12,1.44.07-.09.21-.17.21-.08-.15.84.22.37.27.94a.26.26,0,0,1-.26.14c-.07,0-.09.08,0,.21-.12.15-.31,0-.41-.07.12.08.08.18,0,.19a.46.46,0,0,1-.2,0l-.1-.11c.06.06.06.08.06.09l.23.2s0,0-.14-.08a4.63,4.63,0,0,1,.61.76c-.12-.05.13.57-.18.1.1-.11-.32-.49-.37-.71,0,.07,0,.11,0,.08l-.08-.15c-.28-.39.36.65.35.9a3,3,0,0,0-.3-.59,6.24,6.24,0,0,1,.43,1.05h0c-.22-.36,0,.13-.13,0l.14.24c.11.36,0,.21-.11.18-.09-.28.06-.07,0-.24,0,.25-.12,0-.24-.26s-.21-.49-.27-.41a5.17,5.17,0,0,1-.08-.67c0,.11-.09,0-.1-.11s0-.19-.08-.14c-.09.25,0,.24-.26.32a1.09,1.09,0,0,0,.33.1.58.58,0,0,1-.3.19c.12.12.27.05.32.16-.13.15-.13.06-.1.38-.06-.32-.14-.32-.26-.35a.33.33,0,0,1-.31-.27l.39-.45s0,0,0-.05a.36.36,0,0,0-.07-.1.65.65,0,0,0-.16-.17,2.17,2.17,0,0,0-.39-.25,2.24,2.24,0,0,1-.84-.67l.12.26c-.25.09-.39-.34-.65-.47.16-.12.09-.29.09-.46-.09.12-.42-.44-.76-.22l-.08-.45c-.4-.55-.94-.15-1.36-.65.29,0,.18-.33.6-.13-.15-.15-.27-.31-.36-.22,0-.18-.62-.24-.63-.51-.12,0-.29.12-.45-.07,0,0,.07-.06.07-.06s-.37-.18-.37.12c0-.91-1.36-1.29-1.4-2.08-.38-.29-.83-.65-1.15-.94.06,0,.07-.07.12,0-.29-.55-.66.14-1-.48,0-.47.38.13.31-.11.4-.52-.64-.51-.69-1.1l.1,0c-.09-.4-.77-.43-1.14-.86,0,0,.06,0,.07-.07a3.66,3.66,0,0,1-1.56-.81c.3-.06.27.08.38-.17-.2-.15-.24.34-.64,0,0-.21-.18-.55,0-.78l.34.32c.09-.42-.43-.42-.56-.63l.13-.09c-.53-.47-.82-.19-1.34-.75l0,.14c-.57,0-.1-.41-.59-.49l.19-.37a8.56,8.56,0,0,1-1.35-.71,4.43,4.43,0,0,1,1.29.42c-.19-.19-.68-.63-.92-.59.11,0,.28.08.31.2a1.82,1.82,0,0,1-1.25-.61c.61-.47-.87-1.14-.72-1.84-.88-.47-1.26-1.43-2.09-2.18-.14.7-.24-.22-.62.26-.21-.16-.28-.24-.27-.28l-.3-.82c0-.25.27.08.35,0-.37-.44,0-.35-.13-.73-.1.2-.36.08-.54-.21l.13.52c-.79-.33-.13-.85-.92-1.19l.31.05c-.37-.22-1.07-1.08-1.7-1,0-.1,0-.29.21-.19-.65-.75-1.92-1.18-2.25-1.94l.16,0c-.16-.1-.42,0-.48-.3,0,0,.16-.05.1-.12s-.53-.16-.64-.39l.27,0c-.54-.82-1.33-.75-2-1.25.32-.31-.12-.95-.33-1.26l0,0a12.46,12.46,0,0,0-2.45-1.69c-.12-.79-1.4-1.68-1.94-2.6.06.17-.28.2-.41.14,0-.1-.48,0-.07-.21v0c.34-.22.22-.19.18-.25l-.78,0c.24-.09.3-.13.21-.21s-.32-.21-.51-.35c0,0,.26,0,.78.23-.17-.13-.08-.13-.16-.26l.36.28c.24.07.26.11.4,0a1.36,1.36,0,0,0,0,.2c-.08,0,.28-.81.67-.83l.13.42c.83,0,1.66.37,2.48,0,0,.06,0,.19-.17.2.39,0,1.51.29,1.36-.29,0,.38.86,0,1.3-.13l-.06.28c.37-.36.38-.45.91-.55.13,0,.11.22-.06.15.42.14.33-.27.83-.12l-.18.18c.42,0,.39-.07.63-.28s.81.07.87.32a.48.48,0,0,1,.54-.28c0,.09,0,.15-.1.18.72.19,1.06-.33,1.56,0,0,.09,0,.14.08.16a5.51,5.51,0,0,1-1,0c0,.26.46.3.09.66.37-.19,1-.62,1.45-.49a.28.28,0,0,1,.06.08l0,0a.38.38,0,0,0,.28,0,1.37,1.37,0,0,0,.37.08c.06.21.53.11.76.12,0-.28.28-.23,0-.46,0,0,0,0-.2,0s-.07,0-.09,0v0h-.57a.5.5,0,0,1,.63-.1,3.86,3.86,0,0,1,.32-.46c.31.4.91.61,1,.85.7-.16,1.64-.1,2.08-.63.2-.07.23.15.31.23-.12.05-.25.05-.32.12.4-.13,1.18,0,1.28-.42.5.17-.29.34.4.28l-.09.11c1.35.59,2.2-.94,3.7-.18-.1,0-.15-.07-.17-.13,1.71.33,3.52-.31,5.21.21.48.11.53-.12.83-.3l.1.3.5-.35c.71-.25,1.23.74,2.13.26l-.11-.2c.32,0,1-.12,1,.11,0,0,.1-.21.23-.11V2.2l.79-.27c.62.12-.09.63.8.66.34-.06.95-.46.83-.57s-.35-.1-.36-.25l.31-.09c0-.46.29-.94-.46-1.26l-.52.28-.17-.22.44,0c-.25-.21-.41,0-.59.11a.38.38,0,0,0-.21-.25l-.52.44c-.06-.18.23-.36-.11-.46-.24.21.23.41-.17.54-.25-.21-.17-.38-.47-.2,0-.12,0-.2.14-.25-.26.15-.69.06-.83.31-.26-.26-.88.07-.85-.37a1.44,1.44,0,0,1-.7.36c.44-.53-.9,0-.78-.6-.33.48-1.17.22-1.75.48,0,0,.1-.12.15-.09a1.76,1.76,0,0,1-.63-.27c0,.39-.54.48-.81.72-.4-.38.24-.46.12-.82,0,.31-.69.31-.56.58-.3-.24-.26-.12-.41-.44-.06.49-.29.08-.54.38-.44-.24-.11-.46-.59-.31C117.81.17,118.24,0,118.24,0ZM106.79.85H107Zm-1,0h.42c0,.1,0,.2-.1.19C106.2,1,106,.93,105.82.85Zm2,1.95c-.15,0-.2,0-.22-.07l.26,0,0,0A.35.35,0,0,1,107.86,2.8Z"/><path class="cls-3" d="M108.13,2.43l.07,0a.47.47,0,0,0-.09-.06l-.06.09Z"/><path class="cls-3" d="M128.5,20.73v0a.08.08,0,0,1,0,0Z"/><polygon class="cls-3" points="90.12 0.31 90.26 0.39 90.29 0.32 90.12 0.31"/><path class="cls-3" d="M129.47,15.43a.15.15,0,0,0,.07-.07Z"/><path class="cls-3" d="M129.53,13.14l.1-.32A1.81,1.81,0,0,0,129.53,13.14Z"/><path class="cls-3" d="M129.67,11.38l-.12,0h0Z"/><path class="cls-3" d="M129.37,40.82a.19.19,0,0,0-.07-.06C129.15,40.69,129.27,40.77,129.37,40.82Z"/><path class="cls-3" d="M129.34,31c0,.09.1.18.14.27C129.5,31.16,129.5,31,129.34,31Z"/><polygon class="cls-3" points="120.97 32.89 120.97 32.88 120.93 32.84 120.97 32.89"/><path class="cls-3" d="M129.47,31.69a.55.55,0,0,0,0-.38A.81.81,0,0,0,129.47,31.69Z"/><path class="cls-3" d="M129.8,3.75V3.67h-.05Z"/><path class="cls-3" d="M129.76,3.66l0-.09S129.73,3.65,129.76,3.66Z"/><path class="cls-3" d="M129.66,3.37l.07.2C129.73,3.5,129.74,3.41,129.66,3.37Z"/><path class="cls-3" d="M129.67,6.08l.1,0Z"/><path class="cls-3" d="M129.7,6.79c0-.17.21-.42.15-.66l-.08,0C129.92,6.22,129.52,6.63,129.7,6.79Z"/><path class="cls-3" d="M128.44,9.75l.08-.6c-.11.11-.26.24-.28,0C127.91,9.87,128.48,9,128.44,9.75Z"/><path class="cls-3" d="M128.28,11.59c-.05-.32-.16,0-.22,0C128.16,11.78,128.18,11.83,128.28,11.59Z"/><path class="cls-3" d="M128.28,24.88l-.26,0C128.06,25.1,128.12,24.85,128.28,24.88Z"/><polygon class="cls-3" points="129.6 27.42 129.76 27.18 129.52 27.07 129.6 27.42"/><polygon class="cls-3" points="127.78 28.93 127.74 28.82 127.83 29.23 127.78 28.93"/><path class="cls-3" d="M120.88,29.31l-.17.28C120.87,29.66,121.14,29.44,120.88,29.31Z"/><path class="cls-3" d="M113.84,22.72a.38.38,0,0,0-.31-.46C113.67,22.43,113.73,22.67,113.84,22.72Z"/><polygon class="cls-3" points="94.96 3.12 95.16 3.17 94.96 3.1 94.96 3.12"/><polygon class="cls-1" points="1.78 128.74 39.02 128.74 1.78 91.5 1.78 128.74"/><path class="cls-3" d="M1.11,128.74a.15.15,0,0,0,.24-.15L1,128.45Z"/><path class="cls-3" d="M1.72,127.5c-.16-.22-.44-.47-.74-.33.31.22.18.27.56.5a.22.22,0,0,1-.23.29c.09.07-.07.29.14.39a.62.62,0,0,0,.05-.86C1.58,127.42,1.66,127.48,1.72,127.5Z"/><path class="cls-3" d="M2.24,109.47l0,.12A.56.56,0,0,0,2.24,109.47Z"/><path class="cls-3" d="M2.42,98.3c0,.08,0,.12.07.12S2.45,98.28,2.42,98.3Z"/><path class="cls-3" d="M2.79,96.39l0,.11S2.81,96.42,2.79,96.39Z"/><path class="cls-3" d="M2.24,109.47l.1-.3C2.24,109.15,2.26,109.32,2.24,109.47Z"/><path class="cls-3" d="M.92,125a.46.46,0,0,0,.09.17L1,125Z"/><path class="cls-3" d="M2.51,114.39v.09a.57.57,0,0,0,.13.08Z"/><path class="cls-3" d="M2.56,118.17c0-.08-.27-.11-.39-.14a.28.28,0,0,1,.19.18A.58.58,0,0,0,2.56,118.17Z"/><path class="cls-3" d="M2.06,124.17l0,.1Z"/><path class="cls-3" d="M2.57,111.69a.23.23,0,0,0,.1,0A.18.18,0,0,0,2.57,111.69Z"/><path class="cls-3" d="M6.16,130.06V130S6.13,130.06,6.16,130.06Z"/><path class="cls-3" d="M1.78,128.67l.06,0c0-.05,0-.1,0-.15Z"/><path class="cls-3" d="M3.15,95h0C3.17,95.08,3.17,95.06,3.15,95Z"/><path class="cls-3" d="M22.62,114c-.08-.43.65.19.46-.39C23,113.71,22.42,113.56,22.62,114Z"/><path class="cls-3" d="M1,124.92v-.16A.42.42,0,0,0,1,124.92Z"/><path class="cls-3" d="M23.08,113.6h0l0-.06Z"/><path class="cls-3" d="M5.62,97.05a.27.27,0,0,0,0-.15A.34.34,0,0,0,5.62,97.05Z"/><path class="cls-3" d="M2.81,93.67l.08.13A.79.79,0,0,0,2.81,93.67Z"/><path class="cls-3" d="M8.1,99c.05.07,0,.12.14.17a0,0,0,0,0,0,0C8.19,99.09,8.14,99.06,8.1,99Z"/><path class="cls-3" d="M10.4,101.26s0-.06,0-.09l-.08-.06Z"/><path class="cls-3" d="M16,129.92a.64.64,0,0,1-.15-.25C15.9,129.87,15.42,129.94,16,129.92Z"/><path class="cls-3" d="M1.08,125c-.07,0-.1,0-.12-.09l0,.1A.11.11,0,0,0,1.08,125Z"/><path class="cls-3" d="M9.77,97.49l.33.4A2.78,2.78,0,0,0,9.77,97.49Z"/><path class="cls-3" d="M41.52,129.63l.22.17A.73.73,0,0,0,41.52,129.63Z"/><path class="cls-3" d="M11.21,98.94a.63.63,0,0,0,.07.34h.09Z"/><path class="cls-3" d="M15.85,129.67Z"/><path class="cls-3" d="M12.46,130.34c.49,0,.23-.36.33-.58.59-.1.27.28.47.46.37-.09.65-.43.92-.42,0,.06.07.08,0,.16.39-.29,1.15,0,1.6-.38a.24.24,0,0,1,.06.09,1,1,0,0,1-.07-.51c.22,0,.41-.23.49,0-.14,0-.15.09-.21.17l.23-.11c.21.35-.31.12-.31.38.44-.11,1-.4,1.31-.3.07.34-.8.11-.34.41l-.54-.13c.41.54-.32,0,.05.54.7.1.79-.17,1.49-.08.15-.18-.06-.27.1-.46,1-.34.78.85,1.51.4.19-.23.27-.66.79-.43l-.18.38c.68,0,.39-.55,1.1-.29-.13.15-.54.13-.43.17.46.31.32-.22.68-.22l.07.34c.72-.05,1.52-.29,2.32-.36-.05.1-.18.21,0,.32a8.9,8.9,0,0,1,3.13.24l.37-.3c.09,0,.16.14.07.19.38.12,0-.18.2-.3s.28.17.15.26a4.11,4.11,0,0,1,2.61-.22l-.14.09c.55.11.62-.61,1.13-.33l-.1.05c1.19.13,2.51-.14,3.42.3.09-.21.32-.16.85-.14s.93,0,.82-.26l1.21.33a9.78,9.78,0,0,0,1.75.26c.52,0,.1-.36.46-.43l.6.31a.72.72,0,0,0,.05-.32l1.2.37.23-.06-.18-.14s0,.06,0,.08a2.66,2.66,0,0,1-.69-.19l.15,0c-.57-.51-.56-.92-.32-.89l-1.8-1.43a3.49,3.49,0,0,1,.82.47c-1.23-.78.35-.1-.77-.82,0,.09-.3,0-.4,0a5.61,5.61,0,0,0-1.49-1.64l.28,0c-.32-.33-.42-.44-.58-.58l-.49-.44c-.33-.29-.68-.58-1-.91.16.31-.15.51-.37.35l.16-.31c-.27,0,.11.29-.32.21-.21-.27.1-.42.32-.36L34.9,123c.06-.09.16-.06.27-.13-.27,0-.28-.73-.7-.66l.05-.08c-.64-.65-1-.86-1.55-1.38-.21.19-.37-.06-.69-.06a8.67,8.67,0,0,0-1.08-1.48c-.42-.23-.26.07-.53,0,.16-.2-.32-.65,0-.54a10,10,0,0,0-1.6-1.23c0,.15.05.27-.05.28s-.22-.37-.11-.43H29c-1.07-.52-1.3-2.36-2.31-2.61l.05,0-.85-.46c-.27-.34.32,0,.21-.29-1-.41-1.08-1.16-1.86-1.54.08-1-1.64-1.56-1.9-2.51l-.09.16c-.28,0-.12-.26-.21-.41-.08.12.06.29-.11.26a30.65,30.65,0,0,1-3.81-4.41c-.47-.54-.93.37-1.26-.56l.41-.06c-1.29-.73-2.05-2.07-3.27-2.82.11,0,.18-.06.28,0,0-.38-.77-.78-.91-.65-.14-.17.09-.16.07-.32-.11-.31-.74-.31-.69-.59,0,0,.12,0,.17,0-.22,0-.61-.66-.68-.33-.28-.46-.79-.62-1-1-.41,0-.53-.74-.9-.49.34-.29-.39-.91-.78-1,.18,0-.1-.31.13-.35-.28-.26-.58-.45-.7-.23-.11-.88-1.29-.69-1.08-1.45a26.9,26.9,0,0,1-2.6-1.88c.34-.29.82.76,1.12.39-.4-.27-.77-.44-1.11-.63l-.13-.07-.18-.13-.35-.29A6,6,0,0,1,4,92.45c-.26-.35.2-.08.34,0a17.51,17.51,0,0,1-1.67-1.55,8.24,8.24,0,0,0-1.44-1.27c0-.09,0-.09.11-.06-.18-.16-.52-.61-.31-.11l.14.06c.31.55.19.68.13.83a8.56,8.56,0,0,0,.28,1.1c-.59-1.68-.15.8-.89-1.29A2.53,2.53,0,0,0,.94,91c0,.17-.12.13-.28-.42.12,1.2.33,1.16.33,2a3.09,3.09,0,0,1-.25-.58A4.88,4.88,0,0,1,1,93.81c-.06-.08-.14,0-.14-.26a9.78,9.78,0,0,0,.25,1.68,2.49,2.49,0,0,1,.08,1.18c-.43-.25-.14.3-.51.34l.11.47L1,97c0,.41.26.77.14,1.12L1,97.85l.07.76.14-.43c.19.41.47-.05.37.5,0-.11,0,.41-.23.62h0a.79.79,0,0,1,.15.71c-.12.08-.41-.06-.49,0,.31.2.09,1,.42,1.2a.38.38,0,0,0-.31-.06l.25.17c-.08.19-.12.22-.28.19,0,.57.48-.18.27.49,0,0-.06,0-.09-.14-.11.68.16,1.31,0,1.94-.37.18-.09-.55-.41-.34a17.52,17.52,0,0,1,.37,2.73l0-.16c.53.12-.27.65,0,1.09,0-.11-.29-.15-.23-.12a7,7,0,0,0,.3,2.12L1.21,109a9.09,9.09,0,0,0-.13,1.3c.13.12.11.33.31.2-.78,1.17.42,2.23-.23,3.27,0-.13-.12-.3-.12-.2l.13.88c.23-.07.14-.11.32-.3a.84.84,0,0,1,.24.58c-.15-.4-.37,0-.5.17.07,0,.15,0,.22,0-.41.46.46.08.19.71l-.12,0c.06.24.22.46.18.71-.26.11-.12-.25-.34-.27,0,.36.51.71.24,1-.08-.15-.08-.37-.15-.52a.83.83,0,0,0-.28.65v0l-.14.6.09-.15c.69.45.12.91.58,1.51-.43-.58-.25-.1-.55-.14-.09.15-.18.39-.27.32.25.28-.19.47.17.88-.1,0,0,.3-.26.24.08.37.17-.09.3-.06.33.57-.41,1.34,0,2.16.19.71.52.84.68,1.49-.16.22-.36-.18-.36-.18a1.28,1.28,0,0,0,0,1c-.09-.06-.16,0-.27.11,0,.27.36.18.21.54a1.53,1.53,0,0,1-.39-.27c.09.31.27.63.36,1-.17.09-.26-.2-.37-.32.08.37.16,1,.43,1.08l.09-.24c0,.13-.23.07-.28,0a.29.29,0,0,1,.19-.48l.07.24c.57-.24-.1-.94-.06-1.42l.41.2-.34-.48c.11-.11.34-.18.4,0,.21-.33-.15-.29.08-.59,0,0,.06,0,.07,0l-.12-.33c.09.06.29-.06.23.14.24-.59-.31-1,0-1.18l0,0c-.14-.82-.3-.08-.66-.7l.75-.41-.3-.08c0-.09,0-.26.15-.23-.21-.31-.13.06-.33-.12.28-.41-.13-1.13.36-1.23-.23-.14-.18.4-.34,0,.52-.13-.09-.51.15-.88.27.11.13.47.37.09-.46-.22.1-.72,0-1-.36,0-.15-.68-.27-1.21.12,0,.2-1,.33-1.49h.06c-.37-.09-.3-.6-.38-1a.42.42,0,0,1,.41.28v-.35a.54.54,0,0,1-.22-.41l.27.09c0-.47-.32-.94-.14-1.53-.26,0-.71.47-.88-.16.14,0,.37,0,.43.12,0,0-.12-.19-.06-.3l.24.25c.1-.27-.2-.14-.18-.36.2,0,.14-.16.3-.13s-.08.19,0,.28a1,1,0,0,1,.3-.64c-.11,0-.27,0-.29-.18,0-.46.23-.16.34-.43-.14-.11,0-.41-.29-.41,0-.14.13-.16.21-.22-.13-.24,0-1.11-.35-.84l0,.06v0h0c-.29-.79.17-1.63,0-2.41h.1A5.35,5.35,0,0,0,2,105.85c0-.13.18-.32.3-.26a1.12,1.12,0,0,1,0-.91c.17.36.15-.12.12.37.09-.47.25-.57,0-1.07.25.17.31-.34.24-.56l-.18.32a2.58,2.58,0,0,1,0-.68l.34.12c.4-1-.69-1.71,0-2.43-.24-.25-.17.52-.44.29,0-.43.52-.88.52-1,.19-.59-.48-.55-.36-1.18-.11.08-.43.16-.54-.31s.49-.53.59-.26c0,.11,0,.16-.07.15,0,.14.1.33.22.15l-.11,0c.12-.22.1-.82.3-.68-.11-.32-.2-.14-.26.11a11.49,11.49,0,0,0,.12-1.45c-.06.09-.2.18-.2.09.15-.85-.23-.37-.28-.94a.23.23,0,0,1,.27-.14c.06,0,.09-.09,0-.22.13-.15.32,0,.41.08-.11-.09-.07-.18,0-.19s.18,0,.2,0l.09.1s0-.07,0-.09L3,95s0,0,.14.08a5.55,5.55,0,0,1-.61-.77c.12.06-.13-.56.19-.09-.11.11.32.48.37.71,0-.08,0-.11,0-.08a1.51,1.51,0,0,1,.09.14c.28.39-.36-.64-.35-.9a2.45,2.45,0,0,0,.3.6,6.17,6.17,0,0,1-.44-1.06l0,0c.21.36,0-.13.13,0l-.15-.24c-.11-.36,0-.21.12-.18.09.28-.07.07,0,.24,0-.25.12,0,.23.26s.21.49.28.41a5.17,5.17,0,0,1,.08.67c0-.12.09,0,.09.11s0,.19.08.13c.09-.24,0-.23.27-.32a1.68,1.68,0,0,0-.33-.09.5.5,0,0,1,.29-.19c-.12-.13-.26-.06-.31-.16.13-.15.13-.06.09-.38.06.32.14.32.26.35a.33.33,0,0,1,.32.27l-.4.44v.06l.07.1a.81.81,0,0,0,.16.16,2.65,2.65,0,0,0,.39.26,2.08,2.08,0,0,1,.84.67L5.1,96c.24-.08.39.35.65.47-.16.12-.09.29-.1.46.1-.11.43.45.76.22l.08.45c.41.56,1,.15,1.36.66-.29,0-.18.32-.6.12.16.16.27.32.37.23,0,.17.61.24.62.51.13,0,.3-.12.46.06,0,0-.07.07-.07.07s.36.18.37-.13c0,.91,1.35,1.3,1.39,2.08a12.64,12.64,0,0,1,1.15,1c-.06,0-.07.07-.11,0,.29.56.66-.14,1,.49,0,.47-.37-.14-.31.1-.39.53.64.52.7,1.11l-.11,0c.09.4.78.42,1.15.86,0,0-.06,0-.07.07a3.88,3.88,0,0,1,1.56.8c-.3.06-.28-.08-.38.18.19.15.24-.35.64,0,0,.21.17.55,0,.78l-.34-.32c-.08.42.44.41.56.63l-.13.09c.54.46.82.19,1.34.75l0-.14c.57,0,.09.4.59.49l-.19.37a9.85,9.85,0,0,1,1.35.7,4.33,4.33,0,0,1-1.29-.42c.19.2.67.64.91.6-.1-.05-.27-.08-.3-.2a1.84,1.84,0,0,1,1.25.61c-.61.47.86,1.13.72,1.83.88.48,1.26,1.43,2.08,2.19.14-.7.24.22.63-.26.21.16.27.23.26.28l.3.81c0,.26-.27-.08-.35,0,.37.43,0,.35.14.73.1-.21.36-.08.53.21l-.12-.52c.79.33.12.85.92,1.19l-.32,0c.37.21,1.07,1.08,1.71,1,0,.1-.05.29-.21.19.64.75,1.92,1.18,2.24,1.93l-.15.06c.16.1.42,0,.48.29-.06,0-.16.06-.11.12s.53.16.64.4l-.26,0c.54.82,1.33.75,2,1.25-.31.31.12.94.34,1.26l-.06,0a12.57,12.57,0,0,0,2.46,1.7c.12.79,1.4,1.68,1.94,2.6-.07-.18.28-.2.4-.14s.49,0,.08.21v0c-.35.21-.22.19-.18.25l.78,0c-.24.09-.3.12-.22.21s.33.21.51.34c0,.05-.25.05-.77-.22.17.13.07.13.15.26l-.36-.28c-.24-.07-.26-.11-.4,0a.65.65,0,0,0,0-.2c.09,0-.28.81-.66.83l-.13-.42c-.83,0-1.67-.37-2.49,0,0-.06,0-.18.18-.2-.39,0-1.51-.28-1.37.3,0-.38-.85,0-1.3.13l.07-.28c-.38.35-.39.45-.92.55-.12,0-.11-.22.06-.15-.42-.15-.32.26-.83.11l.19-.17c-.43,0-.39.07-.63.28s-.81-.07-.88-.32a.48.48,0,0,1-.54.28c0-.09.06-.15.1-.18-.71-.19-1.06.32-1.55.05a.2.2,0,0,0-.09-.17,7.45,7.45,0,0,1,1,0c0-.25-.46-.3-.1-.65-.36.19-1,.61-1.44.49l-.06-.09.05,0a.41.41,0,0,0-.29,0,1,1,0,0,0-.37-.08c-.05-.21-.53-.12-.75-.13,0,.28-.29.24,0,.47,0,0,0,0,.19,0l.1,0,0,0,.57,0c-.18.15-.37.27-.62.11-.12.18-.25.37-.32.45-.31-.39-.92-.6-1-.84-.7.16-1.65.1-2.09.63-.2.07-.23-.15-.3-.23.11-.06.25,0,.31-.13-.4.14-1.18.06-1.27.43-.5-.17.28-.34-.41-.28l.1-.12c-1.36-.59-2.21.95-3.71.19.11,0,.16.07.18.13-1.71-.34-3.53.31-5.22-.22-.48-.1-.53.13-.82.31l-.11-.3-.5.35c-.71.25-1.23-.74-2.13-.26l.12.2c-.32,0-1,.12-1-.11,0,0-.11.21-.23.1v-.15l-.8.27c-.61-.12.1-.63-.8-.66-.33.06-.95.46-.82.56s.34.1.35.26l-.3.08c-.06.47-.29.95.46,1.27l.52-.28.17.22-.44,0c.25.21.4,0,.58-.11a.4.4,0,0,0,.22.25l.51-.44c.06.18-.23.36.12.46.24-.21-.23-.41.16-.55.25.21.18.39.47.21,0,.12,0,.19-.13.25.26-.15.69-.07.82-.31.26.26.88-.07.86.37a1.29,1.29,0,0,1,.7-.36c-.44.52.89,0,.78.59.32-.47,1.17-.21,1.74-.47,0,0-.09.11-.14.09.32,0,.41.18.62.27,0-.39.54-.48.82-.72.39.38-.24.46-.12.82,0-.32.69-.32.55-.58.31.23.26.11.42.44.05-.49.28-.09.53-.39.44.24.12.46.6.31C12.89,130.16,12.46,130.34,12.46,130.34Zm11.45-.85h-.24Zm1,0a2.68,2.68,0,0,0-.42,0c0-.09,0-.19.1-.19S24.73,129.4,24.87,129.49Zm-2-2c.15,0,.2,0,.22.07l-.27,0,0,0A.37.37,0,0,1,22.84,127.54Z"/><path class="cls-3" d="M22.56,127.91l-.06,0,.09.06.05-.09Z"/><path class="cls-3" d="M2.19,109.61v0s0,0,0,0S2.18,109.61,2.19,109.61Z"/><polygon class="cls-3" points="40.57 130.02 40.44 129.95 40.4 130.01 40.57 130.02"/><path class="cls-3" d="M1.23,114.9a.12.12,0,0,0-.07.07S1.2,114.94,1.23,114.9Z"/><path class="cls-3" d="M1.17,117.19l-.1.33A2.75,2.75,0,0,0,1.17,117.19Z"/><path class="cls-3" d="M1,119a.34.34,0,0,0,.12,0h0Z"/><path class="cls-3" d="M1.32,89.52s.05,0,.07,0S1.43,89.56,1.32,89.52Z"/><path class="cls-3" d="M1.35,99.3A1.66,1.66,0,0,1,1.22,99C1.2,99.18,1.19,99.29,1.35,99.3Z"/><polygon class="cls-3" points="9.73 97.45 9.72 97.45 9.77 97.49 9.73 97.45"/><path class="cls-3" d="M1.22,98.64a.58.58,0,0,0,0,.39A.74.74,0,0,0,1.22,98.64Z"/><path class="cls-3" d="M.9,126.58v.09h0Z"/><path class="cls-3" d="M.93,126.68l0,.09S1,126.69.93,126.68Z"/><path class="cls-3" d="M1,127l-.07-.2A.18.18,0,0,0,1,127Z"/><path class="cls-3" d="M1,124.25l-.1,0A.22.22,0,0,0,1,124.25Z"/><path class="cls-3" d="M1,123.54c0,.17-.22.43-.15.66l.08,0C.78,124.12,1.17,123.7,1,123.54Z"/><path class="cls-3" d="M2.26,120.59l-.08.59c.11-.1.25-.24.28,0C2.78,120.46,2.22,121.37,2.26,120.59Z"/><path class="cls-3" d="M2.42,118.75c.05.32.15,0,.22,0C2.54,118.56,2.51,118.51,2.42,118.75Z"/><path class="cls-3" d="M2.42,105.45l.25,0C2.64,105.24,2.57,105.48,2.42,105.45Z"/><polygon class="cls-3" points="1.1 102.91 0.94 103.15 1.17 103.27 1.1 102.91"/><polygon class="cls-3" points="2.92 101.41 2.95 101.52 2.86 101.11 2.92 101.41"/><path class="cls-3" d="M9.81,101l.17-.27C9.83,100.67,9.55,100.9,9.81,101Z"/><path class="cls-3" d="M16.86,107.61a.38.38,0,0,0,.31.46C17,107.9,17,107.66,16.86,107.61Z"/><polygon class="cls-3" points="35.73 127.22 35.54 127.17 35.73 127.24 35.73 127.22"/><polygon class="cls-1" points="1.78 1.6 1.78 38.84 39.02 1.6 1.78 1.6"/><path class="cls-3" d="M1.78.93a.15.15,0,0,0,.15.24L2.06.84Z"/><path class="cls-3" d="M3,1.54c.21-.16.46-.44.32-.74-.21.32-.26.18-.5.56a.22.22,0,0,1-.29-.23c-.06.09-.28-.07-.38.14A.6.6,0,0,0,3,1.32C3.1,1.4,3,1.48,3,1.54Z"/><path class="cls-3" d="M21.05,2.06l-.12,0Z"/><path class="cls-3" d="M32.22,2.24c-.09,0-.12,0-.13.07S32.24,2.27,32.22,2.24Z"/><path class="cls-3" d="M34.13,2.61l-.12,0C34.06,2.61,34.1,2.63,34.13,2.61Z"/><path class="cls-3" d="M21.05,2.06l.3.1C21.37,2.06,21.19,2.08,21.05,2.06Z"/><path class="cls-3" d="M5.5.75a.35.35,0,0,0-.16.08l.15,0Z"/><path class="cls-3" d="M16.12,2.33H16a.54.54,0,0,0-.07.13Z"/><path class="cls-3" d="M12.34,2.38c.09,0,.12-.27.15-.39a.3.3,0,0,1-.19.19A.58.58,0,0,0,12.34,2.38Z"/><path class="cls-3" d="M6.35,1.88l-.11,0Z"/><path class="cls-3" d="M18.83,2.39a.24.24,0,0,0,0,.1A.17.17,0,0,0,18.83,2.39Z"/><path class="cls-3" d="M.46,6h0S.46,6,.46,6Z"/><path class="cls-3" d="M1.85,1.6v.06H2Z"/><path class="cls-3" d="M35.49,3h0C35.44,3,35.45,3,35.49,3Z"/><path class="cls-3" d="M16.52,22.44c.44-.07-.19.65.4.46C16.8,22.86,17,22.24,16.52,22.44Z"/><path class="cls-3" d="M5.6.78h.16A.42.42,0,0,0,5.6.78Z"/><path class="cls-3" d="M16.92,22.9h0l.06,0Z"/><path class="cls-3" d="M33.47,5.45a.32.32,0,0,0,.14,0A.22.22,0,0,0,33.47,5.45Z"/><path class="cls-3" d="M36.85,2.63l-.13.08Z"/><path class="cls-3" d="M31.55,7.93c-.07,0-.12,0-.17.13h.05C31.43,8,31.45,8,31.55,7.93Z"/><path class="cls-3" d="M29.26,10.22h.08l.06-.08Z"/><path class="cls-3" d="M.59,15.82a.83.83,0,0,1,.25-.15C.64,15.72.57,15.24.59,15.82Z"/><path class="cls-3" d="M5.5.9A.16.16,0,0,1,5.6.78L5.49.8A.11.11,0,0,0,5.5.9Z"/><path class="cls-3" d="M33,9.59l-.39.33A2.74,2.74,0,0,0,33,9.59Z"/><path class="cls-3" d="M.89,41.34l-.18.22A.91.91,0,0,0,.89,41.34Z"/><path class="cls-3" d="M31.58,11a.69.69,0,0,0-.34.07s0,.06,0,.09Z"/><path class="cls-3" d="M.85,15.67h0Z"/><path class="cls-3" d="M.18,12.28c0,.49.36.23.57.33.11.59-.27.27-.46.47.1.37.44.65.42.92-.06,0-.08.07-.15,0,.29.39,0,1.15.38,1.6a.35.35,0,0,1-.09.06,1,1,0,0,1,.5-.07c0,.22.24.41,0,.49,0-.14-.09-.15-.17-.21l.1.23c-.34.21-.12-.31-.37-.31.11.45.4,1,.3,1.31-.34.07-.11-.8-.42-.34l.13-.54c-.53.41,0-.32-.53.06-.1.7.17.78.07,1.48.19.16.28-.05.47.1.34,1-.85.79-.4,1.52.22.18.65.26.43.78L.57,20c0,.68.55.39.3,1.1-.15-.13-.13-.54-.18-.43-.3.46.22.32.22.68l-.34.07c.05.72.3,1.52.36,2.32-.1-.05-.21-.18-.31,0a8.9,8.9,0,0,1-.24,3.13l.29.37c0,.09-.13.16-.19.07-.11.38.19,0,.3.2s-.17.29-.25.15a4.18,4.18,0,0,1,.22,2.61l-.09-.14c-.12.55.6.62.33,1.13l-.05-.1c-.13,1.2.14,2.51-.3,3.42.21.1.16.32.13.85s0,.93.27.82L.7,37.45A12.22,12.22,0,0,0,.44,39.2c0,.52.37.11.43.47l-.31.59a.64.64,0,0,0,.33.05l-.37,1.2,0,.23.14-.18a.12.12,0,0,1-.08,0,3.81,3.81,0,0,1,.19-.69.35.35,0,0,1,0,.16c.51-.58.93-.57.89-.33l1.43-1.8a2.89,2.89,0,0,1-.47.82c.78-1.22.11.35.83-.77-.1,0,0-.3,0-.4A5.5,5.5,0,0,0,5.22,37.1l0,.28c.34-.32.44-.42.59-.58l.43-.49c.29-.33.59-.68.91-1a.25.25,0,0,1-.34-.37l.3.16c0-.27-.28.11-.2-.32.26-.21.42.1.36.32l.21-.38c.09.06,0,.16.12.27,0-.27.74-.28.66-.7l.09.05c.65-.64.86-1,1.37-1.55-.18-.21.07-.37.06-.69A8.21,8.21,0,0,0,11.29,31c.22-.42-.08-.26,0-.53.21.16.65-.32.54.05A10,10,0,0,0,13,28.94c-.15,0-.27,0-.29-.05s.37-.22.44-.11l0,0c.53-1.07,2.36-1.3,2.62-2.31l0,.05.46-.85c.33-.27-.05.32.29.21.4-1,1.16-1.08,1.54-1.86,1,.09,1.56-1.63,2.51-1.9l-.16-.09c0-.28.26-.12.4-.21-.11-.08-.28.06-.25-.11A30.65,30.65,0,0,1,25,18c.53-.46-.37-.93.56-1.26l.06.41c.72-1.29,2.06-2.05,2.81-3.27,0,.11.07.18,0,.28.38,0,.78-.76.64-.91.17-.13.16.09.33.07s.31-.74.59-.68c0,0,0,.11,0,.16.05-.22.65-.61.33-.68.46-.27.62-.79,1-1,0-.41.74-.53.49-.9.29.35.9-.39,1-.78,0,.18.3-.1.34.13.27-.28.45-.58.24-.7.87-.11.68-1.29,1.45-1.08a26.9,26.9,0,0,1,1.88-2.6c.29.34-.76.82-.4,1.12a11.13,11.13,0,0,0,.63-1.11l.08-.13.13-.18.28-.35a6.78,6.78,0,0,1,.71-.71c.35-.27.08.19,0,.33a19,19,0,0,1,1.56-1.67A7.72,7.72,0,0,0,40.93,1c.09,0,.09,0,.06.11.17-.18.62-.52.12-.3L41.05,1c-.55.31-.68.19-.83.13a8.11,8.11,0,0,0-1.1.28c1.67-.59-.8-.15,1.29-.89a2.4,2.4,0,0,0-.87.27c-.17,0-.14-.12.41-.27C38.76.6,38.8.82,38,.81a3.41,3.41,0,0,1,.58-.25,4.81,4.81,0,0,1-1.86.3c.08-.06,0-.14.26-.14A9.49,9.49,0,0,0,35.29,1a2.41,2.41,0,0,1-1.19.08c.26-.43-.29-.14-.34-.51L33.3.65l.19.18c-.41,0-.77.26-1.12.14l.3-.15L31.9.89l.44.14c-.42.19,0,.47-.5.37.11,0-.41,0-.62-.23h0a.82.82,0,0,1-.71.16c-.08-.12.06-.42,0-.5-.2.31-1,.09-1.21.42a.32.32,0,0,0,.06-.31l-.17.25C29,1.11,29,1.07,29,.91c-.57,0,.18.48-.5.27.06,0,0-.05.14-.09-.68-.11-1.31.16-1.93,0-.18-.37.54-.09.33-.41a17.4,17.4,0,0,1-2.72.37l.16,0c-.12.53-.65-.26-1.09,0,.11,0,.14-.3.11-.24a7.46,7.46,0,0,0-2.12.3L21.52,1A9.38,9.38,0,0,0,20.21.9c-.11.14-.33.11-.19.31-1.17-.77-2.23.42-3.27-.23.12,0,.3-.12.2-.12L16.06,1c.07.23.12.14.31.32a.88.88,0,0,1-.58.24c.39-.15,0-.37-.18-.5,0,.07,0,.15,0,.22-.47-.41-.08.47-.71.19l0-.12a1.92,1.92,0,0,1-.71.19c-.1-.27.26-.13.27-.35-.35,0-.7.51-1,.24.16-.07.37-.08.53-.15A.86.86,0,0,0,13.32,1h0L12.74.85l.16.09c-.45.69-.91.12-1.51.58.58-.43.09-.25.14-.55-.16-.09-.39-.18-.32-.27-.29.25-.48-.19-.88.17,0-.1-.3,0-.24-.26-.37.08.09.17.06.3C9.58,1.24,8.81.5,8,1c-.71.19-.84.52-1.5.68-.22-.16.18-.35.18-.35a1.23,1.23,0,0,0-1,0c.07-.09,0-.16-.1-.27-.27,0-.18.36-.54.21A1.45,1.45,0,0,1,5.34.83c-.32.09-.63.27-1,.36-.09-.17.2-.26.31-.37-.37.08-1,.16-1.07.43l.24.09c-.14,0-.07-.23,0-.28a.29.29,0,0,1,.47.19l-.23.07c.24.57.94-.1,1.41-.06l-.19.41.48-.34c.1.11.17.34-.06.4.34.21.3-.15.59.08,0,0,0,.06,0,.07l.33-.12c-.06.09.06.29-.15.23.6.24,1-.31,1.18,0l0,0c.83-.14.08-.3.7-.66l.42.75.08-.3c.08,0,.25,0,.22.15.32-.21-.05-.13.13-.33.41.28,1.13-.13,1.22.36.15-.23-.39-.18.05-.34.12.52.5-.09.88.15-.12.27-.47.13-.1.37.23-.46.73.1,1,0,0-.36.69-.15,1.22-.27,0,.12,1,.2,1.49.33l0,.06c.1-.37.61-.3,1-.37a.42.42,0,0,1-.29.4H16a.55.55,0,0,1,.42-.22l-.09.27c.46,0,.93-.32,1.53-.14,0-.25-.48-.71.15-.88,0,.14.05.37-.12.43.06,0,.2-.12.31-.06L18,2c.28.1.15-.2.36-.18,0,.2.16.14.13.3s-.19-.08-.27,0a1,1,0,0,1,.64.3c0-.11,0-.27.18-.29.46,0,.15.24.42.34.12-.14.41,0,.42-.29.13,0,.16.14.21.22.24-.13,1.12,0,.85-.36l-.06,0h0c.78-.29,1.63.17,2.41,0v.1a5.18,5.18,0,0,0,1.36-.28c.14,0,.33.18.27.3a1.16,1.16,0,0,1,.91,0c-.36.17.12.15-.37.12.46.09.57.25,1.06,0-.17.25.35.32.57.24l-.32-.18a2.21,2.21,0,0,1,.68,0l-.12.33c.94.4,1.7-.69,2.42,0,.25-.24-.51-.17-.29-.44.44.05.89.52,1,.52.59.19.55-.48,1.17-.36-.08-.11-.15-.43.31-.54s.54.5.26.59c-.1,0-.15,0-.15-.07s-.32.1-.15.23L32,2.42c.21.12.81.11.67.3.33-.11.14-.19-.1-.26.56.18.87,0,1.44.12-.09-.06-.17-.2-.08-.2.84.15.37-.22.94-.28a.26.26,0,0,1,.14.27c0,.06.08.09.21,0,.15.13,0,.32-.07.42.08-.12.18-.08.19,0s0,.18,0,.2l-.11.09c.06-.05.08-.05.09-.05a2,2,0,0,0,.19-.24s0,0-.07.14a4.77,4.77,0,0,1,.76-.6c-.05.12.57-.13.1.18-.11-.11-.49.32-.71.37.07,0,.11,0,.08,0L35.49,3c-.39.28.64-.36.9-.35-.4.18-.69.33-.59.3a5.91,5.91,0,0,1,1.05-.44l0,0c-.35.21.14,0,0,.13l.24-.15c.36-.11.21,0,.18.12-.28.09-.07-.06-.24,0,.25,0,0,.12-.26.24s-.49.2-.41.27a5.17,5.17,0,0,1-.67.08c.11,0,0,.09-.11.09s-.19,0-.14.08c.25.09.24,0,.32.27a1.28,1.28,0,0,0,.1-.33.59.59,0,0,1,.19.29c.12-.12.05-.26.16-.31.15.13.06.13.38.09-.32.07-.32.14-.35.27A.33.33,0,0,1,36,4l-.44-.4h-.06l-.09.06a.87.87,0,0,0-.17.16,2.26,2.26,0,0,0-.25.4,2.32,2.32,0,0,1-.67.84l.26-.12c.09.24-.34.39-.47.65-.12-.16-.29-.09-.46-.1.12.1-.44.43-.22.76l-.45.08c-.55.41-.15,1-.66,1.36,0-.29-.32-.18-.12-.59-.15.15-.32.26-.22.36-.18,0-.24.62-.51.62,0,.13.12.3-.07.46,0,0-.07-.07-.07-.07s-.17.36.13.37c-.91,0-1.29,1.36-2.08,1.39a14.52,14.52,0,0,1-.94,1.15c0-.06-.07-.07,0-.11-.55.29.14.66-.48,1-.47,0,.13-.37-.11-.31-.52-.39-.51.64-1.1.7l.05-.11c-.4.09-.43.78-.86,1.15,0,0,0-.06-.07-.07A3.84,3.84,0,0,1,25,15.16c-.06-.3.08-.27-.17-.38-.15.2.34.24,0,.64-.22,0-.55.17-.78,0l.32-.33c-.42-.09-.42.43-.63.56l-.09-.14c-.47.54-.2.82-.75,1.34l.13,0c0,.57-.4.09-.49.59l-.36-.19a9,9,0,0,1-.71,1.35A4.33,4.33,0,0,1,22,17.35c-.19.19-.63.67-.59.91.05-.1.08-.27.2-.3A1.84,1.84,0,0,1,21,19.21c-.48-.61-1.14.86-1.84.72-.47.88-1.43,1.26-2.19,2.08.71.14-.21.25.27.63-.16.21-.24.27-.28.26l-.82.3c-.26,0,.08-.27,0-.35-.44.37-.35,0-.74.14.21.1.09.36-.2.53l.52-.12c-.33.79-.85.12-1.19.92l0-.32c-.21.37-1.07,1.07-1,1.71-.1,0-.29-.05-.19-.21-.75.64-1.18,1.92-1.94,2.24l0-.15c-.1.16,0,.42-.3.48,0-.06,0-.16-.12-.11s-.16.53-.39.64l0-.26c-.82.54-.75,1.33-1.25,2C9,30,8.33,30.43,8,30.65l0-.06a12.82,12.82,0,0,0-1.69,2.46c-.8.12-1.68,1.4-2.6,1.94.17-.06.2.28.14.4s-.05.49-.22.08h0c-.22-.35-.19-.22-.25-.18l0,.78c-.1-.24-.13-.3-.21-.21s-.21.32-.35.5c0,0,0-.25.23-.77-.13.17-.13.07-.27.16l.29-.36c.07-.25.11-.27,0-.41h.2c0,.08-.82-.29-.83-.67l.42-.13c0-.83.36-1.67,0-2.48.06,0,.19,0,.2.17,0-.39.29-1.51-.29-1.37.38,0,0-.85-.13-1.3l.28.07c-.36-.38-.46-.39-.55-.92,0-.12.22-.1.15.06.14-.41-.27-.32-.12-.83l.18.19c0-.43-.07-.39-.28-.63s.07-.81.32-.87a.51.51,0,0,1-.29-.55c.1,0,.16.06.19.11.19-.72-.33-1.07,0-1.56.09,0,.14,0,.16-.08a5.71,5.71,0,0,1,0,1c.26,0,.3-.46.66-.09-.2-.37-.62-1-.5-1.45l.09-.06,0,.05a.41.41,0,0,0,0-.29,1.63,1.63,0,0,0,.08-.37c.21-.05.11-.52.12-.75-.28,0-.23-.28-.47,0,0,0,0,0,0,.19s0,.08,0,.1l0,0,0,.57c-.14-.18-.26-.37-.1-.62l-.46-.32c.39-.31.61-.92.85-1-.16-.7-.11-1.65-.63-2.09-.07-.2.15-.23.23-.3,0,.11,0,.25.12.31-.13-.39-.05-1.18-.42-1.27.17-.5.34.28.28-.41l.11.1c.59-1.36-.94-2.21-.18-3.71-.05.11-.07.16-.13.18.33-1.71-.32-3.53.21-5.22.11-.48-.13-.53-.3-.82l.3-.11-.35-.5C1.9,6.54,2.9,6,2.42,5.12l-.21.12c0-.32-.12-1,.12-1,0,0-.21-.11-.11-.23h.16l-.27-.8c.11-.61.63.1.66-.8-.06-.33-.46-1-.57-.82S2.1,2,2,2l-.09-.3C1.4,1.6.92,1.37.6,2.12l.28.52-.23.17V2.37c-.21.25,0,.4.1.58a.38.38,0,0,0-.24.22l.44.51c-.18.06-.36-.23-.46.12C.69,4,.89,3.57,1,4c-.21.25-.38.18-.2.47-.12.05-.2,0-.25-.13.14.26.06.69.31.82C.62,5.38,1,6,.51,6a1.44,1.44,0,0,1,.36.7c-.53-.44,0,.89-.6.78.48.32.21,1.17.48,1.74,0,0-.12-.09-.09-.14,0,.32-.18.41-.27.62.39,0,.48.55.72.82-.38.39-.46-.24-.82-.12.31,0,.31.69.58.55-.24.31-.12.26-.44.42.49.05.08.28.38.53-.24.44-.46.12-.31.6C.35,12.71.18,12.28.18,12.28ZM1,23.73H1l0-.24Zm0,1c0-.12,0-.26,0-.42s.2,0,.19.1S1.11,24.55,1,24.69Zm2-2c0,.15,0,.2-.07.22s0-.16,0-.27h0A.35.35,0,0,1,3,22.66Z"/><path class="cls-3" d="M2.61,22.38a.11.11,0,0,1,0-.06.24.24,0,0,0-.06.09l.08.05Z"/><path class="cls-3" d="M20.91,2h0a.08.08,0,0,1,0,0Z"/><polygon class="cls-3" points="0.49 40.39 0.56 40.26 0.5 40.23 0.49 40.39"/><path class="cls-3" d="M15.61,1.05A.15.15,0,0,0,15.54,1S15.57,1,15.61,1.05Z"/><path class="cls-3" d="M13.32,1,13,.89Z"/><path class="cls-3" d="M11.56.85a.3.3,0,0,0,0,.12h0Z"/><path class="cls-3" d="M41,1.14l-.05.07C40.87,1.37,41,1.25,41,1.14Z"/><path class="cls-3" d="M31.22,1.17A1.34,1.34,0,0,1,31.49,1C31.34,1,31.22,1,31.22,1.17Z"/><polygon class="cls-3" points="33.07 9.55 33.06 9.55 33.02 9.59 33.07 9.55"/><path class="cls-3" d="M31.87,1.05a.5.5,0,0,0-.38,0A.81.81,0,0,0,31.87,1.05Z"/><path class="cls-3" d="M3.93.72H3.85s0,0,0,0Z"/><path class="cls-3" d="M3.84.75l-.1,0S3.83.78,3.84.75Z"/><path class="cls-3" d="M3.55.86,3.74.79C3.68.79,3.59.78,3.55.86Z"/><path class="cls-3" d="M6.26.85l0-.1A.41.41,0,0,0,6.26.85Z"/><path class="cls-3" d="M7,.82C6.8.8,6.55.6,6.31.67l0,.08C6.4.6,6.81,1,7,.82Z"/><path class="cls-3" d="M9.93,2.08,9.33,2c.11.11.24.25,0,.28C10.05,2.6,9.15,2,9.93,2.08Z"/><path class="cls-3" d="M11.77,2.24c-.32,0,0,.16,0,.22C12,2.36,12,2.33,11.77,2.24Z"/><path class="cls-3" d="M25.06,2.24l0,.25C25.28,2.46,25,2.4,25.06,2.24Z"/><polygon class="cls-3" points="27.6 0.92 27.36 0.76 27.25 0.99 27.6 0.92"/><polygon class="cls-3" points="29.1 2.74 29 2.77 29.41 2.68 29.1 2.74"/><path class="cls-3" d="M29.49,9.63l.28.17C29.84,9.65,29.62,9.37,29.49,9.63Z"/><path class="cls-3" d="M22.9,16.68a.38.38,0,0,0-.46.31C22.61,16.85,22.85,16.78,22.9,16.68Z"/><polygon class="cls-3" points="3.3 35.56 3.35 35.36 3.27 35.55 3.3 35.56"/><polygon class="cls-1" points="128.92 91.5 91.68 128.74 128.92 128.74 128.92 91.5"/><path class="cls-3" d="M129.58,91.5a.15.15,0,0,0-.24.16l.33.13Z"/><path class="cls-3" d="M129,92.74c.16.22.44.47.75.33-.32-.22-.19-.27-.57-.5,0-.18.11-.32.23-.29-.08-.07.08-.29-.13-.39a.62.62,0,0,0-.06.87C129.12,92.82,129,92.76,129,92.74Z"/><path class="cls-3" d="M128.46,110.77l0-.11A.15.15,0,0,0,128.46,110.77Z"/><path class="cls-3" d="M128.27,121.94c0-.08,0-.12-.07-.12S128.25,122,128.27,121.94Z"/><path class="cls-3" d="M127.91,123.85l0-.11S127.88,123.82,127.91,123.85Z"/><path class="cls-3" d="M128.46,110.77l-.11.3C128.46,111.09,128.43,110.92,128.46,110.77Z"/><path class="cls-3" d="M129.77,95.23a.42.42,0,0,0-.09-.16.83.83,0,0,1,0,.15Z"/><path class="cls-3" d="M128.19,105.85v-.09l-.14-.08Z"/><path class="cls-3" d="M128.14,102.07c0,.08.27.11.39.15a.29.29,0,0,1-.19-.19A.54.54,0,0,0,128.14,102.07Z"/><path class="cls-3" d="M128.63,96.08l0-.11Z"/><path class="cls-3" d="M128.13,108.55a.19.19,0,0,0-.1,0A.26.26,0,0,0,128.13,108.55Z"/><path class="cls-3" d="M124.89,93.67l0,0S124.91,93.65,124.89,93.67Z"/><path class="cls-3" d="M129,91.55l0,.06.1.12Z"/><path class="cls-3" d="M127.55,127.16h0S127.53,127.15,127.55,127.16Z"/><path class="cls-3" d="M98.27,127.58c.37.25-.59.32,0,.6C98.18,128.07,98.72,127.74,98.27,127.58Z"/><path class="cls-3" d="M129.73,95.33a.76.76,0,0,1,0,.15A.33.33,0,0,0,129.73,95.33Z"/><path class="cls-3" d="M98.23,128.18h0l0,0Z"/><path class="cls-3" d="M122.27,127.54a.27.27,0,0,0,.09.12A.23.23,0,0,0,122.27,127.54Z"/><path class="cls-3" d="M127.79,127.94l-.1,0A.22.22,0,0,0,127.79,127.94Z"/><path class="cls-3" d="M119.16,127.94c-.08,0-.1-.06-.21,0l0,0S119.07,127.89,119.16,127.94Z"/><path class="cls-3" d="M115.93,127.94a.15.15,0,0,0,.06,0h.1Z"/><path class="cls-3" d="M118,100.72a1.28,1.28,0,0,1,.28.07C118.13,100.69,118.42,100.3,118,100.72Z"/><path class="cls-3" d="M129.61,95.23c.07,0,.11,0,.12.1v-.11A.14.14,0,0,0,129.61,95.23Z"/><path class="cls-3" d="M119,130.15l-.51,0A2.64,2.64,0,0,0,119,130.15Z"/><path class="cls-3" d="M101.63,117.18l.06-.11A.13.13,0,0,0,101.63,117.18Z"/><path class="cls-3" d="M117,130.15a.73.73,0,0,0-.29-.19l-.06.07Z"/><path class="cls-3" d="M118.31,100.79Z"/><path class="cls-3" d="M120.24,97.93c-.36.34.09.41.17.64-.34.49-.39,0-.66,0-.19.33-.15.77-.35,1-.06,0-.11,0-.12-.1-.07.48-.8.82-.86,1.4a.18.18,0,0,1-.11,0,1.07,1.07,0,0,1,.41.31c-.15.16-.12.46-.35.34.1-.09,0-.16,0-.26l-.09.24c-.39-.1.14-.31,0-.49-.24.4-.41,1-.72,1.14-.29-.19.49-.65,0-.54l.47-.28c-.67-.09.25-.2-.42-.34-.56.42-.43.67-1,1.1,0,.24.23.16.25.4-.46.94-1.15,0-1.35.79,0,.29.28.65-.25.85l-.15-.39c-.5.45.12.66-.57,1,0-.2.29-.47.19-.43-.54.11-.08.39-.33.64l-.29-.19c-.48.55-.86,1.28-1.39,1.89,0-.1,0-.27-.22-.21a9,9,0,0,1-2.38,2l-.06.47c-.06.06-.21,0-.18-.09-.35.19.12.15.07.36s-.32.08-.29-.08a4,4,0,0,1-1.69,2l0-.16c-.47.31,0,.87-.57,1l0-.1c-.94.75-1.68,1.87-2.63,2.2.17.42-1,.7-.61,1.17-.69.28-.62.07-1.44.6-.2.17,0,.53-.19.8l-.22-.21-.08.53-.42-.1-.15.27c.09-.07.27-.08.32,0-.23.43-1,.65-1.07.55l-.59,1c-.07-.11,0-.27.08-.43-.19.64-.31-.15-.48.43.1,0,.1.16.13.21a2.17,2.17,0,0,0-1,.86l-.09-.21c-.61.54-1.14,1.29-1.79,1.93a.26.26,0,0,1,.35.37l-.31-.16c0,.27.28-.11.21.32-.27.21-.43-.1-.36-.32l-.22.38c-.08-.06,0-.16-.12-.27,0,.27-.74.28-.66.7l-.09,0c-.64.64-.86,1-1.37,1.55.19.21-.06.37-.06.69-.22.16-.48.31-.74.48l-.2.13-.31.27a6.65,6.65,0,0,0-.61.58c-.41.6.09.24,0,.52-.32,0-1.08.75-.92.33a16.38,16.38,0,0,0-1.91,2.28,2.34,2.34,0,0,1,.69-.36,2.82,2.82,0,0,1-.92.6v0a.9.9,0,0,1-.18.27,7.46,7.46,0,0,1,2.25.28,5.76,5.76,0,0,0,2.58,0l-.1,0,.83-.14a5,5,0,0,0,.67-.14c.43.05-.25.19.06.35,1-.42,1.58.07,2.41-.22.63.76,2.26-.05,3.11.43l0-.18c.22-.17.26.1.43.14,0-.13-.24-.16-.11-.25a30.24,30.24,0,0,1,5.82.42c.7,0,.4-.92,1.29-.5l-.25.33c1.42-.39,2.91,0,4.3-.32-.08.08-.08.18-.22.17.3.24,1.09,0,1.1-.18.21,0,.05.18.18.28.29.14.74-.31.9-.07,0,0-.09.08-.14.1.19-.12.9,0,.71-.25.53.13,1-.12,1.42,0,.27-.31.9.15,1-.29,0,.45.92.37,1.25.15-.11.14.29.14.16.33.38,0,.72-.09.66-.32.69.54,1.4-.43,1.79.26a28.45,28.45,0,0,1,3.17-.51c0,.45-1.12,0-1.08.51a7.42,7.42,0,0,1,2.46-.46c.25.06-.14.2-.22.27a7.35,7.35,0,0,1,1.39-.08,10.48,10.48,0,0,0,2.06-.12s-.08.09-.21.12c.27,0,.71.07.5-.14l-.22.06c-.37-.17-.12-.35,0-.5a3.35,3.35,0,0,0-.28-.7c.58.84.14-1,.89,0,0-.21-.14-.48-.28-.49,0-.22.12-.3.28,0a2.23,2.23,0,0,0-.21-.84.91.91,0,0,1-.11-.49c.09,0,.13.11.25.16a1.2,1.2,0,0,1-.3-1c.06,0,.13,0,.13.11,0-.79-.51-1.34-.33-2.21.44.26.15-.29.52-.34l-.11-.47-.18.19c0-.41-.27-.77-.15-1.12l.16.3-.07-.76-.14.43c-.2-.41-.48,0-.37-.5,0,.11,0-.4.22-.62h0a.82.82,0,0,1-.15-.71c.12-.08.41.07.49,0-.31-.19-.08-.95-.42-1.2a.36.36,0,0,0,.32.06l-.26-.17c.09-.19.13-.22.28-.19.05-.56-.47.18-.27-.49,0,0,.06,0,.1.14.11-.68-.16-1.31,0-1.93.38-.19.09.54.41.33a16.36,16.36,0,0,1-.36-2.73l0,.16c-.53-.12.26-.64,0-1.08,0,.1.29.14.24.11a7.38,7.38,0,0,0-.3-2.12l.13.11a9.07,9.07,0,0,0,.14-1.3c-.14-.11-.12-.33-.32-.2.78-1.17-.41-2.23.24-3.26,0,.12.11.29.11.19l-.12-.88c-.23.07-.14.12-.32.3a.8.8,0,0,1-.24-.58c.15.4.37,0,.5-.17-.07,0-.15,0-.22,0,.41-.46-.47-.08-.19-.71l.12,0c-.06-.24-.22-.46-.19-.71.27-.11.13.25.35.27,0-.36-.51-.71-.24-1,.07.15.07.37.15.52a.83.83,0,0,0,.28-.65v0l.14-.6-.08.15c-.7-.44-.13-.91-.58-1.51.43.59.25.1.55.14.08-.15.18-.38.26-.32-.24-.28.19-.47-.16-.87.09,0,0-.31.25-.24-.08-.37-.17.08-.29.05-.33-.57.4-1.34-.05-2.16-.19-.7-.52-.84-.68-1.49.15-.22.35.18.35.18a1.28,1.28,0,0,0,0-1c.08.07.15,0,.26-.11,0-.27-.35-.18-.21-.53a1.31,1.31,0,0,1,.39.27c-.09-.32-.27-.64-.36-1,.17-.08.26.2.37.32-.07-.37-.15-1-.42-1.08l-.1.24c0-.13.23-.07.28,0a.29.29,0,0,1-.19.48l-.06-.24c-.57.24.09,1,.06,1.42l-.42-.2.35.49c-.11.1-.34.17-.41-.06-.2.34.15.3-.08.59,0,0,0,0-.07,0l.13.33c-.09-.07-.3,0-.24-.15-.24.59.31,1,0,1.18l0,0c.14.82.31.08.67.7l-.76.41.31.08c0,.09,0,.26-.16.23.21.31.14-.06.33.13-.28.41.13,1.12-.35,1.22.23.14.18-.39.34,0-.53.13.09.51-.15.88-.27-.11-.13-.47-.37-.09.45.22-.1.72,0,1,.36,0,.15.69.27,1.21-.12,0-.2,1-.33,1.49h-.06c.36.09.29.6.37,1a.39.39,0,0,1-.4-.28v.35a.58.58,0,0,1,.22.41l-.28-.08c0,.46.33.93.14,1.52.26,0,.72-.47.89.16-.14,0-.38,0-.43-.12,0,0,.11.19.05.3l-.23-.25c-.1.27.19.14.17.36-.2,0-.14.16-.3.13,0-.06.09-.19,0-.27a1,1,0,0,1-.3.63.22.22,0,0,1,.29.18c0,.46-.24.16-.34.43.14.11,0,.41.29.41,0,.14-.14.17-.22.22.13.24,0,1.12.35.85l0-.07,0,0h0c.29.79-.17,1.63,0,2.41h-.09a5.19,5.19,0,0,0,.27,1.37c0,.13-.18.32-.29.26a1.21,1.21,0,0,1,0,.91c-.17-.36-.15.12-.13-.36-.08.46-.24.56,0,1.06-.25-.17-.32.34-.24.56l.18-.32a3.06,3.06,0,0,1,0,.68l-.33-.12c-.41,1,.69,1.71,0,2.43.23.25.16-.52.43-.29,0,.43-.52.88-.52,1-.18.6.49.56.36,1.18.12-.08.44-.16.55.31,0,.43-.5.53-.59.26,0-.11,0-.16.06-.15s-.09-.33-.22-.15l.12,0c-.12.22-.11.82-.3.68.11.32.19.14.25-.11-.17.56,0,.87-.12,1.45.07-.09.21-.18.21-.09-.15.85.22.38.27.95-.18.32-.43-.12-.28.45-.12.35-.31.08-.41-.06.23.52-.15,1-.19,1.28l-.1-.28a1.17,1.17,0,0,1,.06.44l.23-.16c0,.16,0,.3-.14.3.16.16.4-.13.61.2a.74.74,0,0,0,0,.39c0,.08,0,.15-.16.13.1-.31-.32.06-.37-.29,0,.15,0,.15,0,.18l-.08,0c-.28,0,.36.13.35.4-.18-.15-.34-.21-.3-.17s.3.19.43.44h0c-.26-.11-.1.11-.23.1l.18.06c.08.18-.08.16-.25.21-.07-.13.13-.09,0-.15,0,.15-.21.07-.33,0a.52.52,0,0,0-.56-.09c-.22-.12,0-.34-.21-.42-.53.23-.57-.24-1.12,0,.16.24.19.18-.2.41l.9-.17-.58.35c.28,0,.58-.15.74-.11-.27.19-.25.14-.12.33-.37-.35-.73.21-1.16,0v-.59c-.65-.26-1.15.3-2,.15l.27.11c-.11.23-.52,0-.79.12,0-.19-.15-.26-.26-.39,0,.15-.62,0-.69.38l-.38-.26c-.68-.1-.77.57-1.43.5.2-.22-.1-.36.34-.51-.22,0-.41,0-.42.1-.12-.12-.6.27-.8.08-.09.08-.12.29-.37.27a.12.12,0,0,1,0-.09c0,.09-.38.13-.17.35-.67-.62-1.87,0-2.45-.49-.48.07-1,.13-1.48.15,0-.06,0-.1.08-.08-.6-.18-.37.57-1,.36-.35-.32.36-.17.14-.29-.09-.65-.82.09-1.27-.29l.11,0c-.35-.22-.85.25-1.42.2a.11.11,0,0,0,0-.1,3.78,3.78,0,0,1-1.67.53c.17-.25.25-.13.14-.39-.24,0,.07.42-.42.49-.16-.14-.51-.26-.56-.54h.47c-.24-.36-.6,0-.85,0l0-.16c-.71,0-.72.45-1.48.42l.07.11c-.41.39-.34-.21-.76.08L106,128a9.43,9.43,0,0,1-1.46.46,4.2,4.2,0,0,1,1.21-.62c-.27,0-.92,0-1.06.22.11,0,.24-.13.35-.07a1.84,1.84,0,0,1-1.31.46c.09-.77-1.42-.2-1.81-.79-1,.28-1.9-.12-3-.08.4.6-.33,0-.26.63-.26,0-.36,0-.38,0l-.79-.36c-.19-.18.25-.14.22-.28-.57,0-.23-.25-.61-.42.08.22-.2.32-.53.23l.46.28a.61.61,0,0,1-.74-.09.9.9,0,0,0-.29-.16.64.64,0,0,0-.2,0c-.06,0-.19,0-.18.07s.09-.12.18-.19l-.17,0s0,0,0,0l-.09,0-.56.39a1.38,1.38,0,0,1,.31-.28s-.17,0-.39.1a7.5,7.5,0,0,1-.75.19s.12-.15.36-.27l.3-.08c-.07,0-.49.09-.15,0a1.68,1.68,0,0,0,.3-.07c-.1,0-.36,0-.15-.1H95c.23-.09.11-.11.05-.24a.48.48,0,0,1-.07-.24.44.44,0,0,1,.14-.36c.31.31,1-.12,1.27-.34l0,0a12.51,12.51,0,0,0,1.7-2.45c.79-.12,1.68-1.4,2.6-1.94-.17,0-.23-.26-.13-.42s.26-.69.52-.38l-.07.06c.41.15.69-.28,1-.55l-.33-.42c1.27-.17,1.69-2.08,2.57-2,.08-.26.29-.48.37-.74l.19.21a8,8,0,0,0,1.35-1.29l0,.26c.35-.32-.15-1,.14-1.32l.4.21c.58-.59,1.43-.92,1.74-1.77a.22.22,0,0,1,0,.26c.28-.27,1.27-.86.76-1.17.27.26.63-.58.82-1l.15.24c0-.52,0-.59.26-1,.11-.06.24.09.07.15.39-.19,0-.41.5-.67v.26c.32-.28.23-.33.25-.64s.62-.53.85-.39a.49.49,0,0,1,.18-.59c.09,0,.07.15.06.2.64-.37.52-1,1.06-1.13a.21.21,0,0,0,.18.06,5.69,5.69,0,0,1-.73.66c.18.18.54-.11.53.4.13-.4.27-1.14.68-1.37a.2.2,0,0,1,.1,0v0a.39.39,0,0,0,.17-.23,1.45,1.45,0,0,0,.32-.2c.18.11.45-.3.62-.45-.21-.19,0-.37-.33-.33,0,0,0,0-.11.17a.41.41,0,0,0,0,.09v0l-.39.42c0-.23.07-.45.36-.52,0-.21-.08-.43-.09-.55.5.06,1.07-.22,1.3-.11.39-.6,1.1-1.24,1-1.92.1-.19.27,0,.38,0s-.14.21-.13.31c.18-.38.79-.87.6-1.2.47-.24,0,.44.48-.09l0,.15c1.37-.55.89-2.23,2.49-2.75-.11,0-.16.06-.22,0,1.45-1,2.27-2.72,3.84-3.54.42-.26.29-.46.37-.8l.28.14.11-.6c.32-.68,1.39-.34,1.69-1.32l-.23-.06c.26-.2.64-.81.77-.61,0,0-.07-.22.09-.24l.12.11.37-.75c.51-.36.37.51,1-.11.19-.27.35-1,.18-1s-.31.17-.43.07l.16-.27c-.29-.37-.46-.88-1.22-.58l-.17.57-.28,0,.3-.32c-.32,0-.3.27-.34.49a.38.38,0,0,0-.33,0l-.05.68c-.17-.09-.09-.42-.4-.25,0,.32.45.13.26.5-.32,0-.39-.14-.47.19-.12,0-.13-.15-.08-.27-.08.28-.45.53-.37.8-.37,0-.57.67-.87.34a1.4,1.4,0,0,1-.23.75c-.07-.68-.66.62-1,.13.11.57-.68,1-.9,1.57,0-.05,0-.15,0-.16-.25.2-.42.16-.63.24.25.31,0,.73-.07,1.09-.54,0-.15-.49-.5-.66.24.21-.26.71,0,.8-.37.05-.26.11-.6,0,.31.38-.14.25-.11.64-.48.14-.4-.24-.63.21C120.06,98.35,120.24,97.93,120.24,97.93Zm-7.5,8.69h0l.15-.18Zm-.68.68a3.56,3.56,0,0,0,.31-.28c.09,0,.13.14.06.2S112.22,107.26,112.06,107.3Zm2.82-.06c-.08.14-.16.14-.21.11a1.41,1.41,0,0,0,.16-.21v0A.53.53,0,0,1,114.88,107.24Z"/><path class="cls-3" d="M114.81,106.79s0,0,0-.06l-.11,0,0,.1Z"/><path class="cls-3" d="M128.5,110.64v0a.1.1,0,0,1,0,0Z"/><polygon class="cls-3" points="102.29 116.32 102.34 116.37 102.35 116.27 102.29 116.32"/><path class="cls-3" d="M129.47,105.34a.15.15,0,0,0,.07-.07S129.49,105.3,129.47,105.34Z"/><path class="cls-3" d="M129.53,103.05l.1-.33A1.86,1.86,0,0,0,129.53,103.05Z"/><path class="cls-3" d="M129.67,101.29a.41.41,0,0,0-.12,0h0Z"/><path class="cls-3" d="M129.11,129.82H129C128.77,129.89,128.94,129.87,129.11,129.82Z"/><path class="cls-3" d="M129.34,120.94c0,.09.1.18.14.27C129.5,121.06,129.5,121,129.34,120.94Z"/><polygon class="cls-3" points="119.09 130.16 119.09 130.15 119.03 130.15 119.09 130.16"/><path class="cls-3" d="M129.47,121.6a.58.58,0,0,0,0-.39A.86.86,0,0,0,129.47,121.6Z"/><path class="cls-3" d="M129.8,93.66v-.09a0,0,0,0,1-.05,0Z"/><path class="cls-3" d="M129.76,93.56l0-.09S129.73,93.55,129.76,93.56Z"/><path class="cls-3" d="M129.66,93.27l.07.2C129.73,93.4,129.74,93.32,129.66,93.27Z"/><path class="cls-3" d="M129.67,96l.1,0A.15.15,0,0,0,129.67,96Z"/><path class="cls-3" d="M129.7,96.7c0-.17.21-.43.15-.66l-.08,0C129.92,96.13,129.52,96.54,129.7,96.7Z"/><path class="cls-3" d="M128.44,99.65l.08-.59c-.11.1-.26.24-.28,0C127.91,99.78,128.48,98.87,128.44,99.65Z"/><path class="cls-3" d="M128.28,101.49c-.05-.32-.16,0-.22,0C128.16,101.68,128.18,101.73,128.28,101.49Z"/><path class="cls-3" d="M128.28,114.79l-.26,0C128.06,115,128.12,114.76,128.28,114.79Z"/><polygon class="cls-3" points="129.6 117.33 129.76 117.09 129.52 116.97 129.6 117.33"/><polygon class="cls-3" points="127.78 118.83 127.74 118.72 127.83 119.13 127.78 118.83"/><path class="cls-3" d="M116.5,127.69l.08.31C116.74,128,116.78,127.59,116.5,127.69Z"/><path class="cls-3" d="M106.86,128a.37.37,0,0,0-.54-.1C106.54,127.93,106.75,128.05,106.86,128Z"/><polygon class="cls-3" points="102.27 119.91 102.2 120.13 102.4 119.81 102.27 119.91"/></g></g></svg>