<svg xmlns="http://www.w3.org/2000/svg" viewBox="0 0 71.5 71.88"><defs><style>.cls-1{fill:#2c233f;stroke:#fff;stroke-miterlimit:10;stroke-width:0.5px;}</style></defs><g id="Calque_2" data-name="Calque 2"><g id="Calque_1-2" data-name="Calque 1"><g id="Calque_2-2" data-name="Calque 2"><g id="Calque_1-2-2" data-name="Calque 1-2"><path class="cls-1" d="M50,12.15H2.62C.25,12.15.25,13.7.25,14.53v9.52H52.32V14.53C52.32,12.15,52.32,12.15,50,12.15ZM7.65,21.07a1.49,1.49,0,1,1,1.48-1.5h0a1.48,1.48,0,0,1-1.47,1.49h0Zm5.91,0A1.49,1.49,0,1,1,15,19.57h0a1.48,1.48,0,0,1-1.47,1.49h0Zm5.92,0A1.49,1.49,0,1,1,21,19.57h0a1.48,1.48,0,0,1-1.47,1.49h0Z"/><path class="cls-1" d="M54.68,24.05V55h14.2c2.37,0,2.37-1.55,2.37-2.38V14.53H54.68Z"/><path class="cls-1" d="M68.88.25H19.18c-2.36,0-2.36,1.55-2.36,2.38V9.8H52c1.92,0,2.66,0,2.66,2.38H71.25V2.63C71.25,1.8,71.25.25,68.88.25Zm-43.48,6a1.49,1.49,0,1,1,1.47-1.51h0A1.49,1.49,0,0,1,25.4,6.25Zm5.91,0a1.49,1.49,0,1,1,1.48-1.5h0a1.49,1.49,0,0,1-1.48,1.5Zm5.94,0a1.49,1.49,0,1,1,1.48-1.5h0a1.49,1.49,0,0,1-1.48,1.5Z"/><path class="cls-1" d="M24,50.69H18.25c-1.43,0-3-.16-3.23,1.84-.2,1.75-.1,3.56,1.8,4.41A9.62,9.62,0,0,0,21.4,58c1.08-.15,2.18-.28,3.24-.5v.05c2.53-.54,3.91-2.18,3.67-4.69C28.09,50.12,25.87,50.69,24,50.69Z"/><path class="cls-1" d="M21.33,46c2.34.1,3.44-1.13,3.73-3.36-.1-2.17-1.27-3.49-3.5-3.49-1.93,0-3.33.82-3.43,3S19,45.93,21.33,46Z"/><path class="cls-1" d="M32.35,46h.12A1.8,1.8,0,0,0,34,44a.81.81,0,0,0,0-.22h0a1.89,1.89,0,0,0-2.14-1.6h-.21a1.89,1.89,0,0,0-1.79,2v0C29.9,45.32,30.72,46,32.35,46Z"/><path class="cls-1" d="M.25,26.43V69.25c0,.82,0,2.38,2.37,2.38H50c2.37,0,2.37-1.55,2.37-2.38V26.43ZM28.48,43.3a3.25,3.25,0,0,1,3.59-2.85h.18a3.33,3.33,0,0,1,3.23,3.39c0,2.47-1.31,3.86-3.4,3.86-2.34.1-3.74-1.41-3.6-3.84A5.23,5.23,0,0,1,28.48,43.3ZM16.37,42.17a4.86,4.86,0,0,1,5-4.72H22a4.75,4.75,0,0,1,4.72,4.78v0c.28,3.35-1.8,5-4.86,5.7-3.07-.34-5.18-1.9-5.41-4.91a4,4,0,0,1-.05-.84Zm5.2,17.4c-5.32,0-8.32-2.32-8.18-6.32.25-6.17,5.2-3.32,8.2-4.27,3,1,7.93-1.94,8.13,4.3C29.84,57.38,26.9,59.6,21.57,59.57Zm14.7-4C35,58,32.94,58,29.94,58.23c1.72-2.45,4.41-1.84,5.35-3.74,1.2-4.11-2.5-3.46-5.5-4.35,2.88-1.47,4.89-1.34,6.38,0s1.56,3.48.08,5.38Z"/></g></g></g></g></svg>