<svg xmlns="http://www.w3.org/2000/svg" viewBox="0 0 32.09 31.67"><defs><style>.cls-1{fill:#fff;}</style></defs><g id="Calque_2" data-name="Calque 2"><g id="Calque_1-2" data-name="Calque 1"><path id="Tracé_207" data-name="Tracé 207" class="cls-1" d="M32.09,15c-.16,3.42-.14,6.09-.45,8.73-.52,4.52-3.2,7.38-7.78,7.68a112.63,112.63,0,0,1-15.15.07C3.28,31.09.43,28.17.14,22.75a118.57,118.57,0,0,1,.22-15A7.79,7.79,0,0,1,8.17.17c5.3-.25,10.64-.21,16,0a7.87,7.87,0,0,1,7.41,7C32,10,32,12.86,32.09,15m-16-12c-2.4,0-4.8-.09-7.19,0C5.49,3.1,3.3,5,3.16,8.37c-.2,4.91-.21,9.84,0,14.75.14,3.41,2,5.3,5.45,5.45,4.91.21,9.84.2,14.75,0,3.4-.14,5.31-2.05,5.45-5.45.2-4.91.2-9.84,0-14.75C28.64,5,26.5,3.12,23.06,3c-2.32-.12-4.66,0-7,0"/><path id="Tracé_210" data-name="Tracé 210" class="cls-1" d="M24.15,16A8.18,8.18,0,1,1,16,7.7a8.09,8.09,0,0,1,8.13,8V16M16,21.05a5.26,5.26,0,1,0-5.23-5.33,5.14,5.14,0,0,0,4.93,5.33H16"/><path id="Tracé_211" data-name="Tracé 211" class="cls-1" d="M24.92,5.14c.48.72,1.36,1.47,1.33,2.17s-1,1.25-1.61,1.88c-.65-.6-1.72-1.14-1.84-1.84s.8-1.46,1.26-2.21h.86"/></g></g></svg>