<svg xmlns="http://www.w3.org/2000/svg" width="140.086" height="309.286" viewBox="0 0 140.086 309.286">
  <g id="Calque_2" data-name="Calque 2" transform="translate(-53.889 262.413) rotate(-70)">
    <g id="Calque_1" data-name="Calque 1">
      <path id="Tracé_176" data-name="Tracé 176" d="M11.26,114.35c1,0,1,.82,1.2,1.54a11.52,11.52,0,0,0,8.68,8.66c.73.2,1.58.23,1.49,1.23s-.95.9-1.68,1c-4.79.84-7.62,3.68-8.51,8.44-.13.71,0,1.63-1,1.73-1.29.13-1.1-1-1.33-1.78-1.31-4.43-3.84-7.62-8.68-8.41-.61-.1-1.28-.1-1.43-.88-.2-1,.58-1.23,1.3-1.41,4.86-1.25,7.94-4.22,9-9.21a1.08,1.08,0,0,1,.96-.91Z" fill="#efebf6"/>
      <path id="Tracé_177" data-name="Tracé 177" d="M247.52,6.17a6.68,6.68,0,0,1-13.35.53c0-4.21,2.46-6.7,6.66-6.7S247.46,2.21,247.52,6.17Z" fill="#efebf6"/>
      <path id="Tracé_178" data-name="Tracé 178" d="M273.35,82.34c-1-.23-2.61.46-2.57-1.16s1.65-1,2.63-1S276,80,276,81.37C275.93,83,274.26,82,273.35,82.34Z" fill="#dcd5eb"/>
      <path id="Tracé_179" data-name="Tracé 179" d="M80,37.48c-1.39-.93-3.13-1.31-3.58-3-.18-.66.56-1.1,1.22-.71,1.29.78,3.25.79,3.56,2.72C81.25,37.07,80.56,37.43,80,37.48Z" fill="#e2dcef"/>
      <path id="Tracé_180" data-name="Tracé 180" d="M288.28,96.86c.22-.85-.41-2.35,1-2.26s1.23,1.57,1.2,2.65.1,2.6-1.38,2.38S288.53,97.82,288.28,96.86Z" fill="#ded7ec"/>
      <path id="Tracé_181" data-name="Tracé 181" d="M305.06,80.09c.9.13,2.33-.27,2.3,1.09-.05,1.62-1.61,1.08-2.6,1.1s-2.27.32-2.1-1.2C302.82,79.72,304.18,80.26,305.06,80.09Z" fill="#e1daee"/>
      <path id="Tracé_182" data-name="Tracé 182" d="M81.23,50.46c-.62,1.68-2.37,1.86-3.69,2.57-.7.38-1.36-.14-1.19-.78.47-1.75,2.41-1.81,3.62-2.73C80.61,49,81,49.8,81.23,50.46Z" fill="#e1daee"/>
      <path id="Tracé_183" data-name="Tracé 183" d="M290.53,65.56c-.17.86.38,2.28-1,2.38-1.76.15-1.18-1.46-1.24-2.42s-.3-2.27,1.08-2.27S290.41,64.63,290.53,65.56Z" fill="#e2ddef"/>
      <path id="Tracé_184" data-name="Tracé 184" d="M108.53,44.51c-.87-.18-2.29.38-2.4-1-.15-1.77,1.47-1.19,2.43-1.24s2.28-.32,2.28,1.08S109.46,44.38,108.53,44.51Z" fill="#ded7ec"/>
      <path id="Tracé_185" data-name="Tracé 185" d="M76.51,44.51c-.93-.13-2.37.26-2.29-1.12.08-1.6,1.65-1.06,2.64-1.08s2.28-.29,2.06,1.24C78.73,44.9,77.37,44.33,76.51,44.51Z" fill="#ded7ec"/>
      <path id="Tracé_186" data-name="Tracé 186" d="M299.16,66.38c-1,1-1.12,2.77-2.59,3.51-.41.2-1.37-.24-1-1,.59-1.38.79-3.16,2.7-3.51C298.71,65.27,299.14,65.59,299.16,66.38Z" fill="#e0d9ed"/>
      <path id="Tracé_187" data-name="Tracé 187" d="M304.21,71.45c1,0,1.15.58,1,1-.45,1.84-2.2,2.1-3.61,2.64-.68.25-1.2-.9-.94-1.13A38.188,38.188,0,0,1,304.21,71.45Z" fill="#e1dbee"/>
      <path id="Tracé_188" data-name="Tracé 188" d="M295,92.94a9.16,9.16,0,0,1,1.18-.16c2.06.48,2.18,2.42,2.83,3.92.07.15-.76,1-.9.88C296.27,96.67,296.3,94.65,295,92.94Z" fill="#e0daee"/>
      <path id="Tracé_189" data-name="Tracé 189" d="M107.3,33.82c.85-.07,1.48.44,1.21,1-.72,1.49-2.5,1.68-3.75,2.55-.07,0-.93-.64-.88-.89C104.23,34.55,106.16,34.62,107.3,33.82Z" fill="#e0daee"/>
      <path id="Tracé_190" data-name="Tracé 190" d="M86.2,30.55c.21.76,0,1.22-.57,1.21-2.1,0-2.15-2-2.88-3.24a.81.81,0,0,1,.77-1.24C85.28,27.68,85.1,29.76,86.2,30.55Z" fill="#e0d9ed"/>
      <path id="Tracé_191" data-name="Tracé 191" d="M302.1,87.57A4.81,4.81,0,0,1,305.23,90c.17.41-.21,1.11-.77.92-1.43-.51-3.13-.78-3.8-2.37C300.46,88.1,301.25,87.61,302.1,87.57Z" fill="#e1dbee"/>
      <path id="Tracé_192" data-name="Tracé 192" d="M99.6,32.21c-.79-.25-1.15-.81-.9-1.4.59-1.38,1.11-2.91,2.69-3.48.32-.12.79.63.56,1.11C101.29,29.78,101.06,31.42,99.6,32.21Z" fill="#e0d9ed"/>
      <path id="Tracé_193" data-name="Tracé 193" d="M108.62,52c-.27.73-.71,1.23-1.39.86-1.2-.67-3-.69-3.24-2.5-.07-.55.64-.76,1.1-.57C106.39,50.35,107.9,50.61,108.62,52Z" fill="#e0d9ed"/>
      <path id="Tracé_194" data-name="Tracé 194" d="M99.58,55c1.61.46,1.76,2.1,2.34,3.36.31.66-.35,1.44-.87,1.26-1.43-.49-1.54-2.09-2.19-3.24C98.52,55.75,98.62,55.16,99.58,55Z" fill="#e0daed"/>
      <path id="Tracé_195" data-name="Tracé 195" d="M86.28,56.15c-1.17.81-1,2.92-2.79,3.34a.776.776,0,0,1-.81-1c.61-1.43,1.16-3,2.86-3.53C86.09,54.85,86.35,55.4,86.28,56.15Z" fill="#e0d9ed"/>
      <path id="Tracé_196" data-name="Tracé 196" d="M277.67,74.07a1,1,0,0,1-1.49.63c-1.13-.62-2.83-.67-3.14-2.18-.14-.74.76-1.21,1.6-.71C275.74,72.45,277.27,72.57,277.67,74.07Z" fill="#e0daee"/>
      <path id="Tracé_197" data-name="Tracé 197" d="M277.63,88.71a7.19,7.19,0,0,1-3.5,2.25.8.8,0,0,1-.85-1.19,4.6,4.6,0,0,1,3.61-2.15C277.48,87.56,277.68,88,277.63,88.71Z" fill="#e0d9ed"/>
      <path id="Tracé_198" data-name="Tracé 198" d="M280.69,65.33c1.39.71,1.72,2.18,2.22,3.5.17.46-.31,1.22-.68,1a5.48,5.48,0,0,1-2.55-3.68C279.53,65.61,280.11,65.42,280.69,65.33Z" fill="#dfd8ed"/>
      <path id="Tracé_199" data-name="Tracé 199" d="M92.73,24.79c.65,2.35.89,3.81.09,5.16-.21.36-.95.17-1.24-.31C90.55,28,91.31,26.72,92.73,24.79Z" fill="#ddd6eb"/>
      <path id="Tracé_200" data-name="Tracé 200" d="M280.55,97.48c-.81-.27-1.23-1-.85-1.41.89-1,.95-2.91,2.74-3,.53,0,.75.68.52,1.11C282.31,95.37,281.82,96.75,280.55,97.48Z" fill="#dfd8ed"/>
      <path id="Tracé_201" data-name="Tracé 201" d="M92.85,56.33c.51,2.18.72,3.84-.42,5.44C91.8,60.09,91.2,58.41,92.85,56.33Z" fill="#ddd5eb"/>
      <path id="Tracé_202" data-name="Tracé 202" d="M17.41,125.56a17,17,0,0,0-6.09,6.29,30.87,30.87,0,0,0-6-6.31c1.9-1.55,3.93-2.77,5.05-4.91.54-1,1.32-1.15,1.9,0C13.38,122.72,15.36,124,17.41,125.56Z" fill="#fff"/>
      <path id="Tracé_203" data-name="Tracé 203" d="M245.31,6.3c.17,3.15-1.79,4.65-4.45,4.68-2.44,0-4.44-1.27-4.47-4.25s2-5.42,4.49-5.15S245.49,3.19,245.31,6.3Z" fill="#fff"/>
    </g>
  </g>
</svg>
