<svg xmlns="http://www.w3.org/2000/svg" viewBox="0 0 160.45 301.21"><defs><style>.cls-1{fill:#efebf6;}.cls-2{fill:#dcd5eb;}.cls-3{fill:#e2dcef;}.cls-4{fill:#ded7ec;}.cls-5{fill:#e1daee;}.cls-6{fill:#e2ddef;}.cls-7{fill:#e0d9ed;}.cls-8{fill:#e1dbee;}.cls-9{fill:#e0daee;}.cls-10{fill:#e0daed;}.cls-11{fill:#dfd8ed;}.cls-12{fill:#ddd6eb;}.cls-13{fill:#ddd5eb;}.cls-14{fill:#fff;}</style></defs><g id="Calque_2" data-name="Calque 2"><g id="Calque_1-2" data-name="Calque 1"><g id="Calque_2-2" data-name="Calque 2"><g id="Calque_1-3" data-name="Calque 1"><path id="Tracé_176" data-name="Tracé 176" class="cls-1" d="M22.51,10.06c.1,1-.71,1.08-1.41,1.36A11.52,11.52,0,0,0,13.4,21c-.13.75-.07,1.6-1.07,1.62s-1-.86-1.17-1.57c-1.34-4.68-4.47-7.2-9.29-7.58-.72-.06-1.63.17-1.83-.82-.27-1.27.88-1.19,1.63-1.51C5.94,9.34,8.85,6.48,9.13,1.58c0-.61,0-1.28.72-1.51,1-.3,1.29.45,1.54,1.14,1.76,4.71,5,7.46,10.11,8A1.1,1.1,0,0,1,22.51,10.06Z"/><path id="Tracé_177" data-name="Tracé 177" class="cls-1" d="M155,233.78A6.69,6.69,0,0,1,153,220.55c4.19-.44,6.93,1.75,7.37,5.93S158.89,233.31,155,233.78Z"/><path id="Tracé_178" data-name="Tracé 178" class="cls-2" d="M81.88,267.48c.12-1-.74-2.55.88-2.68s1.17,1.54,1.27,2.51.45,2.56-.91,2.71C81.49,270.12,82.31,268.35,81.88,267.48Z"/><path id="Tracé_179" data-name="Tracé 179" class="cls-3" d="M106.21,70.39c.78-1.48,1-3.25,2.61-3.88.64-.25,1.15.44.83,1.14-.64,1.37-.44,3.32-2.33,3.83C106.75,71.59,106.32,70.94,106.21,70.39Z"/><path id="Tracé_180" data-name="Tracé 180" class="cls-4" d="M69,283.86c.87.13,2.29-.65,2.35.76s-1.43,1.39-2.51,1.47-2.58.37-2.51-1.12S68.07,284.21,69,283.86Z"/><path id="Tracé_181" data-name="Tracé 181" class="cls-5" d="M87.44,298.8c0,.91.52,2.29-.84,2.4-1.62.12-1.24-1.49-1.37-2.47s-.55-2.23,1-2.22C87.58,296.53,87.18,297.94,87.44,298.8Z"/><path id="Tracé_182" data-name="Tracé 182" class="cls-5" d="M93.42,73c-1.73-.44-2.1-2.16-2.94-3.4a.75.75,0,0,1,.65-1.26c1.79.28,2.06,2.2,3.1,3.31C94.81,72.2,94.06,72.68,93.42,73Z"/><path id="Tracé_183" data-name="Tracé 183" class="cls-6" d="M100.38,282.81c-.88-.08-2.23.62-2.48-.74-.33-1.74,1.33-1.33,2.28-1.49s2.23-.54,2.37.84S101.29,282.6,100.38,282.81Z"/><path id="Tracé_184" data-name="Tracé 184" class="cls-4" d="M102.21,99.51c.09-.88-.62-2.24.74-2.49,1.75-.34,1.34,1.34,1.49,2.29s.56,2.23-.83,2.38S102.44,100.42,102.21,99.51Z"/><path id="Tracé_185" data-name="Tracé 185" class="cls-4" d="M98.85,67.65c0-.94-.51-2.33.87-2.39,1.6-.09,1.23,1.53,1.35,2.51s.53,2.24-1,2.18C98.69,69.9,99.12,68.49,98.85,67.65Z"/><path id="Tracé_186" data-name="Tracé 186" class="cls-7" d="M100.47,291.49c-1.1-.89-2.88-.83-3.77-2.21-.24-.39.1-1.39.89-1.1,1.44.44,3.23.45,3.78,2.32C101.52,290.92,101.25,291.38,100.47,291.49Z"/><path id="Tracé_187" data-name="Tracé 187" class="cls-8" d="M96,297c.11,1-.45,1.21-.89,1.1-1.88-.25-2.32-2-3-3.31-.32-.65.77-1.29,1-1.06A38.58,38.58,0,0,1,96,297Z"/><path id="Tracé_188" data-name="Tracé 188" class="cls-9" d="M73.6,290.14a8.79,8.79,0,0,1,.29,1.15c-.27,2.1-2.18,2.43-3.61,3.23-.14.09-1.07-.65-1-.8C70,291.79,72,291.61,73.6,290.14Z"/><path id="Tracé_189" data-name="Tracé 189" class="cls-9" d="M112.72,97.17c.16.84-.28,1.52-.87,1.31-1.56-.56-1.93-2.32-2.93-3.47,0-.07.54-1,.79-1C111.67,94.19,111.8,96.12,112.72,97.17Z"/><path id="Tracé_190" data-name="Tracé 190" class="cls-7" d="M113.76,75.83c-.74.29-1.22.13-1.27-.44-.22-2.09,1.77-2.35,2.92-3.21a.82.82,0,0,1,1.32.64C116.52,74.61,114.43,74.65,113.76,75.83Z"/><path id="Tracé_191" data-name="Tracé 191" class="cls-8" d="M79.69,296.64A4.81,4.81,0,0,1,77.6,300c-.39.21-1.12-.1-1-.67.35-1.48.44-3.2,2-4C79,295.06,79.56,295.79,79.69,296.64Z"/><path id="Tracé_192" data-name="Tracé 192" class="cls-7" d="M113.51,89.34c.17-.82.69-1.23,1.3-1,1.44.45,3,.8,3.75,2.31.15.31-.55.86-1,.68C116.11,90.76,114.45,90.71,113.51,89.34Z"/><path id="Tracé_193" data-name="Tracé 193" class="cls-7" d="M94.77,100.39c-.76-.19-1.3-.58-1-1.29.54-1.27.37-3.06,2.14-3.49.54-.13.83.56.69,1C96.18,98,96.08,99.53,94.77,100.39Z"/><path id="Tracé_194" data-name="Tracé 194" class="cls-10" d="M90.83,91.71c-.28,1.65-1.9,2-3.09,2.68-.63.38-1.47-.2-1.35-.73.34-1.48,1.92-1.75,3-2.52C90,90.73,90.57,90.77,90.83,91.71Z"/><path id="Tracé_195" data-name="Tracé 195" class="cls-7" d="M88.29,78.6c-.93-1.08-3-.69-3.61-2.43a.77.77,0,0,1,.61-.91.76.76,0,0,1,.3,0c1.48.46,3.1.84,3.81,2.48C89.57,78.27,89.05,78.59,88.29,78.6Z"/><path id="Tracé_196" data-name="Tracé 196" class="cls-9" d="M90.56,270.91a1,1,0,0,1-.87-1.12.86.86,0,0,1,.09-.3c.49-1.18.36-2.88,1.83-3.35.73-.22,1.29.63.88,1.52C92,268.82,92,270.36,90.56,270.91Z"/><path id="Tracé_197" data-name="Tracé 197" class="cls-7" d="M76,272.41a7.18,7.18,0,0,1-2.61-3.25.8.8,0,0,1,.52-1,.83.83,0,0,1,.58,0A4.59,4.59,0,0,1,77,271.56C77.12,272.14,76.7,272.38,76,272.41Z"/><path id="Tracé_198" data-name="Tracé 198" class="cls-11" d="M99.57,273c-.56,1.46-2,1.94-3.25,2.57-.44.22-1.24-.18-1.06-.57a5.47,5.47,0,0,1,3.39-2.92C99.17,271.87,99.42,272.43,99.57,273Z"/><path id="Tracé_199" data-name="Tracé 199" class="cls-12" d="M120.17,81.72c-2.27.89-3.69,1.29-5.12.63-.38-.17-.27-.92.18-1.26C116.75,79.89,118.1,80.51,120.17,81.72Z"/><path id="Tracé_200" data-name="Tracé 200" class="cls-11" d="M67.57,276.23c.18-.83.86-1.32,1.31-1,1.09.78,3,.64,3.27,2.41.06.53-.59.82-1.05.64C69.85,277.76,68.43,277.42,67.57,276.23Z"/><path id="Tracé_201" data-name="Tracé 201" class="cls-13" d="M88.8,85.15c-2.11.74-3.74,1.12-5.45.16C85,84.5,86.56,83.73,88.8,85.15Z"/><path id="Tracé_202" data-name="Tracé 202" class="cls-14" d="M12,17.36A17.07,17.07,0,0,0,5.1,12a30.88,30.88,0,0,0,5.65-6.63C12.49,7.05,13.92,9,16.17,9.84c1,.43,1.28,1.19.19,1.89C14.4,13.05,13.34,15.16,12,17.36Z"/><path id="Tracé_203" data-name="Tracé 203" class="cls-14" d="M154.59,231.6c-3.11.5-4.81-1.3-5.12-3.94-.26-2.43.8-4.55,3.76-4.89s5.6,1.42,5.59,3.92S157.71,231.45,154.59,231.6Z"/></g></g></g></g></svg>