<svg xmlns="http://www.w3.org/2000/svg" viewBox="0 0 101.63 83.7"><defs><style>.cls-1{fill:#fff;}.cls-2{fill:#b7a5db;}.cls-3{fill:#473f57;}</style></defs><g id="Calque_2" data-name="Calque 2"><g id="Calque_1-2" data-name="Calque 1"><circle class="cls-1" cx="77.36" cy="31.58" r="16.55"/><path class="cls-2" d="M93.24,31.58c.09.06.28,0,.24-.12l-.34-.1Z"/><path class="cls-2" d="M93.8,30.57a.69.69,0,0,0-.75-.2c.32.14.19.19.58.35a.2.2,0,0,1-.22.25c.09.05-.06.23.15.3a.42.42,0,0,0,0-.69C93.65,30.52,93.74,30.57,93.8,30.57Z"/><path class="cls-2" d="M87.21,17.74l.06.09A.15.15,0,0,0,87.21,17.74Z"/><path class="cls-2" d="M78.5,14.45c.07,0,.1,0,.11-.06S78.49,14.42,78.5,14.45Z"/><path class="cls-2" d="M76.87,14.05l.1,0S76.89,14,76.87,14.05Z"/><path class="cls-2" d="M87.21,17.74l-.14-.24C87,17.58,87.13,17.64,87.21,17.74Z"/><path class="cls-2" d="M92.78,28.71a.27.27,0,0,0,.1.11l0-.11Z"/><path class="cls-2" d="M90.47,20.34l0,.06.14,0Z"/><path class="cls-2" d="M92.37,23c0-.07-.28.05-.4.09a.26.26,0,0,1,.24,0A.51.51,0,0,0,92.37,23Z"/><path class="cls-2" d="M93.76,27.81l.06.08Z"/><path class="cls-2" d="M88.89,18.66a.26.26,0,0,0,0-.1A.18.18,0,0,0,88.89,18.66Z"/><path class="cls-2" d="M92.22,34.85l0,0S92.23,34.83,92.22,34.85Z"/><path class="cls-2" d="M94,31.58v.05l.16,0Z"/><path class="cls-2" d="M73.8,14h0C73.88,14,73.84,14,73.8,14Z"/><path class="cls-2" d="M60.06,35.33c.17-.36.44.42.6-.09C60.56,35.31,60.12,34.91,60.06,35.33Z"/><path class="cls-2" d="M92.81,28.63l0-.12A.19.19,0,0,0,92.81,28.63Z"/><path class="cls-2" d="M60.66,35.24h0v0Z"/><path class="cls-2" d="M67.37,16.92a.75.75,0,0,0,.13.06S67.45,16.94,67.37,16.92Z"/><path class="cls-2" d="M72.2,15h0Z"/><path class="cls-2" d="M65.53,18.92c-.07,0-.11,0-.16.11h0C65.42,19,65.44,18.94,65.53,18.92Z"/><path class="cls-2" d="M63.66,21h.08l0-.08Z"/><path class="cls-2" d="M89.08,41.51a.92.92,0,0,1,.27.08C89.17,41.48,89.36,41.17,89.08,41.51Z"/><path class="cls-2" d="M92.94,28.68c-.08,0-.11,0-.13-.05l0,.08A.2.2,0,0,0,92.94,28.68Z"/><path class="cls-2" d="M67,20.61l-.32.23A2.13,2.13,0,0,0,67,20.61Z"/><path class="cls-2" d="M73.11,46.38h.09A.06.06,0,0,0,73.11,46.38Z"/><path class="cls-2" d="M65.91,21.71a.65.65,0,0,0-.29,0,.11.11,0,0,0,0,.08Z"/><path class="cls-2" d="M89.35,41.59Z"/><path class="cls-2" d="M90.26,39.11c-.19.3.22.33.37.5-.15.44-.34,0-.58.06,0,.29.11.66,0,.82-.06,0-.1,0-.14-.09.06.41-.5.71-.43,1.21l-.1,0a1.45,1.45,0,0,1,.43.28c-.12.13,0,.39-.27.28.07-.07,0-.14,0-.23l0,.21c-.37-.11.07-.27-.12-.43-.15.33-.22.83-.47,1-.28-.19.34-.54-.12-.48l.37-.22c-.61-.13.2-.16-.43-.33-.43.32-.25.57-.7.86,0,.22.22.18.26.4-.35.77-1-.24-1.12.48,0,.26.25.63-.21.69l-.13-.38c-.43.27.09.62-.5.74,0-.19.26-.35.17-.34-.46,0-.08.32-.3.49l-.23-.25c-.45.31-.82.88-1.35,1.2,0-.1,0-.24-.15-.27a3.59,3.59,0,0,1-1.07.54,10.75,10.75,0,0,1-1.19.15l-.18.38c-.06,0-.15-.1-.1-.17-.31,0,0,.19-.06.33a.15.15,0,0,1-.18-.22c-.42.37-1.3.9-1.9.64l.09-.1c-.42-.06-.38.67-.81.45l.07-.06c-.92,0-2,.26-2.63-.25-.17.42-.88-.23-1,.32-.49-.37-.32-.45-1-.75-.19,0-.36.3-.61.3l.06-.3-.39.24-.08-.41-.24,0a.23.23,0,0,1,.11.26c-.39.06-.77-.43-.72-.6l-.87,0c.06-.11.21-.1.34-.14-.53.14,0-.33-.44-.2,0,.09-.1.16-.13.22a1.4,1.4,0,0,0-.87-.53l.15-.16c-.53-.28-1.17-.52-1.76-.88a.28.28,0,0,1-.29.42l.11-.32c-.23.1.12.22-.25.28-.2-.19.06-.41.24-.41l-.32-.1c0-.09.13-.08.22-.17-.22.08-.23-.59-.59-.42l0-.08c-.55-.39-.82-.56-1.25-.91-.2.19-.32,0-.61,0a5.28,5.28,0,0,0-.72-1.22c-.34-.18-.25.07-.48,0,.18-.18-.14-.57.16-.47a11,11,0,0,0-1.09-1.11c0,.13,0,.24-.13.24a.25.25,0,0,1,0-.38l0,0a1.63,1.63,0,0,1-.54-1.3,1.39,1.39,0,0,0-.48-1.16l0,0-.5-.56c-.07-.32.25.12.31-.16-.69-.58-.26-1.17-.71-1.69a1.18,1.18,0,0,0,.12-1.16,3.81,3.81,0,0,1-.15-.65,1,1,0,0,1,.13-.58l-.17,0c-.18-.16.09-.21.12-.33-.13,0-.15.19-.25.09a4.94,4.94,0,0,1,.11-2.19c.08-.36.22-.71.33-1.06s.24-.69.38-1-.81-.52-.24-1.07l.27.29a3.83,3.83,0,0,1,.37-1.6,5.37,5.37,0,0,0,.58-1.52c0,.09.12.14.07.23.31-.08.43-.69.27-.8.1-.13.17.06.31,0s0-.65.29-.61c0,0,0,.09,0,.14,0-.19.43-.52.12-.58.35-.23.35-.69.69-.83-.1-.35.57-.4.29-.74.32.33.71-.27.77-.58,0,.15.26-.05.32.16.2-.19.34-.43.15-.57.72,0,.56-1,1.22-.65l.4-.51.44-.44a6.66,6.66,0,0,1,.93-.77c.18.39-.73.46-.46.85.5-.55.75-1,1.45-1.27.2,0,0,.23,0,.33.59-.47,1.32-.48,1.86-.91,0,0,0,.1-.1.15.12-.05.31,0,.24-.2l-.11.08c-.29-.23.34-.73.33-.89-.07.63.68,0,.5.79a.27.27,0,0,0,.11-.31c.13,0,.19.08.1.26.42-.22.22-.38.64-.45,0,.1-.06.15-.09.27a.81.81,0,0,1,.73-.41c0,.06,0,.13-.07.14.59-.14,1-.6,1.7-.46-.19.44.24.13.28.5a2,2,0,0,1,.35-.11l-.14-.19c.32,0,.61-.23.88-.1l-.24.14.6,0-.33-.16c.34-.17,0-.47.42-.34-.09,0,.33,0,.47.27h0a.57.57,0,0,1,.59-.07c0,.13-.12.4-.09.49.2-.28.76,0,1-.26a.39.39,0,0,0-.11.3l.18-.22c.13.12.14.16.08.31.42.16,0-.5.44-.17,0,0,0,.06-.13.07.49.24,1.06.09,1.48.4,0,.41-.43-.06-.38.3a6,6,0,0,1,2.11.48l-.1-.09c.32-.43.35.45.77.39-.09,0-.24.2-.19.16a4.93,4.93,0,0,0,1.58.62l-.15.06c.15.27.54.5.74.72.16-.05.28.07.32-.15a1.41,1.41,0,0,0,.9,1c.41.19.8.41.83.94-.07-.08-.24-.1-.19,0l.56.43c.14-.19,0-.16.08-.39a.65.65,0,0,1,.5.19c-.34-.13-.28.24-.3.43,0-.06.13-.07.18-.13-.1.55.4-.24.49.34l-.11,0c.16.12.39.16.49.35-.17.22-.22-.09-.41,0,.18.22.77.16.67.54-.12-.07-.21-.22-.35-.27a.67.67,0,0,0,0,.59v0l.12.48V23.3c.77-.05.51.53,1.11.76-.59-.23-.26,0-.54.15,0,.15,0,.36-.13.35.32.09,0,.41.45.54-.09,0,.09.22-.15.27.19.23.12-.13.24-.16.51.29,0,1.12.66,1.57.33.47.66.49,1,1-.11.21-.38-.05-.38-.05a.87.87,0,0,0,.17.75c-.09,0-.15,0-.25.13.06.2.37.08.27.38a1.59,1.59,0,0,1-.42-.14c.13.23.35.45.47.7-.15.08-.27-.13-.4-.2.12.27.28.72.53.79l.09-.2c0,.11-.23.08-.29,0-.24-.23,0-.37.14-.4l.09.18c.54-.27-.21-.75-.23-1.12l.43.09-.4-.33c.09-.1.31-.21.41,0,.15-.31-.21-.21,0-.49a.05.05,0,0,1,.08,0l-.19-.23c.1,0,.27-.12.25.06.11-.54-.5-.69-.24-1l0,0c-.34-.62-.31,0-.82-.35l.6-.57-.31,0c0-.07,0-.21.08-.22-.29-.18-.11.08-.35,0,.16-.43-.46-.8-.06-1.07-.26,0,0,.37-.32.11.43-.31-.26-.34-.18-.72.28,0,.28.3.36-.09-.48,0-.18-.6-.41-.79-.32.17-.43-.41-.76-.72.14-.06-.31-.8-.46-1.21l.06,0c-.35.17-.53-.23-.8-.41a.42.42,0,0,1,.47-.08l-.2-.22a.46.46,0,0,1-.41-.12l.26-.12c-.29-.28-.76-.38-1-.86-.2.17-.22.77-.71.55.08-.11.23-.3.37-.24-.05,0-.2,0-.22-.13l.31,0c-.09-.23-.22.06-.34-.07.14-.15,0-.2.13-.29s.06.16.16.15a.84.84,0,0,1-.19-.58.23.23,0,0,1-.31.11c-.3-.25.06-.27,0-.5-.15,0-.26-.22-.46,0-.09-.07,0-.19,0-.28-.25,0-.79-.54-.79-.15l0,.05h0c-.67-.17-1-.88-1.67-1.13l.05-.08a3,3,0,0,0-1.15-.26c-.1-.05-.16-.29-.07-.37-.31-.06-.37,0-.71-.29.35-.05,0-.17.34,0-.34-.21-.37-.39-.86-.28.22-.19-.17-.4-.38-.4l.21.27a1.9,1.9,0,0,1-.55-.21l.2-.28c-.7-.61-1.58.27-2-.5-.26.2.4.23.16.47-.35-.1-.66-.63-.78-.65-.49-.25-.54.4-1,.22a.37.37,0,0,1-.31.53c-.35-.06-.41-.52-.17-.6s.13,0,.12.08.29-.08.15-.22l-.06.12c-.17-.13-.69-.15-.56-.34-.29.1-.13.19.07.26A5.07,5.07,0,0,0,77,14.07c.08.06.15.2.08.2-.73-.11-.31.24-.79.32-.29-.17.07-.44-.41-.26-.31-.11-.09-.31,0-.42-.43.24-.86,0-1.14-.05l.23-.13a.92.92,0,0,1-.37.11l.17.21c-.15,0-.27,0-.28-.1-.12.18.17.38-.07.63-.21-.09-.53.2-.66-.08.6,0-.13-.3.36-.43a.66.66,0,0,1-.36,0s0-.07,0-.09c-.62-.15-.19.41-.75.54a.23.23,0,0,0-.3-.23c.23-.05.18.26,0,.44-.4,0-.36.2-.56.24h.24c0,.19-.21.21-.43.36-.06-.12.19-.17.09-.2-.17.4-.71-.08-1,.26-.22,0-.14-.31-.32-.33-.35.36-.56,0-.92.35.23.15.22.09,0,.45l.63-.49-.31.53c.21-.09.38-.36.53-.36-.14.26-.14.21,0,.34-.43-.19-.48.46-.9.39l-.25-.53c-.64,0-.75.72-1.44,1l.26,0c0,.25-.36.25-.51.46-.09-.18-.26-.17-.41-.21.09.11-.44.31-.26.66h-.41c-.54.27-.2.83-.64,1.15,0-.28-.29-.21-.11-.58-.14.12-.29.21-.21.31-.16,0-.2.55-.45.53,0,.11.12.28,0,.41a.21.21,0,0,1-.07-.07c.06.06-.13.32.15.34-.81,0-1,1.16-1.72,1.24-.19.37-.44.79-.64,1.1,0,0-.08-.06,0-.1-.42.33.31.57-.16.94-.42.08,0-.35-.18-.26-.6-.26-.3.63-.8.8v-.1c-.32.17-.1.77-.35,1.18a.14.14,0,0,0-.08,0,3.67,3.67,0,0,1,0,1.51c-.19-.21-.06-.24-.33-.24,0,.2.41.08.34.49-.17.08-.4.32-.66.28a2.72,2.72,0,0,1,.11-.38c-.42.08-.15.49-.26.67l-.14-.06c-.11.6.27.71.09,1.32l.13,0c.3.42-.27.25,0,.64l-.41,0A7.54,7.54,0,0,1,60.59,30c-.28-.26-.34-.77-.47-1.1,0,.23-.09.8.09.93,0-.09-.1-.22,0-.3a1.6,1.6,0,0,1,.37,1.14c-.76-.12-.27,1.18-.81,1.53a2.82,2.82,0,0,1,.13,1.26A6.49,6.49,0,0,0,60,34.82c.53-.45.06.28.65.1.07.21.1.29.06.32l-.19.74c-.13.2-.18-.18-.31-.13.08.5-.2.27-.27.64.19-.12.34.09.33.39l.17-.47c.48.57-.31.73.23,1.3l-.26-.15c.23.31.46,1.29,1.09,1.38,0,.09-.15.24-.26.11A3.74,3.74,0,0,0,62,40.19a2,2,0,0,1,.66,1l-.16,0c.12.11.37.09.37.33-.06,0-.16,0-.13.09s.47.19.53.42L63,42a1.51,1.51,0,0,0,.75.75,4,4,0,0,1,.9.45c-.33.29,0,.9.2,1.17l0,0a6.26,6.26,0,0,0,2.31,1.24,1.76,1.76,0,0,0,.88,1c.43.29.9.6,1.26.9-.09-.13.18-.3.34-.27s.65,0,.45.33l-.06,0c0,.42.41.54.74.65l.25-.47a1.69,1.69,0,0,0,1.38.73c.53.06,1,.09,1.17.48a4.45,4.45,0,0,0,.73-.12l-.06.27a4.66,4.66,0,0,0,1.62.26l-.17.2c.43,0,.59-.79,1-.79l.1.43c.71.06,1.47.35,2.15-.06,0,.06,0,.19-.13.21.34,0,1.36.13,1.15-.42.06.36.75-.07,1.09-.31v.29c.24-.43.23-.53.64-.74.11,0,.14.2,0,.16.38.05.2-.32.65-.28l-.11.21c.36-.08.31-.15.44-.42a.61.61,0,0,1,.8,0c0-.16.11-.42.34-.43a.16.16,0,0,1,0,.2c.66,0,.7-.66,1.19-.58a.24.24,0,0,0,.14.12,4.53,4.53,0,0,1-.78.33c.1.23.48.1.34.56.22-.32.53-.93.93-1l.09,0,0,.05a.26.26,0,0,0,.2-.15,1.09,1.09,0,0,0,.32-.1c.14.16.45-.14.63-.23-.16-.23.08-.33-.25-.4,0,0,0,0-.12.12s0,.05,0,.07v0l-.4.27c.06-.2.13-.39.4-.37,0-.2,0-.42,0-.52.43.2,1,.1,1.18.24.39-.5,1.12-.92,1-1.6.08-.16.24,0,.34,0s-.13.17-.12.27c.17-.33.72-.72.52-1,.42-.17.07.41.44,0l0,.13c.6-.22.76-.74.92-1.24a1.59,1.59,0,0,1,1-1.31c-.09,0-.14.07-.2,0,1.1-1,1.28-2.67,2.22-3.82.24-.35,0-.47,0-.76h.32c-.07-.17-.15-.34-.23-.51-.12-.63,1-.82.65-1.69l-.21.06c.08-.26,0-.86.23-.79,0,0-.19-.11-.07-.2h.16a4.54,4.54,0,0,0-.21-.69c.14-.51.62.13.69-.64,0-.3-.42-.82-.53-.72a.33.33,0,0,1-.27.3L94,31.63c-.46-.05-.93-.22-1.28.35l.26.41-.23.12v-.34c-.22.18,0,.31.08.45a.38.38,0,0,0-.25.15l.42.43c-.19,0-.34-.21-.47,0,.17.2.43-.13.52.19-.24.17-.41.08-.26.33a.19.19,0,0,1-.23-.14c.11.22,0,.53.21.68-.28.15-.05.68-.49.57a.93.93,0,0,1,.22.6c-.42-.46-.2.66-.72.41.41.38-.09.89,0,1.4,0,0-.09-.11-.05-.14-.12.22-.28.23-.41.34.35.18.26.56.38.86-.47.11-.33-.37-.7-.43.29.12.06.6.34.63-.31.1-.19.13-.53.09.42.26,0,.23.15.54-.39.16-.44-.16-.51.23C90.25,39.47,90.26,39.11,90.26,39.11Zm-5.65,6.5h0l.16-.09Zm-.68.33.3-.13c.07.07.09.18,0,.2S84.07,46,83.93,45.94Zm2.4.94c-.1.11-.16.08-.21,0l.19-.15v0A.39.39,0,0,1,86.33,46.88Z"/><path class="cls-2" d="M86.34,46.44s0,0,0,0l-.1,0v.1Z"/><path class="cls-2" d="M87.28,17.84h0s0,0,0,.05S87.28,17.86,87.28,17.84Z"/><polygon class="cls-2" points="73.93 46.44 73.91 46.51 73.99 46.47 73.93 46.44"/><path class="cls-2" d="M89.76,21.48a.2.2,0,0,0,0,.09A.17.17,0,0,0,89.76,21.48Z"/><path class="cls-2" d="M90.76,23l0,.27A1.31,1.31,0,0,0,90.76,23Z"/><path class="cls-2" d="M91.34,24.24a.35.35,0,0,0,.12,0h0Z"/><path class="cls-2" d="M72.85,16.79s0,0,0,0S72.78,16.86,72.85,16.79Z"/><path class="cls-2" d="M79.22,15.58a1.07,1.07,0,0,1-.22.1C79.11,15.72,79.2,15.74,79.22,15.58Z"/><polygon class="cls-2" points="67 20.58 67 20.58 66.97 20.61 67 20.58"/><path class="cls-2" d="M78.69,15.66a.38.38,0,0,0,.31,0A.47.47,0,0,0,78.69,15.66Z"/><path class="cls-2" d="M92.94,29.92V30h0Z"/><path class="cls-2" d="M93,30l0,.07A.07.07,0,0,0,93,30Z"/><path class="cls-2" d="M93.1,30.2,93,30.05C93,30.11,93,30.17,93.1,30.2Z"/><path class="cls-2" d="M92.76,28.11h-.1A.17.17,0,0,0,92.76,28.11Z"/><path class="cls-2" d="M92.6,27.58c0,.14-.13.37,0,.53h.08C92.49,28.07,92.8,27.66,92.6,27.58Z"/><path class="cls-2" d="M93,24.91c0,.16.07.33.1.49.07-.12.17-.28.27-.07C93.48,24.61,93.22,25.54,93,24.91Z"/><path class="cls-2" d="M92.5,23.44c.16.22.13-.08.19-.1C92.52,23.24,92.48,23.22,92.5,23.44Z"/><path class="cls-2" d="M84.37,15.9l.13-.22C84.29,15.62,84.45,15.77,84.37,15.9Z"/><path class="cls-2" d="M82,16.4c0,.07.09.13.13.21l.15-.19Z"/><polygon class="cls-2" points="81.22 14.33 81.32 14.32 80.95 14.32 81.22 14.33"/><path class="cls-2" d="M63.76,20.42l.29.15C64.1,20.43,63.85,20.17,63.76,20.42Z"/><path class="cls-2" d="M60.47,28a.28.28,0,0,0-.18.44C60.33,28.22,60.48,28.06,60.47,28Z"/><polygon class="cls-2" points="71.21 48.26 71.01 48.3 71.34 48.33 71.21 48.26"/><ellipse class="cls-1" cx="77.14" cy="62.24" rx="23.59" ry="12.23"/><path class="cls-2" d="M100.06,62.24c.08.06.28,0,.23-.14L99.94,62Z"/><path class="cls-2" d="M100.56,61.12a.66.66,0,0,0-.79-.12c.37.1.23.17.63.31a.2.2,0,0,1-.21.27c.09.05,0,.25.17.32a.48.48,0,0,0,0-.75C100.41,61.08,100.5,61.12,100.56,61.12Z"/><path class="cls-2" d="M88.48,51l.1.07Z"/><path class="cls-2" d="M78.37,49.39c.08,0,.11,0,.12-.06S78.35,49.36,78.37,49.39Z"/><path class="cls-2" d="M76.61,49l.11,0S76.64,49,76.61,49Z"/><path class="cls-2" d="M88.48,51l-.23-.17C88.2,51,88.36,51,88.48,51Z"/><path class="cls-2" d="M99.11,59.4a.35.35,0,0,0,.13.08l-.08-.1Z"/><path class="cls-2" d="M92.86,52.33l.07,0a.47.47,0,0,0,.12-.09Z"/><path class="cls-2" d="M96,54c-.06-.05-.24.17-.33.25a.28.28,0,0,1,.25-.06A.49.49,0,0,0,96,54Z"/><path class="cls-2" d="M99.72,58.18l.09.06Z"/><path class="cls-2" d="M90.54,51.33a.17.17,0,0,0,0-.1A.17.17,0,0,0,90.54,51.33Z"/><path class="cls-2" d="M98.46,65.29l0,0S98.47,65.28,98.46,65.29Z"/><path class="cls-2" d="M100.8,62.24v0H101Z"/><path class="cls-2" d="M73.35,48.8h0C73.45,48.77,73.4,48.78,73.35,48.8Z"/><path class="cls-2" d="M53.67,66.55c0-.43.61.31.53-.28C54.13,66.38,53.57,66.07,53.67,66.55Z"/><path class="cls-2" d="M99.11,59.31a.6.6,0,0,1-.06-.11S99.08,59.29,99.11,59.31Z"/><path class="cls-2" d="M54.2,66.27h0v0Z"/><path class="cls-2" d="M66,50.23a.47.47,0,0,0,.1.1S66,50.27,66,50.23Z"/><path class="cls-2" d="M71.51,49.56l-.14,0A.39.39,0,0,0,71.51,49.56Z"/><path class="cls-2" d="M63.31,51.48c-.07,0-.11,0-.19.05l0,0S63.22,51.47,63.31,51.48Z"/><path class="cls-2" d="M60.53,52.67l.08,0,.08,0Z"/><path class="cls-2" d="M92.17,70.35a1,1,0,0,1,.22.17C92.27,70.36,92.61,70.12,92.17,70.35Z"/><path class="cls-2" d="M99.25,59.32c-.07,0-.11,0-.14,0l0,.07A.15.15,0,0,0,99.25,59.32Z"/><path class="cls-2" d="M64,53.6l-.43.12A1.56,1.56,0,0,0,64,53.6Z"/><path class="cls-2" d="M72.14,73l.11,0A.11.11,0,0,0,72.14,73Z"/><path class="cls-2" d="M62.34,54.26a.72.72,0,0,0-.3-.07.29.29,0,0,0,0,.09Z"/><path class="cls-2" d="M92.39,70.53h0Z"/><path class="cls-2" d="M94.62,68.57c-.34.22,0,.41.07.64-.38.34-.34-.12-.59-.2-.21.24-.26.65-.47.76,0,0-.09,0-.08-.14-.14.44-.88.45-1.07,1l-.09-.06a1.09,1.09,0,0,1,.27.43c-.17.09-.23.37-.4.18.11,0,.08-.14.1-.23l-.14.18c-.31-.24.2-.23.1-.46-.31.28-.63.72-.95.73-.19-.29.62-.36.12-.49.17,0,.33,0,.49-.06-.54-.34.26-.09-.26-.47-.59.14-.56.4-1.16.54-.06.22.14.24.08.47-.7.64-.93-.57-1.38.05-.09.27,0,.7-.53.62l0-.41c-.58.13-.17.64-.85.56.07-.17.42-.25.32-.27-.47-.18-.21.28-.52.36L87.57,72c-.6.19-1.21.64-1.9.82,0-.11.11-.23-.07-.3a5.83,5.83,0,0,1-2.75.21l-.29.33a.11.11,0,0,1-.08-.18c-.34-.06,0,.19-.14.33s-.27-.14-.16-.24a3.06,3.06,0,0,1-2.28.42l.12-.09c-.49-.08-.52.64-1,.38l.08-.06c-1.06-.09-2.24.21-3-.27-.17.42-1-.22-1.13.37-.59-.32-.42-.43-1.24-.69-.22,0-.37.35-.65.38l0-.3-.41.29L72.51,73l-.26,0c.1,0,.2.17.18.25-.43.09-1-.34-1-.5l-1,.13c0-.12.2-.14.34-.2-.56.24,0-.33-.55-.12,0,.09-.07.18-.09.24a1.68,1.68,0,0,0-1.12-.33l.11-.19c-.69-.17-1.49-.21-2.26-.41a.26.26,0,0,1-.14.48V72c-.2.16.21.18-.16.35-.28-.11-.1-.41.1-.47l-.39,0c0-.1.11-.13.16-.24-.2.17-.5-.49-.81-.22v-.1c-.75-.25-1.14-.22-1.74-.45-.11.26-.32.11-.58.25A13.74,13.74,0,0,0,62,70.28c-.42,0-.2.17-.44.24.08-.24-.44-.46-.09-.5a14.23,14.23,0,0,0-1.65-.6c0,.14.1.23,0,.28s-.26-.27-.18-.36h.05c-.53-.07-.87-.58-1.2-1s-.57-.88-1-.92h0a4.6,4.6,0,0,1-.75-.33c-.21-.29.28,0,.22-.28a1.42,1.42,0,0,1-.81-.66,1.55,1.55,0,0,0-.57-.71,1.15,1.15,0,0,0-.24-1.15c-.19-.39-.4-.83-.23-1.17l-.17.07c-.19-.13.08-.21.11-.33-.13,0-.14.19-.25.11a2.37,2.37,0,0,1-.08-1.06,2.7,2.7,0,0,1,.29-1,3.62,3.62,0,0,1,.55-.95,6.11,6.11,0,0,1,.68-.86c.36-.38-.6-.82.22-1.1l.12.36A3.44,3.44,0,0,1,57.7,57c.23-.19.46-.38.68-.58a3.86,3.86,0,0,0,.66-.62c0,.1,0,.19-.06.25.34.06.75-.52.67-.67.17-.07.13.13.28.16s.39-.58.63-.44c0,0,0,.1-.05.14.08-.18.67-.35.4-.52.46-.08.73-.48,1.13-.49.08-.38.75-.19.66-.61.14.43.88.05,1.07-.26,0,.17.29,0,.25.26.29-.12.55-.3.42-.5.75.34,1-.78,1.57-.22a14.18,14.18,0,0,1,2.58-1.16c.06.43-1,.24-.81.71a4.88,4.88,0,0,1,2-.89c.23,0-.09.22-.14.31.79-.37,1.61-.2,2.33-.56,0,0-.08.1-.15.14.15,0,.35,0,.31-.18l-.14.08c-.27-.26.52-.71.54-.85-.2.6.76.09.43.86.09,0,.21-.15.17-.29.15,0,.2.11.07.27.52-.15.32-.35.8-.39,0,.1-.09.15-.13.27a1,1,0,0,1,.88-.37c0,.06,0,.13-.09.14.69-.06,1.18-.55,2-.39-.22.44.26.14.31.51l.41-.11-.17-.18c.37,0,.69-.25,1-.12l-.28.15.69-.06-.39-.15c.38-.18,0-.47.46-.36-.1,0,.37,0,.55.24h0a.65.65,0,0,1,.65-.11c.06.12-.08.41,0,.49.2-.3.85,0,1.11-.33a.39.39,0,0,0-.08.31l.17-.25c.16.1.18.14.14.29.5.09-.12-.48.47-.23,0,0,0,.06-.14.09.6.15,1.19,0,1.73.17.11.4-.5,0-.35.37a9.11,9.11,0,0,1,2.45,0l-.13-.06c.21-.5.52.36,1,.19-.1,0-.18.26-.14.21a6.06,6.06,0,0,0,1.9.16l-.13.11c.28.18.77.29,1.08.45.13-.1.31,0,.26-.24.75,1,2,.26,2.66,1.2-.11,0-.29,0-.21,0,.26.05.51.13.76.2,0-.23,0-.17-.11-.4a.63.63,0,0,1,.57,0c-.39,0-.15.34-.07.52,0-.08.09-.13.11-.2.19.55.26-.39.66.11l-.09.09c.23,0,.47,0,.65.13,0,.28-.25,0-.36.18.27.15.79-.13.91.25-.16,0-.33-.1-.48-.1.12.43.19.38.36.53h0l.38.38-.07-.14c.72-.4.73.34,1.44.27-.68,0-.22.15-.43.37.07.15.18.34.08.37.35-.06.21.39.69.34,0,.08.19.18,0,.33.29.14.06-.18.16-.26.29,0,.45.3.63.57a1.15,1.15,0,0,0,.74.68c.57.31.84.24,1.34.63,0,.25-.39.06-.39.06a1.26,1.26,0,0,0,.45.72c-.1,0-.14.07-.19.2.12.19.38,0,.39.32a1.87,1.87,0,0,1-.46,0c.19.19.51.34.67.59-.14.12-.28-.08-.44-.12.2.25.38.7.67.72l0-.22c0,.11-.21.12-.28,0-.27-.18,0-.39.07-.44l.12.17c.51-.41-.4-.74-.54-1.1l.44,0-.49-.22c0-.14.22-.32.37-.15,0-.39-.26-.16-.22-.51,0,0,0,0,.07,0L99.44,58c.11,0,.21-.21.27,0-.14-.6-.75-.56-.66-.9l0,0c-.62-.47-.28.14-.93,0,.1-.26.2-.53.29-.8l-.27.16c0-.06-.14-.19,0-.26-.36-.05-.06.13-.32.16-.1-.45-.86-.57-.62-1-.25.09.16.37-.25.24.25-.49-.4-.23-.54-.61.24-.15.43.15.28-.24-.43.25-.49-.47-.79-.57-.2.28-.61-.22-1.11-.35.09-.08-.69-.66-1-.95l0-.05c-.25.29-.64,0-1,0a.41.41,0,0,1,.41-.26l-.3-.14a.49.49,0,0,1-.44,0l.19-.22c-.4-.17-.93,0-1.37-.4-.12.23.14.82-.45.78,0-.14.09-.37.25-.37,0,0-.2.05-.27,0l.29-.14c-.19-.18-.19.14-.36.05.07-.19-.09-.19,0-.33s.13.14.23.1a1,1,0,0,1-.45-.5c0,.11-.09.25-.25.23-.41-.12-.07-.27-.27-.44-.14.1-.36-.12-.46.16-.12,0-.1-.18-.12-.27-.25.06-1-.28-.85.1l0,0h0c-.77.09-1.4-.53-2.13-.58l0-.1a4.45,4.45,0,0,0-1.28,0c-.12,0-.26-.23-.19-.34-.33,0-.38.11-.82-.13.35-.11-.09-.17.35-.07-.4-.16-.48-.32-1-.12.19-.23-.27-.35-.49-.31l.28.22a2.13,2.13,0,0,1-.63-.09l.15-.31c-.83-.54-1.63.51-2.23-.22-.25.22.46.2.23.46-.39-.08-.78-.59-.91-.6-.54-.23-.54.46-1.1.31.07.12.12.44-.31.54-.39-.05-.47-.51-.22-.6s.14,0,.14.08.3-.09.15-.22l-.06.11c-.2-.12-.75-.12-.62-.32-.3.11-.13.2.09.26A6.52,6.52,0,0,0,76.72,49c.08.06.16.2.08.2-.78-.13-.34.24-.86.3-.31-.17.09-.43-.43-.27-.33-.11-.08-.31,0-.41-.47.24-.91-.14-1.2-.15l.26-.11a.91.91,0,0,1-.41.08l.16.23c-.15,0-.28,0-.28-.12-.15.17.14.39-.15.62-.21-.1-.59.18-.69-.13.64.06-.09-.31.44-.4a.67.67,0,0,1-.38,0s0-.06,0-.09c-.63-.23-.25.38-.87.42.06-.18-.18-.32-.28-.27.26,0,.15.27-.06.44-.41-.08-.42.16-.63.17l.25,0c-.06.18-.26.19-.53.28,0-.14.24-.13.13-.18-.26.35-.73-.22-1.13,0-.22-.09-.07-.33-.26-.38-.44.31-.56-.15-1,.14.19.2.2.14-.11.44l.8-.33-.47.45c.25-.05.49-.25.65-.24-.22.24-.2.18,0,.35-.4-.29-.63.33-1.06.17l-.1-.58c-.65-.16-1,.49-1.78.55l.27,0c0,.25-.46.14-.68.3,0-.2-.2-.23-.34-.32.06.14-.56.12-.52.53l-.4-.15c-.64.09-.52.76-1.11.87.1-.25-.21-.3.13-.57-.19.06-.38.08-.34.21-.15-.09-.43.44-.67.33,0,.11,0,.32-.22.38,0,0,0-.09,0-.09s-.28.25,0,.39c-.82-.37-1.57.7-2.28.46l-1.15.78c0-.07-.05-.09,0-.11-.58.12,0,.66-.66.79-.45-.11.2-.31,0-.31-.43-.53-.59.49-1.16.42l.07-.09c-.4,0-.54.64-1,1,0,0,0-.06-.06-.07-.07.51-.55,1-.81,1.45-.07-.29.06-.26-.19-.37-.13.2.34.24.09.62-.21,0-.52.18-.76,0l.29-.34c-.42-.07-.4.42-.58.57l-.11-.12c-.37.61,0,.84-.49,1.42h.14c.15.54-.34.19-.27.68L53.58,59c0,.14,0,.39,0,.66a5.52,5.52,0,0,1,0,.82,2.61,2.61,0,0,1-.19-1.33c-.16.23-.3.9-.15,1.09,0-.12-.06-.28,0-.37a2.29,2.29,0,0,1,.13,1.36c-.37-.11-.46.23-.53.65s0,.9-.29,1.13a4,4,0,0,1,.18.74,6.08,6.08,0,0,1,.16.74,6.91,6.91,0,0,0,.16.79,5.77,5.77,0,0,0,.35.77c.34-.64.16.29.66-.07.14.21.2.29.18.33l.14.83c0,.26-.26-.12-.36,0,.3.51-.06.35,0,.78.12-.2.35,0,.52.27a4.51,4.51,0,0,1-.08-.53c.75.38.07.85.86,1.23l-.31,0c.34.26,1.13,1,1.73.91,0,.1,0,.3-.18.22.73.65,2,.82,2.49,1.41l-.14.09c.17,0,.4-.09.52.15,0,0-.13.09-.07.14a1.13,1.13,0,0,1,.7.19l-.26.05c.74.58,1.45.25,2.16.45-.17.41.44.8.75,1l0,.05a8.36,8.36,0,0,0,2.78.37c.45.61,1.92.73,2.81,1.16-.13-.11.09-.33.27-.34s.67-.19.56.2l-.08,0c.1.42.58.41.93.48l.15-.51c.83.88,2.47.06,2.92.75.24-.11.52-.09.75-.2l0,.28a5,5,0,0,0,1.73.13l-.16.2c.44,0,.58-.8,1-.8l.12.42c.76,0,1.55.36,2.3,0,0,.06,0,.18-.15.2.36,0,1.42.25,1.25-.33,0,.37.8,0,1.2-.23l0,.28c.32-.38.32-.48.8-.61.12,0,.12.21,0,.15.4.12.27-.29.75-.2l-.15.2c.39,0,.35-.12.54-.36a.69.69,0,0,1,.84.22.43.43,0,0,1,.45-.35.15.15,0,0,1-.06.19c.68.08.91-.5,1.4-.31a.23.23,0,0,0,.11.15,5.55,5.55,0,0,1-.9.13c0,.25.47.22.2.63.31-.26.8-.78,1.23-.74a.19.19,0,0,1,.07.08l0,0a.42.42,0,0,0,.25-.09,1,1,0,0,0,.35,0c.1.2.51,0,.72,0-.09-.26.2-.29-.11-.45,0,0,0,0-.17.09l-.08,0v0l-.51.15c.13-.18.27-.34.54-.25.06-.2.13-.41.17-.51.38.31,1,.38,1.12.59.59-.32,1.45-.55,1.67-1.17.15-.12.25.08.34.14-.08.08-.21.11-.24.2.32-.22,1-.43,1-.8.49,0-.13.41.45.12l0,.14A1.73,1.73,0,0,0,93.1,72a2.08,2.08,0,0,1,1.57-.83c-.1,0-.16,0-.2,0a5.22,5.22,0,0,0,1.1-.51c.34-.22.66-.5,1-.75s.64-.52,1-.78a6.87,6.87,0,0,1,1-.65c.39-.27.26-.47.31-.79l.29.13a5.67,5.67,0,0,0,0-.58c.09-.36.41-.48.72-.65a.94.94,0,0,0,.59-.94h-.23c.17-.26.33-.92.5-.8,0,0-.17-.17,0-.25l.16,0,0-.81c.26-.55.63.24.77-.67,0-.37-.36-1-.48-.86s-.13.33-.29.32l0-.28c-.47-.07-.93-.21-1.31.33l.25.43-.24.09,0-.33c-.23.16,0,.29.06.46a.44.44,0,0,0-.29.1c.11.16.22.32.32.49-.19,0-.3-.26-.47,0,.15.24.44-.05.49.29-.26.13-.4,0-.31.29-.13,0-.16-.09-.19-.19.06.24-.18.5,0,.71-.32.06-.25.67-.64.41a1,1,0,0,1,0,.66c-.23-.6-.43.59-.84.14.17.48-.46.84-.64,1.34,0,0,0-.13,0-.14a1.32,1.32,0,0,1-.57.13c.23.32,0,.66-.07,1-.48-.07-.13-.49-.43-.7.22.24-.26.6,0,.74-.35,0-.25,0-.54-.15.24.42-.15.2-.16.57-.44,0-.33-.33-.58,0C94.42,68.91,94.63,68.57,94.62,68.57Zm-8.94,4.29h0l.21-.06Zm-.84.17.37-.06c.05.09,0,.19,0,.2S85,73.08,84.84,73Zm2.22,1.53c-.13.07-.19,0-.22,0l.23-.09v0A.36.36,0,0,1,87.06,74.56Z"/><path class="cls-2" d="M87.22,74.14l0,0-.09,0,0,.1Z"/><path class="cls-2" d="M88.59,51.11h0s0,0,0,0S88.6,51.12,88.59,51.11Z"/><polygon class="cls-2" points="73.09 72.99 73.09 73.06 73.17 73 73.09 72.99"/><path class="cls-2" d="M92.74,53.69a.13.13,0,0,0,0,.09A.23.23,0,0,0,92.74,53.69Z"/><path class="cls-2" d="M94.5,54.68l.2.23A1.25,1.25,0,0,0,94.5,54.68Z"/><path class="cls-2" d="M95.72,55.63a.36.36,0,0,0,.09-.08h0Z"/><path class="cls-2" d="M71.85,51.41l-.06,0Z"/><path class="cls-2" d="M79.24,50.48a1.41,1.41,0,0,1-.24.13C79.13,50.64,79.23,50.64,79.24,50.48Z"/><polygon class="cls-2" points="64.02 53.59 64.02 53.59 63.97 53.6 64.02 53.59"/><path class="cls-2" d="M78.65,50.6a.43.43,0,0,0,.35,0A.69.69,0,0,0,78.65,50.6Z"/><path class="cls-2" d="M99.56,60.57v.07h.05Z"/><path class="cls-2" d="M99.62,60.63l0,.06S99.65,60.63,99.62,60.63Z"/><path class="cls-2" d="M99.78,60.83l-.11-.14C99.69,60.75,99.7,60.81,99.78,60.83Z"/><path class="cls-2" d="M98.89,58.8l-.1,0A.16.16,0,0,0,98.89,58.8Z"/><path class="cls-2" d="M98.53,58.34c.06.13,0,.41.19.53l.07,0C98.62,58.85,98.75,58.35,98.53,58.34Z"/><path class="cls-2" d="M97.64,55.57,98,56c0-.14,0-.34.22-.19C97.9,55.1,98.16,56.07,97.64,55.57Z"/><path class="cls-2" d="M96.37,54.39c.27.13.08-.13.13-.17C96.29,54.19,96.24,54.18,96.37,54.39Z"/><path class="cls-2" d="M84.92,50.05,85,49.8C84.76,49.8,85,49.9,84.92,50.05Z"/><polygon class="cls-2" points="82.45 51.02 82.64 51.2 82.77 50.98 82.45 51.02"/><polygon class="cls-2" points="81.28 49.06 81.38 49.03 80.99 49.09 81.28 49.06"/><path class="cls-2" d="M60.92,52.21l.19.26C61.23,52.35,61.11,52,60.92,52.21Z"/><path class="cls-2" d="M54,58.18a.37.37,0,0,0-.34.43C53.79,58.43,54,58.29,54,58.18Z"/><polygon class="cls-2" points="70.49 75.22 70.3 75.3 70.65 75.26 70.49 75.22"/><circle class="cls-1" cx="35.36" cy="23.75" r="22.5"/><path class="cls-3" d="M57.2,23.75c.08.08.28,0,.23-.17l-.34-.14Z"/><path class="cls-3" d="M57.74,22.38c-.17-.23-.47-.48-.76-.31.33.21.2.28.59.51,0,.2-.09.36-.21.33.08.06-.06.31.15.41a.71.71,0,0,0,0-.94C57.59,22.3,57.68,22.36,57.74,22.38Z"/><path class="cls-3" d="M48.66,5.06l.09.11A.31.31,0,0,0,48.66,5.06Z"/><path class="cls-3" d="M36.89.68c.1,0,.14,0,.15-.06S36.87.65,36.89.68Z"/><path class="cls-3" d="M34.71.27l.13,0A.13.13,0,0,0,34.71.27Z"/><path class="cls-3" d="M48.66,5.06l-.21-.29C48.37,4.84,48.55,4.94,48.66,5.06Z"/><path class="cls-3" d="M56.63,19.79a.58.58,0,0,0,.11.15l-.06-.15Z"/><path class="cls-3" d="M53,8.64l.07.07.16,0Z"/><path class="cls-3" d="M55.53,12.15c0-.09-.3,0-.43,0a.35.35,0,0,1,.28.08A.52.52,0,0,0,55.53,12.15Z"/><path class="cls-3" d="M57.56,18.65l.06.11Z"/><path class="cls-3" d="M50.85,6.38a.19.19,0,0,0,0-.1A.17.17,0,0,0,50.85,6.38Z"/><path class="cls-3" d="M56,28.3h.05S56.05,28.27,56,28.3Z"/><path class="cls-3" d="M57.93,23.75l0,.07h.15Z"/><path class="cls-3" d="M30.61.36h0C30.73.31,30.67.33,30.61.36Z"/><path class="cls-3" d="M12.24,28.76c.14-.46.48.59.6-.08C12.75,28.76,12.27,28.21,12.24,28.76Z"/><path class="cls-3" d="M56.65,19.68l0-.17A.58.58,0,0,0,56.65,19.68Z"/><path class="cls-3" d="M12.84,28.68h0v0Z"/><path class="cls-3" d="M22,4.16a.38.38,0,0,0,.15,0A.25.25,0,0,0,22,4.16Z"/><path class="cls-3" d="M28.43,1.5l-.17,0Z"/><path class="cls-3" d="M19.46,6.74c-.08,0-.13,0-.2.16h0A.22.22,0,0,1,19.46,6.74Z"/><path class="cls-3" d="M17,9.49l.08,0,.06-.1Z"/><path class="cls-3" d="M51.62,37.52a.94.94,0,0,1,.3,0C51.73,37.48,52,37.06,51.62,37.52Z"/><path class="cls-3" d="M56.79,19.76c-.08,0-.12,0-.14-.08l0,.11S56.77,19.79,56.79,19.76Z"/><path class="cls-3" d="M20.88,8.46l-.43.33C20.58,8.7,20.74,8.58,20.88,8.46Z"/><path class="cls-3" d="M29.46,44.26h.13A.15.15,0,0,0,29.46,44.26Z"/><path class="cls-3" d="M19.41,10a.8.8,0,0,0-.36.1s0,.06,0,.09Z"/><path class="cls-3" d="M51.92,37.57Z"/><path class="cls-3" d="M53.4,34.27c-.27.43.19.39.31.59-.23.59-.38.1-.64.18-.11.38,0,.82-.19,1-.06,0-.11,0-.13-.09,0,.5-.71,1-.72,1.59a.19.19,0,0,1-.11,0,1,1,0,0,1,.44.27c-.16.18-.12.48-.37.39.11-.11,0-.18,0-.28l-.09.26c-.41-.07.14-.34-.06-.5-.23.42-.4,1-.72,1.25-.3-.18.49-.72-.06-.56l.48-.33c-.69,0,.26-.23-.44-.32-.57.46-.4.75-1,1.18,0,.25.23.16.24.41-.56,1-1.19-.08-1.45.78,0,.3.19.68-.4.83l-.08-.41c-.6.39,0,.69-.76.93,0-.2.38-.44.26-.41-.56,0-.14.38-.45.61l-.25-.24c-.63.42-1.19,1.12-1.94,1.55,0-.11.08-.27-.15-.27a6.66,6.66,0,0,1-1.49.73c-.55.14-1.11.24-1.62.32l-.27.41c-.09,0-.21-.08-.13-.16-.41,0,0,.18-.12.34s-.33-.09-.22-.21a3.76,3.76,0,0,1-2.64.8l.13-.1c-.59,0-.57.69-1.15.5l.1-.06c-1.27,0-2.69.31-3.63-.23-.22.42-1.23-.25-1.37.29-.68-.4-.46-.47-1.42-.82-.26-.06-.47.28-.81.26l.06-.3-.51.2-.15-.42h-.32c.12.05.22.2.18.28a1.24,1.24,0,0,1-.74-.27c-.2-.15-.33-.35-.31-.42l-1.17-.15c.07-.11.27-.08.44-.1-.69.08,0-.34-.62-.27,0,.09-.11.16-.15.21A2.69,2.69,0,0,0,26,42.85l.18-.15c-.76-.38-1.62-.76-2.44-1.26a.26.26,0,0,1-.29.42l.08-.33c-.27.07.19.25-.27.26-.28-.24,0-.45.23-.41l-.41-.17c0-.1.15-.08.24-.16-.26.05-.4-.71-.82-.58l0-.09c-.78-.55-1.12-.82-1.72-1.31-.2.2-.39-.06-.72,0A10.14,10.14,0,0,0,19,37.4c-.42-.28-.28.05-.54,0,.17-.19-.26-.74.1-.56-.26-.32-.43-.52-.64-.74s-.44-.44-.79-.85c0,.16,0,.29-.11.28s-.14-.43,0-.47l.05,0a2.91,2.91,0,0,1-.8-1.77,2.88,2.88,0,0,0-.68-1.61l0,0L15,30.91c-.12-.44.27.19.31-.17a2.61,2.61,0,0,1-.42-.62,3.68,3.68,0,0,1-.14-.6,2.8,2.8,0,0,0-.36-1.15,2,2,0,0,0,.05-1.59c-.07-.3-.15-.61-.19-.9a1.75,1.75,0,0,1,.13-.81l-.18.06c-.18-.22.09-.28.12-.45-.13,0-.14.26-.25.12a8.92,8.92,0,0,1,.12-3c.09-.5.27-1,.4-1.49l.2-.73.26-.71c.23-.69-.79-.64-.14-1.44l.25.35a7,7,0,0,1,.57-2.19,10.57,10.57,0,0,0,.86-2.09c0,.12.1.16,0,.29.35-.16.6-1,.43-1.08.14-.18.18.05.34,0s.13-.84.44-.83c.05,0,0,.11,0,.17,0-.23.59-.73.25-.74.44-.36.52-.93.93-1.16,0-.42.75-.6.49-1,.31.34.89-.48,1-.84,0,.17.32-.1.35.13.29-.27.5-.58.29-.71.87-.1.88-1.27,1.63-1l.6-.65.64-.56a9.63,9.63,0,0,1,1.33-1c.16.39-1,.62-.74,1a6,6,0,0,1,2.09-1.6c.26-.06-.05.24-.1.35A4.58,4.58,0,0,1,28,3.66a8.13,8.13,0,0,0,1.28-.56s-.07.11-.15.16c.16-.06.41,0,.34-.23l-.15.1c-.37-.21.52-.78.52-.94-.15.65.92-.08.62.76.1-.07.22-.2.17-.33.17,0,.24.06.11.26.59-.27.33-.4.91-.5,0,.1-.1.15-.13.28a1.36,1.36,0,0,1,1-.47c0,.07,0,.14-.1.16.82-.19,1.39-.65,2.34-.52-.26.44.32.12.38.49a2.84,2.84,0,0,1,.49-.1l-.2-.2c.44,0,.84-.22,1.21-.08l-.33.14.82,0-.45-.16c.46-.17,0-.48.57-.34-.13,0,.45,0,.65.28h0a1,1,0,0,1,.79,0c.07.13-.13.4-.09.49.26-.27,1,0,1.37-.2a.3.3,0,0,0-.13.29l.23-.21c.18.14.2.18.14.32.58.2-.09-.51.58-.12-.06,0,0,0-.17,0,.68.29,1.43.19,2,.57.06.42-.58-.12-.47.26a13.2,13.2,0,0,0,1.47.28A4.23,4.23,0,0,1,45,4l-.14-.12c.35-.41.52.53,1,.53-.11,0-.27.19-.21.15a9.83,9.83,0,0,0,2.1,1l-.17,0a10.59,10.59,0,0,0,1.05,1c.18,0,.36.12.36-.12a2.72,2.72,0,0,0,1.28,1.33A1.9,1.9,0,0,1,51.5,9c-.09-.1-.3-.15-.23-.07l.74.62c.12-.21,0-.19,0-.45a1,1,0,0,1,.61.31c-.41-.22-.27.24-.26.47,0-.07.13-.07.18-.13,0,.66.41-.22.61.51l-.12,0c.21.17.48.27.62.52-.15.24-.27-.15-.46,0,.24.3.9.32.85.79-.15-.1-.27-.31-.44-.4a1.11,1.11,0,0,0,.15.76v0l.22.63v-.18c.83.06.66.75,1.32,1.14-.66-.38-.27,0-.56.12,0,.19,0,.46-.08.43.35.17,0,.54.55.78-.08.05.14.29-.12.33.25.32.12-.15.24-.17.58.43.14,1.49.88,2.16.39.67.73.73,1.08,1.4-.09.27-.4-.11-.4-.11a1.7,1.7,0,0,0,.24,1c-.09-.05-.15,0-.24.17.07.28.38.13.29.54a1.52,1.52,0,0,1-.43-.23c.14.33.37.63.52,1-.16.11-.29-.18-.42-.29.13.38.32,1,.57,1.11l.08-.27c0,.14-.22.09-.28,0a.31.31,0,0,1,.11-.53l.1.25c.53-.34-.25-1-.29-1.53l.44.14-.42-.46c.08-.14.3-.26.4,0,.14-.41-.22-.29-.07-.66,0,0,.05,0,.08,0l-.22-.33c.11.05.27-.13.27.1.06-.71-.57-1-.33-1.29l0,0c-.41-.84-.31,0-.88-.53L57,16l-.31,0c0-.09-.07-.28.06-.29-.32-.26-.11.1-.36,0a1.47,1.47,0,0,0-.2-.8c-.12-.24-.2-.45,0-.6-.29,0,0,.47-.33.1.41-.35-.33-.47-.3-.95.3,0,.35.42.38-.07-.51,0-.27-.8-.55-1.06-.33.17-.54-.58-1-1,.15-.05-.48-1-.72-1.56l.06,0c-.37.14-.63-.39-1-.64a.42.42,0,0,1,.52,0c-.08-.1-.18-.2-.27-.3a.66.66,0,0,1-.48-.2l.27-.11c-.38-.38-.94-.58-1.3-1.18-.2.16-.11.86-.74.51.07-.11.22-.3.4-.22-.06,0-.24-.06-.29-.18l.37,0c-.16-.28-.26,0-.42-.15.14-.14,0-.22.09-.31s.11.2.23.21a1.25,1.25,0,0,1-.33-.72.22.22,0,0,1-.35.08c-.4-.34,0-.3-.14-.58-.18,0-.36-.3-.55-.08-.13-.09-.06-.22-.06-.31-.3-.07-1-.74-1-.3l0,0h0c-.85-.32-1.45-1.14-2.27-1.51l0-.09A5.11,5.11,0,0,0,45,3.19c-.14-.07-.26-.32-.15-.4a1.91,1.91,0,0,1-1-.39c.45,0-.07-.19.44,0-.46-.26-.52-.46-1.14-.4.26-.17-.27-.44-.54-.45l.29.3a3.35,3.35,0,0,1-.73-.28l.23-.27c-1-.68-2.06.14-2.73-.67-.33.19.55.26.24.48C39.52,1,39.08.47,38.92.45c-.67-.28-.7.36-1.39.17.08.13.13.44-.4.53-.48-.07-.58-.53-.26-.61.12,0,.18,0,.17.08.17,0,.38-.07.19-.21l-.07.11c-.24-.13-.93-.15-.76-.34-.39.09-.17.19.11.26A7.16,7.16,0,0,0,34.84.29c.1.06.2.19.1.2-1-.1-.42.24-1.06.33-.39-.16.1-.44-.55-.25-.41-.1-.11-.31,0-.42a3,3,0,0,1-1.51,0L32.17,0a1.43,1.43,0,0,1-.5.13l.22.21c-.2,0-.36,0-.37-.09-.17.18.21.37-.13.64-.27-.08-.72.23-.87-.05.8,0-.15-.3.5-.46a.93.93,0,0,1-.47.07s0-.07.06-.09c-.8-.1-.27.43-1,.61.06-.19-.26-.28-.37-.21.31-.07.22.25,0,.45-.53,0-.5.24-.76.29h.31c0,.19-.29.23-.59.41-.08-.13.26-.2.13-.22-.26.43-.92,0-1.36.38-.28,0-.14-.31-.38-.3-.49.41-.71,0-1.22.47.27.14.27.07,0,.48l.87-.61-.46.61c.29-.13.53-.44.73-.46-.22.3-.21.24,0,.36-.53-.15-.67.55-1.21.54L25,2.62a1.62,1.62,0,0,0-.94.51,3.18,3.18,0,0,1-1,.74l.32-.07c0,.26-.49.33-.71.58-.08-.18-.29-.14-.47-.17.09.11-.59.42-.42.79l-.51,0c-.69.39-.37,1-.95,1.41,0-.31-.32-.19-.05-.65-.19.17-.38.3-.29.4-.2,0-.34.67-.64.68,0,.14.1.31-.11.49-.05,0-.07-.07-.07-.07s-.21.4.11.38c-.94.15-1.43,1.55-2.2,1.78-.27.48-.62,1-.89,1.45,0-.06-.08-.06,0-.13-.51.49.26.67-.31,1.21-.48.17.06-.44-.17-.29-.6-.24-.43.83-1,1.12l0-.13c-.37.26-.21,1-.53,1.56a.14.14,0,0,0-.09,0,6.6,6.6,0,0,1-.2,2c-.18-.27,0-.32-.32-.29-.06.27.42.06.3.6-.19.13-.45.46-.72.44,0-.17.11-.34.16-.51-.45.15-.21.66-.33.92l-.14-.08c-.16.81.22.91,0,1.74l.14-.06c.27.54-.29.35-.08.87l-.41.07c.05.33.19,1.14.22,1.7a4,4,0,0,1-.42-1.45c-.05.31-.14,1.07,0,1.24,0-.12-.09-.29,0-.41a2.73,2.73,0,0,1,.34,1.53c-.76-.14-.29,1.6-.81,2.06A5.31,5.31,0,0,1,12,26.25a10.71,10.71,0,0,0,.15,1.82c.51-.56.07.38.66.18.08.29.12.39.08.43l-.13,1c-.12.26-.2-.25-.33-.19.12.66-.18.34-.22.82.19-.15.36.14.37.53l.14-.6c.53.81-.25.93.36,1.72l-.28-.22c.27.42.61,1.71,1.3,1.91,0,.11-.13.28-.27.11a6.44,6.44,0,0,0,1,1.54,3.53,3.53,0,0,1,.86,1.37h-.17c.16.16.42.17.46.47-.06,0-.17,0-.12.1s.55.3.65.58l-.28-.1a2.69,2.69,0,0,0,.95,1,6.2,6.2,0,0,1,1.12.68c-.32.29.15,1.07.43,1.41l-.05,0a7,7,0,0,0,1.43,1c.48.27,1,.45,1.54.74a2.85,2.85,0,0,0,1.23,1.21c.59.37,1.21.79,1.71,1.15-.13-.15.19-.29.4-.24.21.21.83.06.62.41l-.09,0c0,.44.59.63,1,.78l.26-.47a2.9,2.9,0,0,0,1.88.91c.71.1,1.34.17,1.58.58a6.12,6.12,0,0,0,1-.08l-.06.28a8.38,8.38,0,0,0,2.16.33l-.22.19c.56.05.77-.78,1.26-.77l.14.43a5.55,5.55,0,0,0,2.89-.07.22.22,0,0,1-.19.21c.46,0,1.8.07,1.55-.47.07.37,1-.1,1.47-.37l0,.3c.36-.46.35-.56.91-.8.14,0,.17.18,0,.16.5,0,.29-.35.89-.35l-.16.23c.48-.11.42-.18.61-.47s.89-.25,1.05,0a.57.57,0,0,1,.48-.48c.07.07,0,.16,0,.21.86-.09,1-.79,1.61-.77a.19.19,0,0,0,.16.11,8.42,8.42,0,0,1-1,.45c.1.24.6.05.36.56.32-.37.79-1.07,1.31-1.18a.27.27,0,0,1,.11.05l0,0a.49.49,0,0,0,.28-.18,1.58,1.58,0,0,0,.4-.15c.16.15.59-.22.82-.35-.16-.23.16-.37-.24-.4,0,0,0,.05-.17.15s-.07.06-.08.09v0l-.55.35c.11-.23.23-.44.56-.46,0-.23,0-.46.07-.58.51.16,1.22,0,1.43.09.55-.63,1.51-1.21,1.51-2,.12-.2.29-.06.41-.06-.06.13-.18.23-.19.34.25-.41,1-1,.8-1.29.53-.27,0,.47.52-.13v.16a2.86,2.86,0,0,0,1.28-1.63,2.82,2.82,0,0,1,1.29-1.76c-.11.07-.17.1-.23.09,1.38-1.46,1.82-3.56,2.92-5.18.29-.48.09-.62,0-1l.33,0c-.05-.21-.12-.43-.19-.65a1.66,1.66,0,0,1,.49-1,1.24,1.24,0,0,0,.3-1.26l-.22.1c.1-.36.06-1.17.28-1.07,0-.05-.19-.15-.06-.28h.16a7.15,7.15,0,0,0-.19-.92c.15-.69.62.16.71-.88-.05-.39-.41-1.1-.52-.95s-.12.38-.28.39L58,23.82c-.47-.07-.93-.3-1.3.48l.26.56-.24.17v-.47c-.22.26,0,.43.08.63a.37.37,0,0,0-.26.21l.41.58c-.19.05-.33-.27-.48.07.17.28.45-.2.52.24-.25.24-.41.14-.28.47-.13,0-.19-.05-.22-.18.1.3-.05.73.17.92-.29.22-.09.93-.53.81a1.53,1.53,0,0,1,.17.8c-.4-.58-.27.92-.78.64.39.47-.21,1.21-.16,1.88,0-.05-.07-.14,0-.18-.15.31-.32.35-.48.51.35.2.2.71.29,1.08-.53.22-.31-.43-.69-.46.29.11,0,.79.27.78-.35.18-.22.2-.58.19.4.28-.05.31.07.68-.45.28-.46-.13-.6.38C53.32,34.74,53.4,34.27,53.4,34.27Zm-8.06,8.79h0l.22-.13Zm-.93.46.41-.19c.08.07.08.18,0,.22S44.59,43.52,44.41,43.52Zm2.93.66c-.14.13-.22.11-.27.08l.25-.19v0A.27.27,0,0,1,47.34,44.18Z"/><path class="cls-3" d="M47.42,43.7s0,0,0-.05h-.12v.11Z"/><path class="cls-3" d="M48.76,5.19v0a.13.13,0,0,1,0,.06Z"/><polygon class="cls-3" points="30.59 44.41 30.57 44.48 30.67 44.44 30.59 44.41"/><path class="cls-3" d="M52.38,9.89a.11.11,0,0,0,0,.1A.22.22,0,0,0,52.38,9.89Z"/><path class="cls-3" d="M53.77,11.94l.1.35A2,2,0,0,0,53.77,11.94Z"/><path class="cls-3" d="M54.61,13.64l.12,0h0Z"/><path class="cls-3" d="M29.12,3.26l-.07,0C28.91,3.39,29,3.34,29.12,3.26Z"/><path class="cls-3" d="M37.91,1.83a1.14,1.14,0,0,1-.3.09C37.77,2,37.89,2,37.91,1.83Z"/><polygon class="cls-3" points="20.92 8.42 20.92 8.41 20.88 8.46 20.92 8.42"/><path class="cls-3" d="M37.19,1.9a.68.68,0,0,0,.42,0A1,1,0,0,0,37.19,1.9Z"/><path class="cls-3" d="M56.86,21.45v.09h0Z"/><path class="cls-3" d="M56.91,21.55l0,.09S56.94,21.56,56.91,21.55Z"/><path class="cls-3" d="M57,21.85l-.09-.21C57,21.72,56.94,21.81,57,21.85Z"/><path class="cls-3" d="M56.57,19h-.11A.19.19,0,0,0,56.57,19Z"/><path class="cls-3" d="M56.35,18.24c0,.18-.1.49,0,.72h.08C56.29,18.89,56.56,18.37,56.35,18.24Z"/><path class="cls-3" d="M56.51,14.74c.06.22.11.44.16.66.06-.15.14-.35.27-.07C57,14.41,56.78,15.58,56.51,14.74Z"/><path class="cls-3" d="M55.74,12.78c.2.31.14-.07.2-.09C55.74,12.53,55.69,12.5,55.74,12.78Z"/><path class="cls-3" d="M44.79,2.63l.14-.21C44.66,2.33,44.89,2.5,44.79,2.63Z"/><path class="cls-3" d="M41.69,2.87a1.5,1.5,0,0,1,.2.23l.19-.18Z"/><polygon class="cls-3" points="40.52 0.69 40.65 0.69 40.17 0.66 40.52 0.69"/><path class="cls-3" d="M17.16,8.8l.3.14C17.55,8.76,17.3,8.5,17.16,8.8Z"/><path class="cls-3" d="M12.65,18.88a.46.46,0,0,0-.22.6C12.49,19.23,12.65,19,12.65,18.88Z"/><polygon class="cls-3" points="27.15 46.01 26.9 46.03 27.33 46.09 27.15 46.01"/><ellipse class="cls-1" cx="36.02" cy="65.24" rx="34.98" ry="17"/><path class="cls-3" d="M70.34,65.24c.08.08.28,0,.23-.2l-.34-.15Z"/><path class="cls-3" d="M70.79,63.61c-.21-.25-.58-.47-.82-.23.38.18.26.26.67.49.08.23,0,.42-.16.4.1.07,0,.36.17.47a.87.87,0,0,0-.08-1.1C70.63,63.54,70.73,63.61,70.79,63.61Z"/><path class="cls-3" d="M52.54,49.77l.14.07A.61.61,0,0,0,52.54,49.77Z"/><path class="cls-3" d="M37.82,47.61c.11,0,.16,0,.16-.06S37.79,47.58,37.82,47.61Z"/><path class="cls-3" d="M35.27,47.23l.15,0C35.36,47.23,35.3,47.21,35.27,47.23Z"/><path class="cls-3" d="M52.54,49.77l-.37-.2C52.12,49.67,52.35,49.7,52.54,49.77Z"/><path class="cls-3" d="M68.92,61a.66.66,0,0,0,.17.12L69,61Z"/><path class="cls-3" d="M58.88,51.58l.12.05.14-.09Z"/><path class="cls-3" d="M63.48,53.79c-.09-.07-.27.15-.37.24a.34.34,0,0,1,.32,0A.37.37,0,0,0,63.48,53.79Z"/><path class="cls-3" d="M69.27,59.45l.12.09Z"/><path class="cls-3" d="M55.48,50.28a.19.19,0,0,0,0-.11A.22.22,0,0,0,55.48,50.28Z"/><path class="cls-3" d="M68.1,69.9l0,0S68.12,69.87,68.1,69.9Z"/><path class="cls-3" d="M71.08,65.24v.08l.16,0Z"/><path class="cls-3" d="M30.56,47.07h0C30.7,47,30.63,47,30.56,47.07Z"/><path class="cls-3" d="M1.85,71.23c-.09-.57.74.5.53-.29C2.34,71.06,1.62,70.6,1.85,71.23Z"/><path class="cls-3" d="M68.89,60.86a.86.86,0,0,1-.1-.16A.64.64,0,0,0,68.89,60.86Z"/><path class="cls-3" d="M2.38,70.94h0l0-.08Z"/><path class="cls-3" d="M19.87,48.92A.42.42,0,0,0,20,49S20,49,19.87,48.92Z"/><path class="cls-3" d="M27.87,47.9l-.2,0A.75.75,0,0,0,27.87,47.9Z"/><path class="cls-3" d="M16,50.46a.55.55,0,0,0-.28.08l.05,0A.24.24,0,0,1,16,50.46Z"/><path class="cls-3" d="M11.89,52.05l.09,0L12.1,52Z"/><path class="cls-3" d="M58.3,77.06a.85.85,0,0,1,.28.16C58.44,77.06,59,76.75,58.3,77.06Z"/><path class="cls-3" d="M69.05,60.9a.13.13,0,0,1-.16,0L69,61S69.05,60.94,69.05,60.9Z"/><path class="cls-3" d="M16.5,52.62l-.64.18A5.88,5.88,0,0,0,16.5,52.62Z"/><path class="cls-3" d="M28.66,80.7h.16A.21.21,0,0,0,28.66,80.7Z"/><path class="cls-3" d="M14.05,53.53a1,1,0,0,0-.42,0s0,.06,0,.1Z"/><path class="cls-3" d="M58.58,77.22Z"/><path class="cls-3" d="M62.15,74.71c-.54.29-.08.45-.09.7-.6.46-.43-.07-.74-.11-.36.3-.53.76-.84.91,0,0-.12,0-.09-.14-.31.48-1.31.65-1.71,1.2a.19.19,0,0,1-.1,0,.88.88,0,0,1,.28.43c-.26.12-.41.42-.6.24.17-.06.15-.16.19-.26l-.23.22c-.38-.22.33-.27.23-.51a4.83,4.83,0,0,1-1.48.91c-.21-.29.93-.48.27-.55l.69-.13c-.69-.31.4-.11-.26-.47-.87.22-.87.53-1.76.73-.13.24.16.24,0,.48-1.12.75-1.23-.5-2,.22-.16.29-.14.73-.85.69l.11-.43c-.85.2-.33.68-1.3.65.13-.18.64-.29.5-.3-.65-.15-.35.31-.8.42l-.17-.3c-.9.27-1.85.74-2.87,1,0-.11.19-.25-.07-.31a12,12,0,0,1-4,.39l-.44.34c-.11,0-.22-.11-.11-.18-.5,0,0,.19-.23.33s-.38-.12-.22-.23a6.36,6.36,0,0,1-3.37.5l.18-.1c-.72-.07-.78.65-1.46.4l.13-.06c-1.56,0-3.29.21-4.46-.25-.24.42-1.53-.25-1.66.34a7,7,0,0,0-1.84-.7c-.33,0-.52.33-.94.36l0-.31-.59.27-.26-.39-.39,0c.15,0,.31.17.27.26-.61.07-1.44-.38-1.43-.54l-1.45.07c.05-.12.3-.13.49-.18-.79.21-.09-.34-.82-.15.08.08-.08.18-.1.23A3.75,3.75,0,0,0,24.1,80l.15-.18c-1-.25-2.2-.32-3.35-.6.39.2.21.53-.14.48l-.05-.35c-.27.14.32.21-.19.34-.42-.15-.2-.44.07-.48l-.54,0c0-.1.12-.12.19-.23-.27.15-.81-.54-1.21-.3v-.1c-1.13-.31-1.67-.37-2.58-.66-.11.26-.44.08-.79.2A23,23,0,0,0,13.59,77c-.6-.1-.25.16-.57.21.06-.25-.72-.58-.24-.57-.94-.38-1.2-.49-2.42-.91.07.16.18.28.07.32s-.41-.36-.32-.45h.06a4.34,4.34,0,0,1-1.9-1.35A4.05,4.05,0,0,0,6.64,73l.06,0c-.35-.18-.72-.35-1-.55-.36-.4.36.07.18-.31-1.2-.55-1.3-1.42-2.09-2.06a1.55,1.55,0,0,0-.14-.8c-.13-.27-.29-.56-.45-.86a2.67,2.67,0,0,1-.48-1.78l-.16.1c-.21-.22.05-.32.06-.5-.13,0-.11.29-.23.15a5.07,5.07,0,0,1,.29-3.23,10.06,10.06,0,0,1,1.86-2.8c.56-.6-.44-1,.63-1.49l0,.45C6,57.73,7.8,56.9,9.1,55.7c0,.13,0,.21-.14.3.43,0,1.17-.7,1.09-.87.26-.11.15.12.34.13.39-.07.69-.71,1-.59,0,0-.06.11-.11.16.16-.22,1-.48.7-.63.66-.16,1.11-.65,1.67-.7.2-.43,1.12-.3,1.07-.74.12.43,1.23-.08,1.57-.41-.09.18.39,0,.3.25.45-.17.86-.37.7-.57,1,.24,1.62-.93,2.29-.4a25.6,25.6,0,0,1,3.9-1.41c0,.45-1.42.32-1.26.78a10.11,10.11,0,0,1,3.05-1c.33,0-.15.22-.24.32,1.2-.39,2.38-.32,3.45-.68,0,0-.11.1-.22.15.22,0,.51,0,.47-.19l-.21.08c-.38-.26.8-.72.83-.87-.32.62,1.11,0,.59.84.14,0,.31-.16.26-.3.22,0,.3.1.09.27.77-.18.48-.37,1.19-.41,0,.1-.14.15-.2.27a1.89,1.89,0,0,1,1.3-.38c0,.06,0,.13-.14.14,1-.07,1.75-.59,2.89-.41-.33.43.39.14.45.51l.61-.11L36.12,49c.54,0,1-.25,1.47-.12l-.4.15,1-.05-.56-.16c.55-.18-.05-.48.67-.35-.15,0,.54,0,.81.26h0a1.3,1.3,0,0,1,.95-.11c.09.13-.11.41,0,.49.28-.29,1.26,0,1.61-.31a.3.3,0,0,0-.1.31l.24-.24c.24.11.27.15.22.3.74.11-.2-.49.67-.21-.07,0,0,0-.19.08.88.18,1.73,0,2.53.24.19.4-.72,0-.49.35a19.38,19.38,0,0,1,3.59.17l-.2-.08c.25-.49.78.42,1.4.28-.15,0-.24.26-.19.2a15.92,15.92,0,0,0,2.77.32l-.18.1c.42.22,1.16.36,1.62.56.17-.09.44,0,.33-.23,1.24,1.16,2.93.46,4,1.57-.15-.05-.4,0-.28,0,.37.1.74.19,1.11.31,0-.25-.08-.19-.24-.45a1.27,1.27,0,0,1,.8.07c-.55-.06-.14.35,0,.55,0-.08.1-.12.11-.19.39.61.28-.39.92.2l-.09.1a2.64,2.64,0,0,1,.92.22c0,.3-.35,0-.46.16.42.18,1.05,0,1.31.39-.21,0-.47-.15-.68-.18.27.49.35.44.63.65l0,0,.62.51-.14-.17c.86-.33,1.09.48,2,.52-.88-.05-.24.14-.46.36.12.18.32.43.2.45.43,0,.4.49,1,.51,0,.09.3.24.09.39.42.22,0-.2.12-.28.81.18,1.06,1.38,2.11,1.78.75.52,1.11.44,1.78,1,0,.33-.42,0-.43,0a2.33,2.33,0,0,0,.7,1c-.11,0-.13.09-.16.26.19.28.43,0,.52.48a1.62,1.62,0,0,1-.51-.11A8.53,8.53,0,0,1,70,62c-.12.16-.34-.14-.5-.21.27.37.58,1,.86,1.1a1.74,1.74,0,0,0,0-.32c.07.16-.19.15-.28,0A.38.38,0,0,1,70,62l.16.26c.44-.51-.55-1.1-.84-1.61l.49,0-.61-.38c0-.16.16-.37.38-.14-.08-.5-.35-.25-.38-.7,0-.06,0,0,.06,0s-.23-.2-.36-.29c.12,0,.19-.23.31,0-.32-.79-1.06-.8-1-1.23l.06,0c-.87-.72-.29.11-1.12-.2l.11-.94L67,57c-.08-.09-.24-.25-.13-.32-.46-.11,0,.15-.35.14-.22-.58-1.24-.83-1-1.29-.29.07.31.46-.25.24.18-.53-.6-.31-.88-.79.28-.14.6.25.31-.24-.49.2-.77-.6-1.18-.76-.2.3-.88-.33-1.56-.56.1-.09-1.09-.79-1.65-1.17l.05,0c-.27.28-.86-.06-1.35-.18.1-.19.22-.24.51-.22L59,51.63a.94.94,0,0,1-.6,0l.21-.21a8.25,8.25,0,0,1-2-.59c-.12.23.36.88-.48.77,0-.14.06-.38.29-.36-.08,0-.28,0-.4-.08l.39-.11c-.31-.21-.24.12-.5,0,.06-.19-.16-.2-.07-.34s.21.16.34.12a1.66,1.66,0,0,1-.72-.55c0,.11-.08.25-.31.2-.6-.17-.14-.29-.45-.49-.19.08-.53-.16-.62.12-.17,0-.17-.19-.21-.29-.35,0-1.46-.36-1.19,0l.08,0h-.06c-1.08,0-2.07-.68-3.12-.77l0-.09A7.31,7.31,0,0,0,47.79,49c-.18,0-.4-.25-.3-.36a2.09,2.09,0,0,1-1.2-.16c.49-.11-.14-.19.5-.06-.6-.18-.72-.34-1.41-.17.26-.22-.42-.39-.72-.34l.41.23a5,5,0,0,1-.91-.11l.2-.31c-1.23-.56-2.34.45-3.24-.3-.35.21.67.21.35.47-.57-.09-1.15-.6-1.33-.61-.79-.24-.77.45-1.59.29.1.12.19.44-.43.53-.58-.07-.7-.51-.33-.61.14,0,.2,0,.19.08.19,0,.44-.08.21-.22l-.07.12c-.29-.14-1.09-.13-.9-.32-.44.1-.19.19.13.26a15.26,15.26,0,0,0-1.93-.13c.12.06.23.2.11.2-1.13-.14-.49.23-1.25.29-.44-.17.14-.44-.62-.26-.47-.1-.11-.31.08-.41C33,47.33,32.41,47,32,47l.37-.12a2.23,2.23,0,0,1-.59.09l.22.22c-.22,0-.4,0-.4-.11-.22.17.19.38-.24.62-.29-.1-.86.18-1-.12.92,0-.12-.31.65-.41a1.38,1.38,0,0,1-.55,0s0-.07.08-.09c-.89-.21-.37.39-1.27.46.1-.19-.24-.32-.39-.27.37,0,.2.28-.11.45-.59-.07-.62.17-.92.19l.35,0c-.1.19-.39.2-.78.3-.05-.13.35-.13.2-.18-.4.36-1-.19-1.63.1-.3-.08-.07-.32-.34-.37-.66.33-.79-.12-1.49.19.25.2.28.13-.2.45l1.17-.36-.71.46c.36,0,.74-.27,1-.26-.34.25-.31.18-.11.35-.54-.27-.93.36-1.54.22l-.09-.58c-.9-.09-1.46.58-2.59.69l.38,0c-.1.26-.68.17-1,.36,0-.2-.25-.22-.43-.3,0,.14-.81.19-.81.6l-.55-.12c-.91.14-.85.82-1.7,1,.19-.28-.23-.29.28-.62-.28.09-.54.13-.5.27-.21-.07-.7.49-1,.41-.09.12-.06.33-.37.42a.08.08,0,0,1,0-.09c0,.09-.44.29-.1.4-1.06-.28-2.32.94-3.24.78l-1.73,1c0-.07,0-.09.07-.12-.81.2-.18.72-1.07,1-.56,0,.34-.38,0-.35-.44-.51-.92.63-1.64.64l.11-.11c-.53.07-.84.84-1.48,1.26,0,0,0-.07-.06-.08A9.51,9.51,0,0,1,4.8,57.15c0-.34.15-.33-.12-.42-.22.25.35.24-.08.74-.26,0-.67.31-.92.17a4.89,4.89,0,0,1,.44-.47c-.5,0-.57.61-.84.81l-.09-.14c-.61.8-.32,1-.94,1.89l.16,0c0,.67-.44.29-.48.92l-.44,0c-.05.19-.1.54-.18.92s-.11.79-.18,1.12a4.48,4.48,0,0,1,.07-1.81,2.74,2.74,0,0,0-.38,1.5c0-.16,0-.38.11-.5a5.11,5.11,0,0,1-.06,1.89c-.35-.13-.53.35-.57,1S.28,66,0,66.28c.44,1.35.5,2.8,1.37,4.22.23-.79.26.4.73,0,.22.28.3.39.28.45A10.93,10.93,0,0,0,2.75,72c0,.31-.33-.19-.41-.08.48.66,0,.43.24,1,.09-.22.42,0,.68.4L3,72.65c1,.6.3,1.08,1.36,1.64L4,74.18c.48.34,1.65,1.41,2.39,1.33,0,.12,0,.34-.18.22,1.08.88,2.81,1.21,3.59,2l-.17.09c.25.08.52,0,.73.23,0,0-.15.08,0,.14a2.27,2.27,0,0,1,1,.28l-.33,0c1.11.73,2,.45,3,.75-.16.4.75.92,1.22,1.14l0,.05a15.38,15.38,0,0,0,3.95.65c.72.68,2.81.91,4.13,1.4-.2-.12.1-.33.35-.32s.94-.16.82.24l-.12,0c.18.43.86.44,1.38.53l.16-.52c1.26,1,3.58.16,4.26.89.34-.1.75-.07,1.08-.18l0,.28a12,12,0,0,0,2.51.17l-.24.19c.64,0,.83-.78,1.41-.8l.17.43c1.11,0,2.25.37,3.34,0a.25.25,0,0,1-.23.21c.52,0,2,.21,1.82-.37,0,.38,1.15,0,1.73-.24l-.07.29a2,2,0,0,1,1.18-.66c.17,0,.16.21-.06.16.57.1.4-.3,1.09-.23l-.23.21c.57-.05.51-.14.8-.38s1.08-.06,1.2.18a.72.72,0,0,1,.68-.39c.06.09,0,.17-.11.2,1,.06,1.36-.54,2.05-.37a.22.22,0,0,0,.14.14A10,10,0,0,1,47,82.2c0,.26.66.2.23.63A4.45,4.45,0,0,1,49.07,82a.28.28,0,0,1,.09.07l0,0a.73.73,0,0,0,.36-.11A2.83,2.83,0,0,0,50,82c.11.19.72,0,1-.1-.09-.27.32-.31-.1-.46.05,0,0,0-.25.1l-.12.06v0l-.74.18a.83.83,0,0,1,.8-.28c.11-.21.24-.43.31-.54.5.31,1.34.3,1.51.51.87-.38,2.12-.68,2.53-1.36.23-.15.33.05.45.1-.13.1-.31.14-.36.24.47-.28,1.49-.54,1.49-.93.69-.07-.25.44.61.08l-.08.15c1.94-.09,2.39-1.93,4.51-2.13-.15,0-.22,0-.27,0a12,12,0,0,0,3.08-1.71,27.42,27.42,0,0,1,2.92-2c.56-.38.45-.6.61-1l.31.11.21-.74c.41-.88,1.69-.85,1.92-2.23l-.26,0c.28-.35.51-1.31.71-1.15,0-.06-.15-.22,0-.34l.15,0A7.16,7.16,0,0,0,71,67.46c.31-.81.62.3.87-1,0-.51-.38-1.4-.48-1.22s-.12.48-.28.48l-.06-.41c-.46-.1-.93-.33-1.3.51a4.23,4.23,0,0,1,.21.63l-.25.16.06-.5c-.26.25-.09.45,0,.68a.43.43,0,0,0-.31.19,5.3,5.3,0,0,1,.26.7c-.19,0-.25-.36-.48,0,.1.34.48-.12.44.37-.31.21-.41.06-.4.45-.13,0-.17-.1-.16-.24,0,.33-.28.76-.16,1-.19.07-.31.31-.43.5s-.26.31-.43.17a1.58,1.58,0,0,1-.21.9c-.07-.74-.73.83-1.07.33.08.62-.84,1.18-1.23,1.82,0-.06,0-.16.08-.19a2.19,2.19,0,0,1-.77.29c.2.33-.25.79-.39,1.19-.64,0,0-.54-.36-.75.21.24-.53.75-.24.87-.45,0-.34.1-.68-.07.21.45-.26.26-.37.68-.6.08-.35-.31-.81.12C61.76,75.12,62.15,74.71,62.15,74.71ZM48.59,80.34h0l.3-.07Zm-1.24.23.54-.08a.13.13,0,0,1-.1.21C47.85,80.62,47.55,80.62,47.35,80.57Zm3,1.4c-.19.08-.27,0-.31,0l.34-.11,0,0A.38.38,0,0,1,50.37,82Z"/><path class="cls-3" d="M50.65,81.53l.08,0-.13,0-.06.1Z"/><path class="cls-3" d="M52.7,49.86l0,0a.21.21,0,0,1,0,.06Z"/><polygon class="cls-3" points="30.06 80.7 30.05 80.77 30.17 80.72 30.06 80.7"/><path class="cls-3" d="M59,53s0,.06.06.1A.28.28,0,0,0,59,53Z"/><path class="cls-3" d="M61.67,54.37l.32.29A2.36,2.36,0,0,0,61.67,54.37Z"/><path class="cls-3" d="M63.56,55.64l.1-.08h0Z"/><path class="cls-3" d="M28.24,49.75l-.09,0C28,49.85,28.09,49.81,28.24,49.75Z"/><path class="cls-3" d="M39.1,48.73a3.59,3.59,0,0,1-.35.12C38.94,48.88,39.09,48.89,39.1,48.73Z"/><polygon class="cls-3" points="16.57 52.6 16.57 52.6 16.5 52.62 16.57 52.6"/><path class="cls-3" d="M38.24,48.82a.91.91,0,0,0,.51,0A1.46,1.46,0,0,0,38.24,48.82Z"/><path class="cls-3" d="M69.69,62.72l0,.1h0Z"/><path class="cls-3" d="M69.77,62.81s0,.07.06.1S69.8,62.82,69.77,62.81Z"/><path class="cls-3" d="M70,63.12l-.13-.21C69.85,63,69.87,63.09,70,63.12Z"/><path class="cls-3" d="M68.5,60.14l-.11,0S68.45,60.17,68.5,60.14Z"/><path class="cls-3" d="M67.94,59.46a3.4,3.4,0,0,0,.37.74l.08,0C68.2,60.15,68.2,59.51,67.94,59.46Z"/><path class="cls-3" d="M66,55.88c.2.18.38.38.57.57,0-.18-.09-.41.21-.19C66.23,55.35,66.82,56.57,66,55.88Z"/><path class="cls-3" d="M64.08,54.32c.39.19.08-.13.13-.17C63.92,54.09,63.85,54.07,64.08,54.32Z"/><path class="cls-3" d="M47.33,48.5l.08-.25C47.08,48.23,47.39,48.35,47.33,48.5Z"/><polygon class="cls-3" points="43.82 49.35 44.11 49.54 44.28 49.33 43.82 49.35"/><polygon class="cls-3" points="42.01 47.34 42.16 47.32 41.6 47.36 42.01 47.34"/><path class="cls-3" d="M12.5,51.51l.22.25C12.9,51.62,12.81,51.28,12.5,51.51Z"/><path class="cls-3" d="M2.17,59.53a.64.64,0,0,0-.49.6C1.85,59.87,2.12,59.68,2.17,59.53Z"/><polygon class="cls-3" points="26.42 82.84 26.15 82.91 26.65 82.89 26.42 82.84"/></g></g></svg>