<svg xmlns="http://www.w3.org/2000/svg" viewBox="0 0 176.74 67.07"><defs><style>.cls-1{font-size:45px;font-family:Bauhaus93, "Bauhaus 93";letter-spacing:-0.05em;}</style></defs><g id="Calque_2" data-name="Calque 2"><g id="Calque_1-2" data-name="Calque 1"><path d="M32,52.33c.69-.78,1.38-1.55,2.06-2.34,2.45-2.82,4.88-5.66,7.35-8.48A2.2,2.2,0,0,0,42,39.92q0-18.09,0-36.17C42,1.21,43.18,0,45.74,0H76c.72,0,1.53-.1,1.92.69s-.22,1.38-.68,1.92q-6.85,8-13.74,16.07a7.63,7.63,0,0,1-6.11,2.77h-5V15.53h3.64l1.73,0a1.26,1.26,0,0,0,.91-.36c2.47-2.85,4.91-5.72,7.36-8.58A5.75,5.75,0,0,0,66.39,6C66,6,65.78,6,65.53,6,60,6,54.38,6,48.81,5.94c-.73,0-.9.23-.9.93,0,5.7,0,11.41,0,17.12v15.5a9.29,9.29,0,0,1-2.28,6.23Q36.8,56,27.92,66.25s-.06.1-.11.12l-1.44.7a5,5,0,0,1-.56-1.49c0-6.06,0-12.11,0-18.17,0-8.32,0-16.64,0-25,0-.77-.21-1-1-1q-11.31,0-22.61,0c-.77,0-1.68.15-2.09-.7s.29-1.46.79-2q6.78-8,13.58-15.9A7.82,7.82,0,0,1,20.74,0c5.17,0,10.34,0,15.51,0h.9V6h-1C30.91,6,25.69,6,20.47,6a1.58,1.58,0,0,0-1.1.43c-2.47,2.81-4.89,5.66-7.32,8.51-.1.12-.18.26-.38.54.41,0,.71,0,1,0H28.1c2.39,0,3.66,1.25,3.66,3.62V52.23Z"/><text class="cls-1" transform="translate(50.42 52.87)">lanner</text></g></g></svg>