<svg xmlns="http://www.w3.org/2000/svg" viewBox="0 0 150.52 97"><defs><style>.cls-1{fill:#fff;}.cls-2{fill:#473f57;}.cls-3{fill:#b7a5db;}</style></defs><g id="Calque_2" data-name="Calque 2"><g id="Calque_1-2" data-name="Calque 1"><rect class="cls-1" x="1.62" y="1.49" width="148" height="94" rx="8.5"/><path class="cls-2" d="M141.12,94.82c-.25.09-.1.29.54.22a3.7,3.7,0,0,0,.42-.37C141.77,94.75,141.44,94.77,141.12,94.82Z"/><path class="cls-2" d="M145.45,94.23c.62-.54,1.07-1.34.51-1.26a10.48,10.48,0,0,1-1.14,1.4c-.58.35-1.11.33-1,.19-.18.18-1,.23-1.28.47a3.77,3.77,0,0,0,2.88-1C145.62,94,145.47,94.15,145.45,94.23Z"/><path class="cls-2" d="M150.08,29.19l0,.43A2.63,2.63,0,0,0,150.08,29.19Z"/><path class="cls-2" d="M132.42.84c.32,0,.45,0,.46-.07C132.59.79,132.35.81,132.42.84Z"/><path class="cls-2" d="M125.38.48l.42,0A1,1,0,0,0,125.38.48Z"/><path class="cls-2" d="M150.08,29.19l.11-1.1C150.08,28,150.11,28.65,150.08,29.19Z"/><path class="cls-2" d="M148.77,86.58c0,.22,0,.42.07.58l0-.55Z"/><path class="cls-2" d="M150.35,47.37v.33a1.82,1.82,0,0,0,.13.28Z"/><path class="cls-2" d="M150.4,61.32c0-.31-.27-.42-.39-.54a1.48,1.48,0,0,1,.19.68C150.26,61.47,150.32,61.43,150.4,61.32Z"/><path class="cls-2" d="M149.91,83.45l0,.39Z"/><path class="cls-2" d="M150.41,37.38a.24.24,0,0,0,.1-.12S150.44,37.31,150.41,37.38Z"/><path class="cls-2" d="M124.94,94.17s0,0,0,0S125.05,94.17,124.94,94.17Z"/><path class="cls-2" d="M141.12,95.56h-.23a.53.53,0,0,0,0,.16Z"/><path class="cls-2" d="M112.5.12h0C112.89.09,112.7.1,112.5.12Z"/><path class="cls-2" d="M.45,12.57c.26-1.34.33,2.18.61.16C1,12.92.62,10.9.45,12.57Z"/><path class="cls-2" d="M148.8,86.21v-.57A5.26,5.26,0,0,0,148.8,86.21Z"/><path class="cls-2" d="M1.06,12.73h0l0-.21Z"/><path class="cls-2" d="M82.8.29a1.09,1.09,0,0,0,.3.12S83,.34,82.8.29Z"/><path class="cls-2" d="M104.92.69l-.54,0Z"/><path class="cls-2" d="M71.32.68a3.47,3.47,0,0,0-.81,0l.12,0A2.1,2.1,0,0,1,71.32.68Z"/><path class="cls-2" d="M59.36.68a1.41,1.41,0,0,0,.22.06H60Z"/><path class="cls-2" d="M88.61,94.3a1.76,1.76,0,0,1,.55.26C89,94.36,90.74,94.28,88.61,94.3Z"/><path class="cls-2" d="M148.93,86.57a.51.51,0,0,1-.13-.36l0,.4S148.9,86.65,148.93,86.57Z"/><path class="cls-2" d="M70.83,2.9l-1.9,0C69.46,2.89,70.15,2.9,70.83,2.9Z"/><path class="cls-2" d="M4.57,91.81l.28.25A1.05,1.05,0,0,0,4.57,91.81Z"/><path class="cls-2" d="M63.29,2.9a5.08,5.08,0,0,0-1.07-.19,1.42,1.42,0,0,0-.22.07Z"/><path class="cls-2" d="M89.17,94.56h0Z"/><path class="cls-2" d="M101.68,93.89c-1.81,0-.85.36-1.23.57-2.17.11-1-.27-1.74-.46-1.35.1-2.38.44-3.39.43-.07-.06-.27-.09,0-.16-1.43.29-4.23,0-5.89.38a.46.46,0,0,1-.22-.09c.27.18.31.37.25.51-.81,0-1.5.23-1.81,0a1.47,1.47,0,0,0,.77-.17l-.85.11c-.76-.35,1.16-.12,1.16-.38a42.33,42.33,0,0,1-4.86.3c-.26-.34,3-.11,1.28-.41l2,.12c-1.51-.53,1.19,0-.19-.53-2.59-.1-2.89.17-5.47.07-.58.19.19.28-.39.47-3.67.34-2.89-.85-5.59-.4a4.19,4.19,0,0,1-2.88.43l.65-.39c-2.5,0-1.43.56-4,.3.46-.15,2-.13,1.59-.17-1.7-.31-1.2.21-2.51.21L68,94.28c-2.67.06-5.6.3-8.56.36.17-.1.67-.2,0-.31-3.72.17-8,0-11.54-.24l-1.37.29c-.32,0-.59-.13-.25-.19-1.4-.11-.07.19-.74.3s-1.06-.16-.55-.25a55.17,55.17,0,0,1-9.64.22l.51-.09c-2-.12-2.29.6-4.17.33l.36,0c-4.4-.13-9.26.14-12.62-.3-.64.42-4.35-.19-4.64.4-1.25-.15-1.7-.25-2.28-.34-.28,0-.6-.08-1.07-.12s-1.17-.07-1.87-.17-1.25.23-2.26-.1l.09-.29A8.66,8.66,0,0,1,6,93.37c-.15-.23-.27-.5-.39-.73a8.2,8.2,0,0,1-.74-.58c.24.28.5.65.39.68a4.54,4.54,0,0,1-1.5-1.87,2.2,2.2,0,0,1-.3-1.28A7,7,0,0,1,2.88,88a8.1,8.1,0,0,1-.13-.86c0-.31,0-.67-.07-1a1,1,0,0,1,.14.48l.05.41.08.35a2.94,2.94,0,0,1-.11-.94c0-.17.05-.21.09-.25S3.11,86,3,85c-.07.27-.18-.14-.24-.19A29.8,29.8,0,0,0,2.83,80l.21.31c0-3-.1-6.33-.1-9.7-.1,1.21-.47.93-.5,0l.32-.4c-.2-.64-.12,1-.37-.28,0-1.26.37-.84.48-.12l-.11-1.53c.09-.09.15.27.27.36-.2-.63.33-2.64,0-3.55l.09-.08C3.11,61.54,3,60,3,57.26c-.28,0-.22-1.12-.45-1.94.09-2,.31-4.26.29-6.69-.14-1.7-.24-.5-.41-1.26.26-.13.23-2.56.42-1.3,0-2.91-.05-3.72-.26-7.41-.11.4-.15.85-.24.62,0-.67.11-1.53.23-1.43l0,.18c-.39-4.14.75-9.56.21-12.86l0,.19-.28-3.42c0-1.58.19.94.35-.22C2.47,18,3,15.89,2.68,12.85A9.42,9.42,0,0,0,3,10.51c0-.51,0-.9.07-1.34l.09-.65.16-.67A6.8,6.8,0,0,1,4.57,5.43,4.81,4.81,0,0,1,6.44,4L6.22,4c.5-.52.78-.32,1.24-.49-.12-.11-.74.18-.39-.1a6.65,6.65,0,0,1,2.15-.67,10.68,10.68,0,0,1,1.18-.06h1.34c1.78,0,3.58.06,5.38.11,3.61.12,7.24.27,10.8.35,2.6,0,1.48-.92,4.76-.49l-.93.33c5.26-.4,10.75,0,15.9-.32a2.15,2.15,0,0,1-.82.17,11.09,11.09,0,0,0,4-.18c.8,0,.18.17.68.27,1.09.14,2.73-.3,3.31-.06.1,0-.3.07-.5.09.71-.11,3.31,0,2.63-.25,1.93.14,3.69-.12,5.23,0,1-.31,3.31.14,3.63-.29-.14.45,3.39.36,4.61.15-.41.14,1.06.14.58.33,1.4,0,2.67-.09,2.43-.32,2.57.54,5.16-.44,6.61.26,4.14-.25,8-.41,11.69-.52-.13.45-4.11.05-4,.52,3.53-.19,5.57-.57,9.07-.46.91.06-.51.19-.82.27,3.53-.19,6.83,0,10-.21a2,2,0,0,1-.67.13c.62,0,1.44.06,1.37-.14l-.6,0c-1-.29,2.45-.62,2.57-.78-1,.59,3.1.15,1.43.89.41,0,.92-.13.82-.27.61,0,.8.12.19.28,2.22-.11,1.43-.33,3.44-.33,0,.1-.42.14-.62.26a13.75,13.75,0,0,1,3.73-.31c-.1.06.1.14-.41.14,2.92,0,5-.52,8.17-.33-.94.43,1.09.14,1.26.52l1.72-.11-.69-.19c1.5,0,2.84-.26,4.13-.14l-1.12.15,2.82-.07L132,2.05c1.52-.19-.17-.47,1.84-.37-.41,0,1.51,0,2.29.23h0a9.89,9.89,0,0,1,2.62-.15c.29.12-.23.41,0,.49a8,8,0,0,1,2.15-.2c.89,0,1.73.05,2.2,0-.3,0-.35.19-.27.26l.62-.11c.61.29.67.37.52.48.88.39.78.25.73.1s-.05-.12.07-.09a3.12,3.12,0,0,1,.84.52,2.88,2.88,0,0,1-.46-.17A8,8,0,0,1,149,8.32c-.12.34-.24-.11-.37-.54s-.32-.82-.35-.43a7.59,7.59,0,0,1,.56,2.19c.09.76.11,1.68.17,2.51.09,1.7.16,3.39.12,5l0-.6c.53.45-.26,2.39,0,4,0-.39-.3-.52-.24-.41-.08,2.2.13,4.49.3,7.82l-.14-.41c-.12,1.29-.07,3.41-.13,4.81.14.41.11,1.21.31.73-.77,4.31.42,8.22-.23,12,0-.46-.12-1.09-.12-.73l.13,3.26c.23-.26.14-.42.32-1.11a8.77,8.77,0,0,1,.24,2.14c-.15-1.46-.37,0-.5.65.07-.11.15.11.22.05-.41,1.71.47.29.19,2.61l-.12-.12a24.08,24.08,0,0,1,.19,2.61c-.27.39-.13-.93-.35-1,0,1.31.51,2.6.24,3.79-.07-.56-.07-1.37-.15-1.93a8.91,8.91,0,0,0-.28,2.42v-.1l-.15,2.23.09-.56c.69,1.65.13,3.35.58,5.58-.43-2.16-.25-.36-.55-.53-.09.57-.18,1.43-.26,1.19.24,1-.2,1.75.16,3.23-.1.07,0,1.12-.25.89.07,1.36.17-.32.29-.21.33,2.1-.41,4.95,0,8,.19,2.61.52,3.09.68,5.52-.15.81-.35-.67-.35-.67a16.22,16.22,0,0,0,0,3.55c-.08-.25-.16,0-.27.39,0,1,.39.68.13,1.92a6.37,6.37,0,0,1-.32-1,7.74,7.74,0,0,1-.4,3.27c-.15.1-.13-.08-.07-.34s.11-.6.12-.8a9.05,9.05,0,0,1-.79,2,9.82,9.82,0,0,0-.73,1.38c.2-.2.44-.37.62-.58-.29.39-.32,0-.15-.26.48-1,.9-1.29,1-1.31a5.77,5.77,0,0,1-.35.76c.49-.2.87-1,1.06-2a8.14,8.14,0,0,0,.13-1.48c0-.48,0-.95,0-1.39.13.24.28.48.41.72-.1-.6-.23-1.19-.34-1.79.11-.38.34-.64.4.22.21-1.25-.15-1.1.08-2.18,0-.12.06-.06.08,0l-.13-1.22c.09.24.3-.21.24.54.24-2.19-.32-3.53,0-4.36l0,.19c-.14-3-.3-.3-.66-2.58l.75-1.54-.3-.3c0-.31,0-.93.15-.82-.2-1.16-.13.2-.33-.48.28-1.51-.13-4.16.36-4.5-.23-.54-.18,1.44-.34-.17.52-.46-.09-1.86.15-3.24.27.42.13,1.73.37.35-.46-.84.1-2.69,0-3.86-.36-.05-.15-2.53-.27-4.48.12.12.2-3.68.33-5.49l.06,0c-.37-.35-.3-2.23-.37-3.59.22,0,.3.3.4,1V47.7a4.86,4.86,0,0,1-.22-1.53l.27.32a52.2,52.2,0,0,1-.14-5.63c-.25-.13-.71,1.74-.88-.58.14-.09.37-.17.43.44a4.62,4.62,0,0,1-.05-1.12l.23.93c.1-1-.2-.52-.17-1.32.19,0,.14-.59.29-.48a5.65,5.65,0,0,0,0,1,9.77,9.77,0,0,1,.3-2.36c-.11.08-.27,0-.29-.66,0-1.71.24-.58.34-1.58-.14-.41,0-1.5-.29-1.53a1.37,1.37,0,0,1,.22-.79c-.13-.88,0-4.12-.35-3.13l0,.23,0-.15h0c-.29-2.89.17-6,0-8.89h.1c-.11-1.72-.06-3.82-.28-5.05,0-.51.18-1.2.3-1a15.8,15.8,0,0,1,0-3.35c.17,1.32.15-.46.12,1.35.05-.85.11-1.38.12-1.91a8.57,8.57,0,0,0,0-.87,7.71,7.71,0,0,0-.21-1.21c.18.31.21,0,.16-.59a5.45,5.45,0,0,0-.48-1.67,7.23,7.23,0,0,1,.21,1.29,10.94,10.94,0,0,0-1-2.52l.53.26a7.17,7.17,0,0,0-3.68-3.75A24.53,24.53,0,0,0,141.54.5c-.52.09,0,.15.53.23s1.05.26.58.32c-.83-.19-1.73-.28-2.39-.42a14.31,14.31,0,0,0-1.47-.24c-2.2-.19-2,.48-4.35.36.29.12.57.43-1.15.55-1.61-.05-2-.5-1-.6.39,0,.57,0,.55.07.52,0,1.2-.09.57-.22l-.21.12c-.8-.12-3-.11-2.49-.31-1.21.12-.51.2.38.26-2.06-.17-3.21,0-5.33-.12.33.06.64.2.31.2-3.11-.14-1.37.23-3.48.28-1.19-.18.43-.43-1.69-.28-1.29-.12-.27-.32.24-.41A24.07,24.07,0,0,1,116.47.1l1-.1a13.08,13.08,0,0,1-1.62.05l.58.24c-.59,0-1.1,0-1.09-.14-.61.16.47.4-.75.61-.8-.12-2.42.13-2.7-.19,2.51.11-.28-.31,1.84-.36a10.83,10.83,0,0,1-1.5,0c-.09,0,.08-.07.25-.08-2.4-.28-1.11.35-3.59.35.31-.18-.58-.34-1-.3,1,0,.48.29-.44.43a13.48,13.48,0,0,0-2.57.09l1,.06a8,8,0,0,1-2.22.21c-.1-.14,1-.09.61-.16-1.24.32-2.79-.32-4.51-.11C99,.57,99.67.36,99,.28,97.05.51,96.89,0,94.86.22c.59.24.69.18-.74.42L97.45.47,95.32.82c1,0,2.12-.15,2.72-.11-1,.19-.92.13-.43.33-1.38-.36-2.73.21-4.32,0l0-.59C91,.15,89.09.72,86,.57l1,.1c-.42.24-1.92,0-2.92.13.09-.2-.54-.27-1-.39.06.15-2.27,0-2.55.38L79.17.53c-2.51-.11-2.86.56-5.27.49.72-.21-.37-.35,1.24-.5-.8,0-1.52,0-1.54.1-.47-.13-2.23.26-3,.07A2.64,2.64,0,0,1,69.28,1c-.1,0,0-.1,0-.1s-1.42.14-.63.35c-2.48-.61-6.92.05-9.08-.48-1.75.07-3.87.13-5.46.14.1-.05,0-.09.31-.07-2.2-.19-1.35.56-3.86.36C49.3.85,51.9,1,51.11.88c-.35-.65-3,.08-4.7-.3l.4,0c-1.28-.22-3.14.24-5.24.2,0,0,.1-.06,0-.1a44.28,44.28,0,0,1-6.18.53c.62-.25.91-.13.53-.39-.91,0,.27.41-1.54.49-.59-.14-1.9-.27-2.07-.54L34,.72c-.88-.35-2.21,0-3.11,0L31,.52c-2.61,0-2.65.44-5.46.41l.29.12c-1.53.39-1.29-.22-2.82.07L22.59.73c-1,.09-3.55.38-5.37.45A43.23,43.23,0,0,1,21.69.57a22.66,22.66,0,0,0-3.93.22A5.76,5.76,0,0,1,19.07.72a20.14,20.14,0,0,1-4.86.45c.18-.38-1.12-.43-2.65-.45-.77,0-1.57,0-2.39,0S7.69.85,7.25.82a11.35,11.35,0,0,0-4.8,3.49A9.61,9.61,0,0,0,.92,7.07a9.9,9.9,0,0,0-.48,3.29c.6-1.47,0,1.22.63,1a6.18,6.18,0,0,1,0,1.42L.69,15.64c-.17.69-.13-.91-.27-.83,0,2.11-.26.89-.42,2.28.22-.29.31.73.23,1.93l.28-1.69C.84,20.27,0,19.87.32,22.84L.13,21.9c.11,1.52,0,5.61.49,7.1-.07.27-.24.62-.29,0-.07,3.63.53,8.09.22,10.91L.4,39.6a6.22,6.22,0,0,1,.13,2c-.06,0-.14-.27-.15.05a13.72,13.72,0,0,1,.17,2.7L.38,43.6C.19,47.14.79,49,.9,52c-.44,0-.59,2.78-.66,4.18l-.06,0C.12,60.27.54,63.15.72,67c-.48,2.38-.2,8-.47,11.86.08-.59.34.09.39.77-.09.89.3,2.47-.1,2.33v-.32c-.4.68-.3,2.52-.31,4l.53.24a8.64,8.64,0,0,0-.19,1.54,7.32,7.32,0,0,0,.16,1.85,8.61,8.61,0,0,0,1.68,3.48A10.8,10.8,0,0,0,5,95c.85.58,1.63.92,2.13,1.28a10.79,10.79,0,0,0,3.27.21l-.05.28c2.52.07,3.77.11,6.87,0l-.63.2c1.75,0,2.21-.81,3.83-.83l.48.42c3.06,0,6.15.37,9.17,0-.05.06-.14.19-.63.2,1.44,0,5.56.29,5-.29,0,.38,3.15,0,4.8-.13l-.26.28a11.33,11.33,0,0,1,3.39-.55c.46,0,.4.22-.21.15,1.53.15,1.19-.26,3.06-.12l-.7.18A5.65,5.65,0,0,0,46.89,96a8,8,0,0,1,3.23.32,4,4,0,0,1,2-.28c.12.09-.22.15-.39.18,2.64.19,3.93-.32,5.75,0,0,.09.15.14.31.16-2.1,0-3.79,0-3.64,0,0,.26,1.7.3.35.66a27.8,27.8,0,0,1,5.34-.49l.22.08-.17,0a4.4,4.4,0,0,0,1,0c.53,0,.87.08,1.37.08a11.15,11.15,0,0,0,2.79.12c-.07-.28,1-.23,0-.46.14,0-.16,0-.72,0a3.05,3.05,0,0,0-.36,0l.06,0H62a5.68,5.68,0,0,1,2.3-.1c.43-.18.91-.37,1.18-.46,1.15.4,3.38.61,3.69.85,2.59-.16,6.09-.1,7.71-.63a1.75,1.75,0,0,1,1.12.23c-.43.06-.93,0-1.16.12,1.47-.13,4.35,0,4.7-.42,1.85.17-1,.34,1.5.28l-.34.11c5,.59,8.13-.94,13.67-.18a2,2,0,0,1-.66-.13c6.32.33,13-.31,19.26.22a8.8,8.8,0,0,0,3-.31l.38.3,1.85-.35c2.63-.25,4.55.74,7.87.26l-.43-.2c1.19,0,3.78-.12,3.58.11a1.28,1.28,0,0,1,.85-.11l0,.16,2.93-.27c2.27.12-.36.63,3,.66,1.23-.06,3.51-.46,3-.57s-1.27-.09-1.3-.25l1.12-.09c.21-.46,1.07-.94-1.69-1.26l-1.93.28-.62-.22,1.62,0a4.41,4.41,0,0,0-2.15.11,1.68,1.68,0,0,0-.81-.25l-1.89.44c-.23-.18.84-.36-.43-.46-.88.21.85.41-.61.54-.92-.21-.66-.38-1.74-.2-.15-.12.08-.2.51-.25a21.23,21.23,0,0,0-3.05.31c-1-.26-3.25.07-3.16-.37a13.72,13.72,0,0,1-2.58.36c1.62-.53-3.31,0-2.88-.59-1.2.47-4.32.21-6.44.47a1.25,1.25,0,0,1,.54-.09,17.79,17.79,0,0,1-2.31-.27c-.15.39-2,.48-3,.72-1.46-.38.89-.46.43-.82.07.31-2.54.31-2,.58-1.12-.24-1-.11-1.54-.44-.2.49-1,.08-2,.38-1.62-.24-.42-.45-2.2-.31C100.1,94.06,101.68,93.89,101.68,93.89Zm-42.27.85h.87Zm-3.55,0H57.4c.12.1,0,.2-.37.2C57.22,94.88,56.39,94.82,55.86,94.74Zm7.51,2a1.49,1.49,0,0,1-.83-.07l1,0,.06,0A.56.56,0,0,1,63.37,96.69Z"/><path class="cls-2" d="M64.38,96.32l.23,0-.33-.06-.2.09Z"/><path class="cls-2" d="M150,29.69v-.07a.46.46,0,0,1,0,.15Z"/><polygon class="cls-2" points="7.38 93.66 7.35 93.73 7.62 93.76 7.38 93.66"/><path class="cls-2" d="M149.07,49.26a.69.69,0,0,0-.07.25A.88.88,0,0,0,149.07,49.26Z"/><path class="cls-2" d="M149,57.71l-.1,1.19C149,58.39,149,58,149,57.71Z"/><path class="cls-2" d="M148.87,64.21a.32.32,0,0,0,.12.12h0Z"/><path class="cls-2" d="M105.37,2.57h-.25C104.53,2.63,104.93,2.61,105.37,2.57Z"/><path class="cls-2" d="M136.12,1.91c-.33.05-.65.1-1,.13C135.67,2.06,136.1,2.07,136.12,1.91Z"/><path class="cls-2" d="M71,2.9Z"/><path class="cls-2" d="M133.7,2a7.57,7.57,0,0,0,1.43,0A9.75,9.75,0,0,0,133.7,2Z"/><path class="cls-2" d="M147.26,91.49l-.18.22s0,0,0,.06Z"/><path class="cls-2" d="M147.09,91.77c-.05.09-.11.17-.17.26A.6.6,0,0,0,147.09,91.77Z"/><path class="cls-2" d="M146.51,92.56c.15-.17.27-.36.41-.53A2.3,2.3,0,0,0,146.51,92.56Z"/><path class="cls-2" d="M148.87,83.77l-.1-.1A.14.14,0,0,0,148.87,83.77Z"/><path class="cls-2" d="M148.84,81.15a19,19,0,0,0-.15,2.44l.08.08C148.62,83.26,149,81.75,148.84,81.15Z"/><path class="cls-2" d="M150.1,70.24,150,72.43c.11-.38.25-.88.28.11C150.62,69.78,150.06,73.11,150.1,70.24Z"/><path class="cls-2" d="M150.26,63.45c.05,1.18.16,0,.22,0C150.38,62.75,150.35,62.57,150.26,63.45Z"/><path class="cls-2" d="M150.26,14.37l.26.12C150.48,13.58,150.42,14.48,150.26,14.37Z"/><path class="cls-2" d="M147.62,5.65c.09.26.2.51.27.77l.38.24A7.56,7.56,0,0,0,147.62,5.65Z"/><path class="cls-2" d="M144.24.87l.44.12A9.89,9.89,0,0,0,143,.59C143.42.68,143.84.74,144.24.87Z"/><path class="cls-2" d="M61.49.44l.27.31C62.38.69,62.5.34,61.49.44Z"/><path class="cls-2" d="M25.9.76a4.2,4.2,0,0,0-2-.11C24.7.67,25.49.8,25.9.76Z"/><path class="cls-2" d="M.41,87.67l-.14-.8a10.06,10.06,0,0,0,.2,1.52A4.37,4.37,0,0,1,.41,87.67Z"/><circle class="cls-1" cx="44.62" cy="30.49" r="23"/><path class="cls-2" d="M67,30.49a.15.15,0,0,0,.24-.18l-.34-.14Z"/><path class="cls-2" d="M67.49,29.08c-.17-.24-.46-.49-.76-.31.33.21.2.28.59.52.05.2-.09.36-.21.33.09.07-.06.32.16.43a.75.75,0,0,0,0-1C67.34,29,67.43,29.07,67.49,29.08Z"/><path class="cls-2" d="M58.21,11.38l.08.12A.28.28,0,0,0,58.21,11.38Z"/><path class="cls-2" d="M46.18,6.92c.1,0,.15,0,.15-.06S46.16,6.89,46.18,6.92Z"/><path class="cls-2" d="M44,6.51l.13,0S44,6.48,44,6.51Z"/><path class="cls-2" d="M58.21,11.38,58,11.09C57.91,11.17,58.09,11.26,58.21,11.38Z"/><path class="cls-2" d="M66.38,26.43a.31.31,0,0,0,.11.16l-.06-.16Z"/><path class="cls-2" d="M62.62,15.05l.07.08.16,0Z"/><path class="cls-2" d="M65.22,18.63c0-.09-.31,0-.43.05a.35.35,0,0,1,.28.09A.6.6,0,0,0,65.22,18.63Z"/><path class="cls-2" d="M67.3,25.27l.07.11Z"/><path class="cls-2" d="M60.43,12.75a.19.19,0,0,0,0-.11A.36.36,0,0,0,60.43,12.75Z"/><path class="cls-2" d="M65.78,35.14h0S65.79,35.11,65.78,35.14Z"/><path class="cls-2" d="M67.69,30.49v.07h.16Z"/><path class="cls-2" d="M39.77,6.6h0C39.89,6.56,39.83,6.57,39.77,6.6Z"/><path class="cls-2" d="M21,35.6c.14-.47.48.6.6-.08C21.52,35.61,21,35,21,35.6Z"/><path class="cls-2" d="M66.4,26.32l0-.17A.37.37,0,0,0,66.4,26.32Z"/><path class="cls-2" d="M21.61,35.52h0v0Z"/><path class="cls-2" d="M31,10.49a.33.33,0,0,0,.14,0S31.09,10.49,31,10.49Z"/><path class="cls-2" d="M37.54,7.76l-.17,0Z"/><path class="cls-2" d="M28.38,13.11c-.09.05-.14,0-.21.16h.06A.2.2,0,0,1,28.38,13.11Z"/><path class="cls-2" d="M25.82,15.92l.09,0,.06-.11Z"/><path class="cls-2" d="M61.25,44.58a.75.75,0,0,1,.31,0C61.37,44.53,61.66,44.11,61.25,44.58Z"/><path class="cls-2" d="M66.53,26.4c-.07,0-.11,0-.13-.08l0,.11S66.51,26.43,66.53,26.4Z"/><path class="cls-2" d="M29.79,14.83l-.44.34A4,4,0,0,0,29.79,14.83Z"/><path class="cls-2" d="M38.58,51.48h.13A.15.15,0,0,0,38.58,51.48Z"/><path class="cls-2" d="M28.29,16.4a.9.9,0,0,0-.36.1.38.38,0,0,0,0,.1Z"/><path class="cls-2" d="M61.56,44.62Z"/><path class="cls-2" d="M63.09,41.26c-.27.44.18.39.31.6-.24.6-.38.1-.65.18-.12.39,0,.84-.2,1.06-.06,0-.12,0-.14-.08,0,.5-.72,1-.74,1.61a.19.19,0,0,1-.11,0,1,1,0,0,1,.44.27c-.16.19-.13.49-.37.4.1-.11,0-.18,0-.28l-.09.26c-.42-.06.14-.34-.06-.5-.24.43-.42,1-.75,1.27-.3-.18.51-.73,0-.57l.49-.34c-.7,0,.26-.23-.44-.31-.58.47-.41.76-1,1.2,0,.25.24.16.24.41-.58,1-1.2-.06-1.48.81,0,.3.19.68-.41.85L58,47.67c-.61.4,0,.69-.78.95,0-.21.39-.46.28-.43-.58.06-.16.39-.47.63l-.26-.24c-.64.43-1.22,1.14-2,1.58,0-.11.08-.27-.15-.28a7,7,0,0,1-1.53.76c-.56.14-1.13.24-1.65.33l-.29.41c-.09,0-.2-.08-.12-.16-.43,0,0,.19-.13.35s-.34-.09-.22-.21a4,4,0,0,1-2.71.81l.14-.11c-.6,0-.59.7-1.18.52l.1-.07c-1.3,0-2.75.31-3.71-.23-.22.42-1.26-.25-1.4.29-.7-.4-.48-.48-1.46-.82-.27-.06-.47.28-.82.25l.06-.3-.53.2L39,51.48h-.33c.12.05.23.2.19.28a1.37,1.37,0,0,1-.76-.27c-.21-.16-.34-.36-.32-.43l-1.2-.16c.07-.11.27-.08.45-.1-.7.08,0-.34-.63-.27,0,.09-.11.16-.15.21A2.87,2.87,0,0,0,35,50l.17-.15c-.77-.39-1.65-.78-2.49-1.29.25.26,0,.53-.29.41l.08-.33c-.27.07.19.26-.28.26-.28-.25,0-.45.24-.41l-.42-.18c0-.09.15-.07.24-.16-.27.06-.42-.72-.84-.59l0-.09c-.79-.56-1.14-.84-1.76-1.34-.2.19-.39-.06-.73-.06a9.94,9.94,0,0,0-1.11-1.65c-.43-.29-.27,0-.55,0,.18-.2-.26-.75.1-.57-.27-.33-.44-.54-.65-.76a11.31,11.31,0,0,1-.81-.87c0,.16,0,.3-.1.29s-.15-.45,0-.49l0,0a3,3,0,0,1-.82-1.8,3,3,0,0,0-.7-1.65l.05,0-.61-.85c-.12-.45.28.2.31-.18a2.56,2.56,0,0,1-.42-.63,5.4,5.4,0,0,1-.15-.61,2.82,2.82,0,0,0-.36-1.18,2.12,2.12,0,0,0,0-1.62c-.07-.31-.15-.63-.19-.93a1.8,1.8,0,0,1,.13-.82L23,31.9c-.18-.23.09-.29.12-.47-.14,0-.15.27-.25.13A8.83,8.83,0,0,1,23,28.45c.09-.52.27-1,.4-1.53l.21-.75.26-.73c.23-.7-.78-.65-.14-1.46l.25.36a7.35,7.35,0,0,1,.6-2.25A12,12,0,0,0,25.45,20c0,.11.1.16,0,.29.35-.16.61-1,.44-1.1.14-.19.18,0,.34,0s.14-.85.45-.85c.05,0,0,.12,0,.18,0-.24.6-.75.26-.76.45-.36.53-1,1-1.19,0-.42.76-.61.5-1,.31.34.91-.49,1.05-.86,0,.18.33-.11.36.13.29-.28.51-.59.3-.72.88-.11.91-1.29,1.66-1l.61-.67.67-.57a11.66,11.66,0,0,1,1.35-1c.16.39-1,.63-.76,1a6,6,0,0,1,2.15-1.62c.27-.07-.06.24-.11.35a4.71,4.71,0,0,1,1.37-.63,8.43,8.43,0,0,0,1.3-.58s-.07.11-.15.17c.17-.06.42,0,.35-.23l-.16.09c-.37-.21.54-.78.54-.94-.16.65.94-.09.63.76.11-.07.23-.2.17-.33.19,0,.26.06.12.26.6-.28.34-.41.93-.51,0,.1-.1.16-.14.28a1.46,1.46,0,0,1,1-.47c0,.07,0,.14-.1.16A5.9,5.9,0,0,1,44,8.06c-.27.45.32.13.38.5a4.48,4.48,0,0,1,.5-.11l-.2-.19c.45,0,.86-.22,1.24-.08l-.34.14.84,0L46,8.12c.47-.17,0-.47.59-.34-.13,0,.46,0,.67.29h0A1,1,0,0,1,48,8c.07.13-.13.4-.08.49.26-.27,1,.05,1.39-.2a.32.32,0,0,0-.13.29l.23-.2c.19.13.21.18.14.32.6.2-.08-.51.6-.12-.07,0,0,.05-.18.05.7.29,1.47.19,2.07.58.07.42-.59-.12-.48.26a11.87,11.87,0,0,0,1.51.29,4.66,4.66,0,0,1,1.41.52l-.15-.11c.36-.42.54.53,1.08.54-.12,0-.28.18-.22.14a10.28,10.28,0,0,0,2.15,1l-.17,0a11.13,11.13,0,0,0,1.07,1c.18,0,.36.13.37-.11A2.86,2.86,0,0,0,60,14.12a2,2,0,0,1,1.18,1.29c-.1-.1-.31-.16-.24-.08l.75.64c.13-.21,0-.19,0-.46a.93.93,0,0,1,.62.33c-.42-.23-.27.23-.26.47,0-.07.14-.07.18-.13,0,.67.42-.22.63.52l-.12.05c.2.17.48.27.63.52-.15.25-.28-.15-.46,0,.24.31.9.34.85.81-.15-.11-.27-.32-.44-.41a1.13,1.13,0,0,0,.16.77v0l.22.65v-.19c.84.08.67.77,1.34,1.18-.67-.39-.27,0-.56.11,0,.2,0,.47-.08.44.36.18.05.55.57.8-.08.05.13.3-.12.33.24.34.11-.15.24-.17.58.45.14,1.52.9,2.21.39.69.73.75,1.08,1.44-.09.28-.4-.12-.4-.12a1.78,1.78,0,0,0,.25,1.05c-.1-.06-.16,0-.25.17.07.29.38.13.3.55a1.4,1.4,0,0,1-.43-.23c.14.33.37.65.52,1-.16.12-.29-.18-.42-.29.13.39.32,1,.57,1.13l.08-.28c0,.15-.22.1-.28,0a.32.32,0,0,1,.11-.55l.1.25c.53-.34-.25-1-.29-1.56l.44.15L66.9,26c.08-.13.3-.26.4,0,.13-.42-.22-.3-.08-.68,0,0,0,0,.08,0l-.22-.34c.11.05.27-.13.27.11.06-.73-.57-1-.33-1.32l0,.05c-.41-.87-.31,0-.88-.56l.55-.69H66.4c0-.09-.07-.28.06-.29-.32-.27-.1.1-.36,0a1.43,1.43,0,0,0-.2-.82c-.13-.24-.21-.46,0-.61-.29-.05,0,.48-.33.09.41-.35-.34-.48-.3-1,.29,0,.34.44.37-.06-.51,0-.28-.81-.56-1.08-.33.17-.55-.6-1-1.06.15-.05-.49-1.05-.74-1.59l.06,0c-.36.14-.63-.4-1-.66a.42.42,0,0,1,.53,0,3.85,3.85,0,0,0-.27-.3.72.72,0,0,1-.49-.22l.27-.1c-.39-.39-.95-.61-1.32-1.21-.2.16-.1.86-.75.51.08-.12.22-.31.4-.22-.06,0-.24-.07-.29-.19l.37,0c-.16-.28-.25,0-.42-.15.14-.14,0-.23.09-.32s.11.21.23.22a1.37,1.37,0,0,1-.35-.72.21.21,0,0,1-.34.07c-.41-.35,0-.3-.15-.59-.18,0-.37-.31-.56-.08-.13-.1-.07-.22-.07-.32-.3-.07-1.07-.76-1-.31l0,.06,0,0h0C57.45,11.22,56.82,10.4,56,10l0-.09a5.36,5.36,0,0,0-1.53-.46c-.15-.07-.27-.32-.16-.4a1.9,1.9,0,0,1-1-.4c.45,0-.08-.19.45,0-.48-.26-.54-.46-1.18-.4.28-.17-.28-.44-.54-.46l.3.3a3.16,3.16,0,0,1-.75-.28l.23-.27c-1-.68-2.1.13-2.79-.68-.34.18.57.25.25.48-.49-.12-.94-.67-1.1-.7-.68-.28-.71.36-1.42.17.08.12.13.44-.41.53-.49-.07-.58-.53-.26-.61.13,0,.18,0,.17.08.17,0,.39-.08.2-.22l-.07.12c-.25-.14-1-.16-.78-.34-.4.09-.18.18.11.26a7.46,7.46,0,0,0-1.71-.15c.11.06.21.19.11.19-1-.09-.43.25-1.09.34-.39-.17.11-.44-.56-.26-.42-.1-.11-.31.05-.41a3.14,3.14,0,0,1-1.54,0l.31-.14a1.53,1.53,0,0,1-.51.13l.22.21c-.2,0-.36,0-.37-.09-.17.19.21.37-.14.64-.27-.08-.74.23-.88,0,.81,0-.16-.3.51-.46a1,1,0,0,1-.49.07s0-.07.07-.1c-.82-.09-.28.44-1.05.62.05-.19-.27-.28-.38-.21.31-.07.22.25,0,.46-.53,0-.51.23-.77.29l.31,0c-.05.19-.3.23-.6.42-.08-.13.27-.2.13-.22-.27.43-.94,0-1.38.39-.29,0-.15-.31-.39-.3-.5.41-.72,0-1.24.49.27.13.27.06,0,.47l.89-.61L34.75,9c.29-.13.54-.44.74-.46-.23.29-.21.24,0,.35-.53-.14-.68.56-1.23.56L34,8.9a1.78,1.78,0,0,0-1,.52,3,3,0,0,1-1,.76l.33-.08c0,.27-.5.35-.73.59-.08-.18-.29-.13-.48-.16.1.11-.59.43-.43.8l-.51.05c-.71.41-.39,1-1,1.44,0-.32-.32-.19,0-.65-.2.17-.39.3-.31.4-.19,0-.34.68-.64.7,0,.13.09.31-.13.48-.05,0-.06-.07-.06-.07s-.22.41.1.39c-.95.16-1.46,1.59-2.23,1.83-.28.49-.64,1-.92,1.48,0-.06-.08-.06,0-.13-.52.5.25.67-.32,1.23-.49.18.06-.45-.17-.3-.6-.23-.44.85-1,1.15l0-.14c-.38.28-.22,1-.55,1.6a.11.11,0,0,0-.09,0,6.49,6.49,0,0,1-.22,2c-.17-.26,0-.31-.31-.29-.06.29.42.07.29.62-.19.13-.45.47-.72.45,0-.18.11-.35.16-.52-.45.15-.21.67-.33.93l-.14-.08c-.17.83.21.94,0,1.79l.14-.07c.27.55-.29.36-.09.88l-.41.08c.05.34.19,1.17.22,1.73A4.33,4.33,0,0,1,21,26.8c-.05.32-.14,1.09,0,1.27,0-.13-.09-.3,0-.42a2.82,2.82,0,0,1,.34,1.56c-.76-.15-.3,1.63-.81,2.11A5.43,5.43,0,0,1,20.71,33a12.47,12.47,0,0,0,.15,1.87c.52-.57.08.38.66.18.09.29.13.4.09.44l-.12,1c-.12.26-.21-.25-.33-.19.12.67-.18.34-.23.83.19-.15.36.14.38.55l.14-.62c.53.83-.25.94.37,1.76l-.29-.23c.27.43.63,1.74,1.32,1.95,0,.11-.13.29-.26.11a6.4,6.4,0,0,0,1,1.58,3.69,3.69,0,0,1,.88,1.4h-.17c.16.16.42.18.47.47-.06,0-.18,0-.13.1s.57.32.67.6l-.29-.1a2.75,2.75,0,0,0,1,1.06,6.24,6.24,0,0,1,1.13.71c-.32.28.16,1.07.45,1.43l-.05,0A7.26,7.26,0,0,0,29,49c.49.28,1,.46,1.57.76A3,3,0,0,0,31.82,51c.6.38,1.24.81,1.75,1.17-.13-.15.19-.29.4-.24.22.21.85.07.64.42l-.09,0c0,.44.61.64,1,.79l.27-.47a2.92,2.92,0,0,0,1.91.92c.73.1,1.38.18,1.62.59a8.07,8.07,0,0,0,1-.07l-.06.27a8.2,8.2,0,0,0,2.2.34l-.22.19c.57,0,.78-.77,1.29-.76l.14.43a5.9,5.9,0,0,0,2.95-.08c0,.06,0,.19-.19.21.46,0,1.83.07,1.58-.47.06.37,1-.11,1.5-.37l0,.29c.36-.46.35-.56.93-.8.15,0,.18.18,0,.16.51,0,.3-.35.91-.35l-.17.22c.5-.11.44-.17.63-.47s.91-.26,1.07,0a.58.58,0,0,1,.49-.48c.08.07,0,.16,0,.21.87-.09,1-.8,1.64-.78a.21.21,0,0,0,.16.1,8.32,8.32,0,0,1-1.06.47c.1.23.62,0,.36.55.33-.37.82-1.07,1.35-1.2l.11,0,0,.05a.55.55,0,0,0,.28-.18,1.75,1.75,0,0,0,.42-.16c.16.15.59-.23.83-.36-.16-.23.16-.38-.24-.4,0,0,0,0-.18.16a.2.2,0,0,0-.08.08v0l-.56.36a.66.66,0,0,1,.57-.47c0-.23.06-.46.08-.58.52.15,1.24,0,1.45.07.57-.64,1.54-1.23,1.55-2,.13-.2.3-.06.42-.06-.07.13-.19.23-.19.34.25-.42,1-1,.81-1.31.54-.28,0,.48.54-.13v.16a3,3,0,0,0,1.31-1.67,3,3,0,0,1,1.31-1.79c-.11.07-.16.1-.23.09,1.41-1.49,1.87-3.63,3-5.3.3-.49.1-.63,0-1l.33,0c-.05-.22-.12-.45-.18-.66a1.67,1.67,0,0,1,.5-1.07,1.32,1.32,0,0,0,.3-1.29l-.22.1c.1-.36.06-1.19.28-1.09,0-.05-.19-.15-.06-.28H68a6.47,6.47,0,0,0-.18-.94c.15-.7.62.17.7-.89,0-.4-.4-1.13-.52-1s-.11.4-.27.41l-.07-.35c-.46-.07-.92-.32-1.29.49l.25.57-.23.17v-.47c-.23.26,0,.44.07.64a.4.4,0,0,0-.26.21l.42.6c-.19,0-.33-.28-.48.07.16.28.44-.2.51.24-.25.25-.41.15-.28.49-.12,0-.19,0-.22-.18.1.29-.06.74.17.93-.29.23-.1,1-.54.83A1.49,1.49,0,0,1,66,36c-.4-.59-.27.94-.79.66.39.48-.21,1.24-.17,1.92,0,0-.07-.14,0-.18-.15.31-.32.35-.48.52.34.2.19.72.28,1.1-.53.22-.31-.44-.69-.47.29.12,0,.81.26.79-.35.2-.22.21-.58.21.4.28,0,.32.06.69-.46.29-.46-.12-.6.39C63,41.73,63.09,41.26,63.09,41.26Zm-8.26,9h0l.22-.13Zm-.95.47.42-.19c.07.07.08.17,0,.22S54.05,50.71,53.88,50.71Zm3,.64c-.13.13-.21.11-.26.08l.25-.2v0A.22.22,0,0,1,56.84,51.35Z"/><path class="cls-2" d="M56.93,50.87a.34.34,0,0,1,.06-.06h-.13v.11Z"/><path class="cls-2" d="M58.31,11.52l0,0a.14.14,0,0,1,0,.06Z"/><polygon class="cls-2" points="39.73 51.63 39.72 51.7 39.82 51.66 39.73 51.63"/><path class="cls-2" d="M62,16.31a.16.16,0,0,0,0,.1A.22.22,0,0,0,62,16.31Z"/><path class="cls-2" d="M63.45,18.4l.1.36A2.44,2.44,0,0,0,63.45,18.4Z"/><path class="cls-2" d="M64.31,20.14l.12,0h0Z"/><path class="cls-2" d="M38.23,9.52l-.07,0C38,9.65,38.12,9.59,38.23,9.52Z"/><path class="cls-2" d="M47.23,8.07l-.31.09C47.08,8.21,47.2,8.23,47.23,8.07Z"/><polygon class="cls-2" points="29.84 14.79 29.84 14.79 29.79 14.83 29.84 14.79"/><path class="cls-2" d="M46.49,8.13a.65.65,0,0,0,.43,0A1,1,0,0,0,46.49,8.13Z"/><path class="cls-2" d="M66.61,28.13v.09h0Z"/><path class="cls-2" d="M66.66,28.23l0,.1S66.69,28.24,66.66,28.23Z"/><path class="cls-2" d="M66.78,28.54l-.08-.21C66.7,28.41,66.7,28.5,66.78,28.54Z"/><path class="cls-2" d="M66.31,25.59h-.1A.17.17,0,0,0,66.31,25.59Z"/><path class="cls-2" d="M66.09,24.85c0,.18-.09.5,0,.73h.09C66,25.51,66.3,25,66.09,24.85Z"/><path class="cls-2" d="M66.22,21.28c.07.22.12.45.17.67.06-.15.14-.35.28-.07C66.66,20.94,66.51,22.14,66.22,21.28Z"/><path class="cls-2" d="M65.44,19.28c.2.31.13-.08.2-.09C65.44,19,65.38,19,65.44,19.28Z"/><path class="cls-2" d="M54.25,8.91l.14-.22C54.12,8.6,54.35,8.78,54.25,8.91Z"/><path class="cls-2" d="M51.1,9.13a1.5,1.5,0,0,1,.2.23l.19-.18A1.74,1.74,0,0,0,51.1,9.13Z"/><polygon class="cls-2" points="49.89 6.94 50.02 6.93 49.53 6.91 49.89 6.94"/><path class="cls-2" d="M26,15.22l.3.13C26.42,15.18,26.17,14.91,26,15.22Z"/><path class="cls-2" d="M21.42,25.51a.47.47,0,0,0-.22.61C21.26,25.87,21.42,25.64,21.42,25.51Z"/><polygon class="cls-2" points="36.23 53.21 35.98 53.23 36.42 53.3 36.23 53.21"/><ellipse class="cls-1" cx="44.96" cy="73.49" rx="34.59" ry="17"/><path class="cls-2" d="M78.89,73.49c.08.09.28,0,.23-.2l-.34-.14Z"/><path class="cls-2" d="M79.34,71.88c-.21-.25-.57-.48-.82-.24.38.18.26.27.67.49.08.23,0,.42-.17.39.11.08,0,.36.18.47a.87.87,0,0,0-.08-1.09C79.18,71.8,79.28,71.87,79.34,71.88Z"/><path class="cls-2" d="M61.33,58l.14.08A.37.37,0,0,0,61.33,58Z"/><path class="cls-2" d="M46.74,55.86c.11,0,.16,0,.16-.06S46.71,55.83,46.74,55.86Z"/><path class="cls-2" d="M44.21,55.49l.15,0C44.3,55.48,44.24,55.46,44.21,55.49Z"/><path class="cls-2" d="M61.33,58l-.36-.2C60.92,57.93,61.15,58,61.33,58Z"/><path class="cls-2" d="M77.49,69.26a.55.55,0,0,0,.18.13l-.13-.14Z"/><path class="cls-2" d="M67.62,59.85l.11,0,.15-.08Z"/><path class="cls-2" d="M72.17,62.08c-.09-.08-.27.14-.37.23a.36.36,0,0,1,.31,0A.38.38,0,0,0,72.17,62.08Z"/><path class="cls-2" d="M77.87,67.74l.11.09Z"/><path class="cls-2" d="M64.25,58.54a.16.16,0,0,0,0-.1A.17.17,0,0,0,64.25,58.54Z"/><path class="cls-2" d="M76.68,78.12l0,0S76.7,78.1,76.68,78.12Z"/><path class="cls-2" d="M79.62,73.49v.08l.16,0Z"/><path class="cls-2" d="M39.54,55.32h0C39.68,55.28,39.61,55.29,39.54,55.32Z"/><path class="cls-2" d="M11.13,79.44c-.08-.56.73.5.53-.29C11.61,79.28,10.9,78.82,11.13,79.44Z"/><path class="cls-2" d="M77.47,69.14a.86.86,0,0,1-.1-.16A.34.34,0,0,0,77.47,69.14Z"/><path class="cls-2" d="M11.66,79.15h0l0-.08Z"/><path class="cls-2" d="M28.94,57.18a.34.34,0,0,0,.14.09S29,57.22,28.94,57.18Z"/><path class="cls-2" d="M36.87,56.15h-.2A.72.72,0,0,0,36.87,56.15Z"/><path class="cls-2" d="M25.06,58.73c-.11,0-.16,0-.28.08l0,0A.24.24,0,0,1,25.06,58.73Z"/><path class="cls-2" d="M21,60.33l.1,0,.12-.08Z"/><path class="cls-2" d="M67,85.29a.88.88,0,0,1,.27.16C67.16,85.29,67.69,85,67,85.29Z"/><path class="cls-2" d="M77.63,69.18a.13.13,0,0,1-.16,0l.07.11S77.62,69.22,77.63,69.18Z"/><path class="cls-2" d="M25.61,60.89l-.63.18A4.73,4.73,0,0,0,25.61,60.89Z"/><path class="cls-2" d="M37.66,89h.15A.19.19,0,0,0,37.66,89Z"/><path class="cls-2" d="M23.19,61.8a1,1,0,0,0-.41,0,.18.18,0,0,0,0,.1Z"/><path class="cls-2" d="M67.3,85.45Z"/><path class="cls-2" d="M70.82,82.94c-.53.29-.06.45-.07.7-.6.46-.43-.07-.74-.11-.35.3-.52.76-.83.91-.05,0-.12,0-.09-.14-.31.48-1.29.65-1.68,1.21l-.11-.06a.91.91,0,0,1,.29.43c-.26.12-.4.42-.59.24.16-.06.14-.15.18-.26l-.23.22c-.38-.22.33-.27.23-.51a4.68,4.68,0,0,1-1.47.91c-.2-.28.93-.48.27-.55l.68-.12c-.68-.31.4-.12-.26-.48-.86.22-.86.54-1.73.73-.13.25.15.25,0,.49-1.1.75-1.22-.5-2,.22-.16.29-.13.73-.84.69L62,87c-.84.2-.33.68-1.28.65.12-.18.63-.29.49-.3-.65-.15-.35.31-.79.43l-.18-.31c-.88.28-1.83.74-2.83,1,0-.11.19-.25-.07-.3a11.85,11.85,0,0,1-4,.39l-.44.34c-.11,0-.22-.11-.1-.18-.5,0,0,.19-.23.33s-.38-.12-.22-.23a6.24,6.24,0,0,1-3.34.5l.18-.1c-.72-.07-.77.65-1.45.4l.13-.06c-1.54,0-3.26.21-4.43-.25-.23.42-1.51-.24-1.63.34A7,7,0,0,0,40,89c-.33,0-.52.33-.93.36V89l-.58.27-.26-.39-.39,0c.15,0,.31.17.28.26-.61.07-1.43-.38-1.42-.54l-1.43.07c0-.12.28-.13.48-.18-.79.21-.09-.34-.81-.15.08.08-.08.17-.1.23a3.61,3.61,0,0,0-1.67-.39l.15-.19c-1-.24-2.18-.32-3.32-.6.39.2.21.53-.13.48l-.06-.35c-.27.14.32.21-.18.34-.42-.15-.2-.43.07-.47l-.54,0c0-.1.12-.12.19-.23-.27.15-.8-.55-1.2-.29v-.11c-1.12-.31-1.65-.37-2.55-.66-.11.26-.44.07-.79.19a20.13,20.13,0,0,0-2-1.11c-.6-.11-.26.15-.57.2.06-.25-.7-.59-.24-.57-.92-.38-1.18-.49-2.39-.91.07.16.18.28.07.31s-.41-.35-.32-.44h.07a4.2,4.2,0,0,1-1.87-1.35,4,4,0,0,0-1.62-1.28l.07,0c-.35-.18-.71-.35-1-.55-.35-.4.36.08.18-.31-1.18-.55-1.28-1.42-2.05-2a1.52,1.52,0,0,0-.13-.8c-.13-.27-.29-.56-.44-.86a5,5,0,0,1-.42-.91,1.66,1.66,0,0,1,0-.85l-.17.09c-.21-.22.05-.32.07-.5-.14,0-.12.29-.24.15A5.15,5.15,0,0,1,12,71.39a10,10,0,0,1,1.82-2.79c.56-.59-.45-1,.61-1.48l0,.44C15.28,66,17,65.18,18.31,64c0,.12,0,.21-.15.3.44,0,1.16-.71,1.08-.87.25-.12.15.12.34.12.38-.06.67-.71,1-.59.05,0-.06.12-.11.16.16-.21,1-.48.69-.62.66-.17,1.1-.66,1.66-.71.2-.43,1.11-.3,1-.74.12.43,1.22-.08,1.56-.41-.09.17.39,0,.29.24.45-.17.85-.37.7-.57,1,.24,1.6-.93,2.27-.4a24.82,24.82,0,0,1,3.86-1.41c0,.44-1.41.32-1.25.78a9.59,9.59,0,0,1,3-1c.32,0-.15.22-.24.31,1.19-.39,2.36-.31,3.42-.67,0,0-.11.1-.21.14.21,0,.5,0,.46-.19l-.21.08c-.38-.26.79-.72.82-.87-.31.62,1.11,0,.59.84.13,0,.31-.16.26-.29.22,0,.29.09.09.27.76-.18.47-.37,1.18-.42,0,.1-.14.15-.2.27a1.91,1.91,0,0,1,1.29-.38c0,.06,0,.13-.14.14,1-.07,1.73-.59,2.86-.41-.33.44.39.14.45.51l.6-.11-.24-.18c.53,0,1-.26,1.45-.13l-.39.15,1-.05-.56-.16c.55-.18,0-.47.66-.35-.14,0,.54,0,.81.26h0a1.27,1.27,0,0,1,.94-.11c.09.13-.11.41,0,.5.27-.3,1.24,0,1.59-.32a.3.3,0,0,0-.1.31l.24-.23c.24.1.27.14.21.29.74.11-.19-.49.67-.21-.07,0,0,0-.19.08.87.18,1.72,0,2.51.24.18.4-.72,0-.48.35a19.88,19.88,0,0,1,3.55.18l-.2-.08c.25-.49.78.42,1.39.28-.15,0-.24.25-.19.2a15.65,15.65,0,0,0,2.75.32l-.18.1c.41.22,1.14.36,1.6.56.18-.09.44,0,.33-.23,1.22,1.17,2.91.47,3.94,1.58-.15-.06-.4,0-.28,0l1.1.31c0-.25-.08-.19-.24-.45a1.24,1.24,0,0,1,.79.07c-.53-.06-.14.35,0,.55,0-.08.09-.12.1-.19.39.61.29-.39.92.21l-.09.09a2.65,2.65,0,0,1,.91.23c0,.3-.34,0-.46.15.42.19,1,0,1.3.4-.21,0-.47-.16-.68-.18.27.49.35.44.62.64l0,0,.6.51L70.81,63c.86-.33,1.07.48,2,.52-.88,0-.24.14-.46.36.12.18.31.43.19.45.43,0,.39.49,1,.51,0,.09.3.24.08.39.42.22,0-.2.13-.28.8.19,1,1.38,2.07,1.78.75.52,1.1.44,1.76,1,0,.33-.42,0-.43,0a2.46,2.46,0,0,0,.69,1c-.11,0-.13.09-.16.26.19.27.43,0,.51.48a1.51,1.51,0,0,1-.5-.11,9.37,9.37,0,0,1,.84.92c-.12.16-.33-.13-.5-.21.27.37.58,1,.86,1.1,0-.11,0-.22,0-.32.07.16-.19.15-.28.05a.37.37,0,0,1,0-.62l.16.25c.44-.5-.53-1.1-.82-1.6l.49,0-.61-.37c0-.17.16-.38.38-.15-.07-.49-.34-.25-.37-.7,0-.05,0-.05.07,0-.12-.1-.23-.2-.36-.29.12,0,.19-.24.31,0-.31-.79-1-.81-1-1.23l.07,0c-.86-.71-.29.12-1.12-.2l.12-.93-.28.15c-.07-.09-.23-.24-.12-.31-.46-.11,0,.15-.35.14-.22-.58-1.23-.83-1-1.29-.3.06.3.45-.26.23.19-.53-.59-.31-.86-.79.28-.14.59.25.31-.23-.49.2-.76-.61-1.17-.77-.2.3-.86-.33-1.54-.56.1-.08-1.08-.79-1.62-1.17l0,0c-.27.27-.85-.07-1.33-.18.1-.2.21-.24.5-.23l-.43-.18a.79.79,0,0,1-.59,0l.21-.21a7.69,7.69,0,0,1-2-.59c-.12.23.35.87-.48.76,0-.14.06-.37.28-.35-.07,0-.27,0-.39-.08l.39-.11c-.3-.22-.24.12-.5,0,.07-.19-.16-.21-.07-.34s.21.16.34.12a1.7,1.7,0,0,1-.71-.56c0,.12-.08.26-.31.21-.59-.17-.13-.29-.44-.49-.19.08-.52-.17-.62.11-.17,0-.16-.19-.21-.28-.34,0-1.44-.37-1.17,0l.07,0h0c-1.08,0-2.06-.68-3.09-.77l0-.1a8.29,8.29,0,0,0-1.83-.06c-.18,0-.39-.25-.29-.35a2.07,2.07,0,0,1-1.19-.17c.49-.1-.14-.18.5-.05-.59-.18-.71-.35-1.4-.18.26-.21-.42-.38-.72-.34l.41.24a5,5,0,0,1-.9-.12l.2-.31c-1.22-.55-2.32.45-3.22-.29-.34.21.67.21.35.46-.56-.09-1.13-.6-1.32-.61-.78-.24-.76.45-1.58.29.1.12.19.44-.43.53-.57-.07-.69-.51-.32-.61.14,0,.2,0,.19.08.19,0,.44-.08.21-.22L47,55.7c-.28-.14-1.07-.13-.88-.32-.44.11-.19.19.13.26a15.22,15.22,0,0,0-1.92-.13c.12.06.23.2.11.2-1.12-.13-.49.23-1.24.29-.43-.17.14-.44-.61-.26-.47-.1-.11-.31.07-.41-.69.26-1.31-.11-1.71-.12l.36-.12a2.16,2.16,0,0,1-.58.09l.22.23c-.22,0-.4,0-.4-.12-.21.17.19.38-.23.62-.3-.1-.86.18-1-.12.91,0-.12-.31.64-.41a1.31,1.31,0,0,1-.54,0s0-.07.08-.09c-.89-.2-.37.39-1.26.46.09-.19-.24-.32-.39-.26.37,0,.21.27-.11.44-.58-.07-.61.17-.91.19l.35,0c-.1.19-.38.2-.77.3-.05-.14.35-.14.2-.18-.4.35-1-.19-1.62.1-.3-.08-.08-.33-.34-.37-.65.33-.79-.12-1.48.18.25.2.27.14-.19.45l1.16-.36-.71.47c.36-.06.73-.27,1-.27-.33.25-.3.19-.1.36-.55-.27-.93.36-1.53.22l-.09-.58c-.9-.1-1.45.58-2.57.69l.37,0c-.09.26-.66.17-1,.36,0-.2-.25-.21-.43-.3.05.14-.81.19-.8.6l-.55-.12c-.91.15-.84.82-1.68,1,.18-.28-.24-.3.28-.62-.28.09-.54.13-.51.26-.2-.07-.68.5-1,.42-.09.12-.06.33-.37.42a.08.08,0,0,1,0-.09c0,.09-.43.29-.09.4-1.06-.28-2.29.94-3.21.79l-1.71,1c0-.07-.05-.09.06-.12-.8.2-.16.72-1.05,1-.56-.05.34-.38,0-.35-.45-.51-.91.63-1.62.64l.1-.11c-.52.08-.83.84-1.46,1.27,0,0,0-.07-.06-.08A9.29,9.29,0,0,1,14,65.44c0-.34.15-.33-.13-.42-.21.26.35.24-.06.74-.26,0-.67.31-.92.17.15-.16.28-.33.43-.47-.49,0-.55.61-.83.81l-.09-.13c-.59.8-.3,1-.9,1.88l.16,0c0,.68-.44.3-.48.93l-.43,0-.17.92c0,.38-.11.78-.17,1.11a4.36,4.36,0,0,1,.05-1.79,2.75,2.75,0,0,0-.37,1.48c0-.15,0-.37.1-.49a4.81,4.81,0,0,1,0,1.88c-.35-.14-.53.35-.57.94s0,1.27-.3,1.59c.44,1.34.49,2.78,1.34,4.19.24-.78.25.4.72,0,.22.28.3.39.28.44a8.83,8.83,0,0,0,.36,1.1c0,.31-.33-.19-.42-.08.47.66,0,.42.23,1,.09-.22.43,0,.68.41l-.23-.67c1,.6.28,1.08,1.33,1.63l-.39-.1c.48.34,1.63,1.41,2.37,1.34,0,.11,0,.33-.18.21,1.06.89,2.78,1.22,3.54,2l-.16.08c.24.08.52,0,.72.23,0,0-.15.08-.05.15a2.1,2.1,0,0,1,1,.28l-.33,0c1.1.74,2,.46,3,.76-.17.4.73.92,1.19,1.14l0,.06a15.16,15.16,0,0,0,3.92.65c.71.68,2.78.91,4.09,1.41-.2-.12.1-.33.34-.33.31.16.94-.15.82.24l-.12,0c.18.42.86.44,1.37.52l.16-.51c1.24,1,3.55.16,4.22.89.34-.1.74-.06,1.08-.18l0,.28a11.73,11.73,0,0,0,2.48.17l-.24.19c.64,0,.83-.78,1.41-.8l.17.43c1.09,0,2.22.37,3.3,0a.22.22,0,0,1-.22.21c.52,0,2,.21,1.81-.37,0,.38,1.14,0,1.71-.24l-.07.29a2,2,0,0,1,1.17-.66c.17,0,.16.21-.06.16.56.1.4-.3,1.08-.23l-.23.21c.57-.05.51-.14.8-.38s1.07-.07,1.19.17a.7.7,0,0,1,.67-.38c.06.09,0,.16-.1.2,1,0,1.34-.55,2-.38a.18.18,0,0,0,.13.14,9.22,9.22,0,0,1-1.29.18c0,.25.65.2.23.63a4.39,4.39,0,0,1,1.82-.83l.09.07-.06,0a.73.73,0,0,0,.37-.11,2.07,2.07,0,0,0,.5,0c.11.19.71,0,1-.1-.08-.27.32-.31-.1-.46,0,0-.05,0-.24.1l-.12.06v0l-.74.19a.81.81,0,0,1,.79-.29,5.87,5.87,0,0,1,.31-.53c.5.29,1.33.29,1.5.5.86-.38,2.1-.68,2.5-1.37.23-.14.33.06.45.1-.12.1-.3.15-.36.25.47-.28,1.48-.55,1.48-.94.68-.06-.24.44.6.08l-.08.15c1.93-.09,2.37-1.93,4.47-2.14-.15,0-.22,0-.27,0a11.45,11.45,0,0,0,3-1.71,28.19,28.19,0,0,1,2.89-2c.54-.38.44-.59.59-1l.31.11.2-.74c.4-.87,1.68-.85,1.89-2.22l-.26,0c.27-.36.5-1.31.69-1.15,0,0-.14-.21,0-.34l.16,0a7.15,7.15,0,0,0,.07-1.13c.3-.8.62.3.86-1,0-.51-.38-1.39-.48-1.21s-.13.47-.28.48l-.07-.41c-.46-.1-.92-.33-1.29.5a5.17,5.17,0,0,1,.21.63l-.25.16.06-.5c-.26.25-.09.45,0,.68a.46.46,0,0,0-.31.19,7.07,7.07,0,0,1,.27.69c-.2,0-.25-.36-.48,0,.1.33.48-.12.44.37-.31.2-.41.06-.39.44-.13,0-.17-.1-.16-.24,0,.33-.27.76-.15,1-.37.14-.49,1-.86.67a1.38,1.38,0,0,1-.2.89c-.07-.73-.71.84-1.06.34.09.61-.82,1.17-1.2,1.81,0,0,0-.16.08-.18a2,2,0,0,1-.76.28c.2.34-.24.79-.38,1.2-.63,0,0-.55-.36-.76.21.25-.52.75-.23.87-.45,0-.34.1-.68-.06.21.44-.25.25-.36.68-.6.08-.35-.31-.8.12C70.45,83.35,70.82,82.94,70.82,82.94ZM57.41,88.58h0l.3-.08Zm-1.22.23a4.29,4.29,0,0,0,.53-.08c.06.09,0,.2-.09.21C56.68,88.87,56.38,88.86,56.19,88.81Zm3,1.4c-.19.09-.27.05-.31,0l.34-.11,0,0A.33.33,0,0,1,59.19,90.21Z"/><path class="cls-2" d="M59.47,89.77l.07,0-.13,0,0,.1Z"/><path class="cls-2" d="M61.5,58.12h0a.12.12,0,0,1,.05,0S61.5,58.13,61.5,58.12Z"/><polygon class="cls-2" points="39.05 88.95 39.04 89.02 39.16 88.97 39.05 88.95"/><path class="cls-2" d="M67.74,61.29a.14.14,0,0,0,.05.1A.29.29,0,0,0,67.74,61.29Z"/><path class="cls-2" d="M70.36,62.64l.31.3A2.08,2.08,0,0,0,70.36,62.64Z"/><path class="cls-2" d="M72.23,63.92l.1-.08h0Z"/><path class="cls-2" d="M37.25,58a.24.24,0,0,0-.09,0C37,58.1,37.1,58.07,37.25,58Z"/><path class="cls-2" d="M48,57a2.06,2.06,0,0,1-.35.12C47.85,57.13,48,57.14,48,57Z"/><polygon class="cls-2" points="25.68 60.87 25.68 60.86 25.61 60.89 25.68 60.87"/><path class="cls-2" d="M47.16,57.08a1,1,0,0,0,.5,0A1.21,1.21,0,0,0,47.16,57.08Z"/><path class="cls-2" d="M78.25,71l0,.09h0Z"/><path class="cls-2" d="M78.32,71.08a.36.36,0,0,1,.07.1C78.38,71.13,78.36,71.09,78.32,71.08Z"/><path class="cls-2" d="M78.52,71.39l-.13-.21C78.41,71.26,78.42,71.36,78.52,71.39Z"/><path class="cls-2" d="M77.08,68.42l-.1,0A.14.14,0,0,0,77.08,68.42Z"/><path class="cls-2" d="M76.53,67.74c.12.18.16.53.37.74l.08,0C76.79,68.43,76.8,67.79,76.53,67.74Z"/><path class="cls-2" d="M74.68,64.17c.19.17.37.38.56.57,0-.18-.09-.41.21-.19C74.88,63.65,75.46,64.86,74.68,64.17Z"/><path class="cls-2" d="M72.76,62.61c.39.18.08-.14.13-.18C72.6,62.37,72.54,62.36,72.76,62.61Z"/><path class="cls-2" d="M56.17,56.75l.08-.24C55.92,56.49,56.23,56.61,56.17,56.75Z"/><polygon class="cls-2" points="52.69 57.6 52.98 57.8 53.15 57.58 52.69 57.6"/><polygon class="cls-2" points="50.9 55.59 51.04 55.57 50.49 55.62 50.9 55.59"/><path class="cls-2" d="M21.64,59.79l.22.25C22,59.9,21.94,59.55,21.64,59.79Z"/><path class="cls-2" d="M11.46,67.82a.63.63,0,0,0-.49.59C11.14,68.16,11.4,68,11.46,67.82Z"/><polygon class="cls-2" points="35.43 91.08 35.16 91.15 35.66 91.13 35.43 91.08"/><rect class="cls-1" x="90.62" y="19.49" width="53" height="6"/><path class="cls-3" d="M143,25.49c.09.06.28,0,.24-.15l-.33-.12Z"/><path class="cls-3" d="M143.57,24.34c-.17-.21-.45-.44-.75-.31.32.2.18.25.56.46a.21.21,0,0,1-.23.27c.09.07-.07.27.14.36a.54.54,0,0,0,.06-.8C143.42,24.26,143.5,24.32,143.57,24.34Z"/><path class="cls-3" d="M131.73,19l.11,0Z"/><path class="cls-3" d="M121.36,18.84c.08,0,.12,0,.12-.07S121.35,18.81,121.36,18.84Z"/><path class="cls-3" d="M119.59,18.48l.11,0S119.62,18.45,119.59,18.48Z"/><path class="cls-3" d="M131.73,19l-.27-.1C131.44,19,131.6,19,131.73,19Z"/><path class="cls-3" d="M142.77,22a.31.31,0,0,0,.08.15l0-.14Z"/><path class="cls-3" d="M136.3,18.75h.09a.76.76,0,0,0,.07-.13Z"/><path class="cls-3" d="M139.81,18.7c-.08,0-.11.27-.14.4.05-.12.11-.18.18-.2A.63.63,0,0,0,139.81,18.7Z"/><path class="cls-3" d="M143.91,21.24l0,.1Z"/><path class="cls-3" d="M133.79,18.69a.29.29,0,0,0,0-.1A.17.17,0,0,0,133.79,18.69Z"/><path class="cls-3" d="M139.55,24.17v0S139.58,24.17,139.55,24.17Z"/><path class="cls-3" d="M143.62,25.56h-.06c0,.06,0,.11,0,.16Z"/><path class="cls-3" d="M116.35,18.12h0C116.45,18.09,116.41,18.1,116.35,18.12Z"/><path class="cls-3" d="M89.45,23.49c.26-.34.33.55.61,0C90,23.58,89.62,23.07,89.45,23.49Z"/><path class="cls-3" d="M142.8,21.94v-.15A.37.37,0,0,0,142.8,21.94Z"/><path class="cls-3" d="M90.06,23.53h0l0-.05Z"/><path class="cls-3" d="M108.89,18.29a.23.23,0,0,0,.08.12A.22.22,0,0,0,108.89,18.29Z"/><path class="cls-3" d="M114.45,18.69l-.14,0Z"/><path class="cls-3" d="M106,18.68c-.07,0-.1-.06-.2,0l0,0A.14.14,0,0,1,106,18.68Z"/><path class="cls-3" d="M103,18.68s0,0,0,.06h.1Z"/><path class="cls-3" d="M130.42,24.3a.94.94,0,0,1,.14.26C130.51,24.36,131,24.28,130.42,24.3Z"/><path class="cls-3" d="M142.93,22a.17.17,0,0,1-.13-.09l0,.1A.14.14,0,0,0,142.93,22Z"/><path class="cls-3" d="M105.88,20.9l-.48,0A2.39,2.39,0,0,0,105.88,20.9Z"/><path class="cls-3" d="M108.86,24.34l.11,0A.11.11,0,0,0,108.86,24.34Z"/><path class="cls-3" d="M104,20.9a.64.64,0,0,0-.27-.19s0,0-.06.07Z"/><path class="cls-3" d="M130.56,24.56Z"/><path class="cls-3" d="M133.7,23.89c-.45,0-.21.36-.31.57-.54.11-.25-.27-.43-.46-.34.1-.6.44-.86.43,0-.06-.06-.09,0-.16-.35.29-1.06,0-1.48.38a.2.2,0,0,1-.05-.09,1,1,0,0,1,.06.51c-.2,0-.38.23-.45,0,.12,0,.13-.09.19-.17l-.21.11c-.19-.35.29-.12.29-.38-.42.11-.9.4-1.22.3-.07-.34.74-.11.32-.41l.49.12c-.38-.53.3,0,0-.53-.65-.1-.73.17-1.38.07-.15.19,0,.28-.1.47-.92.34-.72-.85-1.4-.4-.18.23-.25.66-.73.43l.17-.39c-.63,0-.36.56-1,.3.12-.15.49-.13.4-.18-.43-.3-.3.22-.63.22l-.07-.34c-.67.06-1.41.3-2.15.36,0-.1.17-.2,0-.31a7.67,7.67,0,0,1-2.9-.24l-.34.29c-.08,0-.15-.13-.07-.19-.35-.11,0,.19-.18.3s-.27-.16-.14-.25a3.62,3.62,0,0,1-2.42.22l.12-.09c-.51-.12-.57.6-1,.33l.09-.05c-1.11-.13-2.33.14-3.18-.3-.16.42-1.09-.19-1.16.4-.63-.29-.45-.4-1.34-.6-.24,0-.35.37-.65.43v-.3l-.39.32-.22-.37-.27.08c.11,0,.23.14.21.23a1,1,0,0,1-1.05-.38l-1,.26c0-.12.19-.16.33-.24-.55.31-.1-.33-.6,0,.07.07,0,.19,0,.25a1.83,1.83,0,0,0-1.23-.11l.08-.21c-.75-.06-1.59.1-2.44.09a.26.26,0,0,1,0,.51l-.1-.33c-.16.2.26.12-.07.37-.32,0-.21-.37,0-.48l-.39.12c0-.1.07-.15.09-.28-.15.21-.66-.32-.89,0l0-.1c-.85,0-1.23.11-1.92.13,0,.28-.29.22-.49.44a7.19,7.19,0,0,0-1.68-.28c-.43.14-.13.24-.32.4,0-.25-.64-.23-.33-.41a8.32,8.32,0,0,0-1.86.26c.1.1.21.15.16.23s-.39-.1-.36-.23l0,0a2.79,2.79,0,0,1-1.69-.17c-.55-.16-1.25-.31-1.21-.05l0,0a2,2,0,0,1-.44.28c-.11,0,.23-.2.26-.36l-.17.12c-.11,0-.07-.17,0-.26s0-.06-.07-.5c.38-.29.36-.82.31-1.37s-.12-1.32.12-1.12l-.18,0c-.18-.1.1,0,.14,0-.14-.07-.16,0-.26-.1a1,1,0,0,1,0-.29,1.27,1.27,0,0,1,.34.05,1.08,1.08,0,0,0,.19.06l.56.08c.75.1,1.5.22,2.24.28s.37-.92,1.2-.49l-.23.33c1.32-.4,2.7,0,4-.32-.07.07-.08.17-.2.17.27.24,1,0,1-.18.2,0,0,.17.17.27.28.14.69-.3.84-.06,0,0-.08.07-.13.09.18-.11.83,0,.66-.25.49.14.93-.12,1.32.05.25-.31.83.14.91-.29,0,.45.85.36,1.16.15-.11.14.26.14.14.33.35,0,.67-.09.61-.32.65.54,1.3-.44,1.66.26a25.18,25.18,0,0,1,3-.52c0,.45-1,.05-1,.52a6.23,6.23,0,0,1,2.28-.46c.23.06-.13.19-.2.27.88-.19,1.71,0,2.5-.21,0,0-.09.09-.17.13.16,0,.37.06.35-.14l-.15.05c-.25-.29.61-.62.64-.78-.26.59.78.15.36.89a.27.27,0,0,0,.21-.27c.15,0,.2.12,0,.28.55-.11.35-.33.86-.33,0,.1-.1.14-.16.26a1.09,1.09,0,0,1,.94-.31c0,.06,0,.14-.1.14.73,0,1.25-.52,2-.33-.23.43.28.14.32.52l.43-.11-.17-.19c.38,0,.71-.26,1-.14l-.28.15.71-.07-.41-.14c.39-.19,0-.47.47-.37-.11,0,.38,0,.57.23h0a.72.72,0,0,1,.66-.15c.08.12-.06.41,0,.49.19-.31.89-.09,1.12-.42a.36.36,0,0,0,0,.32l.15-.26c.18.08.2.12.17.28.53,0-.16-.47.46-.27-.05,0,0,.06-.13.1.63.1,1.22-.16,1.8,0,.17.38-.51.09-.31.41a14,14,0,0,1,2.53-.36l-.15,0c.11-.53.6.26,1,0-.1,0-.13.29-.11.23a6.35,6.35,0,0,0,2-.29l-.1.13a7.73,7.73,0,0,0,1.21.13c.1-.13.3-.11.18-.31,1.08.78,2.07-.41,3,.23-.12,0-.27.12-.18.12l.82-.12c-.07-.23-.11-.14-.28-.32a.71.71,0,0,1,.53-.25c-.36.16,0,.37.17.5,0-.07,0-.15,0-.22.43.41.07-.46.66-.19l0,.13c.22-.07.42-.23.65-.19.1.27-.23.12-.24.34.33,0,.65-.5.95-.24-.14.08-.34.08-.49.15a.75.75,0,0,0,.61.29h0l.56.14-.14-.08c.41-.7.84-.13,1.4-.59-.54.43-.09.25-.13.56.14.08.36.17.29.26.27-.25.45.19.82-.17,0,.1.28,0,.22.26.18,0,.11-.08.09-.13s-.16-.1-.14-.16a.45.45,0,0,1,.53,0,.45.45,0,0,0,.49.06l.11,0c.19.25.52.22.68.84-.15.19-.35-.16-.35-.14a1,1,0,0,0,0,.86c-.08-.06-.16,0-.27.1,0,.25.36.17.22.5a1.46,1.46,0,0,1-.4-.25c.09.29.28.59.36.89-.17.08-.25-.18-.36-.29.07.34.15.89.42,1l.09-.22c0,.12-.23.06-.28,0-.21-.3.1-.43.2-.44l.06.21c.57-.22-.09-.87-.06-1.31l.41.18-.34-.45c.11-.09.34-.16.4.06.21-.32-.15-.28.08-.55,0,0,.06,0,.08,0l-.13-.32c.09.06.3-.1.24.14a1.19,1.19,0,0,0,0-.83.45.45,0,0,1,0-.53l0,0c-.06-.4-.13-.38-.22-.3s-.2.21-.35.19l-.19.09a1.75,1.75,0,0,0,.2-.75l-.3.31c-.08,0-.25,0-.15-.16-.45.21,0,.13-.3.33-.13-.14-.45-.11-.69-.1s-.41,0-.46-.26c-.13.24.37.18,0,.34-.11-.52-.47.09-.81-.15.1-.27.43-.12.08-.36-.2.45-.67-.1-1,0,0,.37-.64.15-1.13.28,0-.13-.93-.2-1.38-.34v-.06c-.09.37-.56.3-.9.38a.4.4,0,0,1,.26-.41h-.32A.56.56,0,0,1,136,19l.08-.28c-.43,0-.86.32-1.41.14,0,.26.43.71-.15.89,0-.14,0-.38.11-.44,0,0-.18.12-.28.06l.23-.23c-.25-.11-.13.19-.33.17,0-.2-.15-.14-.12-.3s.18.08.25,0a1,1,0,0,1-.59-.31c0,.12,0,.27-.16.3-.43,0-.15-.24-.4-.34-.11.13-.38,0-.39.29-.12,0-.15-.14-.19-.22-.23.13-1,0-.79.35l.06,0h0c-.73.3-1.51-.16-2.24,0V19c-.44.12-1,.07-1.27.28-.13,0-.3-.18-.25-.3-.33.08-.37.19-.84,0,.33-.18-.12-.16.34-.13-.43-.09-.53-.24-1,0,.16-.26-.32-.32-.52-.25l.3.18a2.29,2.29,0,0,1-.64,0l.11-.34c-.87-.4-1.58.69-2.25,0-.23.23.48.16.27.43-.4,0-.82-.52-1-.52-.55-.19-.51.48-1.09.36.07.12.14.43-.29.55-.4-.05-.49-.5-.24-.6.1,0,.14,0,.14.07s.3-.09.14-.22l-.05.12c-.2-.12-.76-.11-.63-.31-.3.12-.13.2.1.26-.52-.17-.81,0-1.34-.12.08.06.16.2.08.2-.78-.14-.35.23-.88.28-.3-.18.11-.43-.42-.28-.33-.12-.07-.32.06-.41-.49.23-.91-.15-1.19-.19l.26-.1a.86.86,0,0,1-.41.05l.15.24c-.15,0-.28,0-.28-.14-.15.16.12.4-.18.61-.2-.12-.61.13-.68-.19.63.11-.07-.31.46-.36a.71.71,0,0,1-.38,0s0-.07.06-.08c-.6-.28-.27.35-.9.35a.23.23,0,0,0-.24-.3c.25,0,.12.29-.11.43-.4-.14-.44.1-.65.09l.24.06c-.08.18-.28.15-.56.21,0-.14.25-.09.15-.16-.31.32-.7-.32-1.13-.11-.2-.12,0-.33-.19-.41-.49.23-.53-.25-1-.06.15.24.17.18-.18.42l.83-.17-.53.35c.25,0,.53-.15.68-.11-.26.19-.23.13-.11.33-.34-.36-.68.21-1.08,0v-.59c-.6-.27-1.07.3-1.85.15l.25.1c-.1.24-.48,0-.73.13,0-.2-.14-.27-.24-.39,0,.15-.58,0-.65.38l-.34-.26c-.63-.11-.72.56-1.33.49.18-.21-.09-.35.31-.5-.2,0-.38,0-.38.1-.12-.13-.56.26-.75.07-.08.09-.11.3-.34.28a.16.16,0,0,1,0-.1c0,.1-.35.14-.16.35-.62-.61-1.74.05-2.28-.48a11.37,11.37,0,0,1-1.37.14c0-.05,0-.09.08-.07-.56-.19-.34.56-1,.36-.32-.32.33-.17.13-.29-.09-.65-.76.08-1.18-.3l.1,0c-.32-.22-.79.24-1.31.2a.16.16,0,0,0,0-.1,3.33,3.33,0,0,1-1.56.53c.16-.25.24-.13.14-.39-.23,0,.07.41-.39.49-.15-.14-.47-.27-.52-.54l.43,0c-.22-.35-.55,0-.78,0l0-.15c-.66.05-.67.44-1.37.41l.07.12c-.39.39-.33-.22-.71.07l-.12-.39a7.84,7.84,0,0,1-1.35.45,4,4,0,0,1,1.13-.61c-.25,0-.86,0-1,.22.1,0,.23-.13.33-.07a1.54,1.54,0,0,1-.54.34,2.18,2.18,0,0,1-.8.11c-.08-.5-.91-.43-1.71-.48,0,.37-.1.69-.3.78a8,8,0,0,1,.1,1.14c0,.18,0,.39,0,.53l0,.34a8.43,8.43,0,0,0-.13,1.46c.6-.37,0,.3.63.24,0,.24,0,.33,0,.35s-.12.23-.18.38l-.19.58c-.17.33-.13-.34-.27-.3,0,.94-.26.45-.42,1.2.22-.23.31.18.23.79.09-.33.19-.65.28-.93a2.3,2.3,0,0,1-.17,1.52c.14.09.42.14,1,0l-.58.2c.77-.12,2.89,0,3-.49.07.07.16.24,0,.28.92.07,2-.52,2.75-.22l-.07.15c.17,0,.29-.28.51-.13,0,.06-.07.15,0,.16s.45-.26.68-.18l-.2.17c.89.2,1.37-.41,2.12-.51,0,.44.7.58,1,.65l0,.07a11.2,11.2,0,0,0,2.73-.54c.6.48,2,.2,3,.47-.15-.08,0-.35.19-.39s.62-.31.59.1H106c.17.4.63.29,1,.3l.06-.53c1,.77,2.48-.28,3,.41.23-.13.51-.13.74-.26v.28a6.88,6.88,0,0,0,1.72,0l-.16.2c.44,0,.56-.81,1-.83l.12.42c.77,0,1.54.37,2.3,0,0,.06,0,.19-.16.2.36,0,1.4.29,1.27-.29,0,.38.79,0,1.21-.13l-.07.28c.35-.36.36-.45.85-.55.12,0,.1.22,0,.15.39.15.3-.26.77-.12l-.18.18c.4,0,.37-.07.59-.28s.75.07.81.32a.44.44,0,0,1,.51-.28c0,.09-.06.15-.1.18.66.19,1-.33,1.44-.05a.23.23,0,0,0,.08.17,5.25,5.25,0,0,1-.91-.05c0,.26.42.3.09.66.34-.19.92-.61,1.34-.49a.22.22,0,0,1,0,.08l0,0a.3.3,0,0,0,.26,0,1.17,1.17,0,0,0,.35.08c0,.21.49.11.7.12,0-.28.26-.23,0-.46,0,0,0,0-.18,0s-.07,0-.09,0v0h-.53c.17-.14.35-.26.58-.1.11-.18.23-.37.3-.46.29.4.85.61.93.85.65-.16,1.53-.1,1.93-.63.19-.07.22.15.28.23-.1.06-.23.05-.29.12.37-.13,1.1-.05,1.19-.42.46.17-.27.34.37.28l-.08.11c1.25.59,2-.94,3.43-.18-.09-.05-.14-.07-.16-.13,1.59.33,3.27-.31,4.84.22.45.1.49-.13.77-.31l.09.3.47-.35c.66-.25,1.14.74,2,.26l-.1-.2c.3,0,.95-.12.9.11,0,0,.09-.21.21-.11v.16l.74-.27c.57.12-.09.63.74.66.31-.06.88-.46.77-.57s-.32-.09-.33-.25l.28-.09c.05-.46.27-.94-.42-1.26l-.49.28-.16-.22.41,0c-.23-.21-.38,0-.54.11a.4.4,0,0,0-.2-.25l-.48.44c-.06-.18.21-.36-.1-.46-.23.21.21.41-.16.54-.23-.21-.16-.38-.44-.2a.2.2,0,0,1,.13-.25c-.24.15-.64.06-.76.31-.25-.26-.82.07-.8-.37a1.26,1.26,0,0,1-.65.36c.41-.53-.83,0-.72-.59-.3.47-1.09.21-1.62.47,0,0,.09-.11.13-.09-.3,0-.38-.18-.58-.27,0,.39-.5.48-.75.72-.37-.38.22-.46.11-.82,0,.31-.64.31-.52.58-.28-.24-.24-.11-.39-.44,0,.49-.26.08-.49.38-.41-.24-.1-.45-.55-.31C133.31,24.06,133.7,23.89,133.7,23.89Zm-10.62.85h.22Zm-.9,0a2.44,2.44,0,0,0,.39,0c0,.1,0,.2-.09.2S122.32,24.82,122.18,24.74Zm1.89,2c-.14,0-.19,0-.21-.07l.25,0,0,0A.35.35,0,0,1,124.07,26.69Z"/><path class="cls-3" d="M124.33,26.32s0,0,.06,0l-.09-.06,0,.09Z"/><path class="cls-3" d="M131.86,19.07h0a.08.08,0,0,1,0,0Z"/><polygon class="cls-3" points="109.85 24.2 109.85 24.27 109.93 24.21 109.85 24.2"/><path class="cls-3" d="M136.78,20a.21.21,0,0,0,.06.08S136.81,20.06,136.78,20Z"/><path class="cls-3" d="M138.9,20.1l.3.1A1,1,0,0,0,138.9,20.1Z"/><path class="cls-3" d="M140.54,20.24a1,1,0,0,0,0-.12h0Z"/><path class="cls-3" d="M114.56,20.57h-.06C114.35,20.63,114.45,20.61,114.56,20.57Z"/><path class="cls-3" d="M122.29,19.91A1.19,1.19,0,0,1,122,20C122.18,20.06,122.29,20.07,122.29,19.91Z"/><polygon class="cls-3" points="105.93 20.91 105.93 20.9 105.88 20.9 105.93 20.91"/><path class="cls-3" d="M121.68,20a.49.49,0,0,0,.36,0A.63.63,0,0,0,121.68,20Z"/><path class="cls-3" d="M142.74,23.48v.08h0Z"/><path class="cls-3" d="M142.77,23.57l0,.09S142.81,23.58,142.77,23.57Z"/><path class="cls-3" d="M142.88,23.84l-.07-.18C142.81,23.72,142.8,23.8,142.88,23.84Z"/><path class="cls-3" d="M142.87,21.32l-.1,0A.22.22,0,0,0,142.87,21.32Z"/><path class="cls-3" d="M142.84,20.88a.44.44,0,0,1-.11.15.35.35,0,0,0,0,.08.33.33,0,0,0,0,.17l.08,0C142.62,21.15,143,20.93,142.84,20.88Z"/><path class="cls-3" d="M142.07,19l.68.08c-.07-.1-.22-.25.15-.28C142,18.48,143,19.05,142.07,19Z"/><path class="cls-3" d="M140.35,18.85c.29-.05,0-.16,0-.22C140.17,18.73,140.12,18.75,140.35,18.85Z"/><path class="cls-3" d="M128,18.84l0-.25C127.81,18.63,128,18.69,128,18.84Z"/><polygon class="cls-3" points="125.65 20.17 125.87 20.33 125.97 20.09 125.65 20.17"/><polygon class="cls-3" points="124.25 18.34 124.35 18.31 123.97 18.4 124.25 18.34"/><path class="cls-3" d="M103.53,18.44l.07.31C103.75,18.69,103.79,18.34,103.53,18.44Z"/><path class="cls-3" d="M94.59,18.76a.35.35,0,0,0-.51-.11C94.28,18.67,94.48,18.8,94.59,18.76Z"/><polygon class="cls-3" points="107.48 26.73 107.3 26.84 107.64 26.75 107.48 26.73"/><rect class="cls-1" x="90.62" y="36.49" width="53" height="6"/><path class="cls-3" d="M143,42.49c.09.06.28,0,.24-.15l-.33-.12Z"/><path class="cls-3" d="M143.57,41.34c-.17-.21-.45-.44-.75-.31.32.2.18.25.56.46a.21.21,0,0,1-.23.27c.09.07-.07.27.14.36a.54.54,0,0,0,.06-.8C143.42,41.26,143.5,41.32,143.57,41.34Z"/><path class="cls-3" d="M131.73,36l.11,0Z"/><path class="cls-3" d="M121.36,35.84c.08,0,.12,0,.12-.07S121.35,35.81,121.36,35.84Z"/><path class="cls-3" d="M119.59,35.48l.11,0S119.62,35.45,119.59,35.48Z"/><path class="cls-3" d="M131.73,36l-.27-.1C131.44,36,131.6,36,131.73,36Z"/><path class="cls-3" d="M142.77,39a.31.31,0,0,0,.08.15l0-.14Z"/><path class="cls-3" d="M136.3,35.75h.09a.76.76,0,0,0,.07-.13Z"/><path class="cls-3" d="M139.81,35.7c-.08,0-.11.27-.14.4.05-.12.11-.18.18-.2A.63.63,0,0,0,139.81,35.7Z"/><path class="cls-3" d="M143.91,38.24l0,.1Z"/><path class="cls-3" d="M133.79,35.69a.29.29,0,0,0,0-.1A.17.17,0,0,0,133.79,35.69Z"/><path class="cls-3" d="M139.55,41.17v0S139.58,41.17,139.55,41.17Z"/><path class="cls-3" d="M143.62,42.56h-.06c0,.06,0,.11,0,.16Z"/><path class="cls-3" d="M116.35,35.12h0C116.45,35.09,116.41,35.1,116.35,35.12Z"/><path class="cls-3" d="M89.45,40.49c.26-.34.33.55.61,0C90,40.58,89.62,40.07,89.45,40.49Z"/><path class="cls-3" d="M142.8,38.94v-.15A.37.37,0,0,0,142.8,38.94Z"/><path class="cls-3" d="M90.06,40.53h0l0-.05Z"/><path class="cls-3" d="M108.89,35.29a.23.23,0,0,0,.08.12A.22.22,0,0,0,108.89,35.29Z"/><path class="cls-3" d="M114.45,35.69l-.14,0Z"/><path class="cls-3" d="M106,35.68c-.07,0-.1-.06-.2,0l0,0A.14.14,0,0,1,106,35.68Z"/><path class="cls-3" d="M103,35.68s0,0,0,.06h.1Z"/><path class="cls-3" d="M130.42,41.3a.94.94,0,0,1,.14.26C130.51,41.36,131,41.28,130.42,41.3Z"/><path class="cls-3" d="M142.93,39a.17.17,0,0,1-.13-.09l0,.1A.14.14,0,0,0,142.93,39Z"/><path class="cls-3" d="M105.88,37.9l-.48,0A2.39,2.39,0,0,0,105.88,37.9Z"/><path class="cls-3" d="M108.86,41.34l.11,0A.11.11,0,0,0,108.86,41.34Z"/><path class="cls-3" d="M104,37.9a.64.64,0,0,0-.27-.19s0,0-.06.07Z"/><path class="cls-3" d="M130.56,41.56Z"/><path class="cls-3" d="M133.7,40.89c-.45,0-.21.36-.31.57-.54.11-.25-.27-.43-.46-.34.1-.6.44-.86.43,0-.06-.06-.09,0-.16-.35.29-1.06,0-1.48.38a.2.2,0,0,1-.05-.09,1,1,0,0,1,.06.51c-.2,0-.38.23-.45,0,.12,0,.13-.09.19-.17l-.21.11c-.19-.35.29-.12.29-.38-.42.11-.9.4-1.22.3-.07-.34.74-.11.32-.41l.49.12c-.38-.53.3,0,0-.53-.65-.1-.73.17-1.38.07-.15.19,0,.28-.1.47-.92.34-.72-.85-1.4-.4-.18.23-.25.66-.73.43l.17-.39c-.63,0-.36.56-1,.3.12-.15.49-.13.4-.18-.43-.3-.3.22-.63.22l-.07-.34c-.67.06-1.41.3-2.15.36,0-.1.17-.2,0-.31a7.67,7.67,0,0,1-2.9-.24l-.34.29c-.08,0-.15-.13-.07-.19-.35-.11,0,.19-.18.3s-.27-.16-.14-.25a3.62,3.62,0,0,1-2.42.22l.12-.09c-.51-.12-.57.6-1,.33l.09-.05c-1.11-.13-2.33.14-3.18-.3-.16.42-1.09-.19-1.16.4-.63-.29-.45-.4-1.34-.6-.24,0-.35.37-.65.43v-.3l-.39.32-.22-.37-.27.08c.11,0,.23.14.21.23a1,1,0,0,1-1.05-.38l-1,.26c0-.12.19-.16.33-.24-.55.31-.1-.33-.6,0,.07.07,0,.19,0,.25a1.83,1.83,0,0,0-1.23-.11l.08-.21c-.75-.06-1.59.1-2.44.09a.26.26,0,0,1,0,.51l-.1-.33c-.16.2.26.12-.07.37-.32,0-.21-.37,0-.48l-.39.12c0-.1.07-.15.09-.28-.15.21-.66-.32-.89,0l0-.1c-.85,0-1.23.11-1.92.13,0,.28-.29.22-.49.44a7.19,7.19,0,0,0-1.68-.28c-.43.14-.13.24-.32.4,0-.25-.64-.23-.33-.41a8.32,8.32,0,0,0-1.86.26c.1.1.21.15.16.23s-.39-.1-.36-.23l0,0a2.79,2.79,0,0,1-1.69-.17c-.55-.16-1.25-.31-1.21-.05l0,0a2,2,0,0,1-.44.28c-.11-.05.23-.2.26-.36l-.17.12c-.11,0-.07-.17,0-.26s0-.06-.07-.5c.38-.29.36-.82.31-1.37s-.12-1.32.12-1.12l-.18,0c-.18-.1.1,0,.14,0-.14-.07-.16,0-.26-.1a1,1,0,0,1,0-.29,1.27,1.27,0,0,1,.34,0,1.08,1.08,0,0,0,.19.06l.56.08c.75.1,1.5.22,2.24.28s.37-.92,1.2-.49l-.23.33c1.32-.4,2.7,0,4-.32-.07.07-.08.17-.2.17.27.24,1,0,1-.18.2,0,0,.17.17.27.28.14.69-.3.84-.06,0,0-.08.07-.13.09.18-.11.83,0,.66-.25.49.14.93-.12,1.32.05.25-.31.83.14.91-.29,0,.45.85.36,1.16.15-.11.14.26.14.14.33.35,0,.67-.09.61-.32.65.54,1.3-.44,1.66.26a25.18,25.18,0,0,1,3-.52c0,.45-1,0-1,.52a6.23,6.23,0,0,1,2.28-.46c.23.06-.13.19-.2.27.88-.19,1.71,0,2.5-.21,0,.05-.09.09-.17.13.16,0,.37.06.35-.14l-.15,0c-.25-.29.61-.62.64-.78-.26.59.78.15.36.89a.27.27,0,0,0,.21-.27c.15,0,.2.12,0,.28.55-.11.35-.33.86-.33,0,.1-.1.14-.16.26a1.09,1.09,0,0,1,.94-.31c0,.06,0,.14-.1.14.73,0,1.25-.52,2-.33-.23.43.28.14.32.52l.43-.11-.17-.19c.38,0,.71-.26,1-.14l-.28.15.71-.07-.41-.14c.39-.19,0-.47.47-.37-.11,0,.38,0,.57.23h0a.72.72,0,0,1,.66-.15c.08.12-.06.41,0,.49.19-.31.89-.09,1.12-.42a.36.36,0,0,0,0,.32l.15-.26c.18.08.2.12.17.28.53,0-.16-.47.46-.27-.05,0,0,.06-.13.1.63.1,1.22-.16,1.8,0,.17.38-.51.09-.31.41a14,14,0,0,1,2.53-.36l-.15,0c.11-.53.6.26,1,0-.1,0-.13.29-.11.23a6.35,6.35,0,0,0,2-.29l-.1.13a7.73,7.73,0,0,0,1.21.13c.1-.13.3-.11.18-.31,1.08.78,2.07-.41,3,.23-.12,0-.27.12-.18.12l.82-.12c-.07-.23-.11-.14-.28-.32a.71.71,0,0,1,.53-.25c-.36.16,0,.37.17.5,0-.07,0-.15,0-.22.43.41.07-.46.66-.19l0,.13c.22-.07.42-.23.65-.19.1.27-.23.12-.24.34.33,0,.65-.5.95-.24-.14.08-.34.08-.49.15a.75.75,0,0,0,.61.29h0l.56.14-.14-.08c.41-.7.84-.13,1.4-.59-.54.43-.09.25-.13.56.14.08.36.17.29.26.27-.25.45.19.82-.17,0,.1.28,0,.22.26.18,0,.11-.08.09-.13s-.16-.1-.14-.16a.45.45,0,0,1,.53,0,.45.45,0,0,0,.49.06l.11,0c.19.25.52.22.68.84-.15.19-.35-.16-.35-.14a1,1,0,0,0,0,.86c-.08-.06-.16,0-.27.1,0,.25.36.17.22.5a1.46,1.46,0,0,1-.4-.25c.09.29.28.59.36.89-.17.08-.25-.18-.36-.29.07.34.15.89.42,1l.09-.22c0,.12-.23.06-.28,0-.21-.3.1-.43.2-.44l.06.21c.57-.22-.09-.87-.06-1.31l.41.18-.34-.45c.11-.09.34-.16.4.06.21-.32-.15-.28.08-.55,0,0,.06,0,.08,0l-.13-.32c.09.06.3-.1.24.14a1.19,1.19,0,0,0,0-.83.45.45,0,0,1,0-.53l0,0c-.06-.4-.13-.38-.22-.3s-.2.21-.35.19l-.19.09a1.75,1.75,0,0,0,.2-.75l-.3.31c-.08,0-.25,0-.15-.16-.45.21,0,.13-.3.33-.13-.14-.45-.11-.69-.1s-.41,0-.46-.26c-.13.24.37.18,0,.34-.11-.52-.47.09-.81-.15.1-.27.43-.12.08-.36-.2.45-.67-.1-1,0,0,.37-.64.15-1.13.28,0-.13-.93-.2-1.38-.34v-.06c-.09.37-.56.3-.9.38a.4.4,0,0,1,.26-.41h-.32A.56.56,0,0,1,136,36l.08-.28c-.43,0-.86.32-1.41.14,0,.26.43.71-.15.89,0-.14,0-.38.11-.44,0,0-.18.12-.28.06l.23-.23c-.25-.11-.13.19-.33.17,0-.2-.15-.14-.12-.3s.18.08.25,0a1,1,0,0,1-.59-.31c0,.12,0,.27-.16.3-.43,0-.15-.24-.4-.34-.11.13-.38,0-.39.29-.12,0-.15-.14-.19-.22-.23.13-1,0-.79.35l.06,0h0c-.73.3-1.51-.16-2.24,0V36c-.44.12-1,.07-1.27.28-.13,0-.3-.18-.25-.3-.33.08-.37.19-.84,0,.33-.18-.12-.16.34-.13-.43-.09-.53-.24-1,0,.16-.26-.32-.32-.52-.25l.3.18a2.29,2.29,0,0,1-.64,0l.11-.34c-.87-.4-1.58.69-2.25,0-.23.23.48.16.27.43-.4,0-.82-.52-1-.52-.55-.19-.51.48-1.09.36.07.12.14.43-.29.55-.4,0-.49-.5-.24-.6.1,0,.14,0,.14.07s.3-.09.14-.22l-.05.12c-.2-.12-.76-.11-.63-.31-.3.12-.13.2.1.26-.52-.17-.81,0-1.34-.12.08.06.16.2.08.2-.78-.14-.35.23-.88.28-.3-.18.11-.43-.42-.28-.33-.12-.07-.32.06-.41-.49.23-.91-.15-1.19-.19l.26-.1a.86.86,0,0,1-.41,0l.15.24c-.15,0-.28,0-.28-.14-.15.16.12.4-.18.61-.2-.12-.61.13-.68-.19.63.11-.07-.31.46-.36a.71.71,0,0,1-.38,0s0-.07.06-.08c-.6-.28-.27.35-.9.35a.23.23,0,0,0-.24-.3c.25,0,.12.29-.11.43-.4-.14-.44.1-.65.09l.24.06c-.08.18-.28.15-.56.21,0-.14.25-.09.15-.16-.31.32-.7-.32-1.13-.11-.2-.12,0-.33-.19-.41-.49.23-.53-.25-1-.06.15.24.17.18-.18.42l.83-.17-.53.35c.25,0,.53-.15.68-.11-.26.19-.23.13-.11.33-.34-.36-.68.21-1.08,0v-.59c-.6-.27-1.07.3-1.85.15l.25.1c-.1.24-.48,0-.73.13,0-.2-.14-.27-.24-.39,0,.15-.58,0-.65.38l-.34-.26c-.63-.11-.72.56-1.33.49.18-.21-.09-.35.31-.5-.2,0-.38,0-.38.1-.12-.13-.56.26-.75.07-.08.09-.11.3-.34.28a.16.16,0,0,1,0-.1c0,.1-.35.14-.16.35-.62-.61-1.74.05-2.28-.48a11.37,11.37,0,0,1-1.37.14c0-.05,0-.09.08-.07-.56-.19-.34.56-1,.36-.32-.32.33-.17.13-.29-.09-.65-.76.08-1.18-.3l.1,0c-.32-.22-.79.24-1.31.2a.16.16,0,0,0,0-.1,3.33,3.33,0,0,1-1.56.53c.16-.25.24-.13.14-.39-.23,0,.07.41-.39.49-.15-.14-.47-.27-.52-.54l.43,0c-.22-.35-.55,0-.78,0l0-.15c-.66,0-.67.44-1.37.41l.07.12c-.39.39-.33-.22-.71.07l-.12-.39a7.84,7.84,0,0,1-1.35.45,4,4,0,0,1,1.13-.61c-.25,0-.86,0-1,.22.1,0,.23-.13.33-.07a1.54,1.54,0,0,1-.54.34,2.18,2.18,0,0,1-.8.11c-.08-.5-.91-.43-1.71-.48,0,.37-.1.69-.3.78a8,8,0,0,1,.1,1.14c0,.18,0,.39,0,.53l0,.34a8.43,8.43,0,0,0-.13,1.46c.6-.37,0,.3.63.24,0,.24,0,.33,0,.35s-.12.23-.18.38l-.19.58c-.17.33-.13-.34-.27-.3,0,.94-.26.45-.42,1.2.22-.23.31.18.23.79.09-.33.19-.65.28-.93a2.3,2.3,0,0,1-.17,1.52c.14.09.42.14,1,0l-.58.2c.77-.12,2.89,0,3-.49.07.07.16.24,0,.28.92.07,2-.52,2.75-.22l-.07.15c.17,0,.29-.28.51-.13,0,.06-.07.15,0,.16s.45-.26.68-.18l-.2.17c.89.2,1.37-.41,2.12-.51,0,.44.7.58,1,.65l0,.07a11.2,11.2,0,0,0,2.73-.54c.6.48,2,.2,3,.47-.15-.08,0-.35.19-.39s.62-.31.59.1H106c.17.4.63.29,1,.3l.06-.53c1,.77,2.48-.28,3,.41.23-.13.51-.13.74-.26v.28a6.88,6.88,0,0,0,1.72,0l-.16.2c.44,0,.56-.81,1-.83l.12.42c.77,0,1.54.37,2.3,0,0,.06,0,.19-.16.2.36,0,1.4.29,1.27-.29,0,.38.79,0,1.21-.13l-.07.28c.35-.36.36-.45.85-.55.12,0,.1.22,0,.15.39.15.3-.26.77-.12l-.18.18c.4,0,.37-.07.59-.28s.75.07.81.32a.44.44,0,0,1,.51-.28c0,.09-.06.15-.1.18.66.19,1-.32,1.44,0,0,.09,0,.14.08.16a4.81,4.81,0,0,1-.91,0c0,.26.42.3.09.66.34-.19.92-.62,1.34-.49a.22.22,0,0,1,0,.08l0,0a.3.3,0,0,0,.26,0,1.17,1.17,0,0,0,.35.08c0,.21.49.11.7.12,0-.28.26-.23,0-.46,0,0,0,0-.18,0s-.07,0-.09,0v0h-.53c.17-.14.35-.26.58-.1.11-.18.23-.37.3-.46.29.4.85.61.93.85.65-.16,1.53-.1,1.93-.63.19-.07.22.15.28.23-.1.06-.23.05-.29.12.37-.13,1.1-.05,1.19-.42.46.17-.27.34.37.28l-.08.11c1.25.59,2-.94,3.43-.18-.09,0-.14-.07-.16-.13,1.59.33,3.27-.31,4.84.22.45.1.49-.13.77-.31l.09.3.47-.35c.66-.25,1.14.74,2,.26l-.1-.2c.3,0,.95-.12.9.11,0,0,.09-.21.21-.11v.16l.74-.27c.57.12-.09.63.74.66.31-.06.88-.46.77-.57s-.32-.09-.33-.25l.28-.09c.05-.46.27-.94-.42-1.26l-.49.28-.16-.22.41,0c-.23-.21-.38,0-.54.11a.4.4,0,0,0-.2-.25l-.48.44c-.06-.18.21-.36-.1-.46-.23.21.21.41-.16.54-.23-.21-.16-.38-.44-.2a.2.2,0,0,1,.13-.25c-.24.15-.64.06-.76.31-.25-.26-.82.07-.8-.37a1.26,1.26,0,0,1-.65.36c.41-.53-.83,0-.72-.59-.3.47-1.09.21-1.62.47,0,0,.09-.11.13-.09-.3,0-.38-.18-.58-.27,0,.39-.5.48-.75.72-.37-.38.22-.46.11-.82,0,.31-.64.31-.52.58-.28-.24-.24-.11-.39-.44,0,.49-.26.08-.49.38-.41-.24-.1-.45-.55-.31C133.31,41.06,133.7,40.89,133.7,40.89Zm-10.62.85h.22Zm-.9,0a2.44,2.44,0,0,0,.39,0c0,.1,0,.2-.09.2S122.32,41.82,122.18,41.74Zm1.89,1.95c-.14,0-.19,0-.21-.07l.25,0,0,0A.35.35,0,0,1,124.07,43.69Z"/><path class="cls-3" d="M124.33,43.32s0,0,.06,0l-.09-.06,0,.09Z"/><path class="cls-3" d="M131.86,36.07h0a.08.08,0,0,1,0,0Z"/><polygon class="cls-3" points="109.85 41.2 109.85 41.27 109.93 41.21 109.85 41.2"/><path class="cls-3" d="M136.78,37a.21.21,0,0,0,.06.08S136.81,37.06,136.78,37Z"/><path class="cls-3" d="M138.9,37.1l.3.1A1,1,0,0,0,138.9,37.1Z"/><path class="cls-3" d="M140.54,37.24a1,1,0,0,0,0-.12h0Z"/><path class="cls-3" d="M114.56,37.57h-.06C114.35,37.63,114.45,37.61,114.56,37.57Z"/><path class="cls-3" d="M122.29,36.91A1.19,1.19,0,0,1,122,37C122.18,37.06,122.29,37.07,122.29,36.91Z"/><polygon class="cls-3" points="105.93 37.91 105.93 37.9 105.88 37.9 105.93 37.91"/><path class="cls-3" d="M121.68,37a.49.49,0,0,0,.36,0A.63.63,0,0,0,121.68,37Z"/><path class="cls-3" d="M142.74,40.48v.08h0Z"/><path class="cls-3" d="M142.77,40.57l0,.09S142.81,40.58,142.77,40.57Z"/><path class="cls-3" d="M142.88,40.84l-.07-.18C142.81,40.72,142.8,40.8,142.88,40.84Z"/><path class="cls-3" d="M142.87,38.32l-.1,0A.22.22,0,0,0,142.87,38.32Z"/><path class="cls-3" d="M142.84,37.88a.44.44,0,0,1-.11.15.35.35,0,0,0,0,.08.33.33,0,0,0,0,.17l.08,0C142.62,38.15,143,37.93,142.84,37.88Z"/><path class="cls-3" d="M142.07,36l.68.08c-.07-.1-.22-.25.15-.28C142,35.48,143,36.05,142.07,36Z"/><path class="cls-3" d="M140.35,35.85c.29-.05,0-.16,0-.22C140.17,35.73,140.12,35.75,140.35,35.85Z"/><path class="cls-3" d="M128,35.84l0-.25C127.81,35.63,128,35.69,128,35.84Z"/><polygon class="cls-3" points="125.65 37.17 125.87 37.33 125.97 37.09 125.65 37.17"/><polygon class="cls-3" points="124.25 35.34 124.35 35.31 123.97 35.4 124.25 35.34"/><path class="cls-3" d="M103.53,35.44l.07.31C103.75,35.69,103.79,35.34,103.53,35.44Z"/><path class="cls-3" d="M94.59,35.76a.35.35,0,0,0-.51-.11C94.28,35.67,94.48,35.8,94.59,35.76Z"/><polygon class="cls-3" points="107.48 43.73 107.3 43.84 107.64 43.75 107.48 43.73"/><rect class="cls-1" x="90.62" y="54.49" width="53" height="6"/><path class="cls-3" d="M143,60.49c.09.06.28,0,.24-.15l-.33-.12Z"/><path class="cls-3" d="M143.57,59.34c-.17-.21-.45-.44-.75-.31.32.2.18.25.56.46a.21.21,0,0,1-.23.27c.09.07-.07.27.14.36a.54.54,0,0,0,.06-.8C143.42,59.26,143.5,59.32,143.57,59.34Z"/><path class="cls-3" d="M131.73,54l.11,0Z"/><path class="cls-3" d="M121.36,53.84c.08,0,.12,0,.12-.07S121.35,53.81,121.36,53.84Z"/><path class="cls-3" d="M119.59,53.48l.11,0S119.62,53.45,119.59,53.48Z"/><path class="cls-3" d="M131.73,54l-.27-.1C131.44,54,131.6,54,131.73,54Z"/><path class="cls-3" d="M142.77,57a.31.31,0,0,0,.08.15l0-.14Z"/><path class="cls-3" d="M136.3,53.75h.09a.76.76,0,0,0,.07-.13Z"/><path class="cls-3" d="M139.81,53.7c-.08,0-.11.27-.14.4.05-.12.11-.18.18-.2A.63.63,0,0,0,139.81,53.7Z"/><path class="cls-3" d="M143.91,56.24l0,.1Z"/><path class="cls-3" d="M133.79,53.69a.29.29,0,0,0,0-.1A.17.17,0,0,0,133.79,53.69Z"/><path class="cls-3" d="M139.55,59.17v0S139.58,59.17,139.55,59.17Z"/><path class="cls-3" d="M143.62,60.56h-.06c0,.06,0,.11,0,.16Z"/><path class="cls-3" d="M116.35,53.12h0C116.45,53.09,116.41,53.1,116.35,53.12Z"/><path class="cls-3" d="M89.45,58.49c.26-.34.33.55.61,0C90,58.58,89.62,58.07,89.45,58.49Z"/><path class="cls-3" d="M142.8,56.94v-.15A.37.37,0,0,0,142.8,56.94Z"/><path class="cls-3" d="M90.06,58.53h0l0-.05Z"/><path class="cls-3" d="M108.89,53.29a.23.23,0,0,0,.08.12A.22.22,0,0,0,108.89,53.29Z"/><path class="cls-3" d="M114.45,53.69l-.14,0Z"/><path class="cls-3" d="M106,53.68c-.07,0-.1-.06-.2,0l0,0A.14.14,0,0,1,106,53.68Z"/><path class="cls-3" d="M103,53.68s0,0,0,.06h.1Z"/><path class="cls-3" d="M130.42,59.3a.94.94,0,0,1,.14.26C130.51,59.36,131,59.28,130.42,59.3Z"/><path class="cls-3" d="M142.93,57a.17.17,0,0,1-.13-.09l0,.1A.14.14,0,0,0,142.93,57Z"/><path class="cls-3" d="M105.88,55.9l-.48,0A2.39,2.39,0,0,0,105.88,55.9Z"/><path class="cls-3" d="M108.86,59.34l.11,0A.11.11,0,0,0,108.86,59.34Z"/><path class="cls-3" d="M104,55.9a.64.64,0,0,0-.27-.19s0,0-.06.07Z"/><path class="cls-3" d="M130.56,59.56Z"/><path class="cls-3" d="M133.7,58.89c-.45,0-.21.36-.31.57-.54.11-.25-.27-.43-.46-.34.1-.6.44-.86.43,0-.06-.06-.09,0-.16-.35.29-1.06,0-1.48.38a.2.2,0,0,1-.05-.09,1,1,0,0,1,.06.51c-.2,0-.38.23-.45,0,.12,0,.13-.09.19-.17l-.21.11c-.19-.35.29-.12.29-.38-.42.11-.9.4-1.22.3-.07-.34.74-.11.32-.41l.49.12c-.38-.53.3,0,0-.53-.65-.1-.73.17-1.38.07-.15.19,0,.28-.1.47-.92.34-.72-.85-1.4-.4-.18.23-.25.66-.73.43l.17-.39c-.63,0-.36.56-1,.3.12-.15.49-.13.4-.17-.43-.31-.3.21-.63.21l-.07-.34c-.67.06-1.41.3-2.15.36,0-.1.17-.2,0-.31a7.67,7.67,0,0,1-2.9-.24l-.34.29c-.08,0-.15-.13-.07-.19-.35-.11,0,.19-.18.3s-.27-.16-.14-.25a3.62,3.62,0,0,1-2.42.22l.12-.09c-.51-.12-.57.6-1,.33l.09-.05c-1.11-.13-2.33.14-3.18-.3-.16.42-1.09-.19-1.16.4-.63-.29-.45-.4-1.34-.6-.24,0-.35.37-.65.43v-.3l-.39.32-.22-.37-.27.08c.11,0,.23.14.21.23a1,1,0,0,1-1.05-.38l-1,.26c0-.12.19-.16.33-.24-.55.31-.1-.33-.6,0,.07.07,0,.19,0,.25a1.83,1.83,0,0,0-1.23-.11l.08-.21c-.75-.06-1.59.1-2.44.09a.26.26,0,0,1,0,.51l-.1-.33c-.16.2.26.12-.07.37-.32,0-.21-.37,0-.48l-.39.12c0-.1.07-.15.09-.28-.15.21-.66-.32-.89,0l0-.1c-.85,0-1.23.11-1.92.13,0,.28-.29.22-.49.44a7.19,7.19,0,0,0-1.68-.28c-.43.14-.13.24-.32.4,0-.25-.64-.23-.33-.41a8.32,8.32,0,0,0-1.86.26c.1.1.21.15.16.23s-.39-.1-.36-.23l0,0a2.79,2.79,0,0,1-1.69-.17c-.55-.16-1.25-.31-1.21-.05l0,0a2,2,0,0,1-.44.28c-.11-.05.23-.2.26-.36l-.17.12c-.11,0-.07-.17,0-.26s0-.06-.07-.5c.38-.29.36-.82.31-1.37s-.12-1.32.12-1.12l-.18,0c-.18-.1.1,0,.14,0-.14-.07-.16,0-.26-.1a1,1,0,0,1,0-.29,1.27,1.27,0,0,1,.34,0,1.08,1.08,0,0,0,.19.06l.56.08c.75.1,1.5.22,2.24.28s.37-.92,1.2-.49l-.23.33c1.32-.4,2.7,0,4-.32-.07.07-.08.17-.2.17.27.24,1,0,1-.18.2,0,0,.17.17.27.28.14.69-.3.84-.06,0,0-.08.07-.13.09.18-.11.83,0,.66-.25.49.14.93-.12,1.32.05.25-.31.83.14.91-.29,0,.45.85.36,1.16.15-.11.14.26.14.14.33.35,0,.67-.09.61-.32.65.54,1.3-.44,1.66.26a25.18,25.18,0,0,1,3-.52c0,.45-1,0-1,.52a6.23,6.23,0,0,1,2.28-.46c.23.06-.13.19-.2.27.88-.19,1.71,0,2.5-.21,0,.05-.09.09-.17.13.16,0,.37.06.35-.14l-.15,0c-.25-.29.61-.62.64-.78-.26.59.78.15.36.89a.27.27,0,0,0,.21-.27c.15,0,.2.12,0,.28.55-.11.35-.33.86-.33,0,.1-.1.14-.16.26a1.09,1.09,0,0,1,.94-.31c0,.06,0,.14-.1.14.73,0,1.25-.52,2-.33-.23.43.28.14.32.52l.43-.11-.17-.19c.38,0,.71-.26,1-.14l-.28.15.71-.07-.41-.14c.39-.19,0-.47.47-.37-.11,0,.38,0,.57.23h0a.72.72,0,0,1,.66-.15c.08.12-.06.41,0,.49.19-.31.89-.09,1.12-.42a.36.36,0,0,0,0,.32l.15-.26c.18.08.2.12.17.28.53,0-.16-.47.46-.27-.05,0,0,.06-.13.1.63.1,1.22-.16,1.8,0,.17.38-.51.09-.31.41a14,14,0,0,1,2.53-.36l-.15,0c.11-.53.6.26,1,0-.1,0-.13.29-.11.23a6.35,6.35,0,0,0,2-.29l-.1.13a7.73,7.73,0,0,0,1.21.13c.1-.13.3-.11.18-.31,1.08.78,2.07-.41,3,.23-.12,0-.27.12-.18.12l.82-.12c-.07-.23-.11-.14-.28-.32a.71.71,0,0,1,.53-.25c-.36.16,0,.37.17.5,0-.07,0-.15,0-.22.43.41.07-.46.66-.19l0,.13c.22-.07.42-.23.65-.19.1.27-.23.12-.24.34.33,0,.65-.5.95-.24-.14.08-.34.08-.49.15a.75.75,0,0,0,.61.29h0l.56.14-.14-.08c.41-.7.84-.13,1.4-.59-.54.43-.09.25-.13.56.14.08.36.17.29.26.27-.25.45.19.82-.17,0,.1.28,0,.22.26.18,0,.11-.08.09-.13s-.16-.1-.14-.16a.45.45,0,0,1,.53,0,.45.45,0,0,0,.49.06l.11,0c.19.25.52.22.68.84-.15.19-.35-.16-.35-.14a1,1,0,0,0,0,.86c-.08-.06-.16,0-.27.1,0,.25.36.17.22.5a1.46,1.46,0,0,1-.4-.25c.09.29.28.59.36.89-.17.08-.25-.18-.36-.29.07.34.15.89.42,1l.09-.22c0,.12-.23.06-.28,0-.21-.3.1-.43.2-.44l.06.21c.57-.22-.09-.87-.06-1.31l.41.18-.34-.45c.11-.09.34-.16.4.06.21-.32-.15-.28.08-.55,0,0,.06,0,.08,0l-.13-.32c.09.06.3-.1.24.14a1.19,1.19,0,0,0,0-.83.45.45,0,0,1,0-.53l0,0c-.06-.4-.13-.38-.22-.3s-.2.21-.35.19l-.19.09a1.75,1.75,0,0,0,.2-.75l-.3.31c-.08,0-.25,0-.15-.16-.45.21,0,.13-.3.33-.13-.14-.45-.11-.69-.1s-.41,0-.46-.26c-.13.24.37.18,0,.34-.11-.52-.47.09-.81-.15.1-.27.43-.12.08-.36-.2.45-.67-.1-1,0,0,.37-.64.15-1.13.28,0-.13-.93-.2-1.38-.34v-.06c-.09.37-.56.3-.9.38a.4.4,0,0,1,.26-.41h-.32A.56.56,0,0,1,136,54l.08-.28c-.43,0-.86.32-1.41.14,0,.26.43.71-.15.89,0-.14,0-.38.11-.44,0,0-.18.12-.28.06l.23-.23c-.25-.11-.13.19-.33.17,0-.2-.15-.14-.12-.3s.18.08.25,0a1,1,0,0,1-.59-.31c0,.12,0,.27-.16.3-.43,0-.15-.24-.4-.34-.11.13-.38,0-.39.29-.12,0-.15-.14-.19-.22-.23.13-1,0-.79.35l.06,0h0c-.73.3-1.51-.16-2.24,0V54c-.44.12-1,.07-1.27.28-.13,0-.3-.18-.25-.3-.33.08-.37.19-.84,0,.33-.18-.12-.16.34-.13-.43-.09-.53-.24-1,0,.16-.26-.32-.32-.52-.25l.3.18a2.29,2.29,0,0,1-.64,0l.11-.34c-.87-.4-1.58.69-2.25,0-.23.23.48.16.27.43-.4,0-.82-.52-1-.52-.55-.19-.51.48-1.09.36.07.12.14.43-.29.55-.4,0-.49-.5-.24-.6.1,0,.14,0,.14.07s.3-.09.14-.22l-.05.12c-.2-.12-.76-.11-.63-.31-.3.12-.13.2.1.26-.52-.17-.81,0-1.34-.12.08.06.16.2.08.2-.78-.14-.35.23-.88.28-.3-.18.11-.43-.42-.28-.33-.12-.07-.32.06-.41-.49.23-.91-.15-1.19-.19l.26-.1a.86.86,0,0,1-.41,0l.15.24c-.15,0-.28,0-.28-.14-.15.16.12.4-.18.61-.2-.12-.61.13-.68-.19.63.11-.07-.31.46-.36a.71.71,0,0,1-.38,0s0-.07.06-.08c-.6-.28-.27.35-.9.35a.23.23,0,0,0-.24-.3c.25,0,.12.29-.11.43-.4-.14-.44.1-.65.09l.24.06c-.08.18-.28.15-.56.21,0-.14.25-.09.15-.16-.31.32-.7-.32-1.13-.11-.2-.12,0-.33-.19-.41-.49.23-.53-.25-1-.06.15.24.17.18-.18.42l.83-.17-.53.35c.25,0,.53-.15.68-.11-.26.19-.23.13-.11.33-.34-.36-.68.21-1.08,0v-.59c-.6-.27-1.07.3-1.85.15l.25.1c-.1.24-.48,0-.73.13,0-.2-.14-.27-.24-.39,0,.15-.58,0-.65.38l-.34-.26c-.63-.11-.72.56-1.33.49.18-.21-.09-.35.31-.5-.2,0-.38,0-.38.1-.12-.13-.56.26-.75.07-.08.09-.11.3-.34.28a.16.16,0,0,1,0-.1c0,.1-.35.14-.16.35-.62-.61-1.74.05-2.28-.48a11.37,11.37,0,0,1-1.37.14c0-.05,0-.09.08-.07-.56-.19-.34.56-1,.36-.32-.32.33-.17.13-.29-.09-.65-.76.08-1.18-.3l.1,0c-.32-.22-.79.24-1.31.2a.16.16,0,0,0,0-.1,3.33,3.33,0,0,1-1.56.53c.16-.25.24-.13.14-.39-.23,0,.07.41-.39.49-.15-.14-.47-.27-.52-.54l.43,0c-.22-.35-.55,0-.78,0l0-.15c-.66,0-.67.44-1.37.41l.07.12c-.39.39-.33-.22-.71.07l-.12-.39a7.84,7.84,0,0,1-1.35.45,4,4,0,0,1,1.13-.61c-.25,0-.86,0-1,.22.1,0,.23-.13.33-.07a1.54,1.54,0,0,1-.54.34,2.18,2.18,0,0,1-.8.11c-.08-.5-.91-.43-1.71-.48,0,.37-.1.69-.3.78a8,8,0,0,1,.1,1.14c0,.18,0,.39,0,.53l0,.34a8.43,8.43,0,0,0-.13,1.46c.6-.37,0,.3.63.24,0,.24,0,.33,0,.35s-.12.23-.18.38l-.19.58c-.17.33-.13-.34-.27-.3,0,.94-.26.45-.42,1.2.22-.23.31.18.23.79.09-.33.19-.65.28-.93a2.3,2.3,0,0,1-.17,1.52c.14.09.42.14,1,0l-.58.2c.77-.12,2.89,0,3-.49.07.07.16.24,0,.28.92.07,2-.52,2.75-.22l-.07.15c.17,0,.29-.28.51-.13,0,.06-.07.15,0,.16s.45-.26.68-.18l-.2.17c.89.2,1.37-.41,2.12-.51,0,.44.7.58,1,.65l0,.07a11.2,11.2,0,0,0,2.73-.54c.6.48,2,.2,3,.47-.15-.08,0-.35.19-.39s.62-.31.59.1H106c.17.4.63.29,1,.3l.06-.53c1,.77,2.48-.28,3,.41.23-.13.51-.13.74-.26v.28a6.88,6.88,0,0,0,1.72,0l-.16.2c.44,0,.56-.81,1-.83l.12.42c.77,0,1.54.37,2.3,0,0,.06,0,.19-.16.2.36,0,1.4.29,1.27-.29,0,.38.79,0,1.21-.13l-.07.28c.35-.36.36-.45.85-.55.12,0,.1.22,0,.15.39.15.3-.26.77-.12l-.18.18c.4,0,.37-.07.59-.28s.75.07.81.32a.44.44,0,0,1,.51-.28c0,.09-.06.15-.1.18.66.19,1-.32,1.44,0,0,.09,0,.14.08.16a4.81,4.81,0,0,1-.91,0c0,.26.42.3.09.66.34-.19.92-.62,1.34-.49a.22.22,0,0,1,0,.08l0,0a.3.3,0,0,0,.26,0,1.17,1.17,0,0,0,.35.08c0,.21.49.11.7.12,0-.28.26-.23,0-.46,0,0,0,0-.18,0s-.07,0-.09,0v0h-.53c.17-.14.35-.26.58-.1.11-.18.23-.37.3-.46.29.4.85.61.93.85.65-.16,1.53-.1,1.93-.63.19-.07.22.15.28.23-.1.06-.23.05-.29.12.37-.13,1.1-.05,1.19-.42.46.17-.27.34.37.28l-.08.11c1.25.59,2-.94,3.43-.18-.09,0-.14-.07-.16-.13,1.59.33,3.27-.31,4.84.22.45.1.49-.13.77-.31l.09.3.47-.35c.66-.25,1.14.74,2,.26l-.1-.2c.3,0,.95-.12.9.11,0,0,.09-.21.21-.11v.16l.74-.27c.57.12-.09.63.74.66.31-.06.88-.46.77-.57s-.32-.09-.33-.25l.28-.09c.05-.46.27-.94-.42-1.26l-.49.28-.16-.22.41,0c-.23-.21-.38,0-.54.11a.4.4,0,0,0-.2-.25l-.48.44c-.06-.18.21-.36-.1-.46-.23.21.21.41-.16.54-.23-.21-.16-.38-.44-.2a.2.2,0,0,1,.13-.25c-.24.15-.64.06-.76.31-.25-.26-.82.07-.8-.37a1.26,1.26,0,0,1-.65.36c.41-.53-.83,0-.72-.59-.3.47-1.09.21-1.62.47,0,0,.09-.12.13-.09-.3,0-.38-.18-.58-.27,0,.39-.5.48-.75.72-.37-.38.22-.46.11-.82,0,.31-.64.31-.52.58-.28-.24-.24-.11-.39-.44,0,.49-.26.08-.49.38-.41-.24-.1-.45-.55-.31C133.31,59.06,133.7,58.89,133.7,58.89Zm-10.62.85h.22Zm-.9,0a2.44,2.44,0,0,0,.39,0c0,.1,0,.2-.09.2S122.32,59.82,122.18,59.74Zm1.89,1.95c-.14,0-.19,0-.21-.07l.25,0,0,0A.35.35,0,0,1,124.07,61.69Z"/><path class="cls-3" d="M124.33,61.32s0,0,.06,0l-.09-.06,0,.09Z"/><path class="cls-3" d="M131.86,54.07h0a.08.08,0,0,1,0,0Z"/><polygon class="cls-3" points="109.85 59.2 109.85 59.27 109.93 59.21 109.85 59.2"/><path class="cls-3" d="M136.78,55a.21.21,0,0,0,.06.08S136.81,55.06,136.78,55Z"/><path class="cls-3" d="M138.9,55.1l.3.1A1,1,0,0,0,138.9,55.1Z"/><path class="cls-3" d="M140.54,55.24a1,1,0,0,0,0-.12h0Z"/><path class="cls-3" d="M114.56,55.57h-.06C114.35,55.63,114.45,55.61,114.56,55.57Z"/><path class="cls-3" d="M122.29,54.91A1.19,1.19,0,0,1,122,55C122.18,55.06,122.29,55.07,122.29,54.91Z"/><polygon class="cls-3" points="105.93 55.91 105.93 55.9 105.88 55.9 105.93 55.91"/><path class="cls-3" d="M121.68,55a.49.49,0,0,0,.36,0A.63.63,0,0,0,121.68,55Z"/><path class="cls-3" d="M142.74,58.48v.08h0Z"/><path class="cls-3" d="M142.77,58.57l0,.09S142.81,58.58,142.77,58.57Z"/><path class="cls-3" d="M142.88,58.84l-.07-.18C142.81,58.72,142.8,58.8,142.88,58.84Z"/><path class="cls-3" d="M142.87,56.32l-.1,0A.22.22,0,0,0,142.87,56.32Z"/><path class="cls-3" d="M142.84,55.88a.44.44,0,0,1-.11.15.35.35,0,0,0,0,.08.33.33,0,0,0,0,.17l.08,0C142.62,56.15,143,55.93,142.84,55.88Z"/><path class="cls-3" d="M142.07,54l.68.08c-.07-.1-.22-.25.15-.28C142,53.48,143,54.05,142.07,54Z"/><path class="cls-3" d="M140.35,53.85c.29-.05,0-.16,0-.22C140.17,53.73,140.12,53.75,140.35,53.85Z"/><path class="cls-3" d="M128,53.84l0-.25C127.81,53.63,128,53.69,128,53.84Z"/><polygon class="cls-3" points="125.65 55.17 125.87 55.33 125.97 55.09 125.65 55.17"/><polygon class="cls-3" points="124.25 53.34 124.35 53.31 123.97 53.4 124.25 53.34"/><path class="cls-3" d="M103.53,53.44l.07.31C103.75,53.69,103.79,53.34,103.53,53.44Z"/><path class="cls-3" d="M94.59,53.76a.35.35,0,0,0-.51-.11C94.28,53.67,94.48,53.8,94.59,53.76Z"/><polygon class="cls-3" points="107.48 61.73 107.3 61.84 107.64 61.75 107.48 61.73"/></g></g></svg>