<svg width="71" height="72" xmlns="http://www.w3.org/2000/svg" xmlns:xlink="http://www.w3.org/1999/xlink" overflow="hidden"><defs><clipPath id="clip0"><rect x="995" y="519" width="71" height="72"/></clipPath></defs><g clip-path="url(#clip0)" transform="translate(-995 -519)"><path d="M0 0 0 0" stroke="#449FDB" stroke-width="0.591667" fill="none" transform="matrix(1 0 0 1.0057 995 519.446)"/><path d="M49.7 11.8333 2.36667 11.8333C0 11.8333 0 13.3788 0 14.2L0 23.6667 52.0667 23.6667 52.0667 14.2C52.0667 11.8333 52.0667 11.8333 49.7 11.8333ZM7.39583 20.7083C6.57697 20.7083 5.91667 20.048 5.91667 19.2292 5.91667 18.4103 6.57697 17.75 7.39583 17.75 8.2147 17.75 8.875 18.4079 8.875 19.2292 8.875 20.0504 8.2147 20.7083 7.39583 20.7083ZM13.3125 20.7083C12.4936 20.7083 11.8333 20.048 11.8333 19.2292 11.8333 18.4103 12.4936 17.75 13.3125 17.75 14.1314 17.75 14.7917 18.4079 14.7917 19.2292 14.7917 20.0504 14.1314 20.7083 13.3125 20.7083ZM19.2292 20.7083C18.4103 20.7083 17.75 20.048 17.75 19.2292 17.75 18.4103 18.4103 17.75 19.2292 17.75 20.048 17.75 20.7083 18.4079 20.7083 19.2292 20.7083 20.0504 20.048 20.7083 19.2292 20.7083Z" fill="#2C233F" transform="matrix(1 0 0 1.0057 995 519.446)"/><path d="M0 68.6333C0 69.4522 0 71 2.36667 71L49.7 71C52.0667 71 52.0667 69.4546 52.0667 68.6333L52.0667 26.0333 0 26.0333 0 68.6333Z" fill="#2C233F" transform="matrix(1 0 0 1.0057 995 519.446)"/><path d="M54.4333 23.6667 54.4333 54.4333 68.6333 54.4333C71 54.4333 71 52.8879 71 52.0667L71 14.2 54.4333 14.2 54.4333 23.6667Z" fill="#2C233F" transform="matrix(1 0 0 1.0057 995 519.446)"/><path d="M68.6333 0 18.9333 0C16.5667 0 16.5667 1.54543 16.5667 2.36667L16.5667 9.46667 51.7708 9.46667C53.6949 9.46667 54.4333 9.46667 54.4333 11.8333L71 11.8333 71 2.36667C71 1.54543 71 0 68.6333 0ZM25.1458 5.91667C24.327 5.91667 23.6667 5.25637 23.6667 4.4375 23.6667 3.61863 24.327 2.95833 25.1458 2.95833 25.9647 2.95833 26.625 3.61863 26.625 4.4375 26.625 5.25637 25.9647 5.91667 25.1458 5.91667ZM31.0625 5.91667C30.2436 5.91667 29.5833 5.25637 29.5833 4.4375 29.5833 3.61863 30.2436 2.95833 31.0625 2.95833 31.8814 2.95833 32.5417 3.61863 32.5417 4.4375 32.5417 5.25637 31.8814 5.91667 31.0625 5.91667ZM36.9792 5.91667C36.1603 5.91667 35.5 5.25637 35.5 4.4375 35.5 3.61863 36.1603 2.95833 36.9792 2.95833 37.798 2.95833 38.4583 3.61863 38.4583 4.4375 38.4583 5.25637 37.798 5.91667 36.9792 5.91667Z" fill="#2C233F" transform="matrix(1 0 0 1.0057 995 519.446)"/></g></svg>