<svg xmlns="http://www.w3.org/2000/svg" viewBox="0 0 111.68 113.14"><defs><style>.cls-1{fill:#fff;}.cls-2{fill:#473f57;}.cls-3{fill:#b7a5db;}</style></defs><g id="Calque_2" data-name="Calque 2"><g id="Calque_1-2" data-name="Calque 1"><rect class="cls-1" x="8.16" y="5.71" width="71.4" height="98.7" rx="6.47" transform="translate(-8.88 8.43) rotate(-9.98)"/><path class="cls-2" d="M81.09,97.94c-.16.11,0,.3.4.15a3,3,0,0,0,.22-.39C81.51,97.79,81.3,97.86,81.09,97.94Z"/><path class="cls-2" d="M84.07,97.25c.34-.48.52-1.12.08-1.08-.13.57-.3.56-.54,1.19-.36.29-.74.32-.73.18-.1.14-.64.23-.8.49a2.24,2.24,0,0,0,1.88-1C84.13,97,84.06,97.18,84.07,97.25Z"/><path class="cls-2" d="M80,51.9v.31A1.1,1.1,0,0,0,80,51.9Z"/><path class="cls-2" d="M75.2,23.4c0,.21.09.3.13.3C75.27,23.5,75.22,23.34,75.2,23.4Z"/><path class="cls-2" d="M74.7,18.47l0,.29A.52.52,0,0,0,74.7,18.47Z"/><path class="cls-2" d="M80,51.9l0-.77C79.88,51.09,80,51.53,80,51.9Z"/><path class="cls-2" d="M85.67,91.69a2.22,2.22,0,0,0,.11.36c0-.11,0-.22,0-.34Z"/><path class="cls-2" d="M82.5,64.41l0,.23a1.37,1.37,0,0,0,.17.17Z"/><path class="cls-2" d="M84.25,74c0-.22-.32-.25-.45-.31a.85.85,0,0,1,.27.44A.36.36,0,0,0,84.25,74Z"/><path class="cls-2" d="M86.45,89.4l.08.26Z"/><path class="cls-2" d="M81.35,57.51a.21.21,0,0,0,.08-.11A.17.17,0,0,0,81.35,57.51Z"/><path class="cls-2" d="M69.81,99.26s0,0,0,0S69.88,99.25,69.81,99.26Z"/><path class="cls-2" d="M81.21,98.67l-.15,0a.43.43,0,0,0,0,.16Z"/><path class="cls-2" d="M73.49,9.51v0C73.57,9.78,73.54,9.65,73.49,9.51Z"/><path class="cls-2" d="M.3,20.2c.09-1,.58,1.45.61,0C.83,20.36.26,19,.3,20.2Z"/><path class="cls-2" d="M85.68,91.47l-.05-.36A3.07,3.07,0,0,0,85.68,91.47Z"/><path class="cls-2" d="M.91,20.21h0v0Z"/><path class="cls-2" d="M56.5,1.51a.69.69,0,0,0,.23.08S56.67,1.54,56.5,1.51Z"/><path class="cls-2" d="M71.58,4.23l-.19-.39C71.46,4,71.52,4.12,71.58,4.23Z"/><path class="cls-2" d="M48.64,3.29a1.79,1.79,0,0,0-.56.08l.09,0A.86.86,0,0,1,48.64,3.29Z"/><path class="cls-2" d="M40.39,4.75l.16,0,.26-.06Z"/><path class="cls-2" d="M44.74,103.81a1.16,1.16,0,0,1,.43.18C45,103.81,46.21,103.53,44.74,103.81Z"/><path class="cls-2" d="M85.83,91.67c-.08,0-.12-.09-.15-.2l0,.24S85.81,91.73,85.83,91.67Z"/><path class="cls-2" d="M48.69,5.54l-1.32.19C47.74,5.69,48.22,5.62,48.69,5.54Z"/><path class="cls-2" d="M12.35,75.39l.09.29A.76.76,0,0,0,12.35,75.39Z"/><path class="cls-2" d="M43.49,6.45a3.29,3.29,0,0,0-.77-.06.5.5,0,0,0-.14.1Z"/><path class="cls-2" d="M45.17,104Z"/><path class="cls-2" d="M53.69,101.81c-1.25.22-.52.46-.75.72-1.47.36-.74-.15-1.28-.24-.91.26-1.57.71-2.26.82-.07,0-.2,0-.06-.15-.93.46-2.92.53-4,1.09a.36.36,0,0,1-.17-.06.5.5,0,0,1,.26.47c-.55.1-1,.41-1.25.21a.76.76,0,0,0,.51-.26l-.57.21c-.59-.25.78-.26.73-.51a21.41,21.41,0,0,1-3.3.89c-.24-.31,2-.48.81-.57l1.38-.11c-1.13-.35.83-.11-.22-.5-1.8.21-2,.52-3.77.73-.37.26.18.25-.19.51-2.47.78-2.14-.49-3.92.28a2.26,2.26,0,0,1-1.92.78l.39-.46c-1.74.27-.9.72-2.75.78.29-.21,1.33-.36,1.07-.36-1.23-.1-.8.36-1.7.52l-.24-.31c-1.84.38-3.82,1-5.85,1.4.1-.12.43-.29-.07-.31l-1,.22a5.66,5.66,0,0,1-.87.12,4.39,4.39,0,0,1-1.68-.24,5,5,0,0,1-2.51-2,5.14,5.14,0,0,1-.67-.48c-.1-.16-.06-.36.09-.22-.24-.75-.19.06-.46-.25s-.05-.63.12-.39a4.49,4.49,0,0,1-.5-1.22c-.15-.56-.31-1.16-.45-1.77a16.38,16.38,0,0,1-.49-3.38l.15.34c-.13-1.42-.88-1.48-.83-2.82l.09.24c-.41-3.06-1.26-6.37-1.23-8.77-.5-.36-.35-3-1-3.13a22.6,22.6,0,0,0-.07-3.78c-.08-.66-.53-.91-.73-1.71l.3-.07-.51-1,.26-.65-.21-.74c0,.31,0,.67-.12.64a6.25,6.25,0,0,1-.15-3l-.74-2.75c.13,0,.25.5.4.86-.58-1.44.27-.33-.26-1.65,0,.2-.2-.06-.26-.08a14.06,14.06,0,0,0-.49-3.4l.25.18c-.31-2.08-.87-4.35-1.28-6.68.05.85-.34.72-.5,0l.27-.33c-.27-.41,0,.73-.39-.13-.12-.88.26-.65.45-.17l-.3-1c.09-.08.18.16.32.21-.28-.4,0-1.88-.46-2.45l.09-.08c-.41-2.32-.71-3.36-1.06-5.25-.28,0-.35-.74-.67-1.27-.16-1.4-.21-3-.53-4.66-.35-1.16-.3-.31-.55-.81.23-.13-.08-1.8.25-1-.4-2-.5-2.57-1.16-5.08,0,.3,0,.62-.16.47-.12-.45-.07-1.07.06-1l0,.11c-.89-2.79-.43-6.72-1.36-8.91l.05.12L3.5,26.31c-.14-1.09.31.62.32-.21-.87-2.47-.64-4-1.29-6.08a3.48,3.48,0,0,0,.08-.76l0-.83a7.17,7.17,0,0,1,.1-1.7A3.7,3.7,0,0,1,4.51,14L4.32,14c.25-.42.49-.27.79-.39-.11-.11-.5.13-.31-.12a4.92,4.92,0,0,1,1.34-.66c.45-.13,1.08-.23,1.7-.34,1.24-.19,2.49-.37,3.74-.53,2.51-.33,5-.62,7.52-1,1.8-.27.86-1.09,3.2-1.07l-.59.44c3.57-1,7.43-1.29,10.92-2.25-.19.12-.18.21-.53.27a5.37,5.37,0,0,0,2.76-.67c.55-.07.16.15.51.19.78,0,1.84-.63,2.28-.47.08,0-.2.12-.33.16.47-.2,2.29-.37,1.77-.56,1.36-.11,2.53-.57,3.63-.6.64-.43,2.3-.25,2.45-.72,0,.46,2.4-.06,3.21-.41-.26.18.76,0,.46.25,1-.17,1.83-.41,1.62-.61,1.87.22,3.49-1.06,4.61-.55,2.81-.74,5.43-1.37,8-1.93,0,.46-2.83.55-2.64,1,1.2-.3,2.14-.61,3.08-.89l.71-.19a5.34,5.34,0,0,1,.65-.13,4,4,0,0,1,1.44.09c.52.16-.34.13-.51.2a4.52,4.52,0,0,1,2.74,1,7.24,7.24,0,0,1,1.81,2.17s-.17-.15-.27-.3c.17.31.24.79.42.69l-.16-.32c0-.32.31-.06.59.37s.48,1,.56,1c-.71-.63.23,2.17-.7,1.14.08.28.24.61.37.52,0,.43,0,.58-.25.18.38,1.51.49.93.73,2.32-.09,0-.18-.26-.32-.39a7,7,0,0,1,.75,2.53c-.07-.06-.12.09-.18-.26.38,2,1.11,3.34,1.31,5.58-.54-.57,0,.78-.35,1l.32,1.17.09-.51a23.4,23.4,0,0,1,.64,2.83l-.28-.75L74,24.43,74,23.3c.38,1,.45-.19.59,1.21a12.08,12.08,0,0,1,.06,1.62h0a5,5,0,0,1,.46,1.79c-.08.22-.43-.09-.49,0,.4.45.52,2.42,1,3-.12-.2-.31-.18-.34-.1l.33.38c0,.5,0,.57-.19.52.21,1.46.38-.54.48,1.21,0-.13-.06-.06-.15-.33.2,1.75.74,3.31.9,4.92-.29.53-.33-1.37-.55-.78.47,2.28,1.27,4.66,1.58,6.89l0-.42c.57.22,0,1.7.47,2.77-.09-.26-.35-.3-.28-.24A46.7,46.7,0,0,0,79,51.15l-.18-.26c0,.91.34,2.36.45,3.34.19.26.26.82.4.45-.24,3.11,1.41,5.61,1.23,8.36,0-.31-.25-.73-.2-.48l.52,2.23c.19-.22.08-.32.18-.82a4.43,4.43,0,0,1,.5,1.43c-.33-1-.37.08-.42.54.06-.09.16,0,.23,0-.2,1.24.49.11.5,1.77l-.13-.07a12.1,12.1,0,0,1,.5,1.77c-.22.32-.24-.62-.46-.62.17.91.81,1.71.69,2.58-.14-.37-.24-.93-.38-1.3a4.34,4.34,0,0,0,0,1.71v-.06l.13,1.56,0-.41c.89,1,.53,2.3,1.25,3.76-.69-1.42-.29-.21-.61-.27,0,.41,0,1-.11.86.37.69,0,1.25.55,2.21-.08.06.13.78-.14.65.24.93.13-.25.26-.19.59,1.4.2,3.49,1,5.5.5,1.77.89,2,1.34,3.69,0,.59-.43-.41-.43-.41a8.24,8.24,0,0,0,.43,2.46c-.12-.16-.15,0-.23.29.09.63.42.41.25,1.28a3.49,3.49,0,0,1-.38-.65,5.66,5.66,0,0,1,0,2.28c-.11.07-.13-.07-.12-.25s0-.42,0-.56c-.08.85-.71,2.08-.72,2.45a4.26,4.26,0,0,0,.42-.43c-.17.29-.28,0-.2-.21.2-.74.56-.93.68-.94a3.92,3.92,0,0,1-.18.55c.41-.13.62-.74.68-1.41a11.18,11.18,0,0,0-.14-2,4.89,4.89,0,0,1,.45.46,7.26,7.26,0,0,0-.49-1.19c.06-.28.26-.5.43.08,0-.9-.28-.74-.19-1.52,0-.09,0,0,.08,0l-.27-.82c.11.15.26-.19.29.34,0-1.56-.73-2.39-.52-3L86,86c-.51-2.07-.34-.15-1-1.66l.55-1.19L85.25,83c0-.22-.08-.65,0-.6-.35-.77-.11.16-.38-.27.09-1.09-.64-2.85-.2-3.17-.29-.34,0,1-.35-.06.45-.41-.32-1.27-.25-2.27.32.25.33,1.18.4.18-.55-.49-.22-1.87-.45-2.66-.37,0-.46-1.72-.81-3,.13.06-.25-2.57-.35-3.85l.07,0c-.4-.18-.56-1.49-.8-2.42.22,0,.34.16.52.65l-.16-.89a2.58,2.58,0,0,1-.4-1l.31.18a24.36,24.36,0,0,1-.82-3.87c-.27,0-.49,1.33-.94-.25.12-.08.34-.18.47.23a2.32,2.32,0,0,1-.19-.76l.35.6c0-.71-.26-.32-.33-.88.19,0,.06-.43.23-.38s0,.49.12.69a5,5,0,0,1,0-1.67c-.1.07-.26,0-.37-.41-.22-1.18.17-.45.14-1.15-.18-.26-.17-1-.47-1a.8.8,0,0,1,.12-.58c-.23-.59-.53-2.84-.72-2.1v.16l0-.1h0c-.64-2-.56-4.18-1-6.14l.1,0a32.92,32.92,0,0,0-.89-3.43c-.06-.35,0-.86.18-.73a7.66,7.66,0,0,1-.43-2.31c.33.88.09-.34.29.91a7.44,7.44,0,0,0-.5-2.7c.32.38.15-.95,0-1.49l0,.85a17.5,17.5,0,0,1-.3-1.73l.38.24c0-2.48-1.44-4.22-1.1-6.17-.34-.6.07,1.33-.3.81a21.69,21.69,0,0,1,.06-2.7c-.09-1.55-.73-1.33-.88-2.94-.08.22-.36.47-.68-.7-.15-1.11.25-1.45.47-.76,0,.26,0,.4,0,.39.1.35.23.81.28.35l-.14-.12c0-.57-.26-2.1,0-1.77-.26-.82-.26-.33-.21.31-.08-1.46-.38-2.23-.53-3.71,0,.24-.12.48-.16.25-.23-2.17-.39-.9-.7-2.35,0-.86.48.22.08-1.22,0-.91.27-.24.43.1A11.78,11.78,0,0,1,74,12.25l.21.69A7.71,7.71,0,0,1,74,11.83l-.17.44c0-.42-.09-.77,0-.78-.23-.39-.33.4-.69-.41,0-.57-.42-1.65-.15-1.9.2,1.75.28-.24.59,1.21a4.36,4.36,0,0,1-.18-1c0-.07.08.05.11.16,0-1.7-.48-.7-.78-2.42.22.19.27-.44.18-.74.06.37,0,.45-.1.39a1.65,1.65,0,0,1-.41-.65,3.92,3.92,0,0,0-.8-1.86c.11.22.18.47.27.7-.27-.16-.48-.74-1-1.38.07-.14.53.58.4.3a6.64,6.64,0,0,1-1-1.25,3.33,3.33,0,0,0-1.47-1.2c-.5-.39.11-.32-.37-.65a15.2,15.2,0,0,1-1.6-.52A3.27,3.27,0,0,0,65,0c.49.24.54.14-.58.45a7.43,7.43,0,0,1,2.66,0,7.55,7.55,0,0,0-1.72.1,7.61,7.61,0,0,1,2.11.25c-.83,0-.71-.05-.42.23A2.27,2.27,0,0,0,65.54.8a14.64,14.64,0,0,1-1.67.14L63.8.36c-1.69,0-2.88.81-5,1l.7,0c-.24.28-1.31.27-2,.48,0-.2-.42-.2-.74-.27.07.14-1.57.27-1.69.69l-1-.09c-1.75.2-1.88.9-3.55,1.13.46-.3-.32-.31.77-.65-.56.09-1.06.14-1,.28-.35-.06-1.49.53-2,.44a1.53,1.53,0,0,1-.88.44c-.08,0,0-.1,0-.1s-1,.3-.37.42c-1.81-.31-4.77.89-6.35.63-1.2.27-2.65.59-3.75.8.06-.07,0-.1.2-.11-1.55.08-.83.72-2.59.82-.94-.16.88-.33.31-.35-.35-.6-2.07.45-3.29.28l.27-.08c-.93-.07-2.12.62-3.58.83,0,0,.06-.07,0-.1a22.56,22.56,0,0,1-4.18,1.28c.39-.33.61-.25.3-.46-.61.15.26.38-1,.67-.43-.06-1.35,0-1.52-.28l1.18-.22c-.67-.24-1.52.28-2.16.33L20.81,8c-1.8.37-1.76.76-3.7,1.08l.22.08c-1,.57-.93-.06-1.94.41L15,9.26c-.69.21-2.39.8-3.63,1.1a20.84,20.84,0,0,1,3-1.15,11.26,11.26,0,0,0-2.68.7,2.87,2.87,0,0,1,.89-.24,9.82,9.82,0,0,1-3.27,1c.06-.4-.85-.29-1.91-.13-.53.08-1.09.16-1.68.27a9.24,9.24,0,0,1-1.37.24A9.75,9.75,0,0,0,1.19,14,7.06,7.06,0,0,0,0,18.58c.27-.62.28-.36.31,0s.13.82.41.66a3.41,3.41,0,0,1,.17,1v2.07c-.09.51-.24-.6-.37-.52.21,1.46-.15.66-.14,1.65.18-.24.4.45.46,1.29l.08-1.22c.67,2-.2,1.85.48,3.84l-.31-.62c.3,1,.68,3.88,1.35,4.82,0,.2-.16.48-.29,0,.37,2.52,1.5,5.5,1.55,7.5l-.18-.16c.12.46.42.76.37,1.37-.07,0-.18-.16-.15.06a6.94,6.94,0,0,1,.5,1.83L4,41.64c.24,2.48,1.06,3.69,1.53,5.72-.44.07-.24,2-.14,3l-.07,0c.45,2.86,1.21,4.78,1.85,7.38C7,59.45,8,63.31,8.15,66c0-.42.35,0,.47.47,0,.63.6,1.65.19,1.62l0-.22c-.31.54,0,1.79.18,2.78l.55.07c-.3,2.73,1.47,6.75,1,8.29.24.6.38,1.38.62,2l-.29,0c.24,1.75.35,2.62.8,4.75l-.28-.4c.2,1.21,1.07,1.38,1.29,2.5l-.36.4c.38,2.11.39,4.31,1.13,6.33-.07,0-.2-.06-.27-.4.16,1,.39,3.89.9,3.43-.37.09.34,2.18.71,3.29l-.31-.13a5.92,5.92,0,0,1,1,2.24c0,.33-.17.32-.18-.12a1.92,1.92,0,0,0,.25,1,5.89,5.89,0,0,1,.43,1.2c-.13-.14-.23-.3-.35-.45a2.3,2.3,0,0,0,1,1.5c.26.29.58.74.88,1.14a2.77,2.77,0,0,1,.58.91,3.73,3.73,0,0,1,1.48.56c.05.13-.21.06-.34,0a4.62,4.62,0,0,0,2.37.69c.69,0,1.27,0,2,0a.29.29,0,0,0,.26.13,6.58,6.58,0,0,1-2.85-.09c-.08.26,1.33.53.15.7a8.1,8.1,0,0,0,2.16-.29l1-.29a5.5,5.5,0,0,1,.93-.16.49.49,0,0,1,.17.06l-.12.05a2.62,2.62,0,0,0,.72-.17,7.28,7.28,0,0,0,.95-.09c.18.19,1.37-.12,1.95-.21-.09-.27.68-.36-.08-.46.1,0-.1,0-.49.13a1,1,0,0,0-.24.07l0,0-1.44.27a2.82,2.82,0,0,1,1.56-.38c.27-.23.57-.47.74-.59.87.24,2.44.18,2.7.38,1.76-.47,4.18-.84,5.21-1.56.5-.15.61,0,.81.1a4.85,4.85,0,0,0-.77.26c1-.31,3-.58,3.17-1,1.3-.06-.66.46,1.08.09l-.22.16c3.56,0,5.45-1.92,9.41-1.85-.27,0-.41,0-.47,0,4.42-.44,8.94-1.89,13.33-2.13a4.41,4.41,0,0,0,2.05-.67l.32.25,1.22-.57c1.77-.57,3.26.18,5.47-.7l-.33-.15c.83-.11,2.59-.58,2.49-.32a.69.69,0,0,1,.58-.21l0,.15,2-.62c1.59-.16-.13.66,2.16.29.84-.21,2.34-.88,2-.93s-.9.06-1-.09l.76-.22c.06-.48.58-1.06-1.39-1l-1.28.51L77.92,98,79,97.82a2.24,2.24,0,0,0-1.47.37A1,1,0,0,0,77,98l-1.23.67c-.19-.15.52-.46-.37-.41-.58.32.66.3-.33.62-.68-.1-.52-.3-1.24,0-.12-.1,0-.21.31-.31-.64.26-1.75.37-2,.67-.71-.14-2.23.47-2.25,0a6.56,6.56,0,0,1-1.71.67c1-.71-2.3.37-2.1-.24-.74.62-3,.74-4.36,1.25a.7.7,0,0,1,.35-.15,8.16,8.16,0,0,1-1.64,0c0,.41-1.3.72-2,1.08-1.08-.19.53-.56.15-.86.11.3-1.7.62-1.31.82-.81-.1-.68,0-1.14-.25-.05.51-.7.21-1.29.62-1.16,0-.37-.4-1.57,0C52.63,102.18,53.69,101.81,53.69,101.81Zm-29,6h0l.6-.13Zm-2.31.3a5.45,5.45,0,0,0,.95,0c.09.08,0,.19-.21.21C23.2,108.18,22.66,108.16,22.34,108.08Zm5.39,1.14c-.38.11-.52.08-.59,0l.68-.15,0,0A.48.48,0,0,1,27.73,109.22Z"/><path class="cls-2" d="M28.36,108.74a.6.6,0,0,1,.16,0l-.25,0-.12.11Z"/><path class="cls-2" d="M80.05,52.26v0a.2.2,0,0,1,0,.11Z"/><polygon class="cls-2" points="12.97 78.09 12.9 78.11 13 78.31 12.97 78.09"/><path class="cls-2" d="M81.47,65.94a.44.44,0,0,0,0,.19S81.46,66,81.47,65.94Z"/><path class="cls-2" d="M82.44,71.78l0,.85C82.48,72.26,82.46,72,82.44,71.78Z"/><path class="cls-2" d="M83.09,76.29a.33.33,0,0,0,.13.07h0Z"/><path class="cls-2" d="M70.06,5.38A.74.74,0,0,0,70,5.25C69.76,5,69.9,5.17,70.06,5.38Z"/><path class="cls-2" d="M74.6,26.13c-.09-.22-.18-.43-.25-.66C74.39,25.85,74.44,26.15,74.6,26.13Z"/><path class="cls-2" d="M48.84,5.52h0l-.15,0Z"/><path class="cls-2" d="M74.18,24.48a3.52,3.52,0,0,0,.17,1A6.83,6.83,0,0,0,74.18,24.48Z"/><path class="cls-2" d="M84.89,95.06l-.11.16s0,0,0,0Z"/><path class="cls-2" d="M84.81,95.26l-.09.2A.33.33,0,0,0,84.81,95.26Z"/><path class="cls-2" d="M84.5,95.86l.22-.4C84.63,95.58,84.5,95.73,84.5,95.86Z"/><path class="cls-2" d="M85.47,89.8l-.12,0A.17.17,0,0,0,85.47,89.8Z"/><path class="cls-2" d="M85.12,88a9.27,9.27,0,0,0,.15,1.71l.08,0C85.16,89.49,85.36,88.38,85.12,88Z"/><path class="cls-2" d="M85,80.25l.18,1.52c.06-.28.15-.65.29,0C85.5,79.84,85.34,82.24,85,80.25Z"/><path class="cls-2" d="M84.37,75.53c.19.8.15,0,.22,0C84.4,75,84.35,74.91,84.37,75.53Z"/><path class="cls-2" d="M78.41,41.64l.26,0C78.53,41.06,78.57,41.69,78.41,41.64Z"/><polygon class="cls-2" points="75.97 35.39 75.92 36.03 76.2 36.28 75.97 35.39"/><polygon class="cls-2" points="77.09 31.25 77.17 31.52 76.89 30.49 77.09 31.25"/><path class="cls-2" d="M41.81,4.24l.25.28C42.47,4.39,42.5,4,41.81,4.24Z"/><path class="cls-2" d="M17.3,8.88A2.15,2.15,0,0,0,15.89,9,13.78,13.78,0,0,0,17.3,8.88Z"/><polygon class="cls-2" points="9.33 72.02 9.14 71.54 9.39 72.46 9.33 72.02"/><rect class="cls-1" x="6.01" y="19.48" width="98.7" height="71.4" rx="6.47" transform="translate(-2.35 107.91) rotate(-87.33)"/><path class="cls-3" d="M82.29,105.18c-.18.07-.08.28.36.24l.3-.34Z"/><path class="cls-3" d="M85.35,105.16c.44-.4.76-1,.31-1-.25.53-.41.48-.79,1-.41.21-.79.15-.74,0-.14.12-.68.08-.9.3a2.24,2.24,0,0,0,2-.53C85.46,104.93,85.36,105.09,85.35,105.16Z"/><path class="cls-3" d="M91.33,60l0,.3A1.25,1.25,0,0,0,91.33,60Z"/><path class="cls-3" d="M92.86,31.15c0,.22,0,.32.06.33C92.91,31.27,92.89,31.1,92.86,31.15Z"/><path class="cls-3" d="M93.46,26.24l0,.29A.53.53,0,0,0,93.46,26.24Z"/><path class="cls-3" d="M91.33,60l.14-.77C91.37,59.2,91.38,59.65,91.33,60Z"/><path class="cls-3" d="M88.13,100.09c0,.14,0,.26,0,.37,0-.12,0-.23,0-.34Z"/><path class="cls-3" d="M91,72.77V73a2.12,2.12,0,0,0,.12.2Z"/><path class="cls-3" d="M90.6,82.55c0-.22-.25-.31-.37-.4a.78.78,0,0,1,.17.49A.31.31,0,0,0,90.6,82.55Z"/><path class="cls-3" d="M89.39,98l0,.27Z"/><path class="cls-3" d="M91.4,65.78a.2.2,0,0,0,.1-.08A.14.14,0,0,0,91.4,65.78Z"/><path class="cls-3" d="M71,104s0,0,0,0S71.06,104,71,104Z"/><path class="cls-3" d="M82.25,105.91h-.16a.94.94,0,0,0,0,.16Z"/><path class="cls-3" d="M94.24,17.23v0C94.25,17.51,94.25,17.37,94.24,17.23Z"/><path class="cls-3" d="M20.48,11.64c.3-.93.25,1.54.6.14C21,11.91,20.7,10.48,20.48,11.64Z"/><path class="cls-3" d="M88.19,99.87l0-.37A3,3,0,0,0,88.19,99.87Z"/><path class="cls-3" d="M21.08,11.78h0l0-.14Z"/><path class="cls-3" d="M79.41,5.7a.59.59,0,0,0,.21.14S79.57,5.77,79.41,5.7Z"/><path class="cls-3" d="M93.52,11.66l-.09-.42C93.46,11.41,93.49,11.54,93.52,11.66Z"/><path class="cls-3" d="M71.35,5.72a1.62,1.62,0,0,0-.56,0l.08,0A1,1,0,0,1,71.35,5.72Z"/><path class="cls-3" d="M63,5.34l.15.06h.27Z"/><path class="cls-3" d="M45.54,102.94a1,1,0,0,1,.37.28C45.79,103,47,103,45.54,102.94Z"/><path class="cls-3" d="M88.28,100.1a.27.27,0,0,1-.09-.23v.25S88.26,100.15,88.28,100.1Z"/><path class="cls-3" d="M70.91,7.92l-1.33-.1C70,7.86,70.43,7.9,70.91,7.92Z"/><path class="cls-3" d="M20.16,68.12l0,.31A1,1,0,0,0,20.16,68.12Z"/><path class="cls-3" d="M65.63,7.68a3,3,0,0,0-.74-.23.59.59,0,0,0-.16.06Z"/><path class="cls-3" d="M45.92,103.22h0Z"/><path class="cls-3" d="M54.71,103c-1.27-.07-.61.33-.89.53-1.52,0-.69-.3-1.19-.51-1,0-1.69.35-2.4.31,0-.07-.18-.1,0-.16-1,.24-3-.13-4.14.19a.34.34,0,0,1-.15-.1.49.49,0,0,1,.15.51c-.57,0-1.06.19-1.27-.06a.85.85,0,0,0,.55-.14l-.6.07c-.52-.37.82-.08.83-.34a20.66,20.66,0,0,1-3.41.15c-.17-.35,2.08,0,.91-.38l1.37.2c-1-.59.83.07-.11-.54-1.8-.19-2,.07-3.83-.11-.42.17.12.29-.3.46-2.58.21-2-1-3.89-.59a2.27,2.27,0,0,1-2,.34l.47-.37c-1.75-.12-1,.51-2.85.16.34-.13,1.39-.06,1.12-.12-1.17-.35-.85.18-1.76.14l-.18-.35c-1.87,0-3.93.12-6,.08.11-.09.47-.18,0-.31h-1a4.68,4.68,0,0,1-.87-.08,4.33,4.33,0,0,1-1.59-.6,4.87,4.87,0,0,1-2-2.46,4.68,4.68,0,0,1-.55-.62c-.06-.18,0-.35.13-.19-.07-.78-.19,0-.39-.34s.09-.63.2-.36a4.89,4.89,0,0,1-.22-1.3c0-.58-.05-1.2-.05-1.82A17.26,17.26,0,0,1,19,90.84l.07.36c.19-1.41-.53-1.63-.19-2.93l0,.25c.27-3.07.16-6.49.71-8.82-.4-.46.33-3-.25-3.26a21.9,21.9,0,0,0,.77-3.71c.06-.66-.32-1-.34-1.82h.3l-.27-1.13.4-.57,0-.77c0,.31-.17.64-.26.59a6.28,6.28,0,0,1,.51-2.93l-.13-2.85c.12.07.14.55.21.93-.25-1.53.33-.26.11-1.66-.08.18-.18-.11-.24-.15a14,14,0,0,0,.27-3.42l.2.23c.15-2.1.11-4.44.22-6.8-.14.84-.5.63-.5-.06l.34-.26c-.18-.46-.16.71-.36-.21.08-.88.4-.58.48-.07L21,50.69c.1,0,.14.2.27.27-.19-.45.41-1.83.09-2.49l.1,0c.11-2.36,0-3.44.12-5.36-.28-.05-.18-.8-.38-1.38.15-1.41.45-3,.5-4.67-.08-1.2-.22-.36-.36-.91.26-.07.31-1.77.46-.88,0-2,.07-2.61,0-5.21-.12.28-.18.59-.26.42,0-.47.16-1.06.28-1l0,.13c-.25-2.92,1.06-6.66.63-9l0,.13-.16-2.41c.09-1.1.16.67.35-.14-.3-2.6.26-4.08.07-6.22a2.69,2.69,0,0,0,.25-.71l.16-.82a8,8,0,0,1,.47-1.64,3.7,3.7,0,0,1,2.36-2.23l-.17-.11c.34-.36.55-.16.87-.21-.09-.13-.52,0-.29-.18a5.12,5.12,0,0,1,1.46-.36,15.39,15.39,0,0,1,1.74.05c1.24.08,2.5.18,3.76.29,2.52.23,5.06.51,7.55.71,1.82.13,1.07-.87,3.35-.34l-.66.3c3.7-.23,7.52.36,11.14.19-.21.07-.22.17-.58.15a5.47,5.47,0,0,0,2.84,0c.56,0,.12.18.46.3.76.17,1.94-.22,2.33,0,.07,0-.22.07-.36.08.5-.09,2.32.14,1.85-.16,1.35.19,2.6,0,3.67.21.72-.28,2.31.26,2.55-.17-.12.45,2.36.47,3.22.3-.29.12.74.18.4.35,1,0,1.87,0,1.71-.24,1.77.62,3.64-.27,4.62.47C80.3,8.05,83,8,85.6,8c-.11.45-2.88-.09-2.79.39,1.24,0,2.22-.13,3.2-.19l.73,0h.67a4.24,4.24,0,0,1,1.38.41c.48.27-.36.05-.55.08a4.57,4.57,0,0,1,2.46,1.6A7.31,7.31,0,0,1,92,12.8s-.13-.18-.2-.36c.1.35.07.84.26.78L92,12.87c.09-.32.32,0,.5.49a9.42,9.42,0,0,0,.32,1.14c-.56-.76-.25,2.17-.94,1,0,.29.11.65.25.6-.06.42-.15.55-.29.11,0,1.56.29,1,.22,2.42-.1,0-.13-.29-.24-.44A6.94,6.94,0,0,1,92,20.78c0-.08-.14.06-.12-.3-.06,2.05.35,3.51.06,5.74-.4-.68-.18.76-.55.86l.05,1.21.2-.48a23.45,23.45,0,0,1,0,2.9l-.11-.79,0,2,.2-1.11c.14,1.08.47-.09.31,1.31a14,14,0,0,1-.3,1.59h0a5,5,0,0,1,.06,1.84c-.13.2-.4-.18-.49-.05.29.53,0,2.48.27,3.14-.06-.22-.26-.24-.3-.17l.23.45c-.1.48-.15.55-.3.46-.11,1.47.5-.44.21,1.29,0-.13,0-.07-.08-.36-.19,1.75,0,3.4-.2,5-.39.46,0-1.41-.36-.88,0,2.32.22,4.83,0,7.07l.06-.42c.51.34-.34,1.66-.14,2.81,0-.28-.28-.38-.23-.3a49,49,0,0,0,0,5.49l-.13-.29c-.16.9-.18,2.38-.29,3.36.13.3.08.86.29.52-.91,3,.15,5.79-.62,8.44,0-.33-.08-.77-.1-.52l0,2.29c.24-.17.16-.29.36-.76a4.23,4.23,0,0,1,.17,1.51c-.1-1-.37,0-.52.42.07-.07.15.09.22.06-.47,1.17.45.22.1,1.83l-.12-.09A11,11,0,0,1,90,77.67c-.28.26-.1-.66-.32-.71,0,.92.43,1.84.12,2.67-.06-.4,0-1-.09-1.36A4.53,4.53,0,0,0,89.33,80v-.07l-.21,1.56.1-.39c.64,1.18,0,2.35.4,3.93-.36-1.53-.24-.26-.53-.39-.11.39-.23,1-.31.82.21.74-.25,1.21.06,2.27-.1,0,0,.78-.28.61,0,1,.18-.22.3-.13.26,1.48-.57,3.44-.21,5.58.1,1.84.42,2.19.5,3.89-.18.57-.33-.48-.33-.48a8.08,8.08,0,0,0-.12,2.49c-.08-.19-.16,0-.29.23,0,.63.32.5,0,1.3a3.94,3.94,0,0,1-.23-.71,5.56,5.56,0,0,1-.51,2.22c-.13,0-.12-.1-.07-.27s.11-.41.12-.55c-.27.81-1.16,1.87-1.24,2.23a3.27,3.27,0,0,0,.5-.32c-.23.24-.28,0-.15-.25.36-.68.75-.79.87-.78a4.21,4.21,0,0,1-.29.51c.42,0,.76-.59,1-1.23a9.73,9.73,0,0,0,.3-2,3.22,3.22,0,0,1,.34.56,8,8,0,0,0-.21-1.28c.12-.26.36-.43.39.18.25-.87-.11-.78.16-1.53,0-.08.05,0,.07,0l-.09-.86c.08.17.3-.13.22.39.31-1.52-.2-2.49.14-3l0,.13c0-2.14-.29-.22-.57-1.84l.8-1-.3-.22c0-.22.07-.66.19-.57-.18-.83-.14.13-.32-.35.33-1,0-2.92.5-3.14-.21-.39-.22,1-.33-.13.54-.3,0-1.31.26-2.27.25.31.07,1.22.35.26-.43-.6.19-1.87.14-2.69-.36-.06-.07-1.78-.12-3.16.11.1.31-2.56.5-3.83l.06,0c-.35-.26-.22-1.57-.25-2.53.22,0,.29.22.37.75l0-.9a2.49,2.49,0,0,1-.17-1.09l.26.24a24,24,0,0,1,0-4c-.26-.1-.77,1.19-.87-.45.14-.05.38-.1.42.33a2.42,2.42,0,0,1,0-.78l.2.66c.14-.7-.18-.38-.13-.94.2,0,.16-.41.31-.32s-.1.49,0,.71a4.82,4.82,0,0,1,.38-1.64c-.12,0-.27,0-.27-.47,0-1.2.25-.4.39-1.1-.13-.29,0-1-.24-1.08a.75.75,0,0,1,.24-.54c-.1-.63.1-2.89-.25-2.21l0,.16v-.11h0c-.2-2,.36-4.2.33-6.22h.1a34.48,34.48,0,0,0-.12-3.55c0-.35.22-.83.33-.67A7.46,7.46,0,0,1,92,47.65c.13.93.17-.31.08,1a7.2,7.2,0,0,0,.1-2.75c.23.45.36-.88.31-1.45l-.22.83c0-.64.05-1.2.09-1.76l.32.32c.52-2.43-.48-4.44.28-6.27-.2-.65-.22,1.32-.47.73a21.54,21.54,0,0,1,.65-2.62c.25-1.53-.42-1.46-.22-3.06-.13.2-.45.38-.51-.83.1-1.12.56-1.36.62-.65,0,.27,0,.4-.08.39,0,.36,0,.84.2.4L93,31.73c.15-.55.21-2.1.39-1.72-.08-.86-.18-.38-.27.25.24-1.43.11-2.25.29-3.73-.07.23-.22.44-.21.21.25-2.17-.18-1-.17-2.45.22-.83.42.32.34-1.17.16-.9.32-.18.4.19a12.06,12.06,0,0,1,.35-3.3l.06.72a7.09,7.09,0,0,1,0-1.13l-.26.39c.06-.41.08-.77.18-.75-.14-.44-.41.31-.58-.56.14-.55,0-1.7.27-1.88-.19,1.75.33-.18.31,1.31a4.46,4.46,0,0,1,0-1.06c0-.06.07.06.08.18.36-1.67-.32-.79-.23-2.53.16.23.35-.38.32-.68,0,.37-.09.44-.18.35a1.84,1.84,0,0,1-.25-.72,3.92,3.92,0,0,0-.38-2,4.72,4.72,0,0,1,.11.74c-.22-.21-.3-.82-.71-1.57.1-.13.39.68.33.37a6.36,6.36,0,0,1-.72-1.43,3.36,3.36,0,0,0-1.17-1.5c-.41-.49.17-.29-.22-.72a13.43,13.43,0,0,1-1.45-.85A3.4,3.4,0,0,0,88,6.13c.43.35.49.26-.66.32A7.37,7.37,0,0,1,90,7.06a7.19,7.19,0,0,0-1.7-.28,7.39,7.39,0,0,1,2,.71c-.8-.21-.68-.21-.46.13A2.29,2.29,0,0,0,88.38,7c-.53-.08-1.09-.08-1.66-.22l.07-.59c-1.66-.34-3,.16-5.16-.09l.7.14c-.31.22-1.35,0-2,0,.07-.2-.37-.29-.66-.42,0,.14-1.59-.09-1.81.29l-1-.3c-1.75-.19-2,.47-3.72.32.52-.19-.24-.37.9-.47-.56,0-1.07-.08-1.08.05-.33-.14-1.58.2-2.09,0a1.48,1.48,0,0,1-1,.24c-.06,0,0-.1,0-.1s-1,.09-.45.33c-1.71-.7-4.85-.18-6.34-.78-1.23,0-2.72,0-3.83,0,.07-.06,0-.1.22-.07-1.53-.26-1,.52-2.72.23-.88-.36.94-.13.39-.27-.21-.66-2.12,0-3.28-.45l.29,0c-.89-.26-2.21.14-3.68,0,0,0,.07-.06,0-.1a22.65,22.65,0,0,1-4.35.33c.45-.23.65-.1.39-.38-.63,0,.17.43-1.1.44-.41-.16-1.32-.32-1.42-.6l1.19,0c-.59-.39-1.55-.06-2.17-.15l.09-.15c-1.84,0-1.88.35-3.85.23l.2.13c-1.1.34-.89-.26-2,0l-.31-.41c-.71.06-2.5.26-3.78.28A21.94,21.94,0,0,1,36.6,4a11.47,11.47,0,0,0-2.76.09,3.16,3.16,0,0,1,.92,0,10.18,10.18,0,0,1-3.42.3c.14-.38-.77-.47-1.84-.54-.53,0-1.09-.09-1.69-.11a9,9,0,0,1-1.4-.07,9.76,9.76,0,0,0-3.71,2.2A7,7,0,0,0,20.57,10c.4-.55.35-.29.31.06s-.06.82.26.73a3.34,3.34,0,0,1-.06,1l-.46,2c-.2.48-.11-.64-.25-.59-.11,1.47-.28.61-.49,1.58.23-.19.29.52.16,1.36L20.38,15c.23,2.07-.59,1.76-.37,3.85l-.16-.67c.06,1.07-.19,3.93.25,5-.07.18-.25.42-.28-.05-.19,2.54.26,5.69-.13,7.66l-.14-.2A3.32,3.32,0,0,1,19.61,32c-.06,0-.14-.19-.16,0a6.62,6.62,0,0,1,.09,1.89l-.14-.54c-.32,2.47.23,3.83.23,5.92-.44,0-.67,1.92-.79,2.89l-.06,0c-.19,2.89.14,4.93.19,7.61-.56,1.64-.47,5.63-.86,8.28.1-.4.34.09.36.56-.12.63.23,1.75-.17,1.63l0-.22c-.42.45-.38,1.75-.43,2.75l.52.19c-.89,2.6,0,6.91-.8,8.31.1.64.07,1.43.17,2.06l-.28,0c-.16,1.75-.23,2.63-.27,4.81l-.18-.46c-.07,1.23.74,1.59.71,2.72l-.44.32c-.09,2.14-.56,4.29-.28,6.42-.06,0-.18-.1-.18-.45-.06,1-.47,3.88.13,3.54-.38,0-.14,2.21,0,3.37l-.27-.19a5.76,5.76,0,0,1,.44,2.39c-.05.33-.23.28-.14-.15a2,2,0,0,0,0,1,6.43,6.43,0,0,1,.16,1.26c-.1-.16-.16-.34-.25-.51a2.33,2.33,0,0,0,.67,1.69c.18.33.4.85.61,1.3a2.74,2.74,0,0,1,.36,1,3.75,3.75,0,0,1,1.32.87c0,.14-.22,0-.34,0a4.66,4.66,0,0,0,2.16,1.19c.68.14,1.25.23,1.94.41,0,.1.12.15.22.19a6.85,6.85,0,0,1-2.76-.71c-.13.23,1.19.8,0,.71a8,8,0,0,0,2.17.19l1.09,0a4.77,4.77,0,0,1,.94,0,.46.46,0,0,1,.15.09l-.12,0a3,3,0,0,0,.73,0,8.22,8.22,0,0,0,1,.12c.13.22,1.36.18,1.95.22,0-.29.74-.21,0-.47.1,0-.11,0-.5,0a1,1,0,0,0-.26,0l0,0-1.47,0a2.93,2.93,0,0,1,1.62,0c.31-.16.65-.33.85-.41.79.43,2.34.71,2.55,1,1.81-.07,4.26.1,5.42-.38.52,0,.58.18.77.27a4.82,4.82,0,0,0-.81.09c1-.09,3,.09,3.31-.27,1.28.23-.75.31,1,.33l-.25.1c3.47.75,5.74-.68,9.58.26-.26-.06-.4-.09-.45-.15,4.41.54,9.14.11,13.48.85a4.5,4.5,0,0,0,2.15-.21l.25.31,1.31-.29c1.85-.17,3.15.89,5.5.52l-.29-.22c.83.08,2.65,0,2.5.23a.67.67,0,0,1,.6-.08l0,.16L78,106c1.59.19-.27.61,2,.75.86,0,2.47-.34,2.15-.46s-.88-.14-.9-.3l.79,0c.17-.46.8-.9-1.12-1.32l-1.37.22-.42-.24,1.14,0a2.17,2.17,0,0,0-1.52,0,1,1,0,0,0-.55-.28l-1.35.39c-.15-.19.61-.34-.27-.48-.63.18.57.44-.46.53-.64-.25-.44-.41-1.21-.26-.1-.13.07-.2.37-.24-.68.12-1.79,0-2.15.21-.66-.29-2.28,0-2.19-.47a7,7,0,0,1-1.83.28c1.16-.48-2.31-.14-2-.69-.86.43-3,.06-4.53.26a.65.65,0,0,1,.38-.07,9.43,9.43,0,0,1-1.6-.35c-.13.39-1.43.41-2.15.62-1-.42.65-.43.34-.8,0,.31-1.79.23-1.45.51-.78-.27-.67-.15-1.06-.49-.16.48-.73.05-1.4.32-1.12-.29-.27-.47-1.52-.38C53.59,103.08,54.71,103,54.71,103Zm-29.64-.53h0Zm-2.33-.23a4.64,4.64,0,0,0,1,.17c.07.1,0,.19-.26.16C23.56,102.49,23,102.36,22.74,102.2Zm5,2.31c-.39,0-.52,0-.58-.1h.7l0,0A.45.45,0,0,1,27.75,104.51Z"/><path class="cls-3" d="M28.48,104.17h.16l-.23-.08-.15.08Z"/><path class="cls-3" d="M91.27,60.38v-.05a.23.23,0,0,1,0,.1S91.26,60.4,91.27,60.38Z"/><polygon class="cls-3" points="20.16 70.9 20.09 70.9 20.15 71.12 20.16 70.9"/><path class="cls-3" d="M89.67,74a.43.43,0,0,0-.08.18A.43.43,0,0,0,89.67,74Z"/><path class="cls-3" d="M89.33,80l-.14.83A6.77,6.77,0,0,0,89.33,80Z"/><path class="cls-3" d="M89,84.49a.33.33,0,0,0,.12.1h0Z"/><path class="cls-3" d="M91.79,12.44a.5.5,0,0,0-.05-.13C91.58,12,91.68,12.21,91.79,12.44Z"/><path class="cls-3" d="M91.68,33.69c0-.23-.08-.46-.1-.7C91.54,33.37,91.52,33.67,91.68,33.69Z"/><path class="cls-3" d="M71.05,7.94h-.14Z"/><path class="cls-3" d="M91.63,32a3.16,3.16,0,0,0,0,1A6.63,6.63,0,0,0,91.63,32Z"/><path class="cls-3" d="M86.63,103.21l-.14.12a0,0,0,0,1,0,0Z"/><path class="cls-3" d="M86.5,103.38l-.12.17C86.45,103.48,86.51,103.42,86.5,103.38Z"/><path class="cls-3" d="M86.08,103.9l.3-.35C86.26,103.65,86.11,103.77,86.08,103.9Z"/><path class="cls-3" d="M88.34,98.19l-.1-.07A.14.14,0,0,0,88.34,98.19Z"/><path class="cls-3" d="M88.4,96.36a9.58,9.58,0,0,0-.23,1.7l.07.06C88.11,97.83,88.55,96.78,88.4,96.36Z"/><path class="cls-3" d="M90,88.78l-.15,1.53c.12-.26.28-.61.28.09C90.55,88.48,89.88,90.79,90,88.78Z"/><path class="cls-3" d="M90.39,84c0,.83.16,0,.22,0C90.54,83.55,90.52,83.42,90.39,84Z"/><path class="cls-3" d="M92,49.66l.25.09C92.24,49.11,92.15,49.74,92,49.66Z"/><polygon class="cls-3" points="90.98 43.02 90.8 43.63 91.02 43.94 90.98 43.02"/><polygon class="cls-3" points="92.98 39.23 93.01 39.51 92.96 38.44 92.98 39.23"/><path class="cls-3" d="M64.48,5.16l.18.32C65.09,5.44,65.2,5.09,64.48,5.16Z"/><path class="cls-3" d="M39.54,4.32a2.06,2.06,0,0,0-1.4-.17C38.7,4.19,39.26,4.34,39.54,4.32Z"/><polygon class="cls-3" points="17.95 64.17 17.87 63.67 17.91 64.61 17.95 64.17"/><rect class="cls-1" x="17.32" y="22.57" width="98.7" height="71.4" rx="6.47" transform="translate(-3.99 111.63) rotate(-78.21)"/><path class="cls-2" d="M85.34,111.9c-.19,0-.13.27.32.29a3.07,3.07,0,0,0,.34-.29Z"/><path class="cls-2" d="M88.36,112.36c.5-.32.9-.84.48-1-.34.49-.49.41-1,.91-.44.14-.8,0-.74-.1-.15.09-.68,0-.93.15a2.22,2.22,0,0,0,2.11-.2C88.51,112.15,88.38,112.29,88.36,112.36Z"/><path class="cls-2" d="M101.42,68.75l-.1.29A1.63,1.63,0,0,0,101.42,68.75Z"/><path class="cls-2" d="M107.51,40.48c0,.22,0,.32,0,.33C107.53,40.61,107.55,40.44,107.51,40.48Z"/><path class="cls-2" d="M108.87,35.72l-.08.28A.55.55,0,0,0,108.87,35.72Z"/><path class="cls-2" d="M101.42,68.75l.26-.73C101.59,67.94,101.52,68.39,101.42,68.75Z"/><path class="cls-2" d="M91.91,107.8a2.51,2.51,0,0,0,0,.37c0-.12.06-.22.07-.34Z"/><path class="cls-2" d="M99.08,81.28l0,.23a1.47,1.47,0,0,0,.1.22Z"/><path class="cls-2" d="M97.13,90.87c.06-.21-.2-.35-.3-.46a.81.81,0,0,1,.09.52A.28.28,0,0,0,97.13,90.87Z"/><path class="cls-2" d="M93.48,106l0,.28Z"/><path class="cls-2" d="M100.57,74.44a.19.19,0,0,0,.12-.07A.15.15,0,0,0,100.57,74.44Z"/><path class="cls-2" d="M74.37,108.94s0,0,0,0S74.44,109,74.37,108.94Z"/><path class="cls-2" d="M85.18,112.62l-.15,0a.51.51,0,0,0-.07.15Z"/><path class="cls-2" d="M111.07,27v0C111,27.23,111.06,27.1,111.07,27Z"/><path class="cls-2" d="M39.13,9.75c.44-.87,0,1.56.57.23C39.56,10.09,39.53,8.64,39.13,9.75Z"/><path class="cls-2" d="M92,107.59l.09-.36A3,3,0,0,0,92,107.59Z"/><path class="cls-2" d="M39.7,10h0l0-.13Z"/><path class="cls-2" d="M98.26,13.22a.59.59,0,0,0,.18.17S98.4,13.31,98.26,13.22Z"/><path class="cls-2" d="M111.25,21.34l0-.43A2.63,2.63,0,0,0,111.25,21.34Z"/><path class="cls-2" d="M90.3,12a1.58,1.58,0,0,0-.55-.14l.08.05A.79.79,0,0,1,90.3,12Z"/><path class="cls-2" d="M82.09,10.26l.14.08.26,0Z"/><path class="cls-2" d="M49.41,103.87a1.09,1.09,0,0,1,.32.33C49.65,104,50.87,104.16,49.41,103.87Z"/><path class="cls-2" d="M92.06,107.84a.34.34,0,0,1-.06-.25l0,.24S92,107.88,92.06,107.84Z"/><path class="cls-2" d="M89.51,14.07l-1.3-.31C88.57,13.86,89,14,89.51,14.07Z"/><path class="cls-2" d="M29.86,65.47l0,.3A.65.65,0,0,0,29.86,65.47Z"/><path class="cls-2" d="M84.34,13a2.84,2.84,0,0,0-.7-.34.76.76,0,0,0-.16,0Z"/><path class="cls-2" d="M49.74,104.2h0Z"/><path class="cls-2" d="M58.46,105.34c-1.24-.27-.66.23-1,.38-1.5-.2-.63-.41-1.09-.7-.95-.1-1.73.09-2.41-.07,0-.07-.17-.12,0-.16-1,.08-2.91-.59-4.12-.47-.08,0-.12-.09-.13-.12a.54.54,0,0,1,.07.53c-.56-.11-1.08,0-1.24-.27a.78.78,0,0,0,.56,0l-.6,0c-.46-.45.82,0,.87-.2a21,21,0,0,1-3.4-.4c-.11-.37,2.06.31,1-.22l1.32.4c-.92-.74.82.21,0-.55-1.76-.46-2-.24-3.77-.71-.44.1.07.3-.37.4-2.58-.19-1.8-1.25-3.75-1.19a2.26,2.26,0,0,1-2.07,0l.53-.28c-1.71-.4-1.09.33-2.84-.3.35-.08,1.38.16,1.13.06-1.11-.54-.87,0-1.77-.14l-.12-.38c-1.84-.33-3.9-.51-5.94-.87.13-.07.5-.11.05-.31l-1-.15a6.42,6.42,0,0,1-.84-.22A4.3,4.3,0,0,1,26,98.49a4.83,4.83,0,0,1-1.6-2.75,4.82,4.82,0,0,1-.45-.69c0-.19.08-.35.17-.16.05-.8-.2,0-.34-.41s.2-.61.26-.32a4.72,4.72,0,0,1,0-1.32c.06-.57.14-1.19.23-1.81a17.4,17.4,0,0,1,.8-3.32v.37c.41-1.37-.26-1.69.28-2.93v.26c.75-3,1.19-6.39,2.1-8.6-.32-.52.81-3,.27-3.26A22.42,22.42,0,0,0,29.11,70c.16-.64-.16-1-.06-1.86l.31,0L29.27,67l.48-.5.08-.77c-.08.3-.27.61-.34.55a6.19,6.19,0,0,1,1-2.82l.33-2.83c.11.09,0,.56,0,.94,0-1.54.38-.2.38-1.62-.11.17-.16-.13-.22-.18a13.6,13.6,0,0,0,.81-3.34l.17.27c.48-2.05.8-4.37,1.29-6.68-.27.81-.59.54-.49-.14l.38-.21c-.11-.48-.27.69-.32-.26.22-.86.48-.51.48,0l.11-1.08c.11,0,.11.22.22.31-.11-.47.69-1.75.48-2.44l.11,0c.48-2.31.59-3.38,1-5.27-.27-.09-.05-.82-.16-1.43.38-1.36.91-2.85,1.24-4.53.11-1.2-.16-.39-.22-.95.27,0,.6-1.7.6-.8.37-2,.48-2.57.8-5.14-.16.25-.26.55-.32.37.06-.47.33-1,.43-.93v.13c.22-2.92,2.1-6.41,2-8.78V19l.22-2.4c.27-1.07,0,.68.37-.08.11-2.62.9-4,1.06-6.13a3.47,3.47,0,0,0,.36-.67L41.91,9a8.15,8.15,0,0,1,.72-1.54,3.73,3.73,0,0,1,2.69-1.84l-.15-.13c.4-.3.57-.07.89-.07-.07-.14-.51-.07-.25-.22A5,5,0,0,1,47.3,5,14.21,14.21,0,0,1,49,5.35c1.22.27,2.44.57,3.67.88,2.45.63,4.91,1.3,7.34,1.89,1.78.42,1.2-.69,3.37.2l-.71.19c3.69.36,7.38,1.55,11,2-.23,0-.26.13-.6,0a5.46,5.46,0,0,0,2.81.4c.55.14.09.2.41.37.72.3,1.94.09,2.29.41.06.05-.23,0-.37,0,.51,0,2.27.5,1.86.14,1.3.4,2.56.4,3.58.79.76-.16,2.24.61,2.55.23-.19.43,2.25.84,3.13.81-.31.08.7.29.34.41,1,.19,1.85.29,1.73,0,1.65.9,3.63.31,4.48,1.2,2.89.35,5.55.74,8.13,1.17-.18.42-2.83-.54-2.82-.06,1.23.16,2.22.22,3.19.32l.74.08c.22,0,.42.07.65.12a4.06,4.06,0,0,1,1.3.62c.43.34-.36,0-.55,0a4.58,4.58,0,0,1,2.17,2,7.27,7.27,0,0,1,.87,2.69s-.1-.21-.14-.39c0,.36-.07.83.14.81l0-.36c.15-.3.32.06.42.56S110,24,110.06,24c-.43-.84-.59,2.1-1.08.8,0,.29,0,.66.15.62-.12.41-.23.52-.29.07a21.4,21.4,0,0,1-.18,2.43c-.1,0-.07-.31-.16-.48a7,7,0,0,1-.24,2.63c0-.09-.15,0-.07-.31-.39,2-.21,3.51-.85,5.67-.29-.74-.29.72-.68.76l-.14,1.2.27-.44a24.06,24.06,0,0,1-.45,2.87v-.8L106,41l.36-1.07c0,1.09.49,0,.1,1.34a10.87,10.87,0,0,1-.55,1.53h0a4.86,4.86,0,0,1-.22,1.83c-.16.18-.38-.24-.48-.13.2.57-.42,2.44-.23,3.15,0-.23-.22-.28-.27-.22l.16.47c-.18.47-.24.53-.37.42-.35,1.43.56-.36,0,1.31,0-.14,0-.09,0-.37-.47,1.69-.54,3.35-1,4.9-.46.39.2-1.4-.22-.93-.41,2.29-.54,4.8-1.09,7l.13-.4c.45.41-.6,1.58-.59,2.75,0-.28-.21-.42-.17-.33a46.17,46.17,0,0,0-.83,5.42l-.08-.31c-.3.87-.55,2.33-.81,3.28.07.31-.07.85.2.56-1.38,2.8-.77,5.73-2,8.23.06-.32,0-.78,0-.53l-.34,2.27c.26-.13.2-.27.47-.7A4.07,4.07,0,0,1,98.14,82c.06-1-.36-.07-.58.34.08-.06.13.1.21.08-.65,1.09.41.29-.19,1.83l-.1-.11A11.72,11.72,0,0,1,97.29,86c-.32.21,0-.66-.2-.75-.17.91.12,1.89-.31,2.66,0-.4.12-1,.13-1.35a4.44,4.44,0,0,0-.62,1.59l0-.06-.46,1.5.17-.37c.44,1.27-.36,2.33-.23,4-.12-1.57-.2-.3-.47-.47-.16.37-.38.94-.43.76.09.77-.44,1.16-.3,2.25-.1,0-.17.77-.37.56-.12,1,.21-.19.31-.09,0,1.51-1.1,3.31-1.09,5.48-.19,1.83.07,2.23-.12,3.93-.27.53-.25-.53-.25-.53a8.14,8.14,0,0,0-.52,2.43c0-.19-.15,0-.32.19-.14.61.24.54-.24,1.28a3.65,3.65,0,0,1-.11-.74,5.89,5.89,0,0,1-.86,2.11c-.14,0-.1-.11,0-.28s.16-.39.2-.53c-.4.77-1.44,1.67-1.58,2a3,3,0,0,0,.55-.24c-.27.21-.27-.09-.11-.27.46-.61.86-.65,1-.62a5.19,5.19,0,0,1-.37.45c.42,0,.84-.46,1.15-1.06a11.55,11.55,0,0,0,.61-1.9,5,5,0,0,1,.24.6,7,7,0,0,0,0-1.29c.16-.24.43-.37.37.24.38-.82,0-.79.39-1.48,0-.08.06,0,.06,0l.06-.86c0,.18.31-.08.15.42.54-1.45.2-2.49.62-3v.13c.3-2.12-.25-.26-.28-1.9l1-.9-.26-.27c.06-.21.17-.64.27-.53,0-.85-.16.11-.25-.4.49-1,.47-2.88,1-3-.15-.42-.38,1-.31-.18.58-.21.18-1.3.61-2.2.21.35-.12,1.22.32.32-.33-.67.48-1.83.56-2.64-.35-.12.21-1.77.37-3.14a37.51,37.51,0,0,0,1.11-3.7l.06,0c-.31-.32,0-1.59.15-2.54.2.08.25.27.24.79l.18-.88a2.62,2.62,0,0,1,0-1.1l.22.28a25.54,25.54,0,0,1,.67-3.9c-.23-.13-1,1.06-.78-.57.15,0,.39,0,.36.39a2.46,2.46,0,0,1,.1-.78l.1.69c.24-.67-.12-.4,0-1,.19.05.22-.37.36-.26,0,.14-.18.46-.15.68a5,5,0,0,1,.63-1.55c-.12,0-.26,0-.19-.51.23-1.18.32-.35.56-1-.08-.31.22-1-.07-1.11a.79.79,0,0,1,.33-.49c0-.63.56-2.84.11-2.22l-.06.15v-.1h0c.13-2,1-4.1,1.32-6.1l.09,0a33,33,0,0,0,.45-3.52c.07-.35.35-.79.43-.62a7.77,7.77,0,0,1,.46-2.3c0,.94.22-.28-.07.95a7.13,7.13,0,0,0,.54-2.69c.16.47.49-.82.53-1.39l-.34.78c.09-.63.23-1.17.36-1.72l.27.36c.89-2.31.22-4.45,1.27-6.14-.1-.68-.44,1.27-.58.65A22.55,22.55,0,0,1,107,44.94c.49-1.47-.18-1.5.27-3.06-.16.18-.51.31-.37-.9s.77-1.25.72-.53c0,.26-.11.38-.15.36,0,.37-.08.85.14.44l-.09-.17c.23-.52.54-2,.65-1.65.07-.85-.11-.39-.3.21.46-1.38.47-2.2.88-3.64-.11.22-.29.41-.24.18.59-2.11,0-1,.22-2.44.35-.79.37.38.52-1.11.31-.86.35-.12.37.25a11.65,11.65,0,0,1,.86-3.19l0,.71a8.21,8.21,0,0,1,.18-1.12l-.32.35c.13-.4.2-.74.3-.72-.07-.45-.46.25-.49-.64.23-.52.22-1.69.57-1.81-.46,1.7.35-.13.09,1.34a5,5,0,0,1,.23-1c0-.06,0,.07,0,.18.62-1.58-.19-.83.17-2.53.13.25.42-.31.44-.62-.08.36-.17.41-.24.32a1.71,1.71,0,0,1-.13-.75,3.93,3.93,0,0,0-.06-2,6.26,6.26,0,0,1,0,.75c-.19-.24-.17-.86-.46-1.66.12-.11.28.73.27.42a6.39,6.39,0,0,1-.48-1.53,3.36,3.36,0,0,0-.92-1.67c-.33-.55.22-.26-.11-.74a13.43,13.43,0,0,1-1.29-1.08,3.34,3.34,0,0,0-1.54-.81c.37.4.45.33-.7.2a7.75,7.75,0,0,1,2.46,1,7.68,7.68,0,0,0-1.64-.54,7,7,0,0,1,1.86,1c-.75-.34-.63-.32-.47.05a2.34,2.34,0,0,0-1.31-.85,13.68,13.68,0,0,1-1.6-.48l.15-.57c-1.58-.6-3-.31-5.07-.9l.66.24c-.33.17-1.32-.24-2-.29.11-.18-.31-.34-.58-.52,0,.15-1.55-.34-1.83,0l-.89-.45c-1.7-.46-2.08.14-3.72-.27.54-.1-.18-.4,1-.32-.55-.11-1-.25-1.08-.12-.3-.19-1.58-.06-2-.35a1.5,1.5,0,0,1-1,.08c-.06-.05,0-.1,0-.1s-1-.07-.5.26c-1.57-1-4.76-.95-6.13-1.78-1.22-.18-2.68-.42-3.78-.64.09,0,0-.09.23,0-1.47-.49-1,.36-2.72-.2-.81-.49,1,0,.43-.21-.11-.68-2.09-.34-3.17-1l.29,0c-.84-.4-2.21-.2-3.64-.55,0,0,.08,0,0-.09a22.78,22.78,0,0,1-4.35-.37c.48-.16.66,0,.45-.31-.63-.09.09.45-1.16.26-.38-.22-1.25-.53-1.31-.82l1.17.23c-.52-.48-1.52-.31-2.12-.49L62.69,6c-1.8-.33-1.91,0-3.83-.38l.17.16c-1.13.16-.84-.4-2-.33L56.85,5c-.72,0-2.52-.13-3.78-.32a21.47,21.47,0,0,1,3.19,0,11.4,11.4,0,0,0-2.74-.35,2.78,2.78,0,0,1,.91.12A10.13,10.13,0,0,1,51,4.27c.2-.35-.69-.58-1.73-.83-.52-.12-1.07-.25-1.66-.37a8.85,8.85,0,0,1-1.36-.29,9.82,9.82,0,0,0-4,1.58,7,7,0,0,0-2.76,3.78c.48-.47.39-.23.29.11s-.18.8.14.76a3.15,3.15,0,0,1-.21,1l-.78,1.93c-.27.43,0-.66-.14-.63-.35,1.44-.38.56-.74,1.48.25-.15.2.57,0,1.37L38.5,13c-.1,2.08-.86,1.64-1,3.74l-.05-.68c-.11,1.06-.81,3.85-.54,5-.11.17-.33.38-.27-.09-.6,2.48-.65,5.66-1.35,7.54l-.11-.22a3.28,3.28,0,0,1-.16,1.42c-.06-.05-.11-.22-.16,0a6.63,6.63,0,0,1-.22,1.89L34.62,31c-.7,2.39-.38,3.82-.71,5.88-.43-.1-1,1.79-1.23,2.73l-.06,0c-.64,2.83-.65,4.89-1,7.55-.81,1.53-1.35,5.48-2.16,8,.16-.38.32.13.27.61-.22.6-.06,1.76-.43,1.58l0-.22c-.48.38-.64,1.67-.86,2.65l.48.27c-1.29,2.42-1.13,6.81-2.1,8.08,0,.65-.16,1.42-.16,2.06l-.27-.09c-.43,1.71-.64,2.57-1,4.71l-.11-.48c-.27,1.2.48,1.69.27,2.8l-.49.25c-.43,2.1-1.23,4.14-1.29,6.29-.05,0-.16-.13-.11-.47-.21,1-1.07,3.76-.43,3.52-.38-.06-.49,2.15-.56,3.32l-.24-.23a5.83,5.83,0,0,1,.06,2.43c-.1.31-.28.23-.12-.17a2,2,0,0,0-.14,1,5.84,5.84,0,0,1,0,1.27,4.26,4.26,0,0,1-.16-.54,2.34,2.34,0,0,0,.38,1.77c.13.36.26.9.4,1.39a2.7,2.7,0,0,1,.2,1,3.79,3.79,0,0,1,1.17,1.07c0,.14-.22,0-.33-.1a4.49,4.49,0,0,0,1.94,1.52c.64.25,1.2.43,1.85.72,0,.09.09.17.19.22a6.88,6.88,0,0,1-2.61-1.14c-.17.21,1,1-.12.7a8.23,8.23,0,0,0,2.11.53l1.09.13a5,5,0,0,1,.92.19.37.37,0,0,1,.13.12h-.12a2.34,2.34,0,0,0,.72.11,8.62,8.62,0,0,0,.92.27c.1.24,1.32.39,1.89.52,0-.28.76-.08.1-.46.09,0-.12,0-.51-.05l-.25,0h0l-1.45-.29a2.86,2.86,0,0,1,1.6.23c.34-.12.7-.23.9-.28.72.55,2.2,1.08,2.37,1.36,1.8.22,4.19.77,5.41.49.52,0,.55.26.72.39a5.17,5.17,0,0,0-.81,0c1,.08,3,.57,3.31.26,1.23.43-.79.18,1,.49l-.26.06c3.31,1.29,5.77.24,9.42,1.77-.25-.1-.38-.14-.42-.22,4.27,1.24,9,1.56,13.17,3a4.4,4.4,0,0,0,2.16.14l.2.35,1.34-.08c1.85.13,3,1.38,5.34,1.38l-.25-.26c.81.21,2.62.42,2.43.63a.66.66,0,0,1,.61,0v.16L81,112c1.54.44-.37.56,1.9,1.07.85.11,2.5,0,2.2-.12s-.85-.28-.84-.44l.79.08c.23-.43.92-.77-.91-1.48H82.74l-.38-.31,1.12.22a2.24,2.24,0,0,0-1.5-.21,1,1,0,0,0-.51-.36l-1.39.17c-.12-.21.66-.23-.19-.51-.65.07.5.52-.54.44-.58-.34-.37-.47-1.14-.45-.08-.14.09-.18.39-.17-.69,0-1.76-.31-2.15-.13-.61-.4-2.25-.4-2.09-.82a7.08,7.08,0,0,1-1.85,0c1.22-.29-2.26-.51-1.85-1-.92.29-3-.41-4.52-.46a.72.72,0,0,1,.39,0,8.85,8.85,0,0,1-1.53-.6c-.19.36-1.48.19-2.22.28-.92-.58.71-.32.47-.74,0,.32-1.81-.06-1.52.27-.72-.39-.64-.25-1-.65-.23.45-.73-.07-1.43.1-1.06-.47-.19-.51-1.44-.62C57.34,105.28,58.46,105.34,58.46,105.34Zm-29.18-5.23h0l.6.11ZM27,99.53a4.73,4.73,0,0,0,.9.3c0,.12-.05.19-.27.13C27.78,99.94,27.29,99.73,27,99.53Zm4.58,3.06c-.4,0-.52-.12-.56-.19l.68.11.06,0A.45.45,0,0,1,31.6,102.59Z"/><path class="cls-2" d="M32.36,102.38h.17l-.22-.11-.15.06Z"/><path class="cls-2" d="M101.31,69.09v0l-.06.1S101.29,69.11,101.31,69.09Z"/><polygon class="cls-2" points="29.43 68.21 29.36 68.2 29.38 68.42 29.43 68.21"/><path class="cls-2" d="M97.56,82.32a.4.4,0,0,0-.11.16A.77.77,0,0,0,97.56,82.32Z"/><path class="cls-2" d="M96.29,88.1l-.27.8C96.15,88.56,96.23,88.31,96.29,88.1Z"/><path class="cls-2" d="M95.22,92.54a.37.37,0,0,0,.1.11h0Z"/><path class="cls-2" d="M109.41,21.84a.59.59,0,0,0,0-.14C109.28,21.37,109.35,21.59,109.41,21.84Z"/><path class="cls-2" d="M105.93,42.8c0-.24,0-.47,0-.71C105.85,42.46,105.78,42.75,105.93,42.8Z"/><path class="cls-2" d="M89.65,14.1h0l-.15,0Z"/><path class="cls-2" d="M106.15,41.11a4,4,0,0,0-.21,1A4.62,4.62,0,0,0,106.15,41.11Z"/><path class="cls-2" d="M89.94,110.64l-.16.1a.07.07,0,0,1,0,.05Z"/><path class="cls-2" d="M89.79,110.79l-.16.15C89.71,110.88,89.78,110.83,89.79,110.79Z"/><path class="cls-2" d="M89.28,111.23l.35-.29C89.5,111,89.33,111.11,89.28,111.23Z"/><path class="cls-2" d="M92.42,106l-.08-.09A.14.14,0,0,0,92.42,106Z"/><path class="cls-2" d="M92.77,104.16a9.46,9.46,0,0,0-.5,1.64l.07.07C92.25,105.56,92.85,104.6,92.77,104.16Z"/><path class="cls-2" d="M95.56,96.93l-.39,1.49c.16-.24.38-.56.26.13C96.14,96.72,95.11,98.89,95.56,96.93Z"/><path class="cls-2" d="M96.69,92.3c-.12.82.16,0,.21.08C96.91,91.85,96.91,91.72,96.69,92.3Z"/><path class="cls-2" d="M103.72,58.62l.23.13C104.05,58.12,103.86,58.72,103.72,58.62Z"/><polygon class="cls-2" points="103.77 51.91 103.49 52.48 103.66 52.82 103.77 51.91"/><polygon class="cls-2" points="106.35 48.48 106.33 48.75 106.45 47.7 106.35 48.48"/><path class="cls-2" d="M83.6,10.32l.13.35C84.16,10.7,84.32,10.37,83.6,10.32Z"/><path class="cls-2" d="M59.11,5.54a2,2,0,0,0-1.35-.39C58.3,5.28,58.82,5.52,59.11,5.54Z"/><polygon class="cls-2" points="28.31 61.22 28.31 60.7 28.2 61.65 28.31 61.22"/></g></g></svg>