<svg xmlns="http://www.w3.org/2000/svg" viewBox="0 0 113.8 130.31"><defs><style>.cls-1{fill:#fff;}.cls-2{fill:#473f57;}.cls-3{fill:#b7a5db;}</style></defs><g id="Calque_2" data-name="Calque 2"><g id="Calque_1-2" data-name="Calque 1"><rect class="cls-1" x="2.07" y="1.49" width="110.55" height="24.48" rx="1.85"/><path class="cls-2" d="M110.77,25.3c-.14.08,0,.3.25.22a1.56,1.56,0,0,0,.1-.37A1,1,0,0,1,110.77,25.3Z"/><path class="cls-2" d="M112.54,24.41c-.11-.44-.43-1-.72-.68a6.88,6.88,0,0,1,.46.95c-.09.35-.39.44-.44.32,0,.15-.35.25-.41.49a.92.92,0,0,0,.9-1.14C112.42,24.23,112.49,24.36,112.54,24.41Z"/><path class="cls-2" d="M96.9,1l.25,0Z"/><path class="cls-2" d="M73.45.84c.18,0,.26,0,.27-.07C73.55.79,73.41.81,73.45.84Z"/><path class="cls-2" d="M69.45.48l.24,0A.34.34,0,0,0,69.45.48Z"/><path class="cls-2" d="M96.9,1l-.62-.1C96.23,1,96.6,1,96.9,1Z"/><path class="cls-2" d="M111.77,19.2a1.13,1.13,0,0,0,.08.34l0-.32Z"/><path class="cls-2" d="M107.24.75h.19a.65.65,0,0,0,.16-.13Z"/><path class="cls-2" d="M113.4,4.84c0-.18-.27-.24-.39-.31a.61.61,0,0,1,.19.39A.32.32,0,0,0,113.4,4.84Z"/><path class="cls-2" d="M112.91,17.42l0,.22Z"/><path class="cls-2" d="M101.56.69a.23.23,0,0,0-.07-.1S101.52.66,101.56.69Z"/><path class="cls-2" d="M101.58,24.65s0,0,0,.05S101.64,24.65,101.58,24.65Z"/><path class="cls-2" d="M110.77,26h-.13a1,1,0,0,0,0,.16Z"/><path class="cls-2" d="M62.12.12h0C62.35.09,62.24.1,62.12.12Z"/><path class="cls-2" d="M.9,9.49c.26-.76.33,1.24.61.09C1.4,9.69,1.07,8.54.9,9.49Z"/><path class="cls-2" d="M111.8,19v-.32A1.68,1.68,0,0,0,111.8,19Z"/><path class="cls-2" d="M1.51,9.58h0l0-.11Z"/><path class="cls-2" d="M45.24.29a.46.46,0,0,0,.17.12S45.37.34,45.24.29Z"/><path class="cls-2" d="M57.82.69l-.31,0Z"/><path class="cls-2" d="M38.71.68a1.13,1.13,0,0,0-.46,0l.07,0A.69.69,0,0,1,38.71.68Z"/><path class="cls-2" d="M31.91.68A.75.75,0,0,0,32,.74h.21Z"/><path class="cls-2" d="M80.92,24.78a.93.93,0,0,1,.31.26C81.13,24.84,82.13,24.76,80.92,24.78Z"/><path class="cls-2" d="M111.92,19.19a.24.24,0,0,1-.12-.2l0,.23S111.9,19.24,111.92,19.19Z"/><path class="cls-2" d="M38.43,2.9l-1.08,0C37.66,2.89,38.05,2.9,38.43,2.9Z"/><path class="cls-2" d="M32.15,24.82l.25,0A.51.51,0,0,0,32.15,24.82Z"/><path class="cls-2" d="M34.15,2.9a1.88,1.88,0,0,0-.61-.19.54.54,0,0,0-.13.07Z"/><path class="cls-2" d="M81.23,25Z"/><path class="cls-2" d="M88.35,24.37c-1,0-.49.36-.7.57-1.23.11-.57-.27-1-.46-.77.1-1.36.44-1.93.43,0-.06-.15-.09,0-.16-.81.29-2.41,0-3.35.38a.29.29,0,0,1-.13-.09.57.57,0,0,1,.15.51c-.46,0-.86.23-1,0a.58.58,0,0,0,.44-.17l-.49.11c-.43-.35.66-.12.66-.38a13.86,13.86,0,0,1-2.76.3c-.15-.34,1.69-.11.73-.41l1.11.13c-.85-.54.68,0-.1-.54-1.47-.1-1.65.17-3.11.07-.33.19.11.28-.23.47-2.08.34-1.64-.85-3.17-.4a1.58,1.58,0,0,1-1.64.43l.37-.39c-1.42,0-.81.56-2.3.3.26-.15,1.12-.13.9-.17-1-.31-.68.21-1.43.21l-.15-.34c-1.52.06-3.19.3-4.86.36.09-.1.38-.2,0-.31a38.65,38.65,0,0,1-6.56-.24l-.78.29c-.18,0-.34-.13-.14-.19-.8-.11,0,.19-.42.3s-.6-.16-.31-.25a18,18,0,0,1-5.49.22l.29-.09c-1.15-.12-1.3.6-2.37.33l.21-.05c-2.5-.13-5.27.14-7.18-.3-.36.42-2.47-.19-2.63.4a15.58,15.58,0,0,0-3-.6c-.54,0-.8.37-1.47.43v-.3l-.91.32L33,24.71l-.62.08c.25,0,.53.14.49.23a4.21,4.21,0,0,1-2.4-.38l-2.3.26c0-.12.44-.16.74-.24-1.22.31-.22-.33-1.34,0,.15.07-.09.19-.11.25a9.07,9.07,0,0,0-2.79-.11l.18-.21c-1.7-.06-3.59.1-5.51.09.69.1.53.47,0,.51l-.23-.33c-.36.2.59.12-.16.37-.71,0-.48-.37-.07-.48l-.87.12c-.05-.1.16-.15.21-.28-.36.21-1.5-.32-2,0l-.05-.1c-1.91,0-2.78.11-4.34.13,0,.28-.64.22-1.11.44a35.39,35.39,0,0,0-3.8-.28c-1,.14-.28.24-.72.4-.07-.25-1.45-.23-.74-.41l-1.68,0A.82.82,0,0,1,3,24.22c-.09.12-.08.28-.19.24a.47.47,0,0,1,0-.35c0-.16.12-.27.18-.24L3,24c-.39-2.36.74-5.44.21-7.31l0,.1L3,14.82c0-.9.19.53.35-.13-.43-2.09.06-3.31-.22-5a6.78,6.78,0,0,0,.31-3.1c0-.62,0-1.26,0-1.85a7.69,7.69,0,0,1,0-.85c0-.25.07-.61.13-.56H3.38c-.15-.18.14-.15.2-.17-.12-.08-.2.05-.25-.07a.61.61,0,0,1,.36-.39.35.35,0,0,1,.14,0h1c1,0,2,.06,3.06.11C10,2.87,12,3,14,3.1c1.49,0,.85-.92,2.71-.49l-.53.33c3-.4,6.12,0,9-.32-.17.07-.18.17-.46.17a3.67,3.67,0,0,0,2.29-.18c.46,0,.11.17.39.27.62.14,1.56-.3,1.89-.06.05,0-.18.07-.29.09.4-.11,1.88,0,1.49-.25,1.1.14,2.1-.12,3,0,.57-.31,1.88.14,2.06-.29-.08.45,1.93.36,2.62.15-.23.14.61.14.33.33.8,0,1.52-.09,1.38-.32,1.46.54,2.94-.44,3.76.26,2.36-.25,4.53-.41,6.65-.52-.07.45-2.34.05-2.25.52a30.17,30.17,0,0,1,5.16-.46c.52.06-.29.19-.46.27,2-.19,3.88,0,5.66-.21,0,.05-.2.09-.38.13.35,0,.82.06.78-.14l-.34,0C58,2.19,59.91,1.86,60,1.7c-.6.59,1.76.15.81.89.24,0,.53-.13.47-.27.35,0,.46.12.11.28,1.26-.11.81-.33,2-.33,0,.1-.23.14-.35.26a4.61,4.61,0,0,1,2.12-.31c0,.06.06.14-.23.14,1.66,0,2.83-.52,4.64-.33-.53.43.62.14.72.52l1-.11-.39-.19a17.88,17.88,0,0,1,2.35-.14l-.64.15,1.6-.07-.9-.14c.86-.19-.1-.47,1-.37a8.35,8.35,0,0,1,1.31.23h0a3.31,3.31,0,0,1,1.5-.15c.16.12-.14.41,0,.49.42-.31,2-.09,2.54-.42-.18.08-.19.28-.13.32l.35-.26c.4.08.46.12.39.28,1.19.05-.38-.47,1-.27-.11,0-.06.06-.29.1,1.42.1,2.75-.16,4.06,0,.38.38-1.15.09-.71.41C86.16,2.3,88.18,1.92,90,2l-.34,0c.26-.53,1.36.26,2.28,0-.22,0-.29.29-.23.23a31.63,31.63,0,0,0,4.45-.29l-.24.13c.74.12,1.94.07,2.74.13.23-.13.69-.11.41-.31,2.45.78,4.68-.41,6.85.23-.26,0-.62.12-.41.12l1.85-.12c-.14-.23-.24-.14-.63-.32A2.85,2.85,0,0,1,108,1.53c-.84.16,0,.37.37.5-.06-.07.06-.15,0-.22,1,.41.16-.46,1.48-.19l-.07.13a3.82,3.82,0,0,1,1.46-.13c.12.29-.48,0-.53.28a3,3,0,0,1,1,0,.81.81,0,0,1,.63.69,1.6,1.6,0,0,0-.73-.59,4.25,4.25,0,0,1,.26.56A1.44,1.44,0,0,1,112,3v0a1.24,1.24,0,0,1,0,.43l-.07.64.09-.33c.69.94.13,1.91.58,3.18-.43-1.23-.25-.21-.55-.3-.09.32-.18.81-.26.67.24.6-.2,1,.16,1.84-.1,0,0,.64-.25.51.07.77.17-.19.29-.12.33,1.19-.41,2.81,0,4.53.19,1.49.52,1.76.68,3.14-.15.46-.35-.38-.35-.38a5.28,5.28,0,0,0,0,2c-.08-.15-.16,0-.27.22,0,.56.36.38.22,1.12a1.93,1.93,0,0,1-.4-.56c.09.67.28,1.32.36,2-.17.18-.25-.42-.36-.66a5.85,5.85,0,0,0,.42,2.25l.09-.5c0,.28-.23.15-.28-.06-.21-.67.1-1,.2-1l.06.49c.57-.5-.09-2-.06-3l.42.41-.35-1c.11-.22.34-.37.4.12.21-.71-.15-.63.08-1.24,0-.06.06,0,.08,0l-.13-.7c.09.14.3-.11.24.32.24-1.25-.32-2,0-2.48l0,.1c-.14-1.73-.3-.17-.66-1.47l.75-.87-.3-.17c0-.18,0-.53.15-.47-.2-.66-.13.12-.33-.27.28-.86-.13-2.37.36-2.56-.23-.31-.18.82-.34-.1.52-.26-.09-1.06.15-1.84.27.24.13,1,.37.2-.46-.47.1-1.53,0-2.19-.18,0-.22-.38-.23-.87,0-.26,0-.51,0-.84a1.84,1.84,0,0,0-.33-1c.07,0-.15-.64-.91-1a2.32,2.32,0,0,0-.61-.22l-.34,0-.26,0c-.35,0-.68-.05-.94-.09l0-.06c-.2.37-1.26.3-2,.38,0-.22.17-.31.59-.41h-.73a1.8,1.8,0,0,1-.87.23l.18-.28a16.1,16.1,0,0,1-3.2.14c-.07.26,1,.71-.33.89,0-.14-.1-.38.25-.44a1.46,1.46,0,0,1-.63.06l.52-.23c-.56-.11-.29.19-.75.17,0-.2-.33-.14-.27-.3s.4.08.57,0a3.57,3.57,0,0,1-1.34-.31c0,.12,0,.27-.37.3-1,0-.33-.24-.9-.34-.24.13-.85,0-.87.29-.29,0-.34-.14-.45-.22-.5.13-2.34,0-1.78.35l.13,0h-.08c-1.65.3-3.42-.16-5.06,0V1a23.46,23.46,0,0,0-2.86.28c-.29,0-.68-.18-.56-.3a4.93,4.93,0,0,1-1.91,0c.75-.18-.26-.16.77-.13a4.68,4.68,0,0,0-2.23,0c.36-.26-.73-.32-1.19-.25l.68.18a11.36,11.36,0,0,1-1.43,0L83.7.46c-2-.4-3.58.69-5.09,0-.52.23,1.08.16.61.43A14.63,14.63,0,0,1,77.07.39C75.82.2,75.91.87,74.6.75c.17.12.32.43-.65.55C73,1.25,72.83.8,73.4.7c.22,0,.33,0,.32.07.29,0,.68-.09.32-.22l-.12.12C73.47.55,72.21.56,72.51.36c-.69.12-.3.2.21.26-1.17-.17-1.83,0-3-.12.19.06.36.2.17.2-1.76-.14-.77.23-2,.28-.68-.18.24-.43-1-.28-.74-.12-.16-.32.13-.41A7.89,7.89,0,0,1,64.38.1L65,0A4.22,4.22,0,0,1,64,.05l.33.24c-.34,0-.62,0-.62-.14-.35.16.27.4-.42.61C62.87.64,62,.89,61.79.57c1.43.11-.16-.31,1.05-.36A3.57,3.57,0,0,1,62,.2s.05-.07.14-.08c-1.36-.28-.62.35-2,.35.18-.18-.32-.34-.55-.3.57,0,.27.29-.25.43-.91-.14-1,.1-1.46.09l.54.06c-.18.18-.64.15-1.27.21-.05-.14.57-.09.35-.16-.7.32-1.58-.32-2.56-.11-.45-.12-.05-.33-.44-.41C53.34.51,53.25,0,52.1.22c.33.24.39.18-.42.42L53.57.47,52.36.82c.57,0,1.2-.15,1.54-.11-.58.19-.52.13-.24.33-.78-.36-1.55.21-2.46,0l0-.59c-1.36-.27-2.41.3-4.18.15l.57.1c-.24.24-1.09,0-1.66.13,0-.2-.3-.27-.55-.39,0,.15-1.29,0-1.45.38L43.17.53c-1.42-.11-1.62.56-3,.49.41-.21-.21-.35.71-.5-.46,0-.87,0-.88.1-.27-.13-1.27.26-1.69.07-.19.09-.25.3-.77.28,0,0,0-.1,0-.1s-.81.14-.36.35C35.79.61,33.26,1.27,32,.74c-1,.07-2.2.13-3.11.14.06-.05,0-.09.18-.07-1.25-.19-.77.56-2.19.36-.73-.32.75-.17.3-.29C27,.23,25.5,1,24.55.58l.23,0c-.73-.22-1.79.24-3,.2,0,0,.06-.06,0-.1a14.74,14.74,0,0,1-3.52.53c.36-.25.52-.13.31-.39-.52,0,.15.41-.88.49-.34-.14-1.08-.27-1.18-.54l1,0c-.49-.35-1.25,0-1.76,0l.06-.15c-1.49,0-1.51.44-3.1.41l.16.12c-.87.39-.73-.22-1.6.07L11,.73c-.57.09-2,.38-3,.45A14.9,14.9,0,0,1,10.5.57,7.41,7.41,0,0,0,8.26.79,1.89,1.89,0,0,1,9,.72a6.75,6.75,0,0,1-2.76.45C6.34.79,5.6.74,4.73.72l-.66,0H3.66a3.25,3.25,0,0,0-.45.06,6.79,6.79,0,0,0-1.4.51,3.29,3.29,0,0,0-.74,2.15c0,.5,0,1-.05,1.53C1,6,.87,7.06.89,8.24c.6-.84,0,.68.63.54a2,2,0,0,1,0,.8l-.37,1.66c-.18.39-.13-.52-.27-.47-.05,1.19-.26.5-.42,1.29.22-.16.31.42.23,1.1l.28-1c.33,1.67-.51,1.44-.19,3.13L.58,14.8c.11.86,0,3.19.48,4-.07.16-.23.36-.28,0A28.39,28.39,0,0,0,1,22.08c.05.55.09,1.08.11,1.58,0,.25,0,.44,0,.84a3.43,3.43,0,0,0,.23,1l-.25-.17c.33.58.76.78,1.3,1.31-.06,0-.3,0-.05.16A3.69,3.69,0,0,0,3.39,27c.54,0,.81,0,1.07,0L4,27.2c2,.2,3.09-.41,4.78-.51,0,.44,1.58.58,2.37.65l0,.07a54.7,54.7,0,0,0,6.16-.54c1.35.48,4.57.2,6.74.47-.33-.08.05-.35.44-.39s1.4-.31,1.32.1h-.18c.38.4,1.43.29,2.25.3l.13-.53c2.14.77,5.6-.28,6.76.41.52-.13,1.16-.13,1.67-.26l0,.28a35.4,35.4,0,0,0,3.91,0l-.36.2c1,0,1.26-.81,2.17-.83l.28.42c1.74,0,3.5.37,5.21,0,0,.07-.08.19-.36.2.82,0,3.16.29,2.87-.29,0,.38,1.79,0,2.73-.13l-.15.28a4,4,0,0,1,1.92-.55c.27,0,.23.22-.11.15.87.15.68-.26,1.74-.12l-.4.18a1.94,1.94,0,0,0,1.32-.28c.57-.11,1.71.07,1.84.32a1.43,1.43,0,0,1,1.14-.28c.07.09-.12.15-.22.18,1.51.19,2.24-.32,3.27-.05a.24.24,0,0,0,.18.17c-1.2,0-2.16,0-2.07,0,0,.26,1,.3.2.66a9.53,9.53,0,0,1,3-.49.57.57,0,0,1,.13.08l-.1,0a1.49,1.49,0,0,0,.6,0,5.3,5.3,0,0,0,.77.08c.12.21,1.11.11,1.59.12,0-.28.59-.23,0-.46.08,0-.09,0-.41,0a1.18,1.18,0,0,0-.21,0l0,0h-1.2a1.9,1.9,0,0,1,1.31-.1c.25-.18.52-.37.67-.46.66.4,1.93.61,2.1.85,1.47-.16,3.46-.1,4.38-.63.42-.07.48.15.64.23a5,5,0,0,0-.66.12c.84-.13,2.48,0,2.67-.42,1.06.17-.59.34.86.28l-.2.11c2.85.59,4.63-.94,7.78-.18-.22-.05-.33-.07-.38-.13,3.6.33,7.41-.31,11,.22a3,3,0,0,0,1.73-.31l.22.3,1.05-.35c1.49-.25,2.58.74,4.47.26l-.25-.2c.68,0,2.15-.12,2,.11a.48.48,0,0,1,.49-.11l0,.16,1.66-.27c1.29.12-.2.63,1.69.66.7-.06,2-.46,1.73-.57s-.73-.09-.75-.25l.64-.09c.12-.46.61-.94-1-1.26l-1.1.28-.35-.22.92,0a1.48,1.48,0,0,0-1.22.11.71.71,0,0,0-.46-.25l-1.08.44c-.13-.18.48-.36-.24-.46-.5.21.49.41-.35.54-.52-.21-.37-.38-1-.2-.09-.12,0-.2.28-.25-.54.15-1.45.06-1.73.31-.55-.26-1.85.07-1.79-.37a4.89,4.89,0,0,1-1.47.36c.92-.53-1.89,0-1.64-.59-.68.47-2.46.21-3.66.47a.49.49,0,0,1,.3-.09,6,6,0,0,1-1.31-.27c-.09.39-1.14.48-1.71.72-.83-.38.5-.46.24-.82,0,.31-1.44.31-1.16.58-.63-.24-.55-.11-.87-.44-.12.49-.6.08-1.12.38-.92-.24-.24-.45-1.25-.31C87.45,24.54,88.35,24.37,88.35,24.37Zm-24,.85h.5Zm-2,0c.25,0,.55,0,.88,0,.07.1,0,.2-.21.2C63.07,25.36,62.59,25.3,62.29,25.22Zm4.28,2c-.32,0-.43,0-.48-.07l.56,0,0,0A.39.39,0,0,1,66.57,27.17Z"/><path class="cls-2" d="M67.14,26.8l.13,0-.19-.06-.11.09Z"/><path class="cls-2" d="M97.19,1.07h0a.25.25,0,0,1,.09,0Z"/><polygon class="cls-2" points="34.4 24.68 34.41 24.76 34.58 24.69 34.4 24.68"/><path class="cls-2" d="M108.32,2s.06.05.14.08S108.39,2.06,108.32,2Z"/><path class="cls-2" d="M112,3a1.76,1.76,0,0,1,0,.49A1.13,1.13,0,0,0,112,3Z"/><path class="cls-2" d="M111.87,6.48a.4.4,0,0,0,.12.07h0Z"/><path class="cls-2" d="M58.07,2.57h-.14C57.6,2.63,57.82,2.61,58.07,2.57Z"/><path class="cls-2" d="M75.55,1.91A4.59,4.59,0,0,1,75,2C75.3,2.06,75.54,2.07,75.55,1.91Z"/><polygon class="cls-2" points="38.55 2.9 38.55 2.9 38.43 2.9 38.55 2.9"/><path class="cls-2" d="M74.18,2A2.44,2.44,0,0,0,75,2,3.14,3.14,0,0,0,74.18,2Z"/><path class="cls-2" d="M111.74,22.49v.18l0,0Z"/><path class="cls-2" d="M111.77,22.69l0,.2C111.81,22.8,111.81,22.72,111.77,22.69Z"/><path class="cls-2" d="M111.88,23.3l-.07-.41A.67.67,0,0,0,111.88,23.3Z"/><path class="cls-2" d="M111.87,17.6l-.1-.06A.14.14,0,0,0,111.87,17.6Z"/><path class="cls-2" d="M111.84,16.11a6.22,6.22,0,0,0-.15,1.39l.08,0C111.62,17.31,112,16.45,111.84,16.11Z"/><path class="cls-2" d="M113.1,9.91,113,11.16c.11-.22.25-.51.28.06C113.62,9.65,113.06,11.54,113.1,9.91Z"/><path class="cls-2" d="M113.26,6.05c0,.67.16,0,.22,0C113.38,5.65,113.35,5.55,113.26,6.05Z"/><path class="cls-2" d="M88.48.84l.07-.25C88,.63,88.54.69,88.48.84Z"/><polygon class="cls-2" points="83.14 2.17 83.64 2.33 83.88 2.09 83.14 2.17"/><polygon class="cls-2" points="79.99 0.34 80.22 0.31 79.36 0.4 79.99 0.34"/><path class="cls-2" d="M33.12.44l.16.31C33.63.69,33.7.34,33.12.44Z"/><path class="cls-2" d="M12.89.76A1.42,1.42,0,0,0,11.75.65,11.09,11.09,0,0,0,12.89.76Z"/><polygon class="cls-2" points="29.04 27.21 28.63 27.32 29.4 27.23 29.04 27.21"/><rect class="cls-1" x="1.62" y="25.8" width="111" height="103.04" rx="1.81"/><path class="cls-2" d="M110.8,128.17c-.23.07,0,.32.4.18a1.3,1.3,0,0,0,.14-.42A1.11,1.11,0,0,1,110.8,128.17Z"/><path class="cls-2" d="M112.57,125.72c-.17-.72-.45-1.56-.75-1.09.32.72.18.89.56,1.66a2.42,2.42,0,0,1,0,.76c0,.15-.14.2-.19.15.08.21-.27.64-.35.93a1.11,1.11,0,0,0,.69-.93,6.25,6.25,0,0,0-.13-1.52C112.42,125.45,112.5,125.67,112.57,125.72Z"/><path class="cls-2" d="M113.08,65.46l0,.38A1.92,1.92,0,0,0,113.08,65.46Z"/><path class="cls-2" d="M113.26,28.12c0,.28,0,.4.07.42C113.31,28.27,113.29,28.05,113.26,28.12Z"/><path class="cls-2" d="M107.78,24.79l.38,0A.84.84,0,0,0,107.78,24.79Z"/><path class="cls-2" d="M113.08,65.46l.11-1C113.08,64.39,113.11,65,113.08,65.46Z"/><path class="cls-2" d="M111.77,117.41a2.68,2.68,0,0,0,.08.54l0-.51Z"/><path class="cls-2" d="M113.35,81.92v.3a2,2,0,0,0,.13.25Z"/><path class="cls-2" d="M113.4,94.55c0-.29-.27-.39-.39-.5a1.34,1.34,0,0,1,.19.63C113.26,94.68,113.32,94.64,113.4,94.55Z"/><path class="cls-2" d="M112.91,114.58l0,.35Z"/><path class="cls-2" d="M113.41,72.88a.29.29,0,0,0,.1-.12S113.44,72.81,113.41,72.88Z"/><path class="cls-2" d="M96.16,127.51s0,0,0,0S96.26,127.52,96.16,127.51Z"/><path class="cls-2" d="M110.8,128.91h-.2a.47.47,0,0,0,0,.16Z"/><path class="cls-2" d="M96.12,24.43h0C96.47,24.4,96.3,24.41,96.12,24.43Z"/><path class="cls-2" d="M.45,39.18c.26-1.21.33,2,.61.15C1,39.5.62,37.67.45,39.18Z"/><path class="cls-2" d="M111.8,117.08v-.51A4.23,4.23,0,0,0,111.8,117.08Z"/><path class="cls-2" d="M1.06,39.33h0l0-.19Z"/><path class="cls-2" d="M69.23,24.6a1.06,1.06,0,0,0,.28.12S69.44,24.66,69.23,24.6Z"/><path class="cls-2" d="M89.26,25l-.5,0Z"/><path class="cls-2" d="M58.84,25a2.84,2.84,0,0,0-.73,0l.11,0A1.44,1.44,0,0,1,58.84,25Z"/><path class="cls-2" d="M48,25l.2.05h.35Z"/><path class="cls-2" d="M63.27,127.65a1.91,1.91,0,0,1,.5.25C63.6,127.7,65.19,127.63,63.27,127.65Z"/><path class="cls-2" d="M111.92,117.41a.51.51,0,0,1-.12-.33l0,.36S111.9,117.48,111.92,117.41Z"/><path class="cls-2" d="M58.4,27.21l-1.72,0C57.16,27.2,57.78,27.21,58.4,27.21Z"/><path class="cls-2" d="M2.76,112.06l0,.4A1.49,1.49,0,0,0,2.76,112.06Z"/><path class="cls-2" d="M51.57,27.21a4.28,4.28,0,0,0-1-.19.69.69,0,0,0-.19.07Z"/><path class="cls-2" d="M63.77,127.91h0Z"/><path class="cls-2" d="M75.1,127.24c-1.64,0-.77.36-1.12.57-2,.11-.9-.27-1.57-.46-1.22.1-2.16.44-3.07.42-.06-.06-.24-.08,0-.16-1.29.3-3.84,0-5.34.39l-.2-.09c.25.18.28.37.23.5-.73,0-1.36.24-1.64,0a1.27,1.27,0,0,0,.7-.16l-.77.1c-.69-.34,1.05-.12,1.05-.37a34.81,34.81,0,0,1-4.4.3c-.24-.34,2.69-.12,1.16-.42l1.78.13c-1.36-.53,1.08,0-.17-.53-2.34-.1-2.62.17-5,.07-.53.19.17.28-.36.47-3.32.34-2.61-.86-5-.4a3.64,3.64,0,0,1-2.62.43l.6-.39c-2.27,0-1.3.55-3.67.29.42-.15,1.78-.12,1.44-.17-1.54-.3-1.09.22-2.27.22l-.25-.34c-2.41.05-5.07.3-7.74.36.14-.1.6-.21,0-.31a97.73,97.73,0,0,1-10.45-.24l-1.25.29c-.29,0-.53-.13-.22-.19-1.27-.11-.07.19-.67.3s-1-.17-.5-.26a45.26,45.26,0,0,1-8.73.23l.46-.09c-1.83-.12-2.07.6-3.77.33L12,128c-2-.06-4.09,0-6.07,0H4.49l-.7,0H3.44a.43.43,0,0,1-.17,0,.69.69,0,0,1-.51-.87c-.43-.56.19-3.93-.4-4.19A38.12,38.12,0,0,0,3,118c0-.86-.37-1.28-.43-2.34l.31,0-.32-1.44.36-.76-.07-1c0,.39-.14.84-.23.78a10.23,10.23,0,0,1,.37-3.82l-.26-3.66a3.7,3.7,0,0,1,.25,1.18c-.32-2,.32-.36,0-2.15-.07.24-.18-.13-.24-.17a24.6,24.6,0,0,0,.11-4.44l.21.29c0-2.72-.1-5.73-.1-8.78-.1,1.09-.47.84-.5,0l.32-.36c-.2-.58-.12.93-.37-.25,0-1.14.37-.77.48-.11l-.11-1.39c.09-.08.15.24.27.33-.2-.57.33-2.39,0-3.21l.09-.08c0-3-.11-4.44-.12-6.92-.28-.05-.22-1-.45-1.76.09-1.83.31-3.85.29-6-.14-1.55-.24-.46-.41-1.15.26-.11.23-2.31.42-1.17,0-2.64-.05-3.37-.26-6.71-.11.36-.15.77-.24.55,0-.6.11-1.37.23-1.29l0,.16c-.39-3.75.75-8.65.21-11.63l0,.16-.28-3.09c0-1.43.19.85.35-.2-.43-3.34.06-5.28-.22-8,.75-2.13-.06-7.55.43-10.42l-.18.16c-.18-.74.1-.9.14-1.44-.14.07-.16.8-.26.34v-.51a.76.76,0,0,1,0-.21A.66.66,0,0,1,3.1,27L3.3,27H4.9c1.61,0,3.24.06,4.87.12,3.27.11,6.55.27,9.78.35,2.36,0,1.34-.92,4.31-.5l-.85.33c4.76-.4,9.74,0,14.4-.32a1.79,1.79,0,0,1-.74.17,9.07,9.07,0,0,0,3.65-.18c.73,0,.17.18.62.27,1,.15,2.48-.3,3-.06.09,0-.28.07-.46.09.65-.11,3,0,2.38-.24,1.75.13,3.35-.13,4.74,0,.91-.31,3,.15,3.29-.29-.13.45,3.06.36,4.17.15-.37.14,1,.14.53.33,1.26,0,2.42-.09,2.2-.32,2.32.54,4.67-.44,6,.26,3.75-.25,7.22-.41,10.59-.52-.12.45-3.73.05-3.59.52A78.54,78.54,0,0,1,82,26.69c.82.06-.47.19-.74.27,3.19-.19,6.18,0,9-.2a2,2,0,0,1-.6.12c.56,0,1.3.06,1.24-.14l-.55.05c-.9-.29,2.23-.62,2.33-.77-1,.58,2.8.14,1.29.89.37,0,.84-.14.75-.28.55,0,.72.12.17.28,2-.11,1.29-.33,3.11-.33,0,.1-.37.14-.56.26a11,11,0,0,1,3.38-.3c-.09.06.09.13-.37.13,2.64,0,4.5-.51,7.39-.33-.85.43,1,.14,1.14.52l1.56-.11-.63-.18c.32,0,.72,0,1,0a1.3,1.3,0,0,1,.58.11,1,1,0,0,1,.54,1,1.08,1.08,0,0,0-.3-.56,1.24,1.24,0,0,1,.15.33,1.11,1.11,0,0,1,0,.19l0,.3,0,1.28.14-1.45c.19,1.38.47-.15.37,1.67a18.84,18.84,0,0,1-.22,2.07h0a8.53,8.53,0,0,1,.15,2.38c-.12.26-.42-.21-.5,0,.32.66.09,3.19.42,4-.07-.29-.27-.3-.31-.21l.25.56c-.08.63-.12.72-.27.62,0,1.9.47-.6.27,1.65a2,2,0,0,1-.1-.46c-.11,2.27.16,4.38,0,6.46-.37.62-.09-1.82-.4-1.11.06,3,.45,6.21.36,9.12l0-.54c.53.4-.26,2.16,0,3.63,0-.36-.3-.47-.24-.38-.08,2,.13,4.07.3,7.08l-.14-.37c-.12,1.17-.07,3.09-.13,4.35.14.38.11,1.1.31.66-.77,3.91.42,7.45-.23,10.92,0-.42-.12-1-.12-.66l.13,3c.23-.23.14-.39.32-1a7.32,7.32,0,0,1,.24,1.94c-.15-1.33-.37,0-.5.59.07-.1.15.1.22.05-.41,1.54.47.26.19,2.36l-.12-.11a19.78,19.78,0,0,1,.19,2.36c-.27.35-.13-.84-.35-.89,0,1.19.51,2.35.24,3.43-.07-.5-.07-1.23-.15-1.74a7.34,7.34,0,0,0-.28,2.19v-.09l-.15,2,.09-.51c.69,1.49.13,3,.58,5-.43-2-.25-.33-.55-.48-.09.52-.18,1.3-.26,1.08.24,1-.2,1.58.16,2.92-.1.06,0,1-.25.81.07,1.23.17-.3.29-.19.33,1.9-.41,4.48,0,7.22.19,2.36.52,2.8.68,5-.15.74-.35-.61-.35-.61a13.35,13.35,0,0,0,0,3.22c-.08-.23-.16,0-.27.35,0,.9.36.6.22,1.79a3.24,3.24,0,0,1-.4-.9c.09,1.07.28,2.12.36,3.22-.17.29-.25-.67-.36-1a14.34,14.34,0,0,0,.42,3.59l.09-.8c0,.45-.23.23-.28-.1-.21-1.06.1-1.53.2-1.59l.06.78c.57-.8-.09-3.15-.06-4.72l.42.65-.35-1.62c.11-.34.34-.58.4.2.21-1.13-.15-1,.08-2,0-.11.06-.06.08,0l-.13-1.11c.09.22.3-.18.24.5.24-2-.32-3.2,0-4l0,.17c-.14-2.76-.3-.27-.66-2.34l.75-1.39-.3-.27c0-.28,0-.84.15-.74-.2-1.06-.13.18-.33-.43.28-1.37-.13-3.77.36-4.08-.23-.49-.18,1.31-.34-.16.52-.41-.09-1.68.15-2.93.27.38.13,1.56.37.31-.46-.75.1-2.43,0-3.48-.36-.05-.15-2.29-.27-4.06.12.11.2-3.33.33-5l.06,0c-.37-.32-.3-2-.37-3.25.22,0,.3.27.4.94V82.22a4.06,4.06,0,0,1-.22-1.39l.27.29a42.75,42.75,0,0,1-.14-5.1c-.25-.11-.71,1.58-.88-.52.14-.08.37-.16.43.39a3.71,3.71,0,0,1,0-1l.23.84c.1-.91-.2-.48-.17-1.2.19,0,.14-.54.29-.43a4.58,4.58,0,0,0,0,.91,8,8,0,0,1,.3-2.13c-.11.07-.27,0-.29-.6,0-1.55.24-.53.34-1.43-.14-.38,0-1.36-.29-1.39a1.12,1.12,0,0,1,.22-.71c-.13-.8,0-3.74-.35-2.84l0,.21,0-.13h0c-.29-2.63.17-5.45,0-8h.1c-.11-1.55-.06-3.46-.28-4.57,0-.46.18-1.08.3-.88a13,13,0,0,1,0-3c.17,1.19.15-.41.12,1.22a11.75,11.75,0,0,0,0-3.55c.25.57.32-1.16.24-1.89l-.18,1.08c0-.82,0-1.54,0-2.28l.33.4c.4-3.16-.69-5.7,0-8.1-.23-.83-.17,1.72-.44,1a33.53,33.53,0,0,1,.53-3.42c.18-2-.49-1.86-.36-3.94-.12.27-.44.52-.55-1s.49-1.82.59-.87c0,.35,0,.52-.07.51,0,.46.1,1.08.23.51l-.12-.19c0-.18,0-.44.07-.73l0-.43a4,4,0,0,0,0-.58c-.12-.81-.53-1.31-.22-1.06-.56-.69-.8-.69-.67-.55a3.39,3.39,0,0,1,.68,1.14,2.6,2.6,0,0,0-1.17-1.45,2.54,2.54,0,0,0-.82-.3,3.39,3.39,0,0,0-.72,0c-.74,0-1.48,0-2.44,0,.3.07.59.21.28.2-2.81-.14-1.24.23-3.14.28-1.09-.18.38-.43-1.54-.28-1.17-.12-.24-.31.22-.41a19.82,19.82,0,0,1-4.27-.19l.93-.1a12.89,12.89,0,0,1-1.47.06l.53.23c-.54,0-1,0-1-.14-.56.16.43.4-.68.61-.72-.12-2.19.13-2.44-.19,2.27.11-.25-.31,1.67-.36a9,9,0,0,1-1.37,0c-.08,0,.08-.06.23-.08-2.17-.28-1,.35-3.25.35.29-.18-.52-.34-.89-.3.91,0,.43.29-.4.43a11,11,0,0,0-2.32.09l.86.06a6.34,6.34,0,0,1-2,.21c-.08-.14.92-.09.56-.15-1.12.31-2.52-.33-4.08-.12-.72-.12-.07-.33-.7-.41-1.75.23-1.89-.24-3.73-.05.53.23.62.18-.67.41l3-.17-1.94.35c.91,0,1.92-.15,2.47-.11-.92.19-.83.13-.39.33-1.25-.36-2.47.21-3.91,0l0-.59c-2.16-.27-3.84.3-6.65.15l.9.1c-.37.24-1.73,0-2.64.13.08-.2-.48-.27-.87-.39,0,.15-2.06,0-2.31.38l-1.26-.26c-2.27-.11-2.59.56-4.77.5.66-.22-.33-.36,1.13-.51-.73,0-1.38,0-1.39.1-.43-.13-2,.26-2.69.08a2.39,2.39,0,0,1-1.23.27c-.09,0,0-.1,0-.1s-1.28.14-.57.36c-2.24-.62-6.27,0-8.22-.49-1.59.07-3.5.13-4.94.15.09-.06,0-.1.27-.08-2-.19-1.22.56-3.48.36-1.16-.32,1.2-.17.48-.29-.32-.65-2.73.09-4.26-.29l.37,0c-1.16-.22-2.84.24-4.74.2,0,0,.09-.06,0-.1a36.4,36.4,0,0,1-5.6.53c.57-.25.84-.13.49-.39-.82,0,.24.41-1.4.49-.53-.14-1.71-.26-1.87-.54h1.55c-.8-.36-2,0-2.82-.05l.11-.16c-2.37.05-2.4.44-4.95.41l.26.12c-1.39.39-1.16-.22-2.55.07L14.72,25c-.92.09-3.21.38-4.86.45a35.49,35.49,0,0,1,4.05-.61,19.45,19.45,0,0,0-3.56.22A4.74,4.74,0,0,1,11.54,25a16.65,16.65,0,0,1-4.4.45c.16-.38-1-.43-2.41-.45L3.67,25H3.4A2.3,2.3,0,0,0,3,25a2.75,2.75,0,0,0-.71.19A3.56,3.56,0,0,0,.64,26.79a3.26,3.26,0,0,0-.08.9l0,.6c0,.4,0,.81,0,1.21,0,.8,0,1.61-.05,2.44C.51,33.6.42,35.32.44,37.19c.6-1.33,0,1.09.63.86a5,5,0,0,1,0,1.28L.69,42c-.17.62-.13-.83-.27-.75,0,1.9-.26.8-.42,2.06.22-.26.31.66.23,1.75L.51,43.5c.33,2.66-.51,2.3-.19,5l-.19-.85c.11,1.38,0,5.08.49,6.43-.07.25-.24.57-.29,0-.07,3.29.53,7.33.22,9.88L.4,63.65a5.18,5.18,0,0,1,.13,1.84c-.06,0-.14-.25-.15,0A11.27,11.27,0,0,1,.55,68l-.17-.69C.19,70.49.79,72.2.9,74.89c-.44,0-.59,2.52-.66,3.78l-.06,0C.12,82.37.54,85,.72,88.44.24,90.59.52,95.72.25,99.17c.08-.53.34.09.39.7-.09.81.3,2.24-.1,2.11v-.29c-.4.61-.3,2.28-.31,3.58l.53.21c-.77,3.4.28,8.91-.4,10.77.13.82.13,1.84.26,2.65l-.28,0c-.08,2.27-.11,3.41,0,6.22l-.2-.58a3.9,3.9,0,0,0,.41,1.78c.1.25.2.48.29.76a4.11,4.11,0,0,0,.47,1.23,2.58,2.58,0,0,0,.06.77,2.92,2.92,0,0,0,1.43.83,2.7,2.7,0,0,0,.41.08l.36,0,.52,0,2.08.08a24.85,24.85,0,0,0,4.14-.15c0,.06-.13.18-.57.2,1.3,0,5,.29,4.56-.29,0,.37,2.85,0,4.35-.13l-.23.28a9.29,9.29,0,0,1,3.06-.56c.41,0,.36.23-.19.16,1.39.14,1.08-.27,2.77-.12l-.63.18a4.75,4.75,0,0,0,2.1-.28,6.45,6.45,0,0,1,2.93.32,3.39,3.39,0,0,1,1.82-.29c.11.1-.19.16-.35.19,2.39.19,3.56-.33,5.2-.05,0,.09.14.13.28.16-1.9,0-3.43,0-3.29,0,0,.26,1.54.3.32.66a22.81,22.81,0,0,1,4.83-.5.93.93,0,0,1,.2.09l-.15,0a4.1,4.1,0,0,0,.94,0c.48,0,.78.07,1.24.08a9.16,9.16,0,0,0,2.53.12c-.07-.28.93-.23,0-.47.12,0-.15,0-.66,0a2.5,2.5,0,0,0-.32,0l.05,0-1.9,0a4.8,4.8,0,0,1,2.08-.11c.39-.18.82-.36,1.07-.45,1,.39,3.06.61,3.34.85,2.34-.16,5.51-.11,7-.64a1.5,1.5,0,0,1,1,.24,7.49,7.49,0,0,0-1,.12c1.33-.14,3.94,0,4.26-.42,1.67.16-.94.34,1.36.28l-.31.11c4.52.59,7.36-.94,12.37-.18a1.62,1.62,0,0,1-.59-.13c5.72.33,11.79-.32,17.44.21a7.09,7.09,0,0,0,2.76-.31l.34.31,1.68-.35c2.37-.26,4.11.74,7.12.26l-.39-.21c1.08,0,3.42-.12,3.24.12a1.06,1.06,0,0,1,.77-.11l0,.16,2.65-.27c2.06.11-.32.63,2.68.66,1.11-.06,3.17-.46,2.76-.57s-1.15-.1-1.19-.26l1-.08c.19-.46,1-.94-1.53-1.27l-1.75.29-.56-.23h1.47a3.65,3.65,0,0,0-2,.1,1.51,1.51,0,0,0-.74-.25l-1.71.45c-.21-.18.77-.36-.38-.46-.8.2.77.41-.56.54-.83-.21-.59-.38-1.57-.2-.14-.12.07-.2.46-.25a16.3,16.3,0,0,0-2.76.31c-.87-.26-2.94.07-2.86-.38a10.54,10.54,0,0,1-2.33.37c1.46-.53-3,0-2.62-.6-1.08.48-3.91.21-5.83.48a1,1,0,0,1,.49-.09,14.58,14.58,0,0,1-2.09-.28c-.14.4-1.82.49-2.72.73-1.33-.38.8-.46.38-.83.07.32-2.29.32-1.84.59-1-.24-.88-.12-1.4-.44-.18.49-.94.08-1.78.38-1.46-.24-.38-.46-2-.31C73.67,127.41,75.1,127.24,75.1,127.24Zm-38.27.84h0l.79,0Zm-3.22,0H35c.11.1,0,.2-.33.19C34.85,128.23,34.09,128.17,33.61,128.09ZM40.42,130c-.51,0-.68,0-.75-.08l.89,0,.06,0A.64.64,0,0,1,40.42,130Z"/><path class="cls-2" d="M41.33,129.67l.21,0-.3-.07-.18.09Z"/><path class="cls-2" d="M113,65.91v-.07a.54.54,0,0,1,0,.15A.29.29,0,0,1,113,65.91Z"/><polygon class="cls-2" points="2.9 115.64 2.83 115.65 2.89 115.93 2.9 115.64"/><path class="cls-2" d="M112.07,83.63a.61.61,0,0,0-.07.23A.77.77,0,0,0,112.07,83.63Z"/><path class="cls-2" d="M112,91.28l-.1,1.08C112,91.89,112,91.55,112,91.28Z"/><path class="cls-2" d="M111.87,97.16a.36.36,0,0,0,.12.11h0Z"/><path class="cls-2" d="M89.67,26.88h-.23C88.91,26.94,89.27,26.92,89.67,26.88Z"/><path class="cls-2" d="M112.2,31.46c-.06-.3-.11-.59-.14-.89C112,31.06,112,31.45,112.2,31.46Z"/><path class="cls-2" d="M58.58,27.22h0Z"/><path class="cls-2" d="M112.07,29.27a5.68,5.68,0,0,0,0,1.3A9.4,9.4,0,0,0,112.07,29.27Z"/><path class="cls-2" d="M111.74,122.66v.28s0,0,0,0Z"/><path class="cls-2" d="M111.77,123l0,.32A.64.64,0,0,0,111.77,123Z"/><path class="cls-2" d="M111.88,124l-.07-.66A1.67,1.67,0,0,0,111.88,124Z"/><path class="cls-2" d="M111.87,114.87l-.1-.09A.13.13,0,0,0,111.87,114.87Z"/><path class="cls-2" d="M111.84,112.5a15.56,15.56,0,0,0-.15,2.21l.08.07C111.62,114.41,112,113,111.84,112.5Z"/><path class="cls-2" d="M113.1,102.62l-.08,2c.11-.35.25-.81.28.1C113.62,102.21,113.06,105.22,113.1,102.62Z"/><path class="cls-2" d="M113.26,96.48c0,1.06.16,0,.22,0C113.38,95.84,113.35,95.68,113.26,96.48Z"/><path class="cls-2" d="M113.26,52l.26.11C113.48,51.33,113.42,52.14,113.26,52Z"/><polygon class="cls-2" points="111.94 43.55 111.78 44.34 112.01 44.72 111.94 43.55"/><polygon class="cls-2" points="113.76 38.53 113.8 38.89 113.7 37.52 113.76 38.53"/><path class="cls-2" d="M49.94,24.75l.25.31C50.74,25,50.86,24.65,49.94,24.75Z"/><path class="cls-2" d="M17.72,25.07A3.48,3.48,0,0,0,15.9,25C16.63,25,17.35,25.11,17.72,25.07Z"/><polygon class="cls-2" points="0.37 107.1 0.27 106.45 0.36 107.67 0.37 107.1"/><rect class="cls-1" x="11.12" y="39.91" width="92" height="11.89"/><path class="cls-3" d="M102.45,51.8c.09.11.28.05.25-.26l-.34-.21Z"/><path class="cls-3" d="M103.07,49.77c-.17-.35-.45-.76-.75-.53.32.35.18.43.56.81,0,.3-.1.53-.23.48.09.1-.07.46.14.63a1.48,1.48,0,0,0,.06-1.41C102.92,49.64,103,49.75,103.07,49.77Z"/><path class="cls-3" d="M83.51,39.45l.19,0A.53.53,0,0,0,83.51,39.45Z"/><path class="cls-3" d="M65.26,39.27c.13,0,.19,0,.2-.07S65.22,39.24,65.26,39.27Z"/><path class="cls-3" d="M62.14,38.9l.18,0A.21.21,0,0,0,62.14,38.9Z"/><path class="cls-3" d="M83.51,39.45,83,39.34C83,39.45,83.27,39.43,83.51,39.45Z"/><path class="cls-3" d="M102.27,45.71a.72.72,0,0,0,.08.26l0-.25Z"/><path class="cls-3" d="M91.56,39.18h.15l.12-.13Z"/><path class="cls-3" d="M97.73,39.13c-.13,0-.18.27-.24.39a.47.47,0,0,1,.31-.19A.4.4,0,0,0,97.73,39.13Z"/><path class="cls-3" d="M103.41,44.32l0,.18Z"/><path class="cls-3" d="M87.14,39.12a.17.17,0,0,0-.06-.1A.14.14,0,0,0,87.14,39.12Z"/><path class="cls-3" d="M96,50.48s0,0,0,.05S96,50.48,96,50.48Z"/><path class="cls-3" d="M103.12,51.87l-.1,0a.77.77,0,0,0,0,.15Z"/><path class="cls-3" d="M56.43,38.54h0C56.61,38.52,56.52,38.52,56.43,38.54Z"/><path class="cls-3" d="M10,47c.26-.59.33,1,.61.08C10.45,47.12,10.12,46.22,10,47Z"/><path class="cls-3" d="M102.3,45.55v-.26A1.1,1.1,0,0,0,102.3,45.55Z"/><path class="cls-3" d="M10.56,47h0l0-.1Z"/><path class="cls-3" d="M43.29,38.71a.37.37,0,0,0,.13.12S43.39,38.77,43.29,38.71Z"/><path class="cls-3" d="M53.08,39.11l-.24,0A.8.8,0,0,0,53.08,39.11Z"/><path class="cls-3" d="M38.21,39.11a.71.71,0,0,0-.36,0l0,0A.35.35,0,0,1,38.21,39.11Z"/><path class="cls-3" d="M32.91,39.11l.1.06.17,0Z"/><path class="cls-3" d="M79.88,50.61a1,1,0,0,1,.24.26C80,50.67,80.82,50.6,79.88,50.61Z"/><path class="cls-3" d="M102.42,45.7a.19.19,0,0,1-.12-.15l0,.17S102.4,45.74,102.42,45.7Z"/><path class="cls-3" d="M38,41.33l-.84,0A7,7,0,0,0,38,41.33Z"/><path class="cls-3" d="M41.91,50.65l.2,0A.32.32,0,0,0,41.91,50.65Z"/><path class="cls-3" d="M34.66,41.33a1.44,1.44,0,0,0-.48-.2l-.1.07Z"/><path class="cls-3" d="M80.12,50.87Z"/><path class="cls-3" d="M85.66,50.2c-.8,0-.38.36-.55.58-1,.1-.44-.28-.76-.47-.6.1-1.06.44-1.5.43,0-.06-.12-.09,0-.16-.63.29-1.88,0-2.61.38a.22.22,0,0,1-.1-.09.74.74,0,0,1,.12.51c-.36,0-.67.23-.81,0,.22,0,.24-.09.35-.17l-.38.11c-.34-.35.51-.12.51-.38a8.51,8.51,0,0,1-2.15.3c-.12-.34,1.32-.11.57-.41l.87.13c-.67-.54.53,0-.09-.54-1.14-.1-1.28.17-2.42.07-.26.19.09.28-.17.47-1.62.34-1.28-.85-2.47-.4-.31.23-.43.66-1.28.43l.29-.38c-1.11,0-.63.55-1.79.29.2-.15.87-.13.7-.17-.75-.31-.53.21-1.11.21l-.12-.34c-1.18.06-2.48.3-3.79.37.07-.11.3-.21,0-.32a23.49,23.49,0,0,1-5.11-.24l-.6.29c-.14,0-.27-.13-.11-.19-.62-.11,0,.19-.33.31s-.47-.17-.25-.26a10.7,10.7,0,0,1-4.26.22l.22-.09c-.89-.12-1,.61-1.84.33l.16,0c-2-.13-4.1.14-5.59-.3-.28.42-1.92-.19-2,.4a9.34,9.34,0,0,0-2.36-.59c-.42,0-.62.36-1.14.42v-.3l-.7.32-.38-.37-.48.08c.19,0,.41.14.38.23a2.66,2.66,0,0,1-1.87-.38l-1.79.27c0-.13.34-.17.58-.25-1,.31-.18-.32-1,0,.12.07-.07.19-.09.25a5.47,5.47,0,0,0-2.16-.11l.14-.21c-1.33-.06-2.8.1-4.3.1.54.09.42.46,0,.5l-.18-.33c-.28.2.46.13-.12.37-.56,0-.37-.37-.05-.47l-.68.11c0-.1.12-.15.16-.27-.28.2-1.17-.33-1.57,0l0-.1c-1.49,0-2.17.11-3.38.13,0,.28-.5.22-.86.45a21.67,21.67,0,0,0-3-.29c-.76.14-.22.24-.56.4-.06-.25-1.13-.23-.58-.41a25.17,25.17,0,0,0-3.28.26c.18.1.38.15.28.23-.3.05-.68-.1-.64-.23l.08,0a8.68,8.68,0,0,1-3-.16,11.48,11.48,0,0,0-1.46-.19h-.34c-.08,0,0,0-.09,0l-.18.12,0,0-.36.15a.53.53,0,0,1-.13-.16c0-.17.07-.13.13-.12s.14,0,.22-.11c-.21.11-.2-.85-.16-1.41a6.83,6.83,0,0,0-.06-1.85c.75-1-.06-3.69.43-5.1l-.18.08a.39.39,0,0,1,0-.39l.09-.14.06,0c-.07,0-.11,0-.14,0s-.07.1-.12,0a2.34,2.34,0,0,1-.05-.47l6.74.47c1.15,0,.65-.92,2.11-.5l-.42.33c2.33-.39,4.76,0,7-.32-.14.08-.14.18-.36.18.48.24,1.78,0,1.79-.19.35,0,.08.18.3.28.48.14,1.21-.31,1.46-.07,0,0-.13.08-.22.1.31-.12,1.47,0,1.16-.25.86.13,1.64-.12,2.32,0,.45-.31,1.47.15,1.61-.29-.06.45,1.5.37,2,.15-.18.14.47.15.26.34.61,0,1.18-.09,1.07-.33,1.14.54,2.28-.43,2.92.26,1.84-.24,3.53-.41,5.18-.51-.06.45-1.82,0-1.75.52a18.45,18.45,0,0,1,4-.47c.4.06-.23.2-.37.27,1.57-.18,3,0,4.42-.2,0,0-.16.09-.3.12.27,0,.64.07.61-.14l-.27.06c-.44-.3,1.09-.62,1.14-.78-.47.59,1.37.15.63.89.18,0,.41-.14.37-.27.26,0,.35.12.08.27,1-.11.63-.33,1.52-.32,0,.1-.18.14-.28.25a3,3,0,0,1,1.66-.3c-.05.06,0,.14-.18.14,1.29,0,2.2-.52,3.61-.33-.42.43.48.14.56.51l.76-.11-.31-.18A10,10,0,0,1,65,40.54l-.49.15,1.25-.07-.71-.14c.68-.19-.07-.47.82-.37-.18,0,.66,0,1,.22h0a2,2,0,0,1,1.16-.16c.13.12-.1.42,0,.5.33-.32,1.56-.09,2-.42-.14.08-.15.27-.1.31l.27-.25c.31.08.35.12.3.27.93,0-.29-.47.81-.27-.09,0,0,.06-.22.1,1.1.11,2.14-.16,3.15,0,.3.37-.89.09-.54.4,1.47-.06,3-.45,4.46-.36l-.27,0c.2-.53,1.06.26,1.78,0-.18,0-.23.3-.18.24a19.39,19.39,0,0,0,3.46-.3l-.18.14c.57.12,1.5.07,2.12.13.19-.14.54-.11.33-.31,1.91.77,3.64-.42,5.33.23-.2,0-.48.12-.32.12l1.44-.13c-.11-.23-.19-.14-.49-.32a1.89,1.89,0,0,1,1-.24c-.65.15,0,.37.28.5,0-.07,0-.15,0-.22.75.41.13-.47,1.15-.19l0,.12A4.93,4.93,0,0,1,94.68,40c.17.27-.41.13-.44.35.58,0,1.15-.51,1.68-.24-.25.07-.61.07-.85.15a1.88,1.88,0,0,0,1.06.28h0l1,.14-.25-.09c.73-.69,1.49-.12,2.47-.58-1,.43-.16.25-.23.55.25.09.63.18.52.26.47-.24.78.2,1.43-.16,0,.1.5,0,.4.25.22,0,.14-.08.12-.12s-.26-.11-.22-.17a1.39,1.39,0,0,1,1.06,0,2.2,2.2,0,0,0,0,.49,1.73,1.73,0,0,0,.15.51c.19,1.15.52,1.37.68,2.44-.15.36-.35-.3-.35-.3a3.21,3.21,0,0,0,0,1.57c-.08-.11-.16,0-.27.18,0,.44.36.29.22.87a1.46,1.46,0,0,1-.4-.44c.09.52.28,1,.36,1.57-.17.15-.25-.32-.36-.51.07.61.15,1.57.42,1.76l.09-.39c0,.22-.23.11-.28,0-.21-.52.1-.75.2-.78l.06.38c.57-.39-.09-1.54-.06-2.31l.42.32-.35-.79c.11-.17.34-.28.4.1.21-.55-.15-.49.08-1,0,0,.06,0,.08,0l-.13-.54c.09.11.3-.09.24.24.24-1-.32-1.56,0-1.93l0,.09c-.14-1.32-.3-.21-.66-1.07a5.25,5.25,0,0,0,.75-1.13l-.3.07a2.14,2.14,0,0,1,.06-.41s0,0,0-.09c-.8.2,0,.13-.54.33a3,3,0,0,0-1.21-.1c-.42,0-.73,0-.81-.26-.24.23.64.18-.08.34-.2-.52-.82.09-1.43-.15.19-.27.76-.13.15-.37-.37.46-1.19-.1-1.7,0,0,.36-1.12.15-2,.27a17.42,17.42,0,0,0-2.43-.33l0-.06c-.15.37-1,.3-1.58.37,0-.22.13-.3.45-.4h-.56a1.14,1.14,0,0,1-.68.22l.14-.27a10.29,10.29,0,0,1-2.49.14c-.06.25.77.71-.26.88,0-.14-.08-.37.19-.43a1,1,0,0,1-.49.06l.41-.24c-.44-.1-.23.2-.58.18,0-.2-.27-.15-.21-.3s.3.08.44,0a2.14,2.14,0,0,1-1-.3c0,.11,0,.27-.29.29-.76,0-.26-.24-.7-.34-.19.14-.67,0-.68.29-.22,0-.26-.14-.35-.22-.39.13-1.83,0-1.39.35l.1,0h-.06c-1.28.29-2.66-.17-3.94,0v-.1a13.53,13.53,0,0,0-2.24.28c-.22,0-.53-.18-.43-.3a3.13,3.13,0,0,1-1.48,0c.58-.17-.21-.15.59-.12a2.84,2.84,0,0,0-1.73,0c.27-.25-.57-.32-.93-.24l.53.18a6.8,6.8,0,0,1-1.11,0l.19-.33c-1.54-.4-2.78.69-4,0-.41.23.84.17.47.44a8.93,8.93,0,0,1-1.67-.53c-1-.18-.91.49-1.92.36.13.12.25.44-.51.55s-.87-.5-.43-.59c.17,0,.26,0,.25.07.23-.05.53-.1.25-.23l-.09.12c-.36-.12-1.33-.11-1.1-.3-.54.11-.23.19.16.26-.91-.18-1.42,0-2.36-.12.15.06.29.2.14.2-1.38-.15-.61.22-1.54.28-.53-.19.19-.44-.75-.28-.57-.13-.12-.32.11-.42a4.84,4.84,0,0,1-2.09-.19l.45-.09a3.64,3.64,0,0,1-.71,0l.26.24c-.27,0-.49,0-.49-.14-.27.15.21.39-.33.6-.35-.12-1.07.13-1.19-.18,1.1.11-.13-.32.81-.37a1.87,1.87,0,0,1-.67,0s0-.07.11-.09c-1.06-.28-.48.36-1.58.35.14-.18-.26-.34-.44-.3.45,0,.21.3-.19.43-.71-.13-.77.11-1.14.09l.42.07c-.14.17-.49.15-1,.21-.05-.14.44-.1.27-.16-.55.31-1.24-.32-2-.11-.35-.12,0-.34-.34-.42-.85.23-.92-.24-1.82-.05.26.24.3.18-.33.41l1.48-.17-1,.35c.44,0,.94-.15,1.2-.11-.45.2-.4.14-.19.34-.61-.36-1.2.2-1.91,0l0-.59c-1.05-.26-1.87.3-3.25.16l.44.1c-.18.23-.84,0-1.29.13,0-.2-.24-.27-.43-.4,0,.15-1,0-1.13.39L41.68,39c-1.11-.11-1.26.56-2.33.49.32-.21-.16-.35.55-.51-.36,0-.68,0-.68.1-.21-.12-1,.27-1.32.08-.15.09-.19.29-.59.28-.05,0,0-.1,0-.1s-.63.13-.28.35c-1.1-.62-3.06.05-4-.48-.77.06-1.71.13-2.42.14.05-.06,0-.1.14-.08-1-.18-.6.57-1.7.36-.57-.31.58-.17.23-.29-.15-.65-1.34.09-2.08-.29l.18,0c-.57-.22-1.39.25-2.32.2,0,0,.05-.06,0-.1a9.12,9.12,0,0,1-2.74.54c.28-.26.41-.14.24-.4-.4,0,.12.42-.69.49-.26-.14-.83-.26-.91-.54h.76c-.39-.36-1,0-1.38,0l.05-.16c-1.16.05-1.17.45-2.42.42l.13.12c-.68.39-.57-.22-1.25.07l-.2-.4a22,22,0,0,1-2.38.46,10.21,10.21,0,0,1,2-.62,4.56,4.56,0,0,0-1.74.23,1.17,1.17,0,0,1,.58-.08,4.21,4.21,0,0,1-2.15.46c0-.25-.12-.36-.68-.41s-1.24,0-1.93-.08a3.85,3.85,0,0,1-.3,1.62c0,.3.05.61.07.91a5.68,5.68,0,0,1,0,.59c0,.39,0,.79,0,1.19-.06.81-.15,1.65-.13,2.57.6-.65,0,.53.63.42,0,.42,0,.59,0,.62l-.37,1.29c-.17.31-.13-.4-.27-.36-.05.93-.26.39-.42,1,.22-.12.31.33.23.86l.28-.75a1.89,1.89,0,0,1,.06.75,1,1,0,0,1-.06.25l0,.11-.05.18a5,5,0,0,0-.1,2.21l-.19-.64c0,.32,0,.78,0,1.3.8,0,1.73,0,2.55-.09.19,0,.45,0,.56,0l.29-.07a1.78,1.78,0,0,0,.48-.22c.12.07.27.24,0,.28,1.61.08,3.58-.52,4.83-.22l-.12.15c.3,0,.52-.28.89-.13,0,.06-.12.15,0,.16a3,3,0,0,1,1.2-.18L20,53c1.57.2,2.41-.41,3.72-.51,0,.44,1.23.58,1.85.65l0,.07a33.09,33.09,0,0,0,4.79-.54c1.06.48,3.56.2,5.25.47-.26-.08,0-.35.34-.39s1.1-.31,1,.1h-.15c.3.4,1.12.29,1.75.3l.11-.53c1.66.77,4.35-.28,5.26.41.4-.13.9-.13,1.3-.26l0,.28a21.4,21.4,0,0,0,3,0l-.28.2c.77,0,1-.81,1.69-.83l.22.42c1.35,0,2.72.37,4.05,0,0,.07-.06.19-.28.21.64,0,2.47.28,2.23-.3,0,.38,1.4,0,2.13-.13l-.11.28a2.6,2.6,0,0,1,1.49-.55c.21,0,.18.22-.09.15.68.15.53-.26,1.36-.12l-.31.18a1.28,1.28,0,0,0,1-.28c.44-.11,1.32.07,1.43.32a.94.94,0,0,1,.89-.28c.05.09-.1.15-.17.18,1.17.19,1.74-.32,2.54,0a.22.22,0,0,0,.14.17c-.93,0-1.68,0-1.61,0,0,.26.75.31.15.66a5.94,5.94,0,0,1,2.37-.49.26.26,0,0,1,.09.09l-.07,0a.88.88,0,0,0,.46,0,2.55,2.55,0,0,0,.61.08c.08.21.86.12,1.23.13,0-.29.46-.24,0-.47.06,0-.07,0-.32,0l-.16,0,0,0-.93,0a1.14,1.14,0,0,1,1-.11,5.21,5.21,0,0,1,.52-.45c.51.39,1.5.6,1.63.84,1.15-.16,2.7-.1,3.41-.63.33-.07.38.15.5.23a3,3,0,0,0-.51.12c.65-.13,1.92,0,2.08-.42.82.17-.46.34.66.28l-.15.11c2.21.59,3.6-.94,6-.18-.17-.05-.25-.07-.29-.13,2.8.33,5.77-.31,8.53.22.78.1.87-.13,1.35-.31l.17.3.81-.35c1.16-.25,2,.74,3.48.26l-.19-.2c.53,0,1.68-.12,1.59.11a.3.3,0,0,1,.38-.1v.15l1.3-.27c1,.12-.16.63,1.31.66.55-.06,1.55-.46,1.35-.56s-.56-.1-.58-.26l.5-.08c.09-.47.47-1-.75-1.27l-.85.28-.28-.22.72,0c-.41-.21-.67,0-1,.11a.5.5,0,0,0-.35-.25l-.84.44c-.1-.18.37-.36-.19-.46-.39.21.38.41-.27.55-.41-.22-.29-.39-.77-.21-.07-.12,0-.19.23-.25-.43.15-1.13.06-1.35.31-.43-.26-1.44.07-1.4-.37a3.12,3.12,0,0,1-1.14.36c.71-.52-1.47,0-1.28-.59-.53.47-1.91.21-2.85.47a.32.32,0,0,1,.24-.09,3.79,3.79,0,0,1-1-.27c-.07.39-.89.48-1.34.72-.64-.38.4-.46.19-.82,0,.32-1.12.32-.9.58-.5-.23-.43-.11-.68-.44-.09.49-.46.08-.87.39-.72-.25-.19-.46-1-.31C85,50.38,85.66,50.2,85.66,50.2ZM67,51.05h.39Zm-1.57,0c.19,0,.43,0,.68,0,0,.1,0,.2-.16.2C66,51.19,65.61,51.14,65.38,51.05Zm3.32,2c-.25,0-.33,0-.36-.07l.43,0,0,0A.33.33,0,0,1,68.7,53Z"/><path class="cls-3" d="M69.15,52.63l.1,0-.14-.06-.09.09Z"/><path class="cls-3" d="M83.73,39.49h0l.07,0Z"/><polygon class="cls-3" points="43.67 50.52 43.67 50.59 43.8 50.52 43.67 50.52"/><path class="cls-3" d="M92.39,40.46a.25.25,0,0,0,.12.07S92.45,40.49,92.39,40.46Z"/><path class="cls-3" d="M96.13,40.52l.53.1Z"/><path class="cls-3" d="M99,40.66a.27.27,0,0,0,.06-.12h0Z"/><path class="cls-3" d="M53.28,41h-.11C52.91,41.06,53.09,41,53.28,41Z"/><path class="cls-3" d="M66.89,40.34a3.66,3.66,0,0,1-.44.13C66.69,40.49,66.88,40.5,66.89,40.34Z"/><polygon class="cls-3" points="38.08 41.33 38.09 41.33 37.99 41.33 38.08 41.33"/><path class="cls-3" d="M65.82,40.46a1.35,1.35,0,0,0,.63,0A2.22,2.22,0,0,0,65.82,40.46Z"/><path class="cls-3" d="M102.24,48.27v.14a.05.05,0,0,1,0,0Z"/><path class="cls-3" d="M102.27,48.43l0,.15C102.31,48.51,102.31,48.45,102.27,48.43Z"/><path class="cls-3" d="M102.38,48.9l-.07-.32C102.31,48.69,102.3,48.83,102.38,48.9Z"/><path class="cls-3" d="M102.37,44.46l-.1,0A.13.13,0,0,0,102.37,44.46Z"/><path class="cls-3" d="M102.34,43.31a3.75,3.75,0,0,0-.15,1.08l.08,0C102.12,44.24,102.51,43.57,102.34,43.31Z"/><path class="cls-3" d="M101.74,39.43l1.2.08c-.13-.11-.38-.25.27-.28-.78-.16-.75-.1-.7,0S102.55,39.45,101.74,39.43Z"/><path class="cls-3" d="M98.68,39.27c.52-.05,0-.16,0-.22C98.37,39.15,98.29,39.18,98.68,39.27Z"/><path class="cls-3" d="M77,39.27,77,39C76.6,39.05,77,39.11,77,39.27Z"/><polygon class="cls-3" points="72.8 40.59 73.19 40.75 73.38 40.52 72.8 40.59"/><polygon class="cls-3" points="70.34 38.77 70.52 38.73 69.85 38.83 70.34 38.77"/><path class="cls-3" d="M33.86,38.86l.12.32C34.25,39.12,34.31,38.77,33.86,38.86Z"/><path class="cls-3" d="M18.1,39.18a.85.85,0,0,0-.88-.1A6.33,6.33,0,0,0,18.1,39.18Z"/><polygon class="cls-3" points="39.49 53.04 39.17 53.15 39.77 53.06 39.49 53.04"/><circle class="cls-1" cx="95.33" cy="14.15" r="1.89"/><path class="cls-3" d="M96.55,14.15c.09,0,.28,0,.24,0h-.24Z"/><path class="cls-3" d="M97.16,14a4.16,4.16,0,0,0-.75,0H97s-.11,0-.23,0c.08,0-.07,0,.14,0s.26-.06,0-.07Z"/><path class="cls-3" d="M96.69,12.24v0A.08.08,0,0,0,96.69,12.24Z"/><path class="cls-3" d="M95.49,11.63s0,0,0-.07A.09.09,0,0,0,95.49,11.63Z"/><path class="cls-3" d="M95.25,11.26v0S95.25,11.23,95.25,11.26Z"/><path class="cls-3" d="M96.69,12.24l0-.11C96.66,12.22,96.69,12.21,96.69,12.24Z"/><path class="cls-3" d="M96.35,14h0Z"/><path class="cls-3" d="M97.31,12.45h0l.11-.08Z"/><path class="cls-3" d="M97.64,12.82a2.94,2.94,0,0,0-.35.18l.18-.08Z"/><path class="cls-3" d="M97.45,13.67h0Z"/><path class="cls-3" d="M97.11,12.15l.06-.07Z"/><path class="cls-3" d="M95.88,14.28h0Z"/><polygon class="cls-3" points="97.29 14.15 97.3 14.16 97.46 14.16 97.29 14.15"/><path class="cls-3" d="M94.68,11h0S94.68,10.94,94.68,11Z"/><path class="cls-3" d="M92.35,14.8c.23-.1.33,0,.59-.12C92.83,14.71,92.49,14.7,92.35,14.8Z"/><path class="cls-3" d="M96.38,14h0S96.37,14,96.38,14Z"/><path class="cls-3" d="M92.94,14.68h0Z"/><path class="cls-3" d="M93.59,11.6l.08.09Z"/><path class="cls-3" d="M94.53,11.58l0,0S94.52,11.58,94.53,11.58Z"/><path class="cls-3" d="M93.49,12.19s0,0,0,0l0,0S93.45,12.16,93.49,12.19Z"/><path class="cls-3" d="M93.2,12.51l0,0v0Z"/><path class="cls-3" d="M95.86,14.61l.2.15C95.91,14.64,95.86,14.58,95.86,14.61Z"/><path class="cls-3" d="M96.5,13.93l-.12,0h0Z"/><path class="cls-3" d="M95,13.81l0,0Z"/><path class="cls-3" d="M95.12,14.87l0,0A.11.11,0,0,0,95.12,14.87Z"/><path class="cls-3" d="M95,13.84l-.16-.12.06,0Z"/><path class="cls-3" d="M96.06,14.77h0Z"/><path class="cls-3" d="M95.58,14.3l.49.3c.07.08-.24-.14-.4-.23a3.82,3.82,0,0,1,.33.26l-.13-.09c.23.18,0,0,.27.28l-.08-.05.4.32s.15.17,0,0L96.31,15l.07.08c-.27-.22-.08-.09-.27-.26.07.09.26.31.17.26-.25-.23,0-.11-.29-.3l.11.07c-.41-.35,0,0-.4-.36-.08-.05.11.14,0,.08l.32.34c.18.29-.6-.61-.31-.25.14.17.4.51.24.35l-.23-.31s.31.45.14.27a1.11,1.11,0,0,1-.09-.16c-.19-.23.12.19.1.2l-.19-.28a1.89,1.89,0,0,1,.1.36c0-.09-.09-.19-.15-.28,0,.17-.1,0-.18-.18l.08.28-.06-.18c0-.1.06.18.08.29a1.94,1.94,0,0,1-.07-.25c0,.25,0,.55-.05.24v-.09c0-.11.06.6,0,.34v-.06c-.06-.12-.14.15-.16-.29,0,.42,0-.19-.09.39,0-.29,0-.4,0-.59,0,0-.08.35-.11.41l.06-.3-.09.31.09-.36,0,.07s0,.14-.06.23,0-.22.07-.37l-.12.23.1-.23c-.13.29.11-.3,0,0l-.09.23c.06-.17,0-.18,0-.12l.1-.19c0-.05-.09.07-.11,0a3.79,3.79,0,0,1-.28.42l.18-.27c-.12.16-.06.11-.21.31a2.22,2.22,0,0,1,.26-.4l-.07.08.16-.22c-.13.16.18-.27,0,0l.06-.08s-.09.06-.12.06a2.25,2.25,0,0,1-.32.31c0-.08.19-.25.16-.25s-.19.15-.32.25a2.09,2.09,0,0,1,.31-.27s-.06,0-.25.08l-.2.14s.08-.08.19-.14l0,0c-.38.13.62-.42.12-.22h0l-.27.06s.18-.05.33-.12c-.43.1,0-.06-.24,0,.74-.16-.07-.07.41-.15h-.18c-.17,0,.11,0,.15,0l-.26,0c-.22-.08.27-.14.43-.1s-.89-.25-.47-.17l.31.11c-.36-.17,0,0-.25-.24l.15.09c.22.11,0,0-.14-.12a1.9,1.9,0,0,1,.24.14c.12.07-.25-.19,0-.06l.07.06c-.09-.07,0,0-.19-.16.12.06-.07-.11.06,0-.22-.21.14.08-.18-.22.33.31.28.23.14.07l.23.24s0-.08-.2-.25c.36.39-.22-.38.21.16a1.26,1.26,0,0,1-.17-.5c.21.4,0,.06.22.47-.08-.17-.22-.53-.13-.45a1.45,1.45,0,0,1,.1.25c0-.19.07,0,0-.23l0,.12s0,.06,0-.14v.06a4,4,0,0,1-.17-.76c.13.57.09.13.24.85,0,0,0-.13-.05-.26a2.57,2.57,0,0,1,.06.27c0-.12,0-.33,0-.33l0,.25c0-.19,0-.39,0-.31s0,.14,0,.14,0-.52.1-.34c0,.43,0,.14,0,.52l0-.12V13s.06-.26.07-.14l0,.16,0-.07v-.14c0-.2,0-.48.06-.37s0,0,0,.23h0c0-.12.06-.24.07-.14L95.5,13c.06-.3.07-.08.15-.4l-.07.31.06-.25a1.23,1.23,0,0,1,0,.28s.09-.47.09-.26l0,.1c0,.11.13-.14.14,0-.12.36-.07.07-.16.38.06,0,.27-.39.29-.27v0c.24-.47-.08.26.06,0a1.58,1.58,0,0,0-.12.2c0,.09.12-.08.27-.18l-.08.11c0,.11,0,.09,0,.15.08-.1.08-.07.2-.23-.45.63.41-.2,0,.32,0,0-.1.06-.1.07l.13,0a2.54,2.54,0,0,0,.23-.22c.1-.09.2-.14.21-.12a1.71,1.71,0,0,0-.37.33l.17-.14c-.3.28.37-.29.18-.07l-.1.07c.06,0,.2-.1.19-.06-.21.16-.11.05-.29.18,0,0,.45-.24.24-.07s-.08,0-.15,0c-.24.19-.18.15-.21.19h0l-.1.1.06-.05c.62-.33.15,0,.57-.19a2.26,2.26,0,0,0-.5.25l-.22.14c.22-.1-.17.1.16,0a.9.9,0,0,1-.22.11,1.14,1.14,0,0,0,.26-.12c.33-.09-.35.21.1.1a4.11,4.11,0,0,1,.69-.06,1.57,1.57,0,0,1-.35.06c-.14.07-.1.07,0,.08a1.38,1.38,0,0,0-.26.06s.35-.05.21,0l-.39,0h.37a3,3,0,0,1-.37,0,1.43,1.43,0,0,0,.43,0L97,14a1.47,1.47,0,0,1-.28,0c-.21,0,.09,0,.19,0h.06c.57-.1-.1-.07-.07-.1l.41-.06-.35,0a1.35,1.35,0,0,1,.4-.07c.2-.08-.15,0,.07-.08h-.06c.08,0,.28-.08.23,0,.21-.13-.33,0,0-.13h0c-.16-.05-.29.08-.65.13l.7-.28-.29.09s0,0,.14-.07a2.42,2.42,0,0,0-.32.1c.25-.14-.16-.05.28-.25-.22.08-.14.11-.31.13.47-.23-.1,0,.1-.14s.13,0,.33-.16c-.42.19,0-.12,0-.12-.32.18-.17,0-.3,0,.1-.07.1-.21.16-.34l0,0c-.3.21-.27.12-.36.14a1.42,1.42,0,0,1,.33-.23l0,0a.6.6,0,0,1-.2.1l.21-.17s-.31.13-.23-.05a4.66,4.66,0,0,1-.63.63c.1-.1.26-.28.31-.31s-.09.07-.06,0l.18-.15c0-.09-.15.13-.15.1a2.84,2.84,0,0,0,.19-.23s0,.08,0,0a.86.86,0,0,1,.15-.28,1,1,0,0,1-.21.21c-.05,0,.14-.2.18-.3-.1.1,0,0-.22.19,0,0,.07-.12.11-.18s-.14-.06-.29.21v0h0c-.23.19-.06-.24-.21-.18l0-.08c-.1.07-.14,0-.27.17a1.37,1.37,0,0,1,.1-.28c-.07.05-.11.15-.11,0s0-.15.09-.1c0-.1,0-.26-.13,0,.11-.23.06-.32,0-.26l0,.19s-.06,0-.08,0l.12-.31c0-.43-.39.6-.34-.07-.08.22,0,.17-.05.43,0-.05,0-.53,0-.54-.07-.19-.15.47-.21.34a1.64,1.64,0,0,1-.08.54,1.48,1.48,0,0,1,0-.59s0,0,0,.07a.3.3,0,0,0,0-.22v.11c0-.12-.11-.11-.08-.3a.27.27,0,0,0,0,.25c-.07-.17-.12,0-.2-.12a.54.54,0,0,1,0,.2c-.12-.14,0,.23-.11.29,0-.18,0-.44-.07-.28a.73.73,0,0,1,0-.41c-.06.23-.16-.13-.22-.17l0-.1c0,.06,0,.06-.06.06l.06.24s-.06,0-.07-.14c0,.16.08.39.07.61,0-.12-.06.14-.13-.17.11.09-.08-.31,0-.37s0,0-.06,0a.25.25,0,0,1,0-.08c-.16-.25,0,.36-.07.37,0-.17-.1-.32-.11-.27s.09.28.09.42c-.09-.12,0,.11-.06.1l0,.06c0,.17,0,.15,0,.22,0-.13,0-.1,0-.15.06.3-.2-.28-.18-.06-.08-.1-.13-.31-.19-.37,0,.24-.17-.19-.17,0a.84.84,0,0,1,.15.38l0-.2.07.35s0-.17,0-.14a.69.69,0,0,0,.12.31c-.19-.31,0,.23-.14,0L94,11.5c-.21-.19,0,.34-.17.27l.08.07c.11.21,0,.06,0,.16a1.87,1.87,0,0,0-.24-.31c.08.12-.08.05.14.37l-.2-.18c-.14,0,.27.51.17.5-.12-.18-.24-.25-.29-.41,0,0-.07,0,0,.11-.1-.08.12.25,0,.13,0,.07.19.22.16.23l-.07-.07c.07.07.06.13.23.27-.49-.37-.1.17-.55-.11a.5.5,0,0,1,0,.24l-.06,0c-.2,0,.45.34.24.3s-.13-.13-.24-.17c-.57-.32,0,.13-.34,0l0,0c-.21-.06.17.22.1.26l-.09,0a1.48,1.48,0,0,1,.42.38,1.58,1.58,0,0,0-.36-.14s.39.13.44.2c-.14,0-.27,0-.53-.1v-.06c-.35-.08,0,.08-.08.09l-.15-.05c0,.12.41.21.36.29l.12,0c.37.12-.23,0,0,.09l-.39,0c.09.06.36.18.43.23a1.78,1.78,0,0,1-.59-.22s0,.13.2.17c0,0-.13-.05-.07-.05.3.08.45.13.44.19-.76,0-.2.16-.79.22.29.12-.1.29,0,.46.57-.16,0,0,.62-.08,0,0,0,0,0,0l-.33.19c-.17.07-.14,0-.27,0s-.25.1-.39.21c.21-.07.31-.06.25,0l.25-.15c.34,0-.46.26-.11.28l-.2,0c.13,0,.09.25.57.1-.06,0-.21.12-.26.11,0,.19.61,0,.41.29l-.13.07s.25-.12.15,0-.13.07-.13.09.26-.1.21,0L92.8,16c-.06.24.46-.08.6-.08-.32.3-.35.48-.35.58l0,0c.1.17.47-.06.69-.12-.21.44.14.34.16.64a1,1,0,0,1,.2-.33c0,.1.22-.23,0,.13h0c-.14.37,0,.31,0,.34l.2-.49c-.12.78.43-.15.33.53.06-.12.11-.11.17-.24l-.06.28c.1.09.15.14.29.08l0,.2c.08,0,.16-.81.21-.82v.42c.12,0,.27.36.37,0a.64.64,0,0,1,0,.21c.05,0,.27.25.17-.32.05.38.13,0,.15-.16l0,.28a1.62,1.62,0,0,1,0-.57s.07.21,0,.15c.09.13,0-.26.07-.14l0,.18c.06,0,0-.08,0-.29s.11,0,.21.27c0-.15-.09-.35,0-.3a1.18,1.18,0,0,1,.06.18c.16.14,0-.35.16-.13a1.13,1.13,0,0,0,.09.15c-.08,0-.14,0-.14,0a2.64,2.64,0,0,1,.27.6c0-.2-.12-.62,0-.54l0,.07v0s0,0,0-.05.07.05.09,0c.11.18.13.06.16,0-.15-.24-.09-.22-.25-.4,0,0,0,0,0,.05s0,0,0,0v0a.34.34,0,0,1-.06.06c0-.14-.09-.26,0-.14L96.48,16c.24.32.43.45.58.64,0-.19.14-.23-.17-.67,0-.07.12.09.18.15s0,.06.05.12c-.05-.14.09-.15-.16-.42.16.08.21.27.23.16l.07.09c.27.14.16-.09,0-.28s-.24-.35.12-.21l-.12-.05c.41,0-.06-.49.49-.48.12,0-.1-.11-.25-.19l.29.08-.32-.16c-.23-.13.76,0,.31-.19l-.2,0s-.11-.13.13-.1c0,0-.21,0-.11,0l.16,0-.26-.12c.12-.06.63.06.66-.06a1.59,1.59,0,0,0-.56-.12s-.1,0-.26,0l-.08,0c-.46,0-.94,0-1.27,0l.29,0h-.23v0c-.22,0,0,0,.1,0h-.25l.45.06-.47,0a4.84,4.84,0,0,1,.54.07c-.21,0-.38,0-.2,0l-.25,0a1.88,1.88,0,0,0,.3.08c-.26,0,.06.06-.37,0a1.83,1.83,0,0,1,.35.11c-.51-.15,0,0-.58-.14.45.15.19.09.43.21l-.09,0a1.38,1.38,0,0,1-.25-.08,4.15,4.15,0,0,1,.64.32c-.35-.14-.41-.21-.74-.35.29.13.27.15.51.27l-.39-.19c.43.23.07,0,.33.2-.23-.1-.41-.22-.29-.13Zm.27.86h0v0Zm0,0h0l.08.18C95.88,15.31,95.84,15.26,95.8,15.19Zm1.09,1.63s0,0-.07-.05a.06.06,0,0,0,0-.05v0Z"/><path class="cls-3" d="M96.74,16.48v0l0-.05,0,.08Z"/><path class="cls-3" d="M96.68,12.28h0l0,0Z"/><polygon class="cls-3" points="95.19 14.74 95.17 14.81 95.19 14.75 95.19 14.74"/><path class="cls-3" d="M96.37,13.31l-.06,0Z"/><path class="cls-3" d="M96.4,13.46l-.07.07A.22.22,0,0,0,96.4,13.46Z"/><path class="cls-3" d="M96.34,13.62l.1,0h0Z"/><path class="cls-3" d="M95.09,13.38h0C95.1,13.45,95.1,13.42,95.09,13.38Z"/><path class="cls-3" d="M95.5,12.7l0,.13S95.48,12.86,95.5,12.7Z"/><polygon class="cls-3" points="95.01 13.81 95 13.81 95 13.81 95.01 13.81"/><path class="cls-3" d="M95.44,12.82c0,.06,0,0,0,0S95.45,12.78,95.44,12.82Z"/><path class="cls-3" d="M96.33,14h0Z"/><path class="cls-3" d="M96.37,14.05h0S96.4,14,96.37,14.05Z"/><path class="cls-3" d="M96.47,14.05h0Z"/><path class="cls-3" d="M96.44,13.9l-.1,0Z"/><path class="cls-3" d="M96.4,13.87s-.21.07-.14.07l.08,0C96.19,14,96.57,13.84,96.4,13.87Z"/><path class="cls-3" d="M97.51,13.22l-.05.1c.1-.05.22-.12.26-.1C98,13,97.5,13.33,97.51,13.22Z"/><path class="cls-3" d="M97.55,13c.07,0,.14-.07.2-.1A.3.3,0,0,0,97.55,13Z"/><path class="cls-3" d="M96.36,11.84l.11-.23S96.43,11.7,96.36,11.84Z"/><polygon class="cls-3" points="95.68 13 95.64 13.15 95.72 12.93 95.68 13"/><polygon class="cls-3" points="95.99 11.2 96.01 11.16 95.93 11.24 95.99 11.2"/><path class="cls-3" d="M93.06,12.29l.25.19C93.28,12.43,93,12.19,93.06,12.29Z"/><path class="cls-3" d="M92.77,13.6c-.16,0-.27,0-.12.05S92.8,13.63,92.77,13.6Z"/><polygon class="cls-3" points="94.24 17.09 94.18 17.18 94.26 17.11 94.24 17.09"/><circle class="cls-1" cx="100.07" cy="14.15" r="1.89"/><path class="cls-3" d="M101.29,14.15c.09,0,.28,0,.24,0h-.24Z"/><path class="cls-3" d="M101.9,14a4.18,4.18,0,0,0-.75,0h.57s-.11,0-.23,0c.09,0-.07,0,.14,0s.26-.06.05-.07Z"/><path class="cls-3" d="M101.43,12.24v0A.08.08,0,0,0,101.43,12.24Z"/><path class="cls-3" d="M100.24,11.63s0,0,0-.07A.14.14,0,0,0,100.24,11.63Z"/><path class="cls-3" d="M100,11.26l0,0S100,11.23,100,11.26Z"/><path class="cls-3" d="M101.43,12.24l0-.11C101.4,12.22,101.43,12.21,101.43,12.24Z"/><path class="cls-3" d="M101.09,14h0Z"/><path class="cls-3" d="M102.06,12.45h0l.11-.08Z"/><path class="cls-3" d="M102.38,12.82A2.94,2.94,0,0,0,102,13l.18-.08Z"/><path class="cls-3" d="M102.19,13.67h0Z"/><path class="cls-3" d="M101.85,12.15l.07-.07Z"/><path class="cls-3" d="M100.62,14.28h0Z"/><polygon class="cls-3" points="102.03 14.15 102.04 14.16 102.2 14.16 102.03 14.15"/><path class="cls-3" d="M99.42,11h0S99.43,10.94,99.42,11Z"/><path class="cls-3" d="M97.09,14.8c.23-.1.33,0,.59-.12C97.57,14.71,97.23,14.7,97.09,14.8Z"/><path class="cls-3" d="M101.12,14h0S101.11,14,101.12,14Z"/><path class="cls-3" d="M97.68,14.68h0Z"/><path class="cls-3" d="M98.33,11.6l.08.09Z"/><path class="cls-3" d="M99.27,11.58l0,0Z"/><path class="cls-3" d="M98.23,12.19s0,0,0,0l0,0S98.19,12.16,98.23,12.19Z"/><path class="cls-3" d="M97.94,12.51l0,0v0Z"/><path class="cls-3" d="M100.61,14.61l.19.15C100.65,14.64,100.61,14.58,100.61,14.61Z"/><path class="cls-3" d="M101.24,13.93l-.12,0h0Z"/><path class="cls-3" d="M99.74,13.81l0,0Z"/><path class="cls-3" d="M99.86,14.87l0,0Z"/><path class="cls-3" d="M99.71,13.84l-.15-.12,0,0Z"/><path class="cls-3" d="M100.81,14.77h0Z"/><path class="cls-3" d="M100.32,14.3l.49.3c.07.08-.24-.14-.4-.23a2.68,2.68,0,0,1,.33.26l-.13-.09c.23.18,0,0,.27.28l-.07-.05.39.32s.15.17,0,0a.59.59,0,0,0-.12-.12l.07.08c-.27-.22-.08-.09-.27-.26.07.09.26.31.17.26-.25-.23,0-.11-.29-.3l.11.07c-.41-.35,0,0-.4-.36-.08-.05.12.14,0,.08l.32.34c.19.29-.6-.61-.31-.25.14.17.4.51.24.35l-.23-.31s.32.45.14.27-.06-.12-.09-.16c-.19-.23.12.19.1.2l-.19-.28a1.89,1.89,0,0,1,.1.36c0-.09-.09-.19-.15-.28,0,.17-.09,0-.18-.18l.08.28s0-.13,0-.18,0,.18.08.29a.87.87,0,0,1-.08-.25c.06.25,0,.55,0,.24v-.09c0-.11.06.6,0,.34v-.06c-.07-.12-.15.15-.17-.29,0,.42,0-.19-.09.39,0-.29,0-.4,0-.59,0,0-.08.35-.11.41l.07-.3-.1.31.09-.36,0,.07s0,.14,0,.23,0-.22.06-.37a2.53,2.53,0,0,1-.12.23l.1-.23c-.13.29.11-.3,0,0l-.09.23c.06-.17,0-.18,0-.12l.1-.19c0-.05-.09.07-.11,0a2.76,2.76,0,0,1-.28.42l.18-.27c-.12.16-.06.11-.21.31a2.34,2.34,0,0,1,.27-.4l-.08.08.16-.22c-.12.16.18-.27,0,0l.06-.08s-.1.06-.12.06a2.92,2.92,0,0,1-.33.31c0-.08.19-.25.16-.25s-.19.15-.32.25a2.08,2.08,0,0,1,.32-.27c-.05,0-.07,0-.26.08l-.2.14s.08-.08.19-.14l0,0c-.38.13.62-.42.13-.22h0l-.27.06s.18-.05.33-.12c-.42.1,0-.06-.24,0,.74-.16-.07-.07.41-.15H99.5c-.18,0,.1,0,.14,0l-.26,0c-.22-.08.27-.14.43-.1s-.89-.25-.47-.17l.31.11c-.36-.17,0,0-.25-.24l.15.09c.22.11,0,0-.14-.12a1.38,1.38,0,0,1,.24.14c.12.07-.25-.19,0-.06l.07.06c-.09-.07,0,0-.18-.16.11.06-.08-.11.06,0-.23-.21.13.08-.19-.22.33.31.28.23.14.07l.24.24a1.33,1.33,0,0,0-.21-.25c.36.39-.22-.38.21.16a1.07,1.07,0,0,1-.16-.5c.2.4,0,.06.21.47-.08-.17-.22-.53-.13-.45a1.45,1.45,0,0,1,.1.25c0-.19.08,0,0-.23l0,.12s0,.06,0-.14v.06a5,5,0,0,1-.17-.76c.13.57.09.13.24.85,0,0,0-.13,0-.26a1.22,1.22,0,0,1,.06.27c0-.12-.05-.33,0-.33l0,.25c0-.19,0-.39,0-.31s0,.14,0,.14,0-.52.1-.34c0,.43,0,.14,0,.52l0-.12V13s.06-.26.07-.14l0,.16,0-.07,0-.14c0-.2,0-.48.06-.37s0,0,0,.23h0c0-.12.06-.24.07-.14l-.07.48c.06-.3.07-.08.15-.4l-.07.31.07-.25c0,.09,0,.13,0,.28s.09-.47.09-.26l0,.1c0,.11.13-.14.14,0-.12.36-.06.07-.15.38,0,0,.26-.39.28-.27v0c.24-.47-.08.26.06,0l-.12.2c0,.09.12-.08.27-.18l-.08.11c0,.11,0,.09,0,.15A1.81,1.81,0,0,0,101,13c-.45.63.41-.2,0,.32,0,0-.1.06-.1.07l.13,0a2.54,2.54,0,0,0,.23-.22c.11-.09.2-.14.22-.12a1.56,1.56,0,0,0-.38.33l.17-.14c-.3.28.37-.29.18-.07l-.1.07c.06,0,.21-.1.19-.06-.21.16-.11.05-.29.18,0,0,.45-.24.24-.07s-.08,0-.14,0c-.25.19-.18.15-.22.19h0l-.1.1.07-.05c.61-.33.14,0,.56-.19a2.52,2.52,0,0,0-.5.25l-.22.14c.22-.1-.17.1.17,0a1.15,1.15,0,0,1-.23.11,1.41,1.41,0,0,0,.27-.12c.32-.09-.36.21.09.1a4.11,4.11,0,0,1,.69-.06,1.57,1.57,0,0,1-.35.06c-.14.07-.1.07,0,.08l-.26.06s.35-.05.21,0l-.39,0h.37a3,3,0,0,1-.37,0,1.43,1.43,0,0,0,.43,0l.09,0a1.35,1.35,0,0,1-.27,0c-.22,0,.08,0,.18,0h.06c.57-.1-.1-.07-.07-.1l.41-.06-.34,0a1.24,1.24,0,0,1,.39-.07c.2-.08-.15,0,.07-.08h-.06c.09,0,.28-.08.23,0,.22-.13-.33,0,0-.13h0c-.16-.05-.3.08-.66.13l.7-.28-.29.09s0,0,.14-.07a2.42,2.42,0,0,0-.32.1c.25-.14-.16-.05.28-.25-.21.08-.14.11-.31.13.47-.23-.1,0,.1-.14s.14,0,.33-.16c-.41.19,0-.12-.05-.12-.31.18-.17,0-.3,0,.1-.07.1-.21.17-.34l0,0c-.29.21-.27.12-.36.14a1.24,1.24,0,0,1,.34-.23l0,0a.6.6,0,0,1-.2.1l.22-.17c-.06,0-.32.13-.24-.05a4.66,4.66,0,0,1-.63.63c.1-.1.26-.28.31-.31s-.09.07-.06,0l.18-.15c0-.09-.15.13-.15.1s.09-.11.2-.23,0,.08,0,0a.63.63,0,0,1,.14-.28,1,1,0,0,1-.21.21s.14-.2.18-.3c-.1.1,0,0-.22.19,0,0,.07-.12.11-.18s-.14-.06-.29.21v0h0c-.23.19-.06-.24-.21-.18l0-.08c-.1.07-.14,0-.26.17a.79.79,0,0,1,.09-.28c-.07.05-.11.15-.1,0s0-.15.09-.1c0-.1,0-.26-.14,0,.11-.23.07-.32,0-.26l0,.19s-.06,0-.08,0l.12-.31c0-.43-.39.6-.34-.07-.08.22,0,.17,0,.43,0-.05,0-.53,0-.54-.07-.19-.14.47-.21.34a1.64,1.64,0,0,1-.08.54,1.48,1.48,0,0,1,0-.59s0,0,0,.07a.3.3,0,0,0,0-.22v.11c0-.12-.11-.11-.08-.3a.27.27,0,0,0,0,.25c-.07-.17-.11,0-.19-.12a.75.75,0,0,1,0,.2c-.12-.14,0,.23-.11.29,0-.18,0-.44-.07-.28a.84.84,0,0,1,0-.41c0,.23-.16-.13-.22-.17l0-.1c0,.06,0,.06-.06.06l.06.24a.22.22,0,0,1-.07-.14c0,.16.08.39.07.61-.05-.12-.06.14-.13-.17.12.09-.07-.31,0-.37s0,0-.06,0a.25.25,0,0,1,0-.08c-.16-.25,0,.36-.06.37,0-.17-.11-.32-.12-.27s.09.28.1.42c-.1-.12,0,.11-.07.1l0,.06c0,.17,0,.15,0,.22,0-.13,0-.1,0-.15.07.3-.19-.28-.18-.06-.07-.1-.13-.31-.18-.37,0,.24-.18-.19-.18,0a.75.75,0,0,1,.15.38l0-.2.07.35s0-.17,0-.14a.84.84,0,0,0,.12.31c-.18-.31,0,.23-.14,0l-.26-.53c-.21-.19,0,.34-.17.27l.09.07c.11.21,0,.06,0,.16a2.52,2.52,0,0,0-.25-.31c.08.12-.08.05.14.37l-.19-.18c-.15,0,.26.51.17.5-.13-.18-.25-.25-.3-.41,0,0-.07,0,0,.11-.1-.08.12.25,0,.13,0,.07.19.22.16.23l-.07-.07c.07.07.06.13.24.27-.5-.37-.11.17-.56-.11a.5.5,0,0,1,0,.24l-.06,0c-.19,0,.45.34.24.3s-.13-.13-.24-.17c-.56-.32,0,.13-.34,0l0,0c-.22-.06.16.22.09.26l-.09,0a1.34,1.34,0,0,1,.42.38,1.58,1.58,0,0,0-.36-.14s.39.13.44.2c-.14,0-.27,0-.53-.1v-.06c-.35-.08,0,.08-.08.09l-.14-.05c0,.12.4.21.35.29l.12,0c.37.12-.22,0,0,.09l-.39,0c.09.06.36.18.43.23a1.78,1.78,0,0,1-.59-.22s0,.13.2.17c0,0-.13-.05-.07-.05.3.08.45.13.44.19-.76,0-.2.16-.79.22.29.12-.1.29,0,.46.57-.16,0,0,.62-.08,0,0,0,0,0,0l-.33.19c-.17.07-.14,0-.27,0s-.24.1-.38.21c.2-.07.3-.06.24,0l.25-.15c.34,0-.46.26-.11.28l-.2,0c.13,0,.09.25.57.1-.06,0-.21.12-.26.11,0,.19.61,0,.41.29l-.13.07s.26-.12.15,0-.13.07-.13.09.26-.1.21,0l-.15.08c-.07.24.45-.08.6-.08-.33.3-.36.48-.36.58l-.05,0c.1.17.47-.06.69-.12-.21.44.15.34.16.64a1.16,1.16,0,0,1,.2-.33c0,.1.22-.23,0,.13h0c-.15.37,0,.31,0,.34l.2-.49c-.11.78.43-.15.33.53.07-.12.11-.11.17-.24l0,.28c.09.09.14.14.28.08l-.05.2c.09,0,.16-.81.21-.82v.42c.12,0,.27.36.37,0a.64.64,0,0,1,0,.21c.06,0,.27.25.17-.32,0,.38.14,0,.16-.16l0,.28a1.62,1.62,0,0,1,0-.57s.07.21,0,.15c.09.13,0-.26.07-.14l0,.18c.06,0,0-.08,0-.29s.11,0,.21.27c0-.15-.09-.35,0-.3a.85.85,0,0,1,0,.18c.17.14,0-.35.16-.13l.09.15c-.08,0-.14,0-.14,0a2.64,2.64,0,0,1,.27.6c0-.2-.12-.62,0-.54l0,.07v0s0,0,0-.05.07.05.09,0c.11.18.13.06.16,0-.15-.24-.09-.22-.24-.4a0,0,0,0,1,0,.05s0,0,0,0v0a.17.17,0,0,1-.06.06c0-.14-.09-.26,0-.14l-.2-.41c.23.32.42.45.57.64,0-.19.14-.23-.17-.67,0-.07.12.09.19.15s0,.06,0,.12c0-.14.09-.15-.16-.42.16.08.21.27.23.16l.07.09c.28.14.16-.09,0-.28s-.24-.35.13-.21a.31.31,0,0,1-.12-.05c.4,0-.07-.49.48-.48.13,0-.09-.11-.25-.19l.29.08-.32-.16c-.23-.13.76,0,.31-.19l-.2,0s-.1-.13.13-.1c0,0-.21,0-.1,0l.15,0-.26-.12c.12-.06.63.06.66-.06a1.54,1.54,0,0,0-.56-.12s-.1,0-.25,0l-.09,0c-.46,0-.94,0-1.27,0l.29,0h-.23v0c-.21,0,0,0,.1,0h-.25l.45.06-.46,0c.2,0,.4,0,.54.07-.22,0-.39,0-.21,0l-.25,0a1.88,1.88,0,0,0,.3.08c-.25,0,.06.06-.37,0a1.83,1.83,0,0,1,.35.11c-.51-.15,0,0-.58-.14.45.15.19.09.43.21l-.08,0a1.44,1.44,0,0,1-.26-.08,4.15,4.15,0,0,1,.64.32c-.35-.14-.41-.21-.74-.35a5.74,5.74,0,0,1,.51.27l-.39-.19c.43.23.07,0,.33.2-.22-.1-.4-.22-.28-.13Zm.27.86h0v0Zm0,0h0a1.2,1.2,0,0,1,.08.18A1.25,1.25,0,0,0,100.54,15.19Zm1.09,1.63s0,0-.06-.05a.2.2,0,0,0,0-.05v0Z"/><path class="cls-3" d="M101.48,16.48v0l0-.05,0,.08Z"/><path class="cls-3" d="M101.42,12.28h0l0,0Z"/><polygon class="cls-3" points="99.93 14.74 99.92 14.81 99.93 14.75 99.93 14.74"/><path class="cls-3" d="M101.11,13.31l0,0Z"/><path class="cls-3" d="M101.14,13.46l-.07.07A.22.22,0,0,0,101.14,13.46Z"/><path class="cls-3" d="M101.08,13.62l.1,0h0Z"/><path class="cls-3" d="M99.83,13.38h0C99.84,13.45,99.84,13.42,99.83,13.38Z"/><path class="cls-3" d="M100.24,12.7l0,.13S100.22,12.86,100.24,12.7Z"/><polygon class="cls-3" points="99.75 13.81 99.75 13.81 99.74 13.81 99.75 13.81"/><path class="cls-3" d="M100.18,12.82c0,.06,0,0,0,0S100.19,12.78,100.18,12.82Z"/><path class="cls-3" d="M101.07,14h0Z"/><path class="cls-3" d="M101.11,14.05h0S101.14,14,101.11,14.05Z"/><path class="cls-3" d="M101.21,14.05h0Z"/><path class="cls-3" d="M101.18,13.9l-.1,0Z"/><path class="cls-3" d="M101.14,13.87s-.2.07-.14.07l.08,0C100.93,14,101.31,13.84,101.14,13.87Z"/><path class="cls-3" d="M102.25,13.22l0,.1c.1-.05.23-.12.26-.1C102.73,13,102.24,13.33,102.25,13.22Z"/><path class="cls-3" d="M102.3,13c.06,0,.13-.07.19-.1A.27.27,0,0,0,102.3,13Z"/><path class="cls-3" d="M101.1,11.84l.11-.23S101.17,11.7,101.1,11.84Z"/><polygon class="cls-3" points="100.42 13 100.39 13.15 100.46 12.93 100.42 13"/><polygon class="cls-3" points="100.73 11.2 100.75 11.16 100.67 11.24 100.73 11.2"/><path class="cls-3" d="M97.8,12.29l.25.19C98,12.43,97.75,12.19,97.8,12.29Z"/><path class="cls-3" d="M97.51,13.6c-.16,0-.26,0-.12.05S97.54,13.63,97.51,13.6Z"/><polygon class="cls-3" points="98.99 17.09 98.92 17.18 99 17.11 98.99 17.09"/><circle class="cls-1" cx="105.07" cy="14.15" r="1.89"/><path class="cls-3" d="M106.29,14.15c.09,0,.28,0,.24,0h-.24Z"/><path class="cls-3" d="M106.9,14a4.18,4.18,0,0,0-.75,0h.57s-.11,0-.23,0c.09,0-.07,0,.14,0s.26-.06.05-.07Z"/><path class="cls-3" d="M106.43,12.24v0A.08.08,0,0,0,106.43,12.24Z"/><path class="cls-3" d="M105.24,11.63s0,0,0-.07A.14.14,0,0,0,105.24,11.63Z"/><path class="cls-3" d="M105,11.26l0,0S105,11.23,105,11.26Z"/><path class="cls-3" d="M106.43,12.24l0-.11C106.4,12.22,106.43,12.21,106.43,12.24Z"/><path class="cls-3" d="M106.09,14h0Z"/><path class="cls-3" d="M107.06,12.45h0l.11-.08Z"/><path class="cls-3" d="M107.38,12.82A2.94,2.94,0,0,0,107,13l.18-.08Z"/><path class="cls-3" d="M107.19,13.67h0Z"/><path class="cls-3" d="M106.85,12.15l.07-.07Z"/><path class="cls-3" d="M105.62,14.28h0Z"/><polygon class="cls-3" points="107.03 14.15 107.04 14.16 107.2 14.16 107.03 14.15"/><path class="cls-3" d="M104.42,11h0S104.43,10.94,104.42,11Z"/><path class="cls-3" d="M102.09,14.8c.23-.1.33,0,.59-.12C102.57,14.71,102.23,14.7,102.09,14.8Z"/><path class="cls-3" d="M106.12,14h0S106.11,14,106.12,14Z"/><path class="cls-3" d="M102.68,14.68h0Z"/><path class="cls-3" d="M103.33,11.6l.08.09Z"/><path class="cls-3" d="M104.27,11.58l0,0Z"/><path class="cls-3" d="M103.23,12.19s0,0,0,0l0,0S103.19,12.16,103.23,12.19Z"/><path class="cls-3" d="M102.94,12.51l0,0v0Z"/><path class="cls-3" d="M105.61,14.61l.19.15C105.65,14.64,105.61,14.58,105.61,14.61Z"/><path class="cls-3" d="M106.24,13.93l-.12,0h0Z"/><path class="cls-3" d="M104.74,13.81l0,0Z"/><path class="cls-3" d="M104.86,14.87l0,0Z"/><path class="cls-3" d="M104.71,13.84l-.15-.12,0,0Z"/><path class="cls-3" d="M105.81,14.77h0Z"/><path class="cls-3" d="M105.32,14.3l.49.3c.07.08-.24-.14-.4-.23a2.68,2.68,0,0,1,.33.26l-.13-.09c.23.18,0,0,.27.28l-.07-.05.39.32s.15.17,0,0a.59.59,0,0,0-.12-.12l.07.08c-.27-.22-.08-.09-.27-.26.07.09.26.31.17.26-.25-.23,0-.11-.29-.3l.11.07c-.41-.35,0,0-.4-.36-.08-.05.12.14,0,.08l.32.34c.19.29-.6-.61-.31-.25.14.17.4.51.24.35l-.23-.31s.32.45.14.27-.06-.12-.09-.16c-.19-.23.12.19.1.2l-.19-.28a1.89,1.89,0,0,1,.1.36c0-.09-.09-.19-.15-.28,0,.17-.09,0-.18-.18l.08.28s0-.13,0-.18,0,.18.08.29a.87.87,0,0,1-.08-.25c.06.25,0,.55,0,.24v-.09c0-.11.06.6,0,.34v-.06c-.07-.12-.15.15-.17-.29,0,.42,0-.19-.09.39,0-.29,0-.4,0-.59,0,0-.08.35-.11.41l.07-.3-.1.31.09-.36,0,.07s0,.14,0,.23,0-.22.06-.37a2.53,2.53,0,0,1-.12.23l.1-.23c-.13.29.11-.3,0,0l-.09.23c.06-.17,0-.18,0-.12l.1-.19c0-.05-.09.07-.11,0a2.76,2.76,0,0,1-.28.42l.18-.27c-.12.16-.06.11-.21.31a2.34,2.34,0,0,1,.27-.4l-.08.08.16-.22c-.12.16.18-.27,0,0l.06-.08s-.1.06-.12.06a2.92,2.92,0,0,1-.33.31c0-.08.19-.25.16-.25s-.19.15-.32.25a2.08,2.08,0,0,1,.32-.27c-.05,0-.07,0-.26.08l-.2.14s.08-.08.19-.14l0,0c-.38.13.62-.42.13-.22h0l-.27.06s.18-.05.33-.12c-.42.1,0-.06-.24,0,.74-.16-.07-.07.41-.15h-.17c-.18,0,.1,0,.14,0l-.26,0c-.22-.08.27-.14.43-.1s-.89-.25-.47-.17l.31.11c-.36-.17,0,0-.25-.24l.15.09c.22.11,0,0-.14-.12a1.38,1.38,0,0,1,.24.14c.12.07-.25-.19,0-.06l.07.06c-.09-.07,0,0-.18-.16.11.06-.08-.11.06,0-.23-.21.13.08-.19-.22.33.31.28.23.14.07l.24.24a1.33,1.33,0,0,0-.21-.25c.36.39-.22-.38.21.16a1.07,1.07,0,0,1-.16-.5c.2.4,0,.06.21.47-.08-.17-.22-.53-.13-.45a1.45,1.45,0,0,1,.1.25c0-.19.08,0,0-.23l0,.12s0,.06,0-.14v.06a5,5,0,0,1-.17-.76c.13.57.09.13.24.85,0,0,0-.13,0-.26a1.22,1.22,0,0,1,.06.27c0-.12-.05-.33,0-.33l0,.25c0-.19,0-.39,0-.31s0,.14,0,.14,0-.52.1-.34c0,.43,0,.14,0,.52l0-.12V13s.06-.26.07-.14l0,.16,0-.07,0-.14c0-.2,0-.48.06-.37s0,0,0,.23h0c0-.12.06-.24.07-.14l-.07.48c.06-.3.07-.08.15-.4l-.07.31.07-.25c0,.09,0,.13,0,.28s.09-.47.09-.26l0,.1c0,.11.13-.14.14,0-.12.36-.06.07-.15.38,0,0,.26-.39.28-.27v0c.24-.47-.08.26.06,0l-.12.2c0,.09.12-.08.27-.18l-.08.11c0,.11,0,.09,0,.15A1.81,1.81,0,0,0,106,13c-.45.63.41-.2,0,.32,0,0-.1.06-.1.07l.13,0a2.54,2.54,0,0,0,.23-.22c.11-.09.2-.14.22-.12a1.56,1.56,0,0,0-.38.33l.17-.14c-.3.28.37-.29.18-.07l-.1.07c.06,0,.21-.1.19-.06-.21.16-.11.05-.29.18,0,0,.45-.24.24-.07s-.08,0-.14,0c-.25.19-.18.15-.22.19h0l-.1.1.07-.05c.61-.33.14,0,.56-.19a2.52,2.52,0,0,0-.5.25l-.22.14c.22-.1-.17.1.17,0a1.15,1.15,0,0,1-.23.11,1.41,1.41,0,0,0,.27-.12c.32-.09-.36.21.09.1a4.11,4.11,0,0,1,.69-.06,1.57,1.57,0,0,1-.35.06c-.14.07-.1.07,0,.08l-.26.06s.35-.05.21,0l-.39,0h.37a3,3,0,0,1-.37,0,1.43,1.43,0,0,0,.43,0l.09,0a1.35,1.35,0,0,1-.27,0c-.22,0,.08,0,.18,0h.06c.57-.1-.1-.07-.07-.1l.41-.06-.34,0a1.24,1.24,0,0,1,.39-.07c.2-.08-.15,0,.07-.08h-.06c.09,0,.28-.08.23,0,.22-.13-.33,0,0-.13h0c-.16-.05-.3.08-.66.13l.7-.28-.29.09s0,0,.14-.07a2.42,2.42,0,0,0-.32.1c.25-.14-.16-.05.28-.25-.21.08-.14.11-.31.13.47-.23-.1,0,.1-.14s.14,0,.33-.16c-.41.19,0-.12-.05-.12-.31.18-.17,0-.3,0,.1-.07.1-.21.17-.34l0,0c-.29.21-.27.12-.36.14a1.24,1.24,0,0,1,.34-.23l0,0a.6.6,0,0,1-.2.1l.22-.17c-.06,0-.32.13-.24-.05a4.66,4.66,0,0,1-.63.63c.1-.1.26-.28.31-.31s-.09.07-.06,0l.18-.15c0-.09-.15.13-.15.1s.09-.11.2-.23,0,.08,0,0a.63.63,0,0,1,.14-.28,1,1,0,0,1-.21.21s.14-.2.18-.3c-.1.1,0,0-.22.19,0,0,.07-.12.11-.18s-.14-.06-.29.21v0h0c-.23.19-.06-.24-.21-.18l0-.08c-.1.07-.14,0-.26.17a.79.79,0,0,1,.09-.28c-.07.05-.11.15-.1,0s0-.15.09-.1c0-.1,0-.26-.14,0,.11-.23.07-.32,0-.26l0,.19s-.06,0-.08,0l.12-.31c0-.43-.39.6-.34-.07-.08.22,0,.17,0,.43,0-.05,0-.53,0-.54-.07-.19-.14.47-.21.34a1.64,1.64,0,0,1-.08.54,1.48,1.48,0,0,1,0-.59s0,0,0,.07a.3.3,0,0,0,0-.22v.11c0-.12-.11-.11-.08-.3a.27.27,0,0,0,0,.25c-.07-.17-.11,0-.19-.12a.75.75,0,0,1,0,.2c-.12-.14,0,.23-.11.29,0-.18,0-.44-.07-.28a.84.84,0,0,1,0-.41c0,.23-.16-.13-.22-.17l0-.1c0,.06,0,.06-.06.06l.06.24a.22.22,0,0,1-.07-.14c0,.16.08.39.07.61-.05-.12-.06.14-.13-.17.12.09-.07-.31,0-.37s0,0-.06,0a.25.25,0,0,1,0-.08c-.16-.25,0,.36-.06.37,0-.17-.11-.32-.12-.27s.09.28.1.42c-.1-.12,0,.11-.07.1l0,.06c0,.17,0,.15,0,.22,0-.13,0-.1,0-.15.07.3-.19-.28-.18-.06-.07-.1-.13-.31-.18-.37,0,.24-.18-.19-.18,0a.75.75,0,0,1,.15.38l0-.2.07.35s0-.17,0-.14a.84.84,0,0,0,.12.31c-.18-.31,0,.23-.14,0l-.26-.53c-.21-.19,0,.34-.17.27l.09.07c.11.21,0,.06,0,.16a2.52,2.52,0,0,0-.25-.31c.08.12-.08.05.14.37l-.19-.18c-.15,0,.26.51.17.5-.13-.18-.25-.25-.3-.41,0,0-.07,0,0,.11-.1-.08.12.25,0,.13,0,.07.19.22.16.23l-.07-.07c.07.07.06.13.24.27-.5-.37-.11.17-.56-.11a.5.5,0,0,1,0,.24l-.06,0c-.19,0,.45.34.24.3s-.13-.13-.24-.17c-.56-.32,0,.13-.34,0l0,0c-.22-.06.16.22.09.26l-.09,0a1.34,1.34,0,0,1,.42.38,1.58,1.58,0,0,0-.36-.14s.39.13.44.2c-.14,0-.27,0-.53-.1v-.06c-.35-.08,0,.08-.08.09l-.14-.05c0,.12.4.21.35.29l.12,0c.37.12-.22,0,0,.09l-.39,0c.09.06.36.18.43.23a1.78,1.78,0,0,1-.59-.22s0,.13.2.17c0,0-.13-.05-.07-.05.3.08.45.13.44.19-.76,0-.2.16-.79.22.29.12-.1.29,0,.46.57-.16,0,0,.62-.08,0,0,0,0,0,0l-.33.19c-.17.07-.14,0-.27,0s-.24.1-.38.21c.2-.07.3-.06.24,0l.25-.15c.34,0-.46.26-.11.28l-.2,0c.13,0,.09.25.57.1-.06,0-.21.12-.26.11,0,.19.61,0,.41.29l-.13.07s.26-.12.15,0-.13.07-.13.09.26-.1.21,0l-.15.08c-.07.24.45-.08.6-.08-.33.3-.36.48-.36.58l-.05,0c.1.17.47-.06.69-.12-.21.44.15.34.16.64a1.16,1.16,0,0,1,.2-.33c0,.1.22-.23,0,.13h0c-.15.37,0,.31,0,.34l.2-.49c-.11.78.43-.15.33.53.07-.12.11-.11.17-.24l0,.28c.09.09.14.14.28.08l-.05.2c.09,0,.16-.81.21-.82v.42c.12,0,.27.36.37,0a.64.64,0,0,1,0,.21c.06,0,.27.25.17-.32,0,.38.14,0,.16-.16l0,.28a1.62,1.62,0,0,1,0-.57s.07.21,0,.15c.09.13,0-.26.07-.14l0,.18c.06,0,0-.08,0-.29s.11,0,.21.27c0-.15-.09-.35,0-.3a.85.85,0,0,1,0,.18c.17.14,0-.35.16-.13l.09.15c-.08,0-.14,0-.14,0a2.64,2.64,0,0,1,.27.6c0-.2-.12-.62,0-.54l0,.07v0s0,0,0-.05.07.05.09,0c.11.18.13.06.16,0-.15-.24-.09-.22-.24-.4a0,0,0,0,1,0,.05s0,0,0,0v0a.17.17,0,0,1-.06.06c0-.14-.09-.26,0-.14l-.2-.41c.23.32.42.45.57.64,0-.19.14-.23-.17-.67,0-.07.12.09.19.15s0,.06,0,.12c0-.14.09-.15-.16-.42.16.08.21.27.23.16l.07.09c.28.14.16-.09,0-.28s-.24-.35.13-.21a.31.31,0,0,1-.12-.05c.4,0-.07-.49.48-.48.13,0-.09-.11-.25-.19l.29.08-.32-.16c-.23-.13.76,0,.31-.19l-.2,0s-.1-.13.13-.1c0,0-.21,0-.1,0l.15,0-.26-.12c.12-.06.63.06.66-.06a1.54,1.54,0,0,0-.56-.12s-.1,0-.25,0l-.09,0c-.46,0-.94,0-1.27,0l.29,0h-.23v0c-.21,0,0,0,.1,0h-.25l.45.06-.46,0c.2,0,.4,0,.54.07-.22,0-.39,0-.21,0l-.25,0a1.88,1.88,0,0,0,.3.08c-.25,0,.06.06-.37,0a1.83,1.83,0,0,1,.35.11c-.51-.15,0,0-.58-.14.45.15.19.09.43.21l-.08,0a1.44,1.44,0,0,1-.26-.08,4.15,4.15,0,0,1,.64.32c-.35-.14-.41-.21-.74-.35a5.74,5.74,0,0,1,.51.27l-.39-.19c.43.23.07,0,.33.2-.22-.1-.4-.22-.28-.13Zm.27.86h0v0Zm0,0h0a1.2,1.2,0,0,1,.08.18A1.25,1.25,0,0,0,105.54,15.19Zm1.09,1.63s0,0-.06-.05a.2.2,0,0,0,0-.05v0Z"/><path class="cls-3" d="M106.48,16.48v0l0-.05,0,.08Z"/><path class="cls-3" d="M106.42,12.28h0l0,0Z"/><polygon class="cls-3" points="104.93 14.74 104.92 14.81 104.93 14.75 104.93 14.74"/><path class="cls-3" d="M106.11,13.31l0,0Z"/><path class="cls-3" d="M106.14,13.46l-.07.07A.22.22,0,0,0,106.14,13.46Z"/><path class="cls-3" d="M106.08,13.62l.1,0h0Z"/><path class="cls-3" d="M104.83,13.38h0C104.84,13.45,104.84,13.42,104.83,13.38Z"/><path class="cls-3" d="M105.24,12.7l0,.13S105.22,12.86,105.24,12.7Z"/><polygon class="cls-3" points="104.75 13.81 104.75 13.81 104.74 13.81 104.75 13.81"/><path class="cls-3" d="M105.18,12.82c0,.06,0,0,0,0S105.19,12.78,105.18,12.82Z"/><path class="cls-3" d="M106.07,14h0Z"/><path class="cls-3" d="M106.11,14.05h0S106.14,14,106.11,14.05Z"/><path class="cls-3" d="M106.21,14.05h0Z"/><path class="cls-3" d="M106.18,13.9l-.1,0Z"/><path class="cls-3" d="M106.14,13.87s-.2.07-.14.07l.08,0C105.93,14,106.31,13.84,106.14,13.87Z"/><path class="cls-3" d="M107.25,13.22l0,.1c.1-.05.23-.12.26-.1C107.73,13,107.24,13.33,107.25,13.22Z"/><path class="cls-3" d="M107.3,13c.06,0,.13-.07.19-.1A.27.27,0,0,0,107.3,13Z"/><path class="cls-3" d="M106.1,11.84l.11-.23S106.17,11.7,106.1,11.84Z"/><polygon class="cls-3" points="105.42 13 105.39 13.15 105.46 12.93 105.42 13"/><polygon class="cls-3" points="105.73 11.2 105.75 11.16 105.67 11.24 105.73 11.2"/><path class="cls-3" d="M102.8,12.29l.25.19C103,12.43,102.75,12.19,102.8,12.29Z"/><path class="cls-3" d="M102.51,13.6c-.16,0-.26,0-.12.05S102.54,13.63,102.51,13.6Z"/><polygon class="cls-3" points="103.99 17.09 103.92 17.18 104 17.11 103.99 17.09"/><rect class="cls-1" x="11.37" y="58.69" width="92" height="11.11"/><path class="cls-3" d="M102.7,69.8c.09.11.28,0,.24-.25l-.33-.22Z"/><path class="cls-3" d="M103.31,67.79c-.16-.36-.44-.76-.74-.53.32.34.18.43.56.8,0,.3-.1.53-.23.48.09.1-.07.46.14.62a1.46,1.46,0,0,0,0-1.4C103.17,67.65,103.25,67.76,103.31,67.79Z"/><path class="cls-3" d="M83.22,58.22l.19,0Z"/><path class="cls-3" d="M65.1,58c.14,0,.2,0,.2-.07S65.07,58,65.1,58Z"/><path class="cls-3" d="M62,57.68l.18,0C62.12,57.67,62.05,57.65,62,57.68Z"/><path class="cls-3" d="M83.22,58.22l-.48-.1C82.7,58.23,83,58.2,83.22,58.22Z"/><path class="cls-3" d="M102.52,63.75a.77.77,0,0,0,.08.27l0-.25Z"/><path class="cls-3" d="M91.21,58h.15a.77.77,0,0,0,.12-.13Z"/><path class="cls-3" d="M97.34,57.9c-.14,0-.19.27-.24.4a.43.43,0,0,1,.3-.2A.53.53,0,0,0,97.34,57.9Z"/><path class="cls-3" d="M103.65,62.38l0,.17Z"/><path class="cls-3" d="M86.82,57.89a.17.17,0,0,0-.06-.1A.15.15,0,0,0,86.82,57.89Z"/><path class="cls-3" d="M96.26,68.48v0S96.31,68.48,96.26,68.48Z"/><path class="cls-3" d="M103.37,69.87l-.1,0a.77.77,0,0,0,0,.15Z"/><path class="cls-3" d="M56.34,57.32h0C56.52,57.29,56.43,57.3,56.34,57.32Z"/><path class="cls-3" d="M10.2,65.68c.25-.58.33,1,.6.08C10.7,65.84,10.37,65,10.2,65.68Z"/><path class="cls-3" d="M102.55,63.59v-.25A1,1,0,0,0,102.55,63.59Z"/><path class="cls-3" d="M10.8,65.76h0l0-.1Z"/><path class="cls-3" d="M43.3,57.49a.77.77,0,0,0,.13.12S43.4,57.54,43.3,57.49Z"/><path class="cls-3" d="M53,57.89l-.24,0Z"/><path class="cls-3" d="M38.25,57.88a.66.66,0,0,0-.35,0l.05,0A.37.37,0,0,1,38.25,57.88Z"/><path class="cls-3" d="M33,57.88a.53.53,0,0,0,.1.06h.16Z"/><path class="cls-3" d="M80.3,68.61a.83.83,0,0,1,.24.26C80.46,68.67,81.23,68.6,80.3,68.61Z"/><path class="cls-3" d="M102.67,63.75a.2.2,0,0,1-.12-.16l0,.18S102.65,63.79,102.67,63.75Z"/><path class="cls-3" d="M38,60.1l-.83,0C37.44,60.08,37.74,60.1,38,60.1Z"/><path class="cls-3" d="M42.62,68.65l.19,0A.3.3,0,0,0,42.62,68.65Z"/><path class="cls-3" d="M34.73,60.1a1.26,1.26,0,0,0-.47-.19.26.26,0,0,0-.1.07Z"/><path class="cls-3" d="M80.54,68.87Z"/><path class="cls-3" d="M86,68.2c-.8,0-.37.36-.54.58-1,.1-.44-.28-.77-.47-.59.1-1,.44-1.48.43,0-.06-.12-.09,0-.16-.63.29-1.86,0-2.59.38a.22.22,0,0,1-.1-.09.68.68,0,0,1,.11.51c-.35,0-.66.23-.79,0,.22,0,.24-.09.34-.17l-.38.11c-.33-.35.51-.12.51-.38a8.31,8.31,0,0,1-2.13.3c-.12-.34,1.3-.11.56-.41l.86.13c-.66-.54.53,0-.08-.54-1.13-.1-1.27.17-2.4.07-.26.19.08.28-.17.47-1.62.34-1.27-.85-2.46-.4-.3.23-.42.66-1.27.43l.29-.38c-1.1,0-.63.55-1.78.29.21-.15.87-.13.7-.17-.75-.31-.53.21-1.1.21l-.12-.34c-1.17.06-2.46.3-3.76.37.07-.11.29-.21,0-.32a23.13,23.13,0,0,1-5.07-.24l-.6.29c-.14,0-.26-.13-.11-.19-.62-.11,0,.19-.33.31s-.46-.17-.24-.26a10.56,10.56,0,0,1-4.23.22l.22-.09c-.89-.12-1,.61-1.83.33l.16-.05c-1.94-.13-4.07.14-5.55-.3-.28.42-1.91-.19-2,.4a9.36,9.36,0,0,0-2.35-.59c-.41,0-.62.36-1.13.42v-.3l-.7.32-.37-.37-.48.08c.19,0,.41.14.38.23a2.61,2.61,0,0,1-1.85-.38l-1.78.27c0-.13.34-.17.57-.25-1,.31-.17-.32-1,0,.12.07-.06.19-.08.25a5.47,5.47,0,0,0-2.16-.11l.14-.21c-1.31-.06-2.78.1-4.26.1.53.09.41.46,0,.5l-.18-.33c-.28.2.46.13-.12.37-.55,0-.37-.37,0-.47l-.68.11c0-.1.12-.15.16-.27-.27.2-1.16-.33-1.55,0l0-.1c-1.48,0-2.15.11-3.36.13,0,.28-.5.22-.85.45a21.21,21.21,0,0,0-2.94-.29c-.75.14-.22.24-.56.4-.05-.25-1.12-.23-.57-.41a24.76,24.76,0,0,0-3.25.26c.17.1.37.15.27.23-.3,0-.67-.1-.63-.23l.08,0a8.63,8.63,0,0,1-3-.16A11.19,11.19,0,0,0,14,68.48a3.61,3.61,0,0,0-.66,0c-.2,0-.45.06-.44.12l0,0a3.15,3.15,0,0,1-.66.28h0c0-.22.1-.14.2-.2a.33.33,0,0,0,.1-.11l.05-.06c-.43.15.06-1.51-.22-2.69.75-1-.06-3.67.43-5.06l-.18.08a.39.39,0,0,1,0-.39l.09-.14h.06a.19.19,0,0,0-.14,0c0,.07-.07.09-.12,0a2.34,2.34,0,0,1-.05-.47l6.68.47c1.14.05.65-.92,2.09-.49l-.41.33c2.31-.4,4.72,0,7-.32-.13.07-.13.17-.35.17.47.24,1.76,0,1.77-.18.35,0,.08.17.3.27.48.14,1.2-.3,1.46-.06,0,0-.14.07-.23.09.32-.11,1.46,0,1.16-.25.85.14,1.62-.12,2.3,0,.44-.31,1.45.14,1.59-.29-.06.45,1.49.36,2,.15-.18.14.46.14.25.33.62,0,1.18-.09,1.07-.32,1.13.54,2.27-.44,2.9.25,1.82-.24,3.51-.4,5.14-.51-.06.45-1.81,0-1.74.52a18.24,18.24,0,0,1,4-.46c.4.06-.23.19-.36.27,1.55-.19,3,0,4.38-.21,0,0-.15.09-.3.13.28,0,.64.06.61-.14l-.27,0c-.43-.29,1.08-.62,1.13-.78-.46.59,1.36.15.63.89.18,0,.4-.13.36-.27.27,0,.35.12.08.28,1-.11.63-.33,1.51-.33,0,.1-.18.14-.27.26a2.85,2.85,0,0,1,1.64-.31c0,.06,0,.14-.18.14,1.28,0,2.19-.52,3.59-.33-.41.43.48.14.55.52l.76-.11-.3-.19a10.7,10.7,0,0,1,1.81-.14l-.49.15,1.24-.07-.7-.14c.67-.19-.07-.47.81-.37-.18,0,.66,0,1,.23h0A1.94,1.94,0,0,1,67.88,59c.12.12-.11.41,0,.49.32-.31,1.55-.09,2-.42-.14.08-.15.27-.1.31l.27-.25c.31.08.35.12.3.28.92,0-.29-.48.8-.27-.08,0,0,.06-.22.1,1.1.1,2.12-.17,3.13,0,.3.38-.88.09-.54.41a42.39,42.39,0,0,1,4.43-.36l-.27,0c.2-.54,1,.26,1.77,0-.18,0-.23.29-.18.23a18.15,18.15,0,0,0,3.43-.3l-.18.14c.57.12,1.5.07,2.11.13.19-.13.54-.11.32-.31,1.9.78,3.62-.41,5.3.23-.2,0-.48.12-.32.12l1.43-.12c-.11-.24-.19-.14-.49-.32a1.78,1.78,0,0,1,.94-.25c-.64.16,0,.37.29.5-.05-.07,0-.15,0-.22.75.41.13-.46,1.15-.19l0,.13a4,4,0,0,1,1.14-.19c.17.27-.41.12-.43.34.58,0,1.14-.5,1.66-.24-.24.08-.59.08-.84.15a1.83,1.83,0,0,0,1.06.29h0l1,.14-.25-.08c.72-.7,1.47-.13,2.45-.59-1,.43-.16.25-.23.55.25.09.63.18.52.27.46-.25.77.19,1.42-.17,0,.1.5,0,.39.26.6-.08-.14-.17-.09-.29a1.61,1.61,0,0,1,.54-.09h.29a1,1,0,0,1,.19,0,4.42,4.42,0,0,0,.66.15.66.66,0,0,0,.15.47c.09.26.22.7.35,1a4.61,4.61,0,0,1,.33,1.18c-.16.35-.35-.3-.35-.3a3.17,3.17,0,0,0,0,1.56c-.09-.11-.16,0-.27.17,0,.44.36.3.21.87a1.68,1.68,0,0,1-.39-.43c.09.51.27,1,.36,1.56-.17.14-.26-.33-.37-.51.08.6.16,1.55.43,1.74l.09-.39c0,.22-.23.11-.28,0-.21-.51.1-.74.19-.77l.07.38c.57-.39-.1-1.53-.06-2.29l.41.32-.34-.79c.11-.17.34-.28.4.1.21-.55-.15-.49.08-1,0,0,.06,0,.07,0l-.12-.54c.09.11.29-.09.23.24.24-1-.31-1.52,0-1.95l0,.1c-.07-.84-.14-.81-.25-.76s-.23.13-.41-.18a7.16,7.16,0,0,0,.48-.85.86.86,0,0,0,0-.27,4.4,4.4,0,0,0-.41.31c-.14,0-.44,0-.32-.16-.7.21,0,.13-.4.33-.67-.28-1.85.13-2-.36-.24.24.63.18-.08.34-.2-.52-.81.09-1.42-.15.19-.27.76-.12.15-.37-.36.46-1.18-.09-1.69,0,0,.37-1.11.15-2,.27A19.27,19.27,0,0,0,93,58L93,58c-.15.37-1,.3-1.58.38,0-.22.13-.31.46-.41h-.56a1.2,1.2,0,0,1-.68.23l.14-.28a9.65,9.65,0,0,1-2.47.14c-.06.26.76.71-.26.89,0-.14-.07-.38.19-.44a.87.87,0,0,1-.48.06l.4-.23c-.44-.11-.23.19-.58.17,0-.2-.26-.14-.21-.3s.31.08.44,0a2.24,2.24,0,0,1-1-.31c0,.12,0,.27-.29.3-.75,0-.26-.24-.69-.34-.19.13-.66,0-.68.29-.22,0-.26-.14-.34-.22-.39.13-1.82,0-1.38.35l.1,0h-.06c-1.27.3-2.65-.17-3.91,0v-.1a14.26,14.26,0,0,0-2.21.28c-.23,0-.53-.18-.43-.3a3,3,0,0,1-1.48,0c.58-.18-.2-.16.6-.13a2.85,2.85,0,0,0-1.73,0c.28-.26-.56-.32-.92-.25l.53.18a6.85,6.85,0,0,1-1.11,0l.2-.34c-1.54-.4-2.77.69-3.93,0-.41.23.83.16.47.43a8.94,8.94,0,0,1-1.66-.52c-1-.19-.9.48-1.92.36.13.12.26.43-.5.55-.7,0-.87-.5-.42-.6.17,0,.25,0,.24.07.23,0,.53-.09.25-.22l-.09.12c-.35-.12-1.32-.11-1.09-.31-.54.12-.23.2.16.26-.9-.17-1.41,0-2.34-.12.15.06.28.2.14.2-1.37-.14-.61.23-1.53.28-.53-.18.19-.43-.74-.28-.57-.12-.12-.32.1-.41a4.76,4.76,0,0,1-2.07-.19l.45-.1a3,3,0,0,1-.71,0l.25.24c-.26,0-.48,0-.48-.14-.27.16.21.4-.33.61-.35-.12-1.06.13-1.18-.19,1.1.11-.12-.31.81-.36a2.11,2.11,0,0,1-.66,0s0-.07.1-.08c-1.05-.29-.48.35-1.57.35.14-.18-.25-.34-.43-.3.44,0,.21.29-.19.43-.7-.14-.77.1-1.13.09l.42.06c-.15.18-.5.15-1,.21,0-.14.44-.1.27-.16-.55.32-1.23-.32-2-.11-.35-.12,0-.33-.34-.41-.85.23-.92-.25-1.81-.06.26.24.3.18-.33.42l1.47-.17L48.8,58c.44,0,.93-.16,1.19-.11-.44.19-.4.13-.19.33-.6-.36-1.19.21-1.89,0l0-.6c-1-.26-1.87.31-3.23.16l.44.1c-.18.24-.84,0-1.28.13,0-.2-.24-.27-.43-.39,0,.14-1,0-1.12.38l-.61-.26c-1.1-.11-1.25.56-2.31.49.32-.21-.16-.35.54-.5-.35,0-.67,0-.67.09-.21-.12-1,.27-1.31.08-.15.09-.19.3-.59.28,0,0,0-.1,0-.1s-.62.14-.27.35c-1.09-.61-3,0-4-.48-.77.07-1.7.13-2.4.14,0,0,0-.09.13-.07-1-.19-.59.56-1.69.36-.56-.32.58-.17.23-.3-.15-.64-1.32.09-2.06-.29l.18,0c-.57-.22-1.38.24-2.3.2,0,0,0-.06,0-.1a9,9,0,0,1-2.71.53c.27-.25.4-.13.23-.39-.4,0,.12.41-.68.48-.26-.13-.83-.26-.9-.53l.74,0c-.38-.35-1,0-1.36-.05l0-.15c-1.15.05-1.16.44-2.4.41l.13.12c-.68.39-.57-.22-1.24.07l-.2-.39a22.34,22.34,0,0,1-2.36.45,9.19,9.19,0,0,1,2-.61,4.52,4.52,0,0,0-1.73.22,1.16,1.16,0,0,1,.58-.07,4.16,4.16,0,0,1-2.13.45c0-.25-.13-.36-.69-.41s-1.22,0-1.91-.07a3.53,3.53,0,0,1-.31,1.59l.08.92c0,.19,0,.39,0,.58,0,.39,0,.79,0,1.19a25.41,25.41,0,0,0-.13,2.55c.59-.65,0,.52.63.41,0,.43,0,.59,0,.62L10.44,67c-.18.31-.13-.4-.27-.36-.05.93-.26.39-.42,1,.11-.06.19,0,.23.18a1.26,1.26,0,0,1,0,.3c0,.15,0,.42,0,.66,0-.23.09-.49.14-.66l.14-.37a1.92,1.92,0,0,1,.07.38,3.53,3.53,0,0,1,0,.46,4.29,4.29,0,0,1-.12.77A5.66,5.66,0,0,0,10,71.16l.79-.06-.91.18v0c.7-.06,1.86-.06,3-.11a3.16,3.16,0,0,0,1.59-.38c.12.07.28.24,0,.28,1.6.08,3.56-.52,4.8-.22l-.12.15c.29,0,.52-.28.89-.13,0,.06-.12.15,0,.16a2.86,2.86,0,0,1,1.18-.18l-.33.17c1.55.2,2.39-.41,3.69-.51,0,.44,1.22.58,1.84.65l0,.07a32.81,32.81,0,0,0,4.77-.54c1,.48,3.53.2,5.2.47-.25-.08,0-.35.34-.39s1.09-.31,1,.1h-.14c.29.4,1.1.29,1.73.3l.11-.53c1.65.77,4.32-.28,5.22.41.4-.13.89-.13,1.29-.26l0,.28a21.11,21.11,0,0,0,3,0l-.28.2c.77,0,1-.81,1.68-.83l.21.42c1.34,0,2.7.37,4,0,0,.07-.06.19-.28.21.63,0,2.44.28,2.22-.3,0,.38,1.38,0,2.1-.13l-.11.28A2.6,2.6,0,0,1,60,70.39c.2,0,.18.22-.09.15.67.15.52-.26,1.34-.12l-.3.18a1.27,1.27,0,0,0,1-.28c.43-.11,1.31.07,1.42.32a.93.93,0,0,1,.88-.28c0,.09-.09.15-.17.18,1.16.19,1.73-.32,2.52-.05a.22.22,0,0,0,.14.17c-.92,0-1.67,0-1.6,0,0,.26.75.31.16.66a5.83,5.83,0,0,1,2.34-.49.28.28,0,0,1,.1.09l-.08,0a.88.88,0,0,0,.46,0,2.54,2.54,0,0,0,.6.08c.09.21.86.12,1.23.13,0-.29.46-.24,0-.47.06,0-.07,0-.32,0l-.16,0,0,0-.92,0a1.13,1.13,0,0,1,1-.11,5.21,5.21,0,0,1,.52-.45c.5.39,1.48.6,1.62.84,1.13-.16,2.67-.1,3.38-.63.33-.07.38.15.5.23a3,3,0,0,0-.51.12c.64-.13,1.91,0,2.06-.42.81.17-.45.34.66.28l-.15.11c2.2.59,3.57-.94,6-.18-.17,0-.26-.07-.29-.13,2.78.33,5.72-.31,8.46.22.78.1.86-.13,1.34-.31l.17.3.81-.35c1.15-.25,2,.74,3.46.26l-.19-.2c.52,0,1.66-.12,1.57.11a.3.3,0,0,1,.38-.1v.15l1.29-.27c1,.12-.16.63,1.3.66.54-.06,1.54-.46,1.34-.56s-.56-.1-.58-.26l.5-.08c.09-.47.47-1-.75-1.27l-.84.28-.28-.22.72,0c-.41-.21-.66,0-1,.11a.54.54,0,0,0-.36-.25L100,69c-.1-.18.38-.36-.18-.46-.39.21.37.41-.27.55-.41-.22-.29-.39-.77-.21-.06-.12,0-.19.23-.25-.43.15-1.12.06-1.34.31-.42-.26-1.43.07-1.39-.37a3,3,0,0,1-1.13.36c.71-.52-1.46,0-1.27-.59-.53.47-1.9.21-2.83.47a.32.32,0,0,1,.24-.09,3.79,3.79,0,0,1-1-.27c-.06.39-.88.48-1.32.72-.64-.38.39-.46.19-.82,0,.32-1.12.32-.9.58-.49-.23-.42-.11-.68-.44-.08.49-.45.08-.86.39-.71-.25-.18-.46-1-.31C85.34,68.38,86,68.2,86,68.2Zm-18.57.85h.38Zm-1.56,0c.19,0,.42,0,.67,0,.06.1,0,.2-.16.2C66.51,69.19,66.14,69.14,65.91,69.05Zm3.3,2c-.25,0-.33,0-.37-.07l.44,0,0,0A.45.45,0,0,1,69.21,71Z"/><path class="cls-3" d="M69.65,70.63l.1,0-.14-.06-.09.09Z"/><path class="cls-3" d="M83.44,58.27h0l.07,0Z"/><polygon class="cls-3" points="44.36 68.52 44.36 68.59 44.5 68.52 44.36 68.52"/><path class="cls-3" d="M92,59.23s0,.05.11.07Z"/><path class="cls-3" d="M95.75,59.3l.53.1A3.1,3.1,0,0,0,95.75,59.3Z"/><path class="cls-3" d="M98.61,59.44a.43.43,0,0,0,0-.13h0Z"/><path class="cls-3" d="M53.21,59.77H53.1C52.85,59.83,53,59.81,53.21,59.77Z"/><path class="cls-3" d="M66.72,59.11a3.06,3.06,0,0,1-.43.13C66.53,59.26,66.72,59.27,66.72,59.11Z"/><polygon class="cls-3" points="38.13 60.1 38.13 60.1 38.04 60.1 38.13 60.1"/><path class="cls-3" d="M65.66,59.24a1.48,1.48,0,0,0,.63,0A1.9,1.9,0,0,0,65.66,59.24Z"/><path class="cls-3" d="M102.49,66.3v.14s0,0,0,0Z"/><path class="cls-3" d="M102.52,66.45l0,.15C102.56,66.53,102.55,66.47,102.52,66.45Z"/><path class="cls-3" d="M102.63,66.93l-.07-.33A.45.45,0,0,0,102.63,66.93Z"/><path class="cls-3" d="M102.62,62.52l-.1,0A.19.19,0,0,0,102.62,62.52Z"/><path class="cls-3" d="M102.59,61.37a3.73,3.73,0,0,0-.15,1.07l.08,0C102.37,62.3,102.76,61.63,102.59,61.37Z"/><path class="cls-3" d="M101.26,58.2l1.08.08c-.17-.1-.48-.25.15-.28-.85-.16-.79-.1-.7,0S101.87,58.22,101.26,58.2Z"/><path class="cls-3" d="M98.27,58.05c.52-.06,0-.16,0-.22C98,57.93,97.89,58,98.27,58.05Z"/><path class="cls-3" d="M76.71,58l.05-.25C76.36,57.83,76.76,57.89,76.71,58Z"/><polygon class="cls-3" points="72.59 59.37 72.97 59.52 73.16 59.29 72.59 59.37"/><polygon class="cls-3" points="70.15 57.54 70.33 57.51 69.66 57.6 70.15 57.54"/><path class="cls-3" d="M33.94,57.64l.12.31C34.33,57.89,34.38,57.54,33.94,57.64Z"/><path class="cls-3" d="M18.3,58a.88.88,0,0,0-.88-.11A6.67,6.67,0,0,0,18.3,58Z"/><polygon class="cls-3" points="40.21 71.04 39.9 71.15 40.49 71.06 40.21 71.04"/><rect class="cls-1" x="11.37" y="76.69" width="92" height="12.11"/><path class="cls-3" d="M102.7,88.8c.09.11.28,0,.24-.26l-.33-.21Z"/><path class="cls-3" d="M103.31,86.77c-.16-.36-.44-.77-.74-.54.32.35.18.44.56.82,0,.3-.1.52-.23.47.09.11-.07.47.14.64a1.51,1.51,0,0,0,0-1.42C103.17,86.63,103.25,86.74,103.31,86.77Z"/><path class="cls-3" d="M83.92,76.22l.19,0Z"/><path class="cls-3" d="M65.62,76c.14,0,.2,0,.21-.07S65.59,76,65.62,76Z"/><path class="cls-3" d="M62.5,75.68l.18,0C62.61,75.67,62.54,75.65,62.5,75.68Z"/><path class="cls-3" d="M83.92,76.22l-.49-.1C83.39,76.23,83.68,76.2,83.92,76.22Z"/><path class="cls-3" d="M102.52,82.69a.71.71,0,0,0,.08.27l0-.25Z"/><path class="cls-3" d="M92,76h.15a.5.5,0,0,0,.12-.13Z"/><path class="cls-3" d="M98.17,75.9c-.14,0-.19.27-.24.4a.43.43,0,0,1,.31-.2A.43.43,0,0,0,98.17,75.9Z"/><path class="cls-3" d="M103.65,81.31l0,.17Z"/><path class="cls-3" d="M87.55,75.89a.23.23,0,0,0,0-.1A.14.14,0,0,0,87.55,75.89Z"/><path class="cls-3" d="M96.19,87.48v0S96.24,87.48,96.19,87.48Z"/><path class="cls-3" d="M103.37,88.87l-.1,0a.77.77,0,0,0,0,.15Z"/><path class="cls-3" d="M56.78,75.32h0C57,75.29,56.87,75.3,56.78,75.32Z"/><path class="cls-3" d="M10.2,83.75c.25-.59.33,1,.6.08C10.7,83.91,10.37,83,10.2,83.75Z"/><path class="cls-3" d="M102.55,82.53v-.25A1,1,0,0,0,102.55,82.53Z"/><path class="cls-3" d="M10.8,83.83h0l0-.1Z"/><path class="cls-3" d="M43.61,75.49a.77.77,0,0,0,.13.12S43.71,75.54,43.61,75.49Z"/><path class="cls-3" d="M53.42,75.89l-.24,0Z"/><path class="cls-3" d="M38.51,75.88a.66.66,0,0,0-.35,0l.05,0A.37.37,0,0,1,38.51,75.88Z"/><path class="cls-3" d="M33.21,75.88a.53.53,0,0,0,.1.06h.17Z"/><path class="cls-3" d="M80.07,87.61a.87.87,0,0,1,.25.26C80.24,87.67,81,87.6,80.07,87.61Z"/><path class="cls-3" d="M102.67,82.69a.19.19,0,0,1-.12-.16l0,.18S102.65,82.73,102.67,82.69Z"/><path class="cls-3" d="M38.3,78.1l-.84,0C37.69,78.08,38,78.1,38.3,78.1Z"/><path class="cls-3" d="M42,87.65l.19,0A.3.3,0,0,0,42,87.65Z"/><path class="cls-3" d="M35,78.1a1.24,1.24,0,0,0-.48-.19l-.1.07Z"/><path class="cls-3" d="M80.32,87.87Z"/><path class="cls-3" d="M85.87,87.2c-.8,0-.38.36-.55.58-.95.1-.44-.28-.77-.47-.59.1-1,.44-1.5.43,0-.06-.12-.09,0-.16-.63.29-1.88,0-2.61.38a.22.22,0,0,1-.1-.09.68.68,0,0,1,.11.51c-.36,0-.66.23-.8,0,.22,0,.24-.09.34-.17l-.37.11c-.34-.35.51-.12.51-.38a8.51,8.51,0,0,1-2.15.3c-.12-.34,1.31-.11.56-.41l.87.13c-.66-.54.53,0-.08-.54-1.15-.1-1.28.17-2.43.07-.26.19.09.28-.17.47-1.63.34-1.28-.85-2.48-.4-.31.23-.43.66-1.28.43l.29-.38c-1.11,0-.63.55-1.79.29.2-.15.87-.13.7-.17-.75-.31-.53.21-1.11.21l-.12-.34c-1.19.06-2.49.3-3.8.37.07-.11.3-.21,0-.32A23.61,23.61,0,0,1,62,87.4l-.61.29c-.14,0-.26-.13-.11-.19-.62-.11,0,.19-.33.31s-.46-.17-.24-.26a10.8,10.8,0,0,1-4.28.22l.23-.09c-.9-.12-1,.61-1.85.33L55,88c-2-.13-4.11.14-5.6-.3-.28.42-1.93-.19-2,.4a9.55,9.55,0,0,0-2.37-.59c-.42,0-.62.36-1.14.42v-.3l-.71.32-.37-.37-.49.08c.2,0,.41.14.39.23a2.64,2.64,0,0,1-1.87-.38l-1.8.27c0-.13.34-.17.58-.25-1,.31-.18-.32-1.05,0,.11.07-.07.19-.09.25a5.53,5.53,0,0,0-2.17-.11l.14-.21c-1.33-.06-2.81.1-4.3.1.53.09.41.46,0,.5l-.17-.33c-.29.2.45.13-.13.37-.56,0-.37-.37,0-.47l-.68.11c0-.1.12-.15.16-.27-.28.2-1.17-.33-1.57,0l0-.1c-1.5,0-2.17.11-3.39.13,0,.28-.5.22-.86.45a21.67,21.67,0,0,0-3-.29c-.76.14-.22.24-.56.4-.06-.25-1.13-.23-.58-.41a25.44,25.44,0,0,0-3.29.26c.18.1.38.15.28.23-.3,0-.68-.1-.63-.23l.07,0a8.75,8.75,0,0,1-3-.16,11.25,11.25,0,0,0-1.46-.19H13l-.07,0-.19.12,0,0a1.16,1.16,0,0,1-.27.11.63.63,0,0,1-.16-.21c0-.16.07-.12.13-.1a.2.2,0,0,0,.22-.08.28.28,0,0,1-.12-.12,3.28,3.28,0,0,1-.06-.49c0-.34,0-.66,0-1a6.5,6.5,0,0,0-.05-1.86c.75-1-.06-3.7.43-5.11l-.18.08a.39.39,0,0,1,0-.39l.09-.14s.05,0,.06,0-.11,0-.14,0-.07.09-.12,0a2.52,2.52,0,0,1-.05-.48l6.75.47c1.16,0,.66-.92,2.12-.49l-.42.33c2.33-.4,4.77,0,7.05-.32-.13.07-.14.17-.36.17.48.24,1.78,0,1.79-.18.36,0,.09.17.3.27.49.14,1.22-.3,1.48-.06,0,0-.14.07-.23.09.32-.11,1.47,0,1.17-.25.86.14,1.64-.12,2.32,0,.45-.31,1.47.14,1.61-.29-.06.45,1.5.36,2,.15-.18.14.47.14.26.33.62,0,1.19-.09,1.08-.32,1.14.54,2.29-.44,2.93.25,1.84-.24,3.54-.4,5.19-.51-.06.45-1.83,0-1.76.52a18.59,18.59,0,0,1,4-.46c.4.06-.23.19-.36.27,1.56-.19,3,0,4.42-.21,0,0-.16.09-.3.13.28,0,.64.06.61-.14l-.27.05c-.44-.29,1.09-.62,1.14-.78-.47.59,1.38.15.64.89.18,0,.4-.13.36-.27.27,0,.36.12.08.28,1-.11.64-.33,1.53-.33,0,.1-.18.14-.28.26a2.91,2.91,0,0,1,1.66-.31c0,.06,0,.14-.18.14,1.29,0,2.2-.52,3.62-.33-.42.43.48.14.56.52l.76-.11-.3-.19a11,11,0,0,1,1.83-.14l-.5.15,1.26-.07-.71-.14c.67-.19-.08-.47.81-.37-.18,0,.67,0,1,.23h0A1.94,1.94,0,0,1,68.42,77c.13.12-.1.41,0,.49.33-.31,1.57-.09,2-.42a.26.26,0,0,0-.1.31l.28-.25c.31.08.35.12.3.28.93,0-.29-.48.81-.27-.09,0,0,.06-.22.1,1.11.1,2.14-.17,3.16,0,.3.38-.89.09-.55.41a43.14,43.14,0,0,1,4.47-.36l-.26,0c.19-.54,1.06.26,1.78,0-.18,0-.23.29-.19.23a18.47,18.47,0,0,0,3.47-.3l-.18.14c.57.12,1.51.07,2.13.13.19-.13.54-.11.33-.31,1.91.78,3.65-.41,5.34.23-.2,0-.48.12-.32.12l1.45-.12c-.12-.24-.19-.14-.5-.32a1.82,1.82,0,0,1,1-.25c-.65.16,0,.37.29.5,0-.07.05-.15,0-.22.75.41.12-.46,1.15-.19L94,77a4,4,0,0,1,1.16-.19c.17.27-.41.12-.44.34.58,0,1.15-.5,1.68-.24-.25.08-.6.08-.85.15a1.84,1.84,0,0,0,1.07.29h0l1,.14-.26-.08c.74-.7,1.49-.13,2.48-.59-1,.43-.16.25-.23.55.25.09.63.18.52.27.47-.25.78.19,1.44-.17,0,0,.14,0,.24.08s.11.06.08.18c.27-.08,0-.17,0-.29a1.12,1.12,0,0,1,.9,0,3.37,3.37,0,0,0-.08.57,2.25,2.25,0,0,0,.15.67c.19,1.15.52,1.37.68,2.44-.16.36-.35-.3-.35-.3a3.25,3.25,0,0,0,0,1.58c-.09-.11-.16,0-.27.17,0,.44.36.3.21.88a1.75,1.75,0,0,1-.39-.44c.09.52.27,1,.36,1.58-.17.14-.26-.33-.37-.52.08.61.16,1.57.43,1.76l.09-.39c0,.22-.23.11-.28,0-.21-.52.1-.75.19-.78l.07.39c.57-.4-.1-1.55-.06-2.32l.41.32-.34-.79c.11-.17.34-.29.4.09.21-.55-.15-.49.08-1,0-.06.06,0,.07,0l-.12-.54c.09.1.29-.1.23.24.24-1-.31-1.57,0-1.94l0,.08c-.14-1.33-.3-.17-.66-1.1a4.16,4.16,0,0,0,.75-1,1.53,1.53,0,0,0-.3,0c0-.16,0-.5.15-.55a.48.48,0,0,0-.06-.11c-.23.07-.14.09-.13.13s0,.08-.08.07l-.12.06a2.9,2.9,0,0,0-1.2-.1c-.45,0-.76,0-.84-.26-.24.24.64.18-.07.34-.21-.52-.83.09-1.44-.15.19-.27.77-.12.15-.37-.37.46-1.19-.09-1.7,0,0,.37-1.13.15-2,.27A19.76,19.76,0,0,0,93.81,76l0-.06c-.15.37-1,.3-1.59.38,0-.22.13-.31.46-.41h-.57a1.17,1.17,0,0,1-.68.23l.14-.28a9.83,9.83,0,0,1-2.5.14c0,.26.78.71-.25.89,0-.14-.08-.38.19-.44a.9.9,0,0,1-.49.06l.41-.23c-.44-.11-.23.19-.59.17,0-.2-.26-.14-.21-.3s.31.08.45,0a2.29,2.29,0,0,1-1-.31c0,.12,0,.27-.29.3-.76,0-.26-.24-.7-.34-.19.13-.67,0-.68.29-.22,0-.26-.14-.35-.22-.39.13-1.83,0-1.39.35l.1,0h-.06c-1.29.3-2.67-.17-4,0v-.1a14.38,14.38,0,0,0-2.23.28c-.23,0-.53-.18-.44-.3a3,3,0,0,1-1.49,0c.59-.18-.2-.16.6-.13a2.88,2.88,0,0,0-1.74,0c.28-.26-.56-.32-.92-.25l.53.18a7,7,0,0,1-1.12,0l.19-.34c-1.54-.4-2.79.69-4,0-.41.23.84.16.47.43a9.56,9.56,0,0,1-1.68-.52c-1-.19-.91.48-1.93.36.14.12.26.43-.5.55-.72,0-.88-.5-.43-.6.17,0,.25,0,.25.07.23,0,.53-.09.25-.22l-.1.12c-.35-.12-1.33-.11-1.1-.31-.54.12-.23.2.17.26-.91-.17-1.43,0-2.37-.12.15.06.29.2.14.2-1.38-.14-.61.23-1.54.28-.53-.18.19-.43-.75-.28-.58-.12-.12-.32.11-.41a4.89,4.89,0,0,1-2.1-.19l.46-.1a3.08,3.08,0,0,1-.72,0l.26.24c-.27,0-.49,0-.49-.14-.27.16.21.4-.33.61-.35-.12-1.08.13-1.2-.19,1.11.11-.12-.31.82-.36a2.17,2.17,0,0,1-.67,0s0-.07.11-.08c-1.06-.29-.49.35-1.59.35.14-.18-.26-.34-.43-.3.44,0,.21.29-.2.43-.71-.14-.77.1-1.14.09l.42.06c-.14.18-.49.15-1,.21,0-.14.44-.1.27-.16-.55.32-1.24-.32-2-.11-.36-.12,0-.33-.35-.41-.85.23-.92-.25-1.82-.06.26.24.3.18-.33.42l1.48-.17-1,.35c.45,0,.94-.16,1.21-.11-.45.19-.41.13-.19.33-.61-.36-1.21.21-1.92,0l0-.6c-1.06-.26-1.88.31-3.26.16l.45.1c-.19.24-.85,0-1.3.13,0-.2-.24-.27-.43-.39,0,.14-1,0-1.13.38L42,75.73c-1.11-.11-1.27.56-2.34.49.32-.21-.16-.35.55-.5-.36,0-.68,0-.68.09-.21-.12-1,.27-1.32.08-.15.09-.2.3-.6.28,0,0,0-.1,0-.1s-.62.14-.27.35c-1.1-.61-3.07,0-4-.48-.78.07-1.72.13-2.42.14,0,0,0-.09.13-.07-1-.19-.6.56-1.71.36-.56-.32.59-.17.24-.3-.15-.64-1.34.09-2.09-.29l.18,0c-.57-.22-1.39.24-2.32.2,0,0,.05-.06,0-.1a9.2,9.2,0,0,1-2.75.53c.28-.25.41-.13.24-.39-.4,0,.12.41-.68.48-.26-.13-.84-.26-.92-.53l.76,0c-.39-.35-1,0-1.38,0l0-.15c-1.16,0-1.18.44-2.42.41l.12.12c-.68.39-.57-.22-1.25.07l-.2-.39a22.86,22.86,0,0,1-2.38.45,9.37,9.37,0,0,1,2-.61,4.66,4.66,0,0,0-1.75.22,1.2,1.2,0,0,1,.59-.07,4.28,4.28,0,0,1-2.16.45c0-.25-.11-.36-.68-.41s-1.24,0-1.93-.07a3.6,3.6,0,0,1-.31,1.61l.08.92c0,.19,0,.39,0,.59,0,.39,0,.79,0,1.19-.06.82-.15,1.66-.13,2.57.59-.64,0,.54.63.43,0,.42,0,.59,0,.62l-.37,1.3c-.18.3-.13-.41-.27-.37-.05.93-.26.39-.42,1,.22-.13.31.32.23.85l.28-.74a1.59,1.59,0,0,1-.09,1.21,4.42,4.42,0,0,0-.1,2.13l-.19-.66c0,.39,0,1,.06,1.67.76,0,1.62,0,2.37-.1a3.21,3.21,0,0,0,.87-.12,1.43,1.43,0,0,0,.43-.2c.12.07.28.24,0,.28,1.61.08,3.59-.52,4.84-.22l-.12.15c.3,0,.52-.28.9-.13,0,.06-.12.15,0,.16a3,3,0,0,1,1.2-.18l-.34.17c1.57.2,2.41-.41,3.73-.51,0,.44,1.23.58,1.85.65l0,.07a33.23,33.23,0,0,0,4.8-.54c1.06.48,3.57.2,5.26.47-.26-.08,0-.35.35-.39s1.09-.31,1,.1H37c.3.4,1.11.29,1.75.3l.11-.53c1.66.77,4.36-.28,5.27.41.4-.13.9-.13,1.3-.26l0,.28a21.54,21.54,0,0,0,3,0l-.28.2c.77,0,1-.81,1.69-.83l.22.42c1.35,0,2.73.37,4.07,0a.29.29,0,0,1-.29.21c.64,0,2.47.28,2.24-.3,0,.38,1.4,0,2.13-.13l-.11.28a2.6,2.6,0,0,1,1.5-.55c.2,0,.18.22-.1.15.69.15.54-.26,1.36-.12l-.31.18a1.3,1.3,0,0,0,1-.28c.44-.11,1.32.07,1.43.32a1,1,0,0,1,.89-.28c.06.09-.09.15-.17.18,1.17.19,1.74-.32,2.55-.05a.24.24,0,0,0,.13.17c-.93,0-1.68,0-1.61,0,0,.26.76.31.16.66a5.94,5.94,0,0,1,2.37-.49.26.26,0,0,1,.09.09l-.07,0a.88.88,0,0,0,.46,0,2.62,2.62,0,0,0,.61.08c.09.21.86.12,1.24.13,0-.29.46-.24,0-.47.06,0-.07,0-.32,0l-.16,0,0,0-.93,0a1.15,1.15,0,0,1,1-.11,5.21,5.21,0,0,1,.52-.45c.52.39,1.51.6,1.64.84,1.15-.16,2.7-.1,3.42-.63.33-.07.38.15.5.23a3.39,3.39,0,0,0-.52.12c.65-.13,1.93,0,2.09-.42.82.17-.46.34.66.28l-.15.11c2.22.59,3.61-.94,6.07-.18-.17,0-.26-.07-.29-.13,2.8.33,5.77-.31,8.54.22.79.1.87-.13,1.35-.31l.17.3.82-.35c1.17-.25,2,.74,3.49.26l-.19-.2c.53,0,1.68-.12,1.59.11a.3.3,0,0,1,.38-.1v.15l1.3-.27c1,.12-.15.63,1.32.66.54-.06,1.55-.46,1.35-.56s-.57-.1-.58-.26l.5-.08c.09-.47.47-1-.75-1.27l-.86.28-.28-.22.72,0c-.4-.21-.66,0-.95.11a.54.54,0,0,0-.36-.25L100,88c-.1-.18.38-.36-.19-.46-.39.21.38.41-.27.55-.41-.22-.29-.39-.77-.21-.07-.12,0-.19.22-.25-.42.15-1.13.06-1.35.31-.42-.26-1.44.07-1.4-.37a3.05,3.05,0,0,1-1.14.36c.71-.52-1.47,0-1.28-.59-.53.47-1.92.21-2.86.47a.34.34,0,0,1,.24-.09,3.79,3.79,0,0,1-1-.27c-.07.39-.9.48-1.34.72-.65-.38.39-.46.19-.82,0,.32-1.13.32-.91.58-.49-.23-.42-.11-.68-.44-.09.49-.46.08-.87.39-.72-.25-.19-.46-1-.31C85.17,87.38,85.87,87.2,85.87,87.2Zm-18.75.85h.39Zm-1.58,0c.2,0,.43,0,.69,0,0,.1,0,.2-.17.2C66.15,88.19,65.78,88.14,65.54,88.05Zm3.34,2c-.25,0-.34,0-.37-.07l.44,0,0,0A.71.71,0,0,1,68.88,90Z"/><path class="cls-3" d="M69.33,89.63s0,0,.1,0l-.15-.06-.09.09Z"/><path class="cls-3" d="M84.14,76.27h0l.07,0Z"/><polygon class="cls-3" points="43.78 87.52 43.79 87.59 43.92 87.52 43.78 87.52"/><path class="cls-3" d="M92.82,77.23a.19.19,0,0,0,.11.07Z"/><path class="cls-3" d="M96.57,77.3l.53.1A3.1,3.1,0,0,0,96.57,77.3Z"/><path class="cls-3" d="M99.45,77.44a.3.3,0,0,0,.06-.13h0Z"/><path class="cls-3" d="M53.62,77.77h-.11C53.25,77.83,53.43,77.81,53.62,77.77Z"/><path class="cls-3" d="M67.26,77.11a3.66,3.66,0,0,1-.44.13C67.06,77.26,67.25,77.27,67.26,77.11Z"/><polygon class="cls-3" points="38.39 78.1 38.39 78.1 38.3 78.1 38.39 78.1"/><path class="cls-3" d="M66.19,77.24a1.48,1.48,0,0,0,.63,0A1.9,1.9,0,0,0,66.19,77.24Z"/><path class="cls-3" d="M102.49,85.26v.14l0,0Z"/><path class="cls-3" d="M102.52,85.42l0,.15C102.56,85.5,102.55,85.44,102.52,85.42Z"/><path class="cls-3" d="M102.63,85.9l-.07-.33A.45.45,0,0,0,102.63,85.9Z"/><path class="cls-3" d="M102.62,81.45l-.1,0S102.57,81.44,102.62,81.45Z"/><path class="cls-3" d="M102.59,80.29a3.8,3.8,0,0,0-.15,1.08l.08,0C102.37,81.22,102.76,80.55,102.59,80.29Z"/><path class="cls-3" d="M102.24,76.2l1.2.08c-.12-.1-.35-.25.3-.28-.76-.16-.74-.1-.7,0S103.05,76.22,102.24,76.2Z"/><path class="cls-3" d="M99.12,76.05c.52-.06,0-.16,0-.22C98.81,75.93,98.73,76,99.12,76.05Z"/><path class="cls-3" d="M77.34,76l.06-.25C77,75.83,77.39,75.89,77.34,76Z"/><polygon class="cls-3" points="73.18 77.37 73.57 77.53 73.76 77.29 73.18 77.37"/><polygon class="cls-3" points="70.72 75.54 70.9 75.51 70.23 75.6 70.72 75.54"/><path class="cls-3" d="M34.15,75.64l.13.31C34.55,75.89,34.6,75.54,34.15,75.64Z"/><path class="cls-3" d="M18.37,76a.9.9,0,0,0-.89-.11A6.79,6.79,0,0,0,18.37,76Z"/><polygon class="cls-3" points="39.6 90.04 39.28 90.15 39.88 90.06 39.6 90.04"/></g></g></svg>