<svg id="Groupe_49" data-name="Groupe 49" xmlns="http://www.w3.org/2000/svg" xmlns:xlink="http://www.w3.org/1999/xlink" width="140.572" height="65.072" viewBox="0 0 140.572 65.072">
  <defs>
    <clipPath id="clip-path">
      <rect id="Rectangle_9" data-name="Rectangle 9" width="140.572" height="65.072" fill="#fff"/>
    </clipPath>
  </defs>
  <g id="Groupe_2" data-name="Groupe 2" transform="translate(0 0)">
    <g id="Groupe_1" data-name="Groupe 1" clip-path="url(#clip-path)">
      <path id="Tracé_2" data-name="Tracé 2" d="M25.438,41.623c.545-.62,1.094-1.237,1.634-1.861,1.948-2.248,3.885-4.506,5.846-6.743a1.772,1.772,0,0,0,.468-1.267q-.016-14.385,0-28.769c0-2.019.961-2.972,3-2.973q12.045,0,24.089,0c.574,0,1.219-.078,1.527.553s-.173,1.1-.538,1.525q-5.455,6.4-10.931,12.784a6.072,6.072,0,0,1-4.858,2.2c-1.323-.009-2.646,0-3.986,0V12.352c1.444,0,2.21,0,2.644,0h.251c.564-.006,1.379-.017,1.379-.017a1.006,1.006,0,0,0,.723-.288C48.646,9.786,50.587,7.5,52.53,5.223a3.946,3.946,0,0,0,.275-.437c-.282-.021-.484-.051-.687-.051-4.432,0-8.864.01-13.3-.012-.581,0-.717.188-.714.739.021,4.538.015,9.077.016,13.616q0,6.164,0,12.329a7.4,7.4,0,0,1-1.815,4.954Q29.27,44.539,22.2,52.689c-.029.033-.049.08-.084.1-.38.187-.763.37-1.145.554a3.722,3.722,0,0,1-.445-1.18c-.031-4.817-.021-9.636-.02-14.453,0-6.617,0-13.233.019-19.849,0-.616-.167-.8-.789-.8-6,.025-11.991.02-17.986.017-.612,0-1.333.123-1.658-.558S.33,15.365.725,14.9Q6.12,8.573,11.527,2.257A6.219,6.219,0,0,1,16.494,0c4.111.014,8.222,0,12.333,0h.719V4.739h-.8c-4.154,0-8.308-.006-12.462.017A1.3,1.3,0,0,0,15.4,5.1c-1.959,2.238-3.885,4.5-5.819,6.766-.082.1-.146.206-.3.432.331.018.566.043.8.043q6.135,0,12.269,0a2.589,2.589,0,0,1,2.907,2.881q0,12.815,0,25.629v.692l.176.08" transform="translate(0 0)" fill="#fff"/>
    </g>
  </g>
  <text id="lanner" transform="translate(40.099 39.237)" fill="#fff" font-size="32" font-family="Bauhaus93, 'Bauhaus \39 3'"><tspan x="0" y="0" letter-spacing="-0.049em">la</tspan><tspan y="0" letter-spacing="-0.05em">nne</tspan><tspan y="0">r</tspan></text>
</svg>
