<svg xmlns="http://www.w3.org/2000/svg" viewBox="0 0 71.5 71.9"><defs><style>.cls-1{fill:none;}.cls-1,.cls-2{stroke:#fff;stroke-width:0.5px;}.cls-2{fill:#2c233f;stroke-miterlimit:10;}</style></defs><g id="Calque_2" data-name="Calque 2"><g id="Calque_1-2" data-name="Calque 1"><path class="cls-1" d="M.25.25h0"/><path class="cls-2" d="M50,12.15H2.62C.25,12.15.25,13.71.25,14.53v9.52H52.32V14.53C52.32,12.15,52.32,12.15,50,12.15ZM7.65,21.08a1.49,1.49,0,1,1,1.47-1.49A1.49,1.49,0,0,1,7.65,21.08Zm5.91,0A1.49,1.49,0,1,1,15,19.59,1.49,1.49,0,0,1,13.56,21.08Zm5.92,0A1.49,1.49,0,1,1,21,19.59,1.49,1.49,0,0,1,19.48,21.08Z"/><path class="cls-2" d="M.25,69.27c0,.83,0,2.38,2.37,2.38H50c2.37,0,2.37-1.55,2.37-2.38V26.43H.25Z"/><path class="cls-2" d="M54.68,24.05V55h14.2c2.37,0,2.37-1.55,2.37-2.38V14.53H54.68Z"/><path class="cls-2" d="M68.88.25H19.18c-2.36,0-2.36,1.55-2.36,2.38V9.77H52c1.92,0,2.66,0,2.66,2.38H71.25V2.63C71.25,1.8,71.25.25,68.88.25ZM25.4,6.2a1.49,1.49,0,1,1,1.48-1.49A1.48,1.48,0,0,1,25.4,6.2Zm5.91,0a1.49,1.49,0,1,1,1.48-1.49A1.48,1.48,0,0,1,31.31,6.2Zm5.92,0a1.49,1.49,0,1,1,1.48-1.49A1.48,1.48,0,0,1,37.23,6.2Z"/></g></g></svg>