<svg xmlns="http://www.w3.org/2000/svg" xmlns:xlink="http://www.w3.org/1999/xlink" viewBox="0 0 71 71.7"><defs><style>.cls-1,.cls-3{fill:none;}.cls-2{clip-path:url(#clip-path);}.cls-3{stroke:#449fdb;stroke-width:0.59px;}.cls-4{fill:#2c233f;}.cls-5{fill:#c1c1c1;}.cls-6{fill:#bebdbd;}.cls-7{fill:#b3b2b3;}</style><clipPath id="clip-path" transform="translate(0 -0.15)"><rect class="cls-1" width="71" height="72"/></clipPath></defs><g id="Calque_2" data-name="Calque 2"><g id="Calque_1-2" data-name="Calque 1"><g class="cls-2"><path class="cls-3" d="M0,.45H0" transform="translate(0 -0.15)"/><path class="cls-4" d="M49.7,12.35H2.37C0,12.35,0,13.9,0,14.73v9.52H52.07V14.73C52.07,12.35,52.07,12.35,49.7,12.35ZM7.4,21.27a1.49,1.49,0,1,1,1.48-1.49A1.48,1.48,0,0,1,7.4,21.27Zm5.91,0a1.49,1.49,0,1,1,1.48-1.49A1.48,1.48,0,0,1,13.31,21.27Zm5.92,0a1.49,1.49,0,1,1,1.48-1.49A1.48,1.48,0,0,1,19.23,21.27Z" transform="translate(0 -0.15)"/><path class="cls-4" d="M0,69.47c0,.82,0,2.38,2.37,2.38H49.7c2.37,0,2.37-1.55,2.37-2.38V26.63H0Z" transform="translate(0 -0.15)"/><path class="cls-4" d="M54.43,24.25V55.19h14.2C71,55.19,71,53.64,71,52.81V14.73H54.43Z" transform="translate(0 -0.15)"/><path class="cls-4" d="M68.63.45H18.93C16.57.45,16.57,2,16.57,2.83V10h35.2c1.92,0,2.66,0,2.66,2.38H71V2.83C71,2,71,.45,68.63.45Zm-43.48,6a1.49,1.49,0,1,1,1.47-1.49A1.49,1.49,0,0,1,25.15,6.4Zm5.91,0a1.49,1.49,0,1,1,1.48-1.49A1.49,1.49,0,0,1,31.06,6.4ZM37,6.4a1.49,1.49,0,1,1,1.48-1.49A1.49,1.49,0,0,1,37,6.4Z" transform="translate(0 -0.15)"/></g><g id="Calque_2-2" data-name="Calque 2"><g id="Calque_1-3" data-name="Calque 1"><path id="Tracé_71" data-name="Tracé 71" class="cls-5" d="M21.34,49.2c-3,.95-7.95-1.9-8.2,4.27-.17,4,2.85,6.27,8.18,6.3s8.27-2.19,8.15-6.27C29.27,47.26,24.34,50.17,21.34,49.2Zm3.07,8.54c-1.06.22-2.16.35-3.24.5a9.64,9.64,0,0,1-4.58-1.1c-1.9-.85-2-2.66-1.8-4.41.22-2,1.8-1.83,3.23-1.84h5.7c1.9,0,4.12-.57,4.37,2.21.24,2.51-1.14,4.15-3.67,4.69Z" transform="translate(0 -0.15)"/><path id="Tracé_72" data-name="Tracé 72" class="cls-6" d="M21.58,48.13c3.06-.7,5.14-2.35,4.86-5.7a4.75,4.75,0,0,0-4.72-4.78q-.3,0-.6,0a4.86,4.86,0,0,0-5,4.73,4,4,0,0,0,.05.84C16.4,46.23,18.51,47.79,21.58,48.13Zm-.27-8.75c2.23,0,3.4,1.32,3.5,3.49-.29,2.23-1.39,3.46-3.73,3.36s-3.3-1.57-3.2-3.8S19.38,39.37,21.31,39.38Z" transform="translate(0 -0.15)"/><path id="Tracé_73" data-name="Tracé 73" class="cls-6" d="M31.83,47.9c2.09,0,3.39-1.39,3.4-3.86A3.33,3.33,0,0,0,32,40.65h-.18a3.25,3.25,0,0,0-3.59,2.85,3.51,3.51,0,0,0,0,.56C28.09,46.49,29.49,48,31.83,47.9Zm-.26-5.58a1.89,1.89,0,0,1,2.14,1.62,1.5,1.5,0,0,1,0,.22,1.8,1.8,0,0,1-1.49,2.05l-.12,0c-1.63,0-2.45-.69-2.53-1.9a1.9,1.9,0,0,1,1.79-2Z" transform="translate(0 -0.15)"/><path id="Tracé_74" data-name="Tracé 74" class="cls-7" d="M35.92,50.29c-1.49-1.34-3.5-1.47-6.38,0,3,.89,6.7.24,5.5,4.35-.94,1.9-3.63,1.29-5.35,3.74,3-.22,5.09-.28,6.33-2.66C37.48,53.82,37.55,51.81,35.92,50.29Z" transform="translate(0 -0.15)"/></g></g></g></g></svg>