<svg xmlns="http://www.w3.org/2000/svg" viewBox="0 0 89.64 79.94"><defs><style>.cls-1{fill:#fff;}.cls-2{fill:none;}.cls-3{fill:#473f57;}.cls-4{fill:#b7a5db;}</style></defs><g id="Calque_2" data-name="Calque 2"><g id="Calque_1-2" data-name="Calque 1"><path class="cls-1" d="M40.33,22.91a.67.67,0,0,1,.35-.55l3.79-1.9a.55.55,0,0,0,.28-.55l-.87-4a.6.6,0,0,0-.48-.39l-4.32-.28a.72.72,0,0,1-.55-.36L38,13.77a.68.68,0,0,1,0-.65l2.18-3.67a.58.58,0,0,0-.06-.62l-2.94-3a.56.56,0,0,0-.61-.07L32.77,7.85a.73.73,0,0,1-.66,0l-1-.58a.71.71,0,0,1-.35-.55L30.59,2.4a.56.56,0,0,0-.37-.49l-4.07-1a.55.55,0,0,0-.55.27L23.58,5c-.1.18-.27.33-.37.33h-.1c-.58,0-1.35.06-1.35.06a.77.77,0,0,1-.6-.29L18.69,1.52a.57.57,0,0,0-.58-.21L14.23,2.62a.55.55,0,0,0-.32.52l.33,4.22A.75.75,0,0,1,14,8l-1.24.85a.75.75,0,0,1-.65.08l-4-1.65a.58.58,0,0,0-.6.13L5,10.45a.56.56,0,0,0,0,.61l2.55,3.36a.69.69,0,0,1,.07.65L6.9,16.73a.77.77,0,0,1-.51.42l-4.24.77a.54.54,0,0,0-.43.44,34.6,34.6,0,0,0-.42,4.16h0a2,2,0,0,0,.36.15l4,1.44a.73.73,0,0,1,.41.51l.37,2a.73.73,0,0,1-.2.63L3.07,30.2a.57.57,0,0,0-.12.61l1.71,3.31a.54.54,0,0,0,.56.24l4.13-.92a.69.69,0,0,1,.62.2l1.52,1.58a.73.73,0,0,1,.18.63L10.62,40a.56.56,0,0,0,.23.57l3.22,1.82a.57.57,0,0,0,.61-.1l3-3a.72.72,0,0,1,.63-.18l2.13.48a.71.71,0,0,1,.49.42l1.33,4a.57.57,0,0,0,.5.37h.36c1.28,0,3.39-.27,3.39-.27a.58.58,0,0,0,.45-.42l.88-4.2a.77.77,0,0,1,.44-.49l1.87-.71a.72.72,0,0,1,.65.09L34.07,41a.54.54,0,0,0,.61,0l3.08-2.34a.56.56,0,0,0,.15-.6l-1.53-4a.71.71,0,0,1,.1-.65l1-1.39a.72.72,0,0,1,.59-.27l4.2.45a.56.56,0,0,0,.53-.31l1.37-3.76a.58.58,0,0,0-.19-.59l-3.48-2.57a.73.73,0,0,1-.27-.6l.09-1.43ZM23.11,35.22A12.71,12.71,0,1,1,35.82,22.51,12.71,12.71,0,0,1,23.11,35.22Z"/><path class="cls-2" d="M40.33,22.91a.67.67,0,0,1,.35-.55l3.79-1.9a.55.55,0,0,0,.28-.55l-.87-4a.6.6,0,0,0-.48-.39l-4.32-.28a.72.72,0,0,1-.55-.36L38,13.77a.68.68,0,0,1,0-.65l2.18-3.67a.58.58,0,0,0-.06-.62l-2.94-3a.56.56,0,0,0-.61-.07L32.77,7.85a.73.73,0,0,1-.66,0l-1-.58a.71.71,0,0,1-.35-.55L30.59,2.4a.56.56,0,0,0-.37-.49l-4.07-1a.55.55,0,0,0-.55.27L23.58,5c-.1.18-.27.33-.37.33h-.1c-.58,0-1.35.06-1.35.06a.77.77,0,0,1-.6-.29L18.69,1.52a.57.57,0,0,0-.58-.21L14.23,2.62a.55.55,0,0,0-.32.52l.33,4.22A.75.75,0,0,1,14,8l-1.24.85a.75.75,0,0,1-.65.08l-4-1.65a.58.58,0,0,0-.6.13L5,10.45a.56.56,0,0,0,0,.61l2.55,3.36a.69.69,0,0,1,.07.65L6.9,16.73a.77.77,0,0,1-.51.42l-4.24.77a.54.54,0,0,0-.43.44,34.6,34.6,0,0,0-.42,4.16h0a2,2,0,0,0,.36.15l4,1.44a.73.73,0,0,1,.41.51l.37,2a.73.73,0,0,1-.2.63L3.07,30.2a.57.57,0,0,0-.12.61l1.71,3.31a.54.54,0,0,0,.56.24l4.13-.92a.69.69,0,0,1,.62.2l1.52,1.58a.73.73,0,0,1,.18.63L10.62,40a.56.56,0,0,0,.23.57l3.22,1.82a.57.57,0,0,0,.61-.1l3-3a.72.72,0,0,1,.63-.18l2.13.48a.71.71,0,0,1,.49.42l1.33,4a.57.57,0,0,0,.5.37h.36c1.28,0,3.39-.27,3.39-.27a.58.58,0,0,0,.45-.42l.88-4.2a.77.77,0,0,1,.44-.49l1.87-.71a.72.72,0,0,1,.65.09L34.07,41a.54.54,0,0,0,.61,0l3.08-2.34a.56.56,0,0,0,.15-.6l-1.53-4a.71.71,0,0,1,.1-.65l1-1.39a.72.72,0,0,1,.59-.27l4.2.45a.56.56,0,0,0,.53-.31l1.37-3.76a.58.58,0,0,0-.19-.59l-3.48-2.57a.73.73,0,0,1-.27-.6l.09-1.43ZM23.11,35.22A12.71,12.71,0,1,1,35.82,22.51,12.71,12.71,0,0,1,23.11,35.22Z"/><path class="cls-3" d="M23.11,34.55c0,.09,0,.29.09.24l.08-.33Z"/><path class="cls-3" d="M23.88,35.13a.81.81,0,0,0,.15-.76c-.1.33-.14.2-.26.58-.12,0-.21-.1-.19-.22,0,.09-.18-.06-.23.15.15.25.35.25.53,0A.33.33,0,0,1,23.88,35.13Z"/><path class="cls-3" d="M33.83,30.14l-.07,0Z"/><path class="cls-3" d="M36.42,23.39a.1.1,0,0,0,.07.09C36.47,23.43,36.45,23.38,36.42,23.39Z"/><path class="cls-3" d="M36.81,22.13l0,.07S36.84,22.14,36.81,22.13Z"/><path class="cls-3" d="M33.83,30.14,34,30C34,30,33.91,30.08,33.83,30.14Z"/><path class="cls-3" d="M25.28,34.16a.27.27,0,0,0-.08.1l.08,0Z"/><path class="cls-3" d="M31.85,32.7l0,0a1.12,1.12,0,0,0,.05.13Z"/><path class="cls-3" d="M29.83,34.2c.06,0-.06-.28-.11-.39,0,.11,0,.18,0,.23Z"/><path class="cls-3" d="M26,35.17l-.06,0Z"/><path class="cls-3" d="M33.18,31.49l.09.05A.2.2,0,0,0,33.18,31.49Z"/><path class="cls-3" d="M20.66,33.63v0S20.68,33.63,20.66,33.63Z"/><polygon class="cls-3" points="23.11 35.29 23.07 35.3 23.06 35.46 23.11 35.29"/><path class="cls-3" d="M36.91,19.71h0C37,19.77,36.94,19.74,36.91,19.71Z"/><path class="cls-3" d="M20.17,9c.29.19-.31.41.1.6C20.21,9.45,20.51,9,20.17,9Z"/><path class="cls-3" d="M25.34,34.19l.09,0S25.36,34.17,25.34,34.19Z"/><path class="cls-3" d="M20.27,9.55h0l0,0Z"/><path class="cls-3" d="M34.61,14.68a.19.19,0,0,0-.07.11A.42.42,0,0,0,34.61,14.68Z"/><path class="cls-3" d="M36,18.49v-.1A.18.18,0,0,0,36,18.49Z"/><path class="cls-3" d="M33,13.29c0-.06,0-.1-.08-.13s0,0,0,.05S33,13.21,33,13.29Z"/><path class="cls-3" d="M31.38,11.83a.16.16,0,0,0,0,.07l.06,0Z"/><path class="cls-3" d="M15.66,31.3a1.09,1.09,0,0,1-.1.25C15.67,31.38,15.92,31.51,15.66,31.3Z"/><path class="cls-3" d="M25.31,34.32c0-.08,0-.11,0-.13l-.06,0A.35.35,0,0,0,25.31,34.32Z"/><path class="cls-3" d="M31.3,14.75l-.16-.24A2.5,2.5,0,0,0,31.3,14.75Z"/><path class="cls-3" d="M12,19.31l0,.08A.07.07,0,0,0,12,19.31Z"/><path class="cls-3" d="M30.48,14a.59.59,0,0,0,0-.26l-.07,0Z"/><path class="cls-3" d="M15.56,31.55Z"/><path class="cls-3" d="M17.52,32.1c-.23-.15-.3.24-.46.4-.34-.09,0-.32,0-.53-.23,0-.55.17-.67.06,0-.06,0-.09.09-.13-.35.1-.53-.38-1-.25l0-.1a1.81,1.81,0,0,1-.29.42c-.1-.08-.34,0-.22-.21.06.06.13,0,.2,0h-.17c.14-.35.22,0,.39-.16-.27-.09-.7-.09-.78-.3.2-.27.43.23.44-.17l.14.31c.18-.56.11.15.33-.42-.22-.34-.45-.16-.66-.52-.19.07-.18.22-.37.28-.65-.21.33-.9-.29-.91-.24.06-.6.29-.61-.09l.37-.16c-.2-.33-.58.15-.62-.33.17,0,.29.17.29.1.09-.39-.29,0-.41-.19l.26-.23c-.25-.32-.73-.57-1-1,.1,0,.23,0,.28-.14a2,2,0,0,1-.41-.81,5.71,5.71,0,0,1-.06-.91L12,26s.1-.12.17-.09c.06-.24-.18,0-.32,0s.13-.21.23-.16c-.33-.29-.81-.95-.53-1.41l.1.07c.07-.33-.65-.28-.43-.61l.06,0c.07-.69-.23-1.48.26-2-.42-.13.22-.66-.34-.76.35-.36.44-.24.71-.74.05-.13-.31-.28-.33-.47l.3.06-.25-.31.39,0,0-.18a.26.26,0,0,1-.26.07c-.07-.31.38-.57.54-.52l0-.68c.11.06.11.18.16.28-.18-.42.32.06.16-.33-.08,0-.16-.09-.22-.12a.8.8,0,0,0,.42-.64l.17.14c.22-.39.37-.89.63-1.33-.17.1-.46-.13-.41-.29l.3.13c-.11-.2-.18.07-.28-.24.15-.14.38.1.4.25l.05-.26c.09.05.1.12.19.21-.1-.2.5-.13.3-.45l.09.05c.29-.41.39-.63.65-1-.2-.2,0-.28-.11-.53a3.36,3.36,0,0,0,1-.49c.11-.28-.09-.24-.1-.44.18.18.46-.06.42.2a5.4,5.4,0,0,0,.79-.87c-.11-.06-.19-.06-.21-.15s.27,0,.32.08v0c.38-.7,1.64,0,1.87-.71v0l.4-.44c.24-.05-.07.23.15.32.39-.63.87-.18,1.25-.59a.74.74,0,0,0,.88.17c.32-.12.67-.23.92,0l0-.17c.12-.18.16.09.25.13,0-.14-.14-.16-.07-.26,1.08-.28,2.22.31,3.19.72.35.14.45-.83.83-.3l-.24.28a2.27,2.27,0,0,1,1.21.23,3,3,0,0,0,1.15.41c-.07,0-.12.12-.19.09,0,.29.51.33.62.16.1.08-.06.17-.05.29s.53-.05.46.21c0,0-.08,0-.11,0,.15,0,.38.33.46,0,.16.29.54.24.62.52.31-.13.27.46.61.17-.33.32.14.6.41.61-.15,0,0,.22-.18.29.14.15.33.24.48.06-.13.63.85.36.44.95a4,4,0,0,1,.77.6,4.4,4.4,0,0,1,.63.67c-.39.18-.35-.55-.76-.28.46.35.9.5,1.06,1,0,.15-.21,0-.3,0,.39.43.35,1,.73,1.38a.21.21,0,0,1-.15-.06c0,.09,0,.23.19.17l-.08-.08c.25-.24.7.21.86.2-.61,0,0,.52-.81.43a.31.31,0,0,0,.3.07c0,.1-.09.14-.26.08.2.31.36.16.42.47-.1,0-.15,0-.27-.05.21.12.43.26.39.54-.06,0-.14,0-.15-.05.12.44.59.75.44,1.28-.44-.14-.14.18-.51.21a1.53,1.53,0,0,1,.11.27l.19-.11c0,.24.24.47.11.67L35,23l.05.46.16-.25c.18.26.47,0,.35.33,0-.07,0,.26-.26.36h0c.1.13.2.28.08.45s-.4-.1-.48-.08c.28.16,0,.57.29.79a.47.47,0,0,0-.3-.1l.23.15c-.11.09-.15.1-.3,0-.13.32.49,0,.19.36,0,0-.06,0-.08-.11-.2.37,0,.82-.29,1.13-.4,0,0-.34-.32-.32-.11.51,0,1.2-.29,1.63l.08-.07c.44.3-.4.24-.3.58,0-.07-.21-.21-.17-.17-.26.26-.25.68-.41,1.24l-.07-.13c-.23.1-.39.4-.58.54.07.14,0,.23.18.29a.84.84,0,0,0-.79.66c-.12.33-.27.65-.73.62.06-.05.05-.21,0-.17l-.3.45c.18.15.14.06.34.12a.47.47,0,0,1-.11.43c.08-.29-.23-.28-.4-.32.06,0,.08.12.13.17-.48-.15.25.39-.23.41l-.06-.11c-.08.14-.09.35-.24.42-.2-.18.06-.2-.07-.38-.16.14-.05.68-.38.56,0-.11.16-.18.19-.3-.35-.13-.33-.07-.49,0h0l-.39.07.13,0c.12.73-.39.42-.52,1,.13-.54-.06-.25-.17-.53-.13,0-.29-.06-.3-.15,0,.29-.33-.06-.39.37-.05-.08-.16.07-.23-.17-.16.16.11.13.15.25-.19.46-.88-.1-1.18.51-.35.29-.35.62-.71.89-.17-.12,0-.38,0-.38a.54.54,0,0,0-.58.14c0-.09,0-.16-.11-.26-.15.05,0,.37-.28.26a1.6,1.6,0,0,1,.09-.41c-.17.12-.33.32-.51.44-.08-.16.08-.27.13-.39-.2.11-.54.24-.59.5l.16.09c-.08,0-.07-.22,0-.28.16-.24.28.05.3.14l-.13.09c.22.54.57-.18.85-.19l0,.43.24-.39c.08.1.17.32,0,.4.25.16.15-.18.38,0a0,0,0,0,1,0,.07L26.2,35c0,.09.1.27,0,.25.44.13.52-.46.74-.19l0,0c.46-.29,0-.3.21-.77l.5.62-.05-.3c.05,0,.16,0,.18.09.12-.26-.07-.11,0-.33.36.18.61-.39.86,0,0-.25-.3-.05-.11-.32.29.44.24-.22.56-.11.06.28-.21.25.12.36-.08-.47.47-.12.6-.31-.17-.32.31-.37.54-.65.05.13.63-.2,1-.29l0,0c-.17-.33.14-.46.27-.68a.44.44,0,0,1,.12.43l.17-.15a.4.4,0,0,1,.06-.36l.14.25c.21-.23.24-.64.64-.79-.17-.2-.71-.28-.57-.69.11.08.29.23.26.35,0,0,0-.17.09-.18l.06.28c.19-.06-.08-.2,0-.29.14.14.17,0,.28.14s-.15,0-.13.13a.62.62,0,0,1,.51-.1c-.1-.07-.2-.18-.14-.29s.25.08.45,0c-.05-.14.17-.21-.05-.4.05-.07.17,0,.25,0,0-.2.42-.61.05-.66l0,0v0h0c.08-.56.71-.8.88-1.29l.08.05c.06-.32.25-.64.15-.92a.28.28,0,0,1,.35,0c0-.24-.05-.3.21-.55.08.28.17,0,0,.27.18-.25.35-.27.21-.67.2.2.38-.11.36-.27l-.24.14a1.18,1.18,0,0,1,.16-.42l.29.17c.56-.52-.36-1.26.38-1.59-.2-.21-.21.31-.45.11.08-.27.6-.5.62-.59.23-.38-.42-.44-.26-.83a.41.41,0,0,1-.53-.25c.06-.27.51-.31.6-.13s0,.11-.07.1.08.22.21.12l-.11-.05c.13-.13.13-.54.32-.43-.1-.23-.19-.11-.26.05.19-.37.06-.58.14-1-.06.07-.2.12-.2.06.12-.56-.24-.24-.31-.61.17-.22.44.05.27-.32.11-.24.31-.08.41,0-.23-.33.06-.68.08-.9l.13.18a.53.53,0,0,1-.1-.29l-.22.14c0-.12,0-.21.11-.22-.17-.09-.38.14-.62,0,.09-.16-.19-.41.1-.52,0,.47.3-.11.42.27a.36.36,0,0,1,0-.28s.07,0,.09,0c.17-.5-.4-.13-.5-.57.18,0,.3-.19.24-.26,0,.19-.26.16-.44,0,.06-.32-.17-.28-.2-.43l0,.19c-.18,0-.19-.15-.32-.32.13-.06.16.14.19.05-.37-.1.13-.57-.17-.8.06-.18.3-.13.33-.28-.33-.25.08-.46-.26-.72-.17.19-.11.18-.43.05l.42.48-.49-.21c.07.16.31.28.31.4-.25-.1-.19-.1-.34.06.22-.37-.4-.35-.3-.7l.54-.26c.05-.53-.62-.55-.79-1.1v.21c-.24.06-.21-.28-.39-.38.18-.1.18-.23.24-.37-.12.09-.24-.34-.59-.15l.06-.36c-.2-.43-.74-.07-1-.42.25,0,.22-.28.53-.17-.09-.11-.15-.23-.26-.14,0-.15-.47-.12-.42-.34-.1,0-.26.14-.36,0a.21.21,0,0,1,.07-.07c-.07.06-.27-.08-.32.17.09-.73-.91-.8-.89-1.42a8,8,0,0,1-.88-.46c.05,0,.06-.08.09,0-.23-.36-.51.35-.77-.05,0-.39.29,0,.23-.2.28-.58-.5-.21-.59-.68h.09c-.11-.3-.63,0-.95-.23a.31.31,0,0,0,0-.09,2.43,2.43,0,0,1-1.22.09c.19-.2.19-.07.22-.34-.17,0-.1.41-.42.37-.05-.17-.23-.37-.18-.63l.3.08c0-.4-.39-.11-.52-.21l.06-.14c-.48-.07-.58.31-1.06.16l0,.12c-.34.33-.18-.25-.5,0l0-.4a6.58,6.58,0,0,1-1,.32c.21-.29.6-.37.87-.51-.18,0-.62-.06-.73.12.07,0,.17-.11.24,0a1.12,1.12,0,0,1-.9.39c.1-.76-.91-.25-1.19-.8a1.73,1.73,0,0,1-1,.11,4.39,4.39,0,0,0-1.08,0c.38.55-.21.05-.05.64-.16.07-.22.09-.25.05l-.59-.23c-.17-.14.13-.17.08-.3-.39.05-.22-.21-.52-.3.11.2,0,.34-.29.31l.38.2c-.43.44-.6-.35-1,.13l.1-.24c-.23.2-1,.36-1,1-.08,0-.21-.16-.11-.26C16.57,10,16.17,11,15.58,11l0-.15c-.08.1,0,.34-.24.31,0-.05-.05-.15-.1-.12s-.12.41-.3.44l0-.22c-.67.23-.56.93-.87,1.37-.29-.32-.79-.09-1,.06l0-.05a4.3,4.3,0,0,0-.89,1.88c-.66.06-1,1.12-1.54,1.63.12-.07.29.17.28.3s.08.54-.27.34l0-.05c-.41,0-.48.31-.57.56l.47.24a1.11,1.11,0,0,0-.62,1.06c0,.42,0,.8-.41.91.08.19,0,.39.16.58L9.36,20a3.14,3.14,0,0,0-.21,1.27L9,21.14c0,.34.79.48.79.77L9.32,22c-.05.55-.35,1.15,0,1.69-.06,0-.19,0-.21-.1,0,.26-.16,1.07.4.89-.37.06,0,.59.27.85H9.54c.41.17.51.16.69.47,0,.09-.2.12-.16,0-.07.31.31.14.25.5l-.2-.07c.05.28.13.24.38.32a.45.45,0,0,1-.1.65c.16,0,.4,0,.39.23a.19.19,0,0,1-.19,0c0,.53.58.51.46.92a.38.38,0,0,0-.13.12,2.51,2.51,0,0,1-.24-.61c-.24.1-.14.41-.58.32.29.16.86.36.88.68a.42.42,0,0,1-.06.08h0a.18.18,0,0,0,.12.15.66.66,0,0,0,.06.25c-.16.14.09.37.17.51.23-.16.29,0,.39-.24,0,0,0,0-.1-.09s0,0-.06,0h0l-.21-.31c.19,0,.36.07.31.3l.49-.06c-.23.38-.19.84-.34,1,.42.29.74.86,1.35.72.14.05,0,.21,0,.3s-.14-.1-.23-.08c.28.11.57.55.88.34.1.36-.38.11,0,.39l-.13,0c.13.51.58.6,1,.69s.84.12,1,.73a.24.24,0,0,1,0-.18c.77.92,2.1.93,2.95,1.77.26.21.37,0,.61-.11l0,.32.42-.25c.5-.15.6.95,1.29.56l0-.21c.2.07.67,0,.6.2,0,0,.1-.19.17-.08l0,.16a3.21,3.21,0,0,0,.54-.22c.4.13-.11.62.49.68.24,0,.65-.42.56-.53a.28.28,0,0,1-.22-.27l.19-.08c0-.46.16-.93-.26-1.28l-.31.27-.08-.23h.25c-.14-.22-.23,0-.34.09a.49.49,0,0,0-.11-.26l-.33.43c0-.18.16-.34,0-.47-.16.19.09.43-.16.53-.12-.23-.05-.4-.24-.25a.22.22,0,0,1,.11-.23c-.17.12-.4,0-.52.23-.1-.27-.52,0-.41-.45a.75.75,0,0,1-.47.25c.37-.45-.5-.16-.27-.68-.32.42-.68,0-1.09.12,0,0,.1-.09.11-.06-.16-.1-.15-.25-.23-.37-.17.35-.47.31-.71.46,0-.45.32-.36.4-.72-.12.29-.48.12-.53.39-.05-.29-.09-.17,0-.5-.25.42-.18,0-.45.2-.09-.34.18-.43-.13-.45C17.23,32.13,17.52,32.1,17.52,32.1Zm-5-4.1h0l.08.12Zm-.25-.51a1.71,1.71,0,0,0,.09.22c-.07.06-.17.09-.19,0S12.2,27.6,12.24,27.49Zm-1.13,2.05c-.08-.07-.06-.13,0-.17l.12.14h0A.42.42,0,0,1,11.11,29.54Z"/><path class="cls-3" d="M11.53,29.51l0,0s0-.06,0-.08h-.1Z"/><path class="cls-3" d="M33.74,30.18h0Z"/><polygon class="cls-3" points="11.98 19.94 11.91 19.92 11.96 19.98 11.98 19.94"/><path class="cls-3" d="M30.79,31.94a.11.11,0,0,0-.08,0Z"/><path class="cls-3" d="M29.64,32.68l-.22,0A.47.47,0,0,0,29.64,32.68Z"/><path class="cls-3" d="M28.67,33.09a.34.34,0,0,0,0,.12h0Z"/><path class="cls-3" d="M34.23,19.12a.05.05,0,0,0,0,0C34.14,19,34.17,19.06,34.23,19.12Z"/><path class="cls-3" d="M35.31,23.93a.87.87,0,0,1-.11-.18C35.17,23.84,35.15,23.91,35.31,23.93Z"/><polygon class="cls-3" points="31.32 14.78 31.32 14.77 31.3 14.75 31.32 14.78"/><path class="cls-3" d="M35.22,23.52a.22.22,0,0,0,0,.23A.3.3,0,0,0,35.22,23.52Z"/><path class="cls-3" d="M24.37,34.27h-.05v0Z"/><path class="cls-3" d="M24.32,34.31l-.05,0S24.31,34.35,24.32,34.31Z"/><path class="cls-3" d="M24.16,34.43l.11-.08S24.17,34.35,24.16,34.43Z"/><path class="cls-3" d="M25.74,34.17v-.1A.41.41,0,0,0,25.74,34.17Z"/><path class="cls-3" d="M26.14,34c-.11,0-.3-.15-.41,0v.08C25.76,33.91,26.09,34.23,26.14,34Z"/><path class="cls-3" d="M28.28,34.65l-.39.06c.1.08.24.18.08.27C28.56,35.11,27.79,34.79,28.28,34.65Z"/><path class="cls-3" d="M29.44,34.27c-.17.13.07.13.09.19C29.61,34.31,29.62,34.27,29.44,34.27Z"/><path class="cls-3" d="M35.29,28l.23.12C35.56,27.91,35.43,28,35.29,28Z"/><path class="cls-3" d="M34.62,26l-.19.09.2.13A1.7,1.7,0,0,0,34.62,26Z"/><polygon class="cls-3" points="36.62 25.53 36.64 25.61 36.62 25.32 36.62 25.53"/><path class="cls-3" d="M31.84,11.87l-.16.28C31.8,12.18,32.05,11.92,31.84,11.87Z"/><path class="cls-3" d="M25.93,9.37c0-.18-.2-.31-.34-.17C25.73,9.24,25.85,9.38,25.93,9.37Z"/><polygon class="cls-3" points="10.03 17.68 9.97 17.52 9.97 17.79 10.03 17.68"/><path class="cls-3" d="M41,22.93c-.08-.11-.28,0-.26.23l.32.21Z"/><path class="cls-3" d="M40.37,24.68a.7.7,0,0,0,.53.09.52.52,0,0,0,.35-.27c-.39.09-.34,0-.77-.11,0-.23.13-.41.24-.38-.08,0,.1-.35-.1-.51a1,1,0,0,0-.24.55.51.51,0,0,0,.21.54C40.56,24.7,40.44,24.67,40.37,24.68Z"/><path class="cls-3" d="M34.46,40.53h0Z"/><path class="cls-3" d="M23.32,43.68a.11.11,0,0,0,.12-.07C23.37,43.63,23.31,43.66,23.32,43.68Z"/><path class="cls-3" d="M22.68,42l0,.16C22.71,42.12,22.71,42.06,22.68,42Z"/><path class="cls-3" d="M34.46,40.53a.5.5,0,0,1-.27-.19C34.14,40.45,34.31,40.54,34.46,40.53Z"/><path class="cls-3" d="M43.68,26.23a.55.55,0,0,0-.24-.07l.2.1Z"/><path class="cls-3" d="M36.35,36l0-.12a.85.85,0,0,0-.17-.06Z"/><path class="cls-3" d="M38.73,31c-.19,0-.25.24-.31.36a.48.48,0,0,1,.35-.16A.63.63,0,0,0,38.73,31Z"/><path class="cls-3" d="M43.82,27.8l-.12-.09A.94.94,0,0,1,43.82,27.8Z"/><path class="cls-3" d="M36.61,38.54a.16.16,0,0,0-.1,0Z"/><path class="cls-3" d="M45.88,18.89s0,0-.05,0S45.89,19,45.88,18.89Z"/><path class="cls-3" d="M40.25,22.91V22.8l-.15-.06A1.29,1.29,0,0,0,40.25,22.91Z"/><path class="cls-3" d="M18.7,37.74l0,0C19,37.78,18.85,37.75,18.7,37.74Z"/><path class="cls-3" d="M4.59,18.66c-.56-.16.79-.47,0-.61C4.64,18.15,3.91,18.61,4.59,18.66Z"/><path class="cls-3" d="M43.77,26.34l.25.18A1.24,1.24,0,0,0,43.77,26.34Z"/><path class="cls-3" d="M4.55,18.05Z"/><path class="cls-3" d="M12.16,38.82a.28.28,0,0,0-.15.08S12.08,38.89,12.16,38.82Z"/><path class="cls-3" d="M15.68,40.1l-.18.13A.93.93,0,0,0,15.68,40.1Z"/><path class="cls-3" d="M11.31,33.87c-.07-.1-.07-.16-.21-.24s0,0,0,0A.3.3,0,0,1,11.31,33.87Z"/><path class="cls-3" d="M6.3,33.3l.09,0,.15-.05Z"/><path class="cls-3" d="M40.75,10.71a.53.53,0,0,1-.34.08C40.63,10.82,40.31,11.49,40.75,10.71Z"/><path class="cls-3" d="M43.59,26.35a.17.17,0,0,1,.18,0l-.13-.08S43.58,26.31,43.59,26.35Z"/><path class="cls-3" d="M9.58,35.27,9.33,35l0-.06a.64.64,0,0,0,0,.07Z"/><path class="cls-3" d="M19.57.79l.15.15.05.06,0-.06A.54.54,0,0,0,19.57.79Z"/><path class="cls-3" d="M8.3,35.12a1.27,1.27,0,0,0-.46-.1l-.07.09Z"/><path class="cls-3" d="M40.41,10.79Z"/><path class="cls-3" d="M39.69,13.65s-.17-.14-.26-.06-.21.16-.33.16L39,13.67c-.08-.16.29-.13.45-.19a.41.41,0,0,1-.23-.14.25.25,0,0,1-.07-.12.64.64,0,0,1,.1-.27c.07,0,.13,0,.15.07,0-.64.84-1.45.85-2.2l.13,0a.73.73,0,0,1-.49-.17c.14-.25.13-.64.39-.7h0v0c-.12.2,0,.25,0,.38l.11-.36,0-.06c.23-.11.24,0,.18.12s-.28.51-.16.59c.09-.19.16-.38.24-.57a1.54,1.54,0,0,0,.08-1,3.15,3.15,0,0,0-.5-.75c.1-.14.43.16.59.41s.19.51.21,0a1.36,1.36,0,0,1-.16,1.1c.42-.37.35-.22.29,0s-.15.4.3,0a1.65,1.65,0,0,0,0-1.05A1.81,1.81,0,0,0,41.13,8c-.18-.19-.4-.35-.62-.57l-.25-.25L40,6.92c-.29,0-.14.25-.44.22a1.2,1.2,0,0,1-.7-1.06,1,1,0,0,0-.09-.43,2,2,0,0,0-.69-.6,2.37,2.37,0,0,0-.65,0,6.08,6.08,0,0,0-1-.09,1.61,1.61,0,0,1,.38-.44,1.28,1.28,0,0,0-1.13.61,1.3,1.3,0,0,1-.31.31,1.31,1.31,0,0,1-.5.22.89.89,0,0,1,.32-.32c.09-.08.32-.21.18-.16-.81.11-.33.43-.8.69l-.26-.24q-.44.27-.87.6L33,6.55l-.22.16-.09.09a.37.37,0,0,1-.5.11c.07-.08.15-.16.11-.3,0,0-.24-.09-.27-.09a.24.24,0,0,1-.19-.23l0-.17,0-.5c0-.67.1-1.33.17-1.94-.11-.2-.21-.33-.32-.57s.12-.42.19-.18c.07-1-.17-.11-.3-.41,0,0,0,0,0,0-.06-.48,0-.71.2-.44a1.77,1.77,0,0,0-.9-1,2.9,2.9,0,0,0-.77-.19L29.4.77A5.39,5.39,0,0,1,27.56.22l.21,0a1,1,0,0,0-.48-.07,3.24,3.24,0,0,0-.56.05l-.49.07c-.17,0-.35,0-.63,0l.18-.1c-.6.08-.94.57-1.21,1.12L24,2.4c-.18.34-.37.68-.56,1-.09.15-.19.3-.29.44A1.17,1.17,0,0,1,23,4l-.08.06a.27.27,0,0,1-.17,0c.1.17,0,.25-.12.22a1,1,0,0,0-.2,0H22.2s-.05,0-.07,0a.44.44,0,0,0-.19.26.45.45,0,0,1-.14-.5c0-.09.06-.06,0-.28s-.18-.4-.33-.71-.62-.25-.94-.59l.25-.19L20.12,2l.11-.48L19.77,1c.16.26.24.6.15.61a4.52,4.52,0,0,1-.37-.47,2.34,2.34,0,0,0-1-.89C18.23.1,18,.07,18,0a3.21,3.21,0,0,0-.67.26L17,.4l-.2.1-.71.38c0-.13.23-.25.41-.39-.71.57-.25-.26-.9.26.12,0,0,.19,0,.26a2.36,2.36,0,0,0-.88.13c-.25.08-.6.19-.88.31a1.63,1.63,0,0,0-.66.5,1.32,1.32,0,0,1,0-.28A1.87,1.87,0,0,0,12.48,3c0,.29,0,.59.07.88l.07.56c.08.64.17,1.3.22,2,.06-.48.44-.4.5,0L13,6.61c.22.23.09-.42.38.08,0,.28-.1.22-.2.24s-.21,0-.28-.16c0,.18.07.14.1.2l0,.06C13,7,12.91,7,12.79,7c.1,0,0,.07-.06.06s-.1-.06,0,.1L12.66,7l-.33.24-.07.05a.13.13,0,0,1-.11.08h0l-.24-.09-.55-.2c-.13.25-.49,0-.88.11-.35-.19-.71-.42-1.09-.65-.07,0-.25-.14-.43-.22a4.45,4.45,0,0,0-.54-.25,1.57,1.57,0,0,0-1.11,0c-.48.28-.44.44-.43.48s.1.08,0,.31c-.1-.1-.38.16-.61.37S6.05,7.4,6,7.4s-.06,0,0-.2c-.38.51-.58.77-.81,1.12S4.83,8.9,4.16,10c.23-.17.45-.35.44-.2-.21.3-.52.67-.62.62v-.1A1.72,1.72,0,0,0,4,11.1a3.18,3.18,0,0,0,.4.74,8,8,0,0,1,.71,1.22c.19.36.36.73.55,1.06.09.16.19.32.29.47l.14.19,0,0,.18.06h0a.29.29,0,0,1,.13.18.69.69,0,0,0,0,.13c0,.05,0,.21-.06.31-.28.55,0-.42-.35-.06,0,.12,0,.23,0,.34s0,.1,0,.15,0,.18-.11.21a.9.9,0,0,1-.23,0,4.33,4.33,0,0,0-1.36.32,1.64,1.64,0,0,0-.9-.15A8.64,8.64,0,0,0,2,16.54,2,2,0,0,0,.42,18.12l-.1.58,0,.27,0,.16a2.16,2.16,0,0,1-.2.54l.19-.05c.13.35-.15.39-.22.63.14,0,.2-.34.27-.12l-.1,2.05c0,.43,0,.93.37,1.12.17.36.72.47,1.13.66L2,24.1l.19.08.38.17.76.35.76.36c.23.11.61.27.51.27a.08.08,0,0,1,0,.09l0,0s0,.08,0,.16l0,.23a.91.91,0,0,0,.24.54c.11.11.21,0,.31.07s.34.22,0,.28a.86.86,0,0,0-.28-.21.11.11,0,0,1,0,.14,6,6,0,0,1-.51.56c-.37.37-.76.73-1.15,1.09l-.69.63a2.55,2.55,0,0,0-.81,1,1.71,1.71,0,0,0,.05,1.24c.09.2.22.4.33.59l.17.29.12.16c-.14-.1-.18,0-.35-.31a2.93,2.93,0,0,0,.15.53,3,3,0,0,0,.27.45c.2.28.43.49.52.45.13.29-.12.15-.12.37a1,1,0,0,0,0,.16c0,.05.06.1.13.22s.26.39.39.57a9.34,9.34,0,0,1,.64.71c0,.07-.21,0-.31-.12a2.49,2.49,0,0,0,1.12.44c.43,0,.78-.12.55-.21a6.82,6.82,0,0,0,.91-.16l.51-.14a2.87,2.87,0,0,1,1-.19,1.26,1.26,0,0,1,.78-.27A1.25,1.25,0,0,0,9,34.66c.1,0,.07-.09.08-.21a.47.47,0,0,0,.06.19.27.27,0,0,0,.18.14,1.44,1.44,0,0,1,.39.15c-.21,0,.19.4-.07.4a4,4,0,0,0,.46.41c.1.07.09,0,.12,0l.1,0a.24.24,0,0,0,.09-.06c-.11.25-.06.25,0,.42,0,.46-.05.86-.46,1l-.12,1.13-.07.53-.13.77a1.91,1.91,0,0,0,.06,1,1.35,1.35,0,0,0,.57.71,6.66,6.66,0,0,0,.83.45l.56.26c-.06.1-.19.09-.34,0l-.24-.1-.43-.23c-.63-.28-.93-.75-1.12-.61a2.86,2.86,0,0,0,1.38.87c.39.15.58.19.87.29a7.61,7.61,0,0,1,.79.31l.45.23c.21.11.42.26.66.38.49.26-.31.1-.54,0a2.09,2.09,0,0,0,1.57.28A2.81,2.81,0,0,0,16,42.5,9.11,9.11,0,0,0,17.24,41s0,.16-.1.28c.16-.19.45-.36.28-.49L17.3,41c-.49.07.24-1.13.15-1.27.06.3.26.2.38.14s.33-.13.38.37a.58.58,0,0,0,0-.33c.13,0,.15.12.1.28.27-.08.14-.31.9-.15,0,.1-.19.1-.3.2a4.59,4.59,0,0,1,.51-.1h.47a.4.4,0,0,1,.22.08c-.06,0-.07.12-.16.09a.45.45,0,0,1,.32.2l.14.17.19.31a4.73,4.73,0,0,1,.6,1.55c-.53-.22,0,.45-.33.63l.16.31.21.46,0-.47a3.84,3.84,0,0,0,.19.51,1.72,1.72,0,0,0,.53.67,1.75,1.75,0,0,0,.74.27,1.16,1.16,0,0,1-.64,0,3.28,3.28,0,0,0,1.56.11,5.23,5.23,0,0,1-.84-.15c.8-.17.05-.45.91-.37-.16.05.6,0,.93.17h0a1.65,1.65,0,0,1,1-.25c.12.1-.05.42,0,.49.15-.18.66-.23,1.07-.38a.83.83,0,0,0,.48-.44.71.71,0,0,0,0-.53c0,.18.2.3.25.28a3.26,3.26,0,0,0-.15-.44c.15-.3.2-.36.34-.26.23-.88-.51.14-.11-.8,0,.08.05,0,.06.22A8,8,0,0,0,28,41.16c0-.24.06-.47.1-.69a2.56,2.56,0,0,1,.16-.59c.19,0,.19.11.18.22s-.06.38.13.26a2.89,2.89,0,0,0,0-.51.44.44,0,0,1,.22-.35c.07,0,.1-.08.21-.14l.35-.19.63-.32a.54.54,0,0,1,.53-.05l-.15-.08c.1-.3.31-.15.43.11a1.13,1.13,0,0,0,.62.64c-.15-.07-.35.1-.28.08a6,6,0,0,0,1.11.82l.69.41c.26.15.64.43,1,.58l-.21,0a1.27,1.27,0,0,0,.48.3.94.94,0,0,0,.64-.06,8.15,8.15,0,0,0,1.08-.69c.05-.2.32-.38,0-.42A4.33,4.33,0,0,0,38.16,39a1,1,0,0,0,.24-.68,2.47,2.47,0,0,0-.2-.69,2.65,2.65,0,0,1-.26-1.23c.07.16.26.36.21.22l-.57-1.16c-.18.18-.07.21-.14.53a1.49,1.49,0,0,1-.53-.71c.35.49.34-.13.37-.41-.05.06-.15,0-.21.06.15-.76-.49,0-.53-.86l.14,0a.63.63,0,0,1,0-.88c.32,0-.09.32.15.4A4.21,4.21,0,0,0,37,33a.82.82,0,0,1,.41-.59c0,.2-.25.47-.32.69a1.37,1.37,0,0,0,.67-.45l0,0h0a.44.44,0,0,1,.47-.13.26.26,0,0,0-.15-.07.35.35,0,0,1,.27-.33,1.14,1.14,0,0,1,.46,0A2.41,2.41,0,0,0,40,32c-.9.34-.17.24-.27.53.22.11.55.24.44.31a.77.77,0,0,1,.58,0,.75.75,0,0,0,.31,0,1.54,1.54,0,0,0,.46-.09c0,.11.65.08.56.31.79-.08-.24-.16-.18-.31a5.35,5.35,0,0,0,.86-.15A1.34,1.34,0,0,0,43.5,32a3.83,3.83,0,0,0,.61-1.85A5,5,0,0,0,44.17,29c0-.38,0-.66,0-1.1.05-.18.14-.14.23,0a.45.45,0,0,1,.11.26.7.7,0,0,0-.14-.8,2.53,2.53,0,0,0-.73-.46c.16,0,.1-.13,0-.32-.33-.21-.42.13-.75-.29a1.25,1.25,0,0,1,.55-.08c-.43-.21-.91-.33-1.34-.55,0-.21.38,0,.58,0-.48-.26-1.21-.71-1.51-.59l.22.28c-.16-.1.06-.24.21-.2.49.11.48.47.44.57l-.31-.15c-.06.66,1.16.74,1.69,1.17l-.47.17c.26.05.49.08.81.17.06.18-.07.37-.36.23a.44.44,0,0,0,.3.27c.1,0,.24.06.2.27,0,0,0,0-.08,0a.47.47,0,0,1,.16.37c-.08-.07-.32.09-.23-.14a1.46,1.46,0,0,0-.22.79c0,.28-.05.51-.26.6v-.07c-.28,1.17.25.21.28,1.18l-.92.31a2.43,2.43,0,0,1,.25.2c-.05.1-.14.29-.23.18.05.49.14,0,.22.37-.11.08-.16.23-.31.32a.57.57,0,0,1-.47.1c-.32,0-.61-.08-.63-.33-.23.21.5.24-.1.34-.13-.54-.74,0-1.26-.29.2-.25.69-.05.18-.35-.38.42-1.05-.21-1.51-.18,0,.17-.29.18-.65.17a1.06,1.06,0,0,0-1,.6l-.12.2s-.29.21-.62.57a2.5,2.5,0,0,0-.53.78,1.44,1.44,0,0,0,0,.85h-.07c.46.18.63.82.9,1.31-.21.06-.33,0-.53-.24l.19.48a1,1,0,0,1,.42.48l-.3,0a6.94,6.94,0,0,0,.5.92l.13.24a.89.89,0,0,1,.08.17.66.66,0,0,1,.07.36,1,1,0,0,0,.48-.09A.27.27,0,0,1,38,38a.47.47,0,0,1,.2.47.42.42,0,0,1-.43-.28c0,.07.1.3-.07.38a.83.83,0,0,0-.13-.36c-.21.24.18.24,0,.42-.19-.11-.29,0-.39-.08s.24-.07.21-.17a.88.88,0,0,1-.69.16c.09.07.17.2,0,.39-.53.41-.33,0-.7.1-.05.21-.48.36-.31.6-.16.12-.27,0-.38,0a2,2,0,0,1-.25.28l-.22.21c-.12.15-.26.29-.12.4l.06,0,0,0h0a.39.39,0,0,1-.63,0,6.4,6.4,0,0,1-.56-.52,8.45,8.45,0,0,0-1.32-1.17l.07-.07-.45-.29-.5-.35a.92.92,0,0,0-1-.18.64.64,0,0,1-.39,0c-.08,0-.13-.07-.1-.14a3,3,0,0,1-1.34.54c.51-.38-.2-.09.5-.33l-.44.09a4.41,4.41,0,0,0-.47.14,1,1,0,0,0-.66.85c0-.22-.19-.12-.31.16a2.09,2.09,0,0,0-.13.48,1.25,1.25,0,0,0,0,.31,4.18,4.18,0,0,0,.29-.51,5.83,5.83,0,0,1-.1.59l-.13.46-.29-.24c-.68,1.18.15,2.93-.61,2.72,0,.14.12.15.22.11s.14-.14.25.05c-.07.21-.4.16-.57,0s-.26-.21-.31-.21c-.86-.09-.75.57-1.64.51.12.11.24.42-.41.56-.6,0-.41-.49-.18-.58.07,0,.11,0,.1.06s.32-.1.13-.22l0,.12c-.17-.1-.5-.14-.3-.33-.18,0-.22.15-.09.28a.75.75,0,0,1-.18-.39l0-.1-.06-.18a4,4,0,0,1-.15-.6c0,.15-.12.31-.16.18-.25-1.21-.38-.44-.7-1.21,0-.51.47,0,.06-.72-.05-.55.27-.2.42,0,0-.08-.1-.16-.14-.24s-.1-.27-.15-.39a2.81,2.81,0,0,0-.31-.75,1.94,1.94,0,0,0-1-.85l-.1,0h.11a2.23,2.23,0,0,1,.63.15,3.08,3.08,0,0,0-.62-.18L20.2,38c.08.1.22.21.32.31-.46-.14-.54-.16-.54-.26-.27.1.09.43-.42.53a1.46,1.46,0,0,0-.59-.15c-.3-.06-.57-.14-.66-.3.75.18.72.12.67,0S18.91,38,19,38a.7.7,0,0,1,.38,0,.63.63,0,0,1-.27,0c-.16,0-.35-.09-.56-.15-.06,0,.06-.06.18,0-.79-.29-1-.06-1.17.07a9.69,9.69,0,0,1-.66.76l-.2.22c0-.14-.11-.14-.27-.07a.54.54,0,0,0-.26.17c.28-.28.35.08.19.43-.54.35-.41.56-.65.78l.31-.22c0,.21-.2.42-.47.77-.12-.07.21-.35.06-.28-.09.54-1.11.67-1.11,1-.15,0-.15-.33-.24-.36-.06.18-.16.05-.18,0s0-.09-.05-.12l0,0-.22-.07c.08.32.14.29-.46.21l.31.13.23.08.25,0a.71.71,0,0,1-.47.14c.25.13.45.1.57.17-.2.16-.21,0-.1.35a.54.54,0,0,0-.49-.34,1.39,1.39,0,0,1-.77-.41l.31-.5a1.72,1.72,0,0,0-.56-.39,1.58,1.58,0,0,0-.52-.18,1.52,1.52,0,0,1-.34-.06c-.13,0-.15-.2-.06-.33a1,1,0,0,0-.14.2c-.16,0-.11-.14-.06-.28a1,1,0,0,0,.08-.39c.18.09.32-.13.48-.27-.15,0,.23-.86-.12-1.07l.38-.46a2.34,2.34,0,0,0,.07-1.2,2.46,2.46,0,0,0-.49-1.23.34.34,0,0,0,.34,0c.07,0,.23,0,.43.44-.09-.5-.41-.84-.52-.77a.25.25,0,0,0,0-.08,1.58,1.58,0,0,0-.26-.25l-.28-.18c-.19-.12-.37-.25-.4-.41s-.29.12-.62-.24a.07.07,0,0,1,.06-.08c-.06,0-.59-.37-.42.08A.89.89,0,0,0,9.05,33c-.33.06-.55.12-.78.17l-.68.18a2.36,2.36,0,0,1-1.2,0l-.51.16-.31.12A.4.4,0,0,1,5,33.48c.06,0,.07-.09.09,0-.08-.56-.57.14-.85-.86,0-.6.39.39.35,0,.26-.21.1-.46-.11-.76a5.78,5.78,0,0,1-.33-.48,1.18,1.18,0,0,1-.1-.25.19.19,0,0,1,0-.14l.07,0c.06-.14-.07-.19-.2-.35s0-.36.18-.51c0,0,0,.06.07.07s.1-.3.18-.46.23-.35.36-.53c.27-.36.58-.71.84-1,0,.36-.17.35.11.43.24-.27-.36-.23.12-.77.22,0,.84-.4,1.12-.38a5.33,5.33,0,0,1-.64.69A1,1,0,0,0,7,27.71a2.6,2.6,0,0,0,.21-.88l.15.09a1.81,1.81,0,0,0-.07-.54c-.31-1-.52-.66-.78-2l-.07.19A1.27,1.27,0,0,1,6.08,24c0-.15-.14-.3-.53-.32H5.49a3.56,3.56,0,0,0-.06-.44C5,23.18,4,23.12,3.25,22.94a7.44,7.44,0,0,1,1.88,0,3.79,3.79,0,0,0-1.54-.33c.16,0,.38,0,.51.11a3,3,0,0,1-.91,0,4.75,4.75,0,0,1-1-.24c.13-.16.12-.28.06-.37s-.26-.1-.18-.31a2.18,2.18,0,0,1,.09-.47,1.12,1.12,0,0,1,.32-.6,3.66,3.66,0,0,1,0-.81c0-.13,0-.27,0-.4l0-.2,0-.1v0A.89.89,0,0,1,2.73,19c.07-.08.19-.06.28-.06h.07s0,0,.15,0l.51-.09c-.68-.49.46-.11.25-.69.37-.11.52-.12.56-.09l1.19.16c.3.12-.33.19-.27.32.41-.05.51,0,.58.07a.56.56,0,0,0,.11.11,2.2,2.2,0,0,0,.53,0c-.28-.2.47-.29,1.1-.87a2,2,0,0,1-1.12.35,3.3,3.3,0,0,0,.88-.6A5.45,5.45,0,0,0,8,17.13a2,2,0,0,0,.6-1.19.79.79,0,0,0,0,.27v.2A2.88,2.88,0,0,1,8.76,16,5.23,5.23,0,0,0,9,15.25a2,2,0,0,0-.46-1.68l-.36-.4L8,13a1.35,1.35,0,0,0-.44-.21c0-.13,0-.34.23-.16a8,8,0,0,0-.71-.87l-.41-.41c-.13-.13-.3-.32-.33-.31S6,10.88,6,10.73s.16-.22.28-.26l.1.1A.47.47,0,0,1,6.69,10c0,.06,0,.18.14.09a2.28,2.28,0,0,1,.53-.94l-.06.34a3.75,3.75,0,0,0,.6-.72c0-.07,0-.17,0-.31.08-.3.28-.35.67-.26-.17.41.79,1,1.27,1.24l0,0c.24.11.46.2.69.28l.77.25a2,2,0,0,0,2.13-.34c.39-.33.46-.43.7-.65a2.71,2.71,0,0,0,.81-.91,1.3,1.3,0,0,0,.39-1c0-.55,0-.76,0-1.11l-.05-1,0-1.07c0-.19,0-.18.09-.22S15,3.59,15,3.45s.1-.11.16-.17.12-.08.2.11h0c.17.15.12.25.49.15s.57-.19.84-.28l-.08-.53a2.55,2.55,0,0,0,.73,0l.37-.08.14,0c.07,0,.14-.09.23-.08s.14.06.21.11l.07.07a.58.58,0,0,1,.11.13,4.4,4.4,0,0,1,.26.39,1.28,1.28,0,0,1,.21.71c.31.22.56.59.87.8l-.24.15.27.45a7,7,0,0,0,.47.69,2,2,0,0,0,1.66.64l1-.07a3.22,3.22,0,0,0-.42.22c1.35,0,1.34-.9,1.72-1.64h.1a2.6,2.6,0,0,0,.39,0c.14-.27.17-.32.26-.47l.25-.39.5-.76a4.69,4.69,0,0,0,.44-.79l.09-.21c0-.08,0,0,0-.09l0-.2a.78.78,0,0,1,.12.21.17.17,0,0,1,.21-.05c.05,0,.14,0,.19-.33-.07.37,1.2.33,1.88.32l-.17.24c.31-.1.48-.18.66-.22a1.15,1.15,0,0,1,.53-.06c.09.06-.07.21-.14.12.11.1.21.07.32.08s.21.08.14.34a.45.45,0,0,0-.18-.07.52.52,0,0,0,0,.19c0,.13.13.08.29.31.12.39,0,1.19-.28,1.29a.79.79,0,0,1,.31.78c-.09.06-.15-.07-.18-.14a3.73,3.73,0,0,0,.11,1.4,2.4,2.4,0,0,0,.67,1.16.17.17,0,0,0,.05.22,1.56,1.56,0,0,1-.87-1.22,1.91,1.91,0,0,1,0-.58c-.13,0-.2.28-.28.47s-.17.31-.37-.16a2.17,2.17,0,0,0,1.4,1.63l.33.13.23.11a5.67,5.67,0,0,1,.55.31.45.45,0,0,1,.1.14h-.1a.93.93,0,0,0,.65.09,1.46,1.46,0,0,0,.85-.12.14.14,0,0,0,.13,0,5.19,5.19,0,0,0,1.11-.55c-.17-.23.24-.4-.23-.41.05,0,0,.06-.23.18a.53.53,0,0,0-.11.09v0l-.67.39L33,8.67l.24-.23a2.72,2.72,0,0,1,.36-.28A.81.81,0,0,1,34,8c.07-.24.14-.5.19-.63.59.12,1.47-.12,1.69,0,.56-.38.56-.46.8-.61s.22,0,.34,0,.23,0,.47,0,.12.35.14.48c-.15-.08-.29-.23-.41-.24.51.32,1.24,1.19,1.6,1,.38.62-.49,0,.19.58a.34.34,0,0,1-.14,0,.83.83,0,0,0,.19.41.6.6,0,0,1,0,.38v.2a3.18,3.18,0,0,1-.11.38,7.92,7.92,0,0,1-.26.78,4,4,0,0,1-1.12,1.54c.16-.17.2-.2.27-.2a3.35,3.35,0,0,0-.54.89,1.31,1.31,0,0,0,.18,1.05l.47.85a1.32,1.32,0,0,0,.74.65,4.15,4.15,0,0,0,1,.1l.76,0c.5,0,1,.05,1.49.11.23,0,.53.08.69.12a1.5,1.5,0,0,1,.38.15c.16.09.23.17.31.21a.93.93,0,0,1,.3.18,1.64,1.64,0,0,1-.26.2,3.89,3.89,0,0,1,.48.58,2.6,2.6,0,0,1,.1,1.46l0,.38a.5.5,0,0,0,0,.21c0,.13.12.28.12.52h.27c-.06.18-.32.28-.51.39s-.41.19-.43.07c0,.06,0,.26-.26.25L43,20.53l-.91.76c-.86.3-.16-.62-1.34-.06a2.59,2.59,0,0,0-.33.28l-.09.08a1.18,1.18,0,0,0-.21.18,1.25,1.25,0,0,0-.24.38c-.19.49,0,.9,0,.71,0-.39.43-.66.55-.54a.82.82,0,0,0-.2.48,1.37,1.37,0,0,0,.67.14h-.09L41,23c.06,0,.11.06.07,0a.64.64,0,0,1-.12-.12.41.41,0,0,1-.07-.11h0c-.28-.58.4.78.33.64h.08l.55-.6.32.09-.57.3c.42,0,.55-.24.72-.47a.49.49,0,0,0,.4.08l.46-.73c.17.12-.13.47.36.34.22-.35-.48-.22,0-.6.44,0,.37.25.75-.14.16.05,0,.22-.11.33a.79.79,0,0,1,.13-.12l.25-.15c.16-.11.34-.2.49-.31s.45-.45.42-.64a.77.77,0,0,0,.3-.46,1.83,1.83,0,0,0,0-.62c-.07-.42-.13-.77.1-.78a3.2,3.2,0,0,1-.58-1c.65.51-.25-1.29.34-1.24-.15-.11-.23-.17-.37-.56a3.77,3.77,0,0,0-.41-1,1.58,1.58,0,0,0-.9-.68,3.13,3.13,0,0,0-1.14,0,.63.63,0,0,1,.37-.06l-.49-.08-.22-.09c-.13-.06-.23-.12-.38-.18-.09.39-.82.43-1.23.65-.56-.42.38-.44.22-.81,0,.32-1,.25-.84.53l-.38-.21c0-.05-.16-.1-.14-.27,0,.25-.08.27-.12.26s-.08,0-.23.07c0-.37.29-.39.08-.44,0-.18.09-.14.19-.09ZM32.15,7h0l.16.08Zm-.65-.47a.38.38,0,0,0,.21.24c0,.09-.14.15-.22.09C31.58,6.85,31.45,6.68,31.5,6.53Zm2.39,2.08c-.22.17-.43.22-.47.18a4.79,4.79,0,0,0,.47-.31v0A.33.33,0,0,1,33.89,8.61Z"/><path class="cls-3" d="M34.06,8.09,34.13,8H34l0,.11Z"/><path class="cls-3" d="M34.6,40.53h0l.05,0S34.61,40.54,34.6,40.53Z"/><polygon class="cls-3" points="20.8 2.3 20.74 2.34 20.86 2.4 20.8 2.3"/><path class="cls-3" d="M37.28,34.88a.13.13,0,0,0,0-.12A.39.39,0,0,0,37.28,34.88Z"/><path class="cls-3" d="M37.8,32.61a.47.47,0,0,1,.25-.11A.31.31,0,0,0,37.8,32.61Z"/><path class="cls-3" d="M39.7,32.64a.24.24,0,0,0,.06-.11h0Z"/><path class="cls-3" d="M17.14,41.3l-.06.08C17,41.58,17.05,41.45,17.14,41.3Z"/><path class="cls-3" d="M24.67,44.68a2.66,2.66,0,0,1-.39.16C24.51,44.85,24.68,44.84,24.67,44.68Z"/><polygon class="cls-3" points="9.63 35.33 9.63 35.33 9.58 35.27 9.63 35.33"/><path class="cls-3" d="M23.71,44.87a1.07,1.07,0,0,0,.57,0A1.82,1.82,0,0,0,23.71,44.87Z"/><path class="cls-3" d="M41.85,24.85l-.09-.09s0,0,0,0Z"/><path class="cls-3" d="M41.72,24.79l-.13-.05S41.69,24.8,41.72,24.79Z"/><path class="cls-3" d="M41.34,24.64a1.43,1.43,0,0,1,.25.1C41.52,24.68,41.4,24.58,41.34,24.64Z"/><path class="cls-3" d="M44.75,27.27h.12A.16.16,0,0,0,44.75,27.27Z"/><path class="cls-3" d="M44.81,28.65c.16-.32.49-.89.16-1.37h-.1c.13.07.2.37.13.66A3,3,0,0,0,44.81,28.65Z"/><path class="cls-3" d="M42,31.65a.43.43,0,0,0,.55-.2c-.13,0-.28,0-.21-.25a.65.65,0,0,1-.21.1s0,.06.06.1.1.08.09.15S42.19,31.7,42,31.65Z"/><path class="cls-3" d="M39.55,31.23c.47,0,0-.16,0-.22C39.29,31.08,39.22,31.1,39.55,31.23Z"/><path class="cls-3" d="M29.43,37.82l0-.26C29,37.74,29.42,37.66,29.43,37.82Z"/><polygon class="cls-3" points="28.18 41.09 28.41 40.78 28.21 40.57 28.18 41.09"/><path class="cls-3" d="M26,42.71l0-.06a1,1,0,0,1,.05.22Z"/><path class="cls-3" d="M7.06,32.87l.18.29C7.46,33.05,7.43,32.69,7.06,32.87Z"/><path class="cls-3" d="M6.73,24.44a.8.8,0,0,0-.57-1A1.68,1.68,0,0,1,6.73,24.44Z"/><polygon class="cls-3" points="17.34 2.88 17.11 3.07 17.58 2.82 17.34 2.88"/><path class="cls-1" d="M82.71,50.78a1,1,0,0,1,.46-.73l5-2.52a.74.74,0,0,0,.37-.72l-1.16-5.34a.77.77,0,0,0-.64-.52l-5.72-.37a1,1,0,0,1-.73-.48l-.78-1.43a1,1,0,0,1,0-.87l2.89-4.88a.75.75,0,0,0-.07-.81l-3.9-4a.75.75,0,0,0-.81-.09l-5,2.76a.93.93,0,0,1-.87,0L70.46,30a1,1,0,0,1-.46-.74l-.2-5.71a.77.77,0,0,0-.5-.65l-5.4-1.29a.73.73,0,0,0-.73.36l-2.68,5c-.13.25-.35.44-.49.44h-.13c-.77,0-1.8.08-1.8.08a1,1,0,0,1-.79-.38L54,22.41a.77.77,0,0,0-.77-.28l-5.15,1.74a.72.72,0,0,0-.43.69l.44,5.6a.91.91,0,0,1-.39.77l-1.63,1.14a1,1,0,0,1-.87.11L39.9,30a.77.77,0,0,0-.8.18l-3.3,4.1a.71.71,0,0,0,0,.81l3.38,4.45a.91.91,0,0,1,.09.86l-.92,2.2a1,1,0,0,1-.67.57l-5.63,1a.75.75,0,0,0-.57.59,46.41,46.41,0,0,0-.55,5.52h0a2.61,2.61,0,0,0,.47.2l5.25,1.92a.92.92,0,0,1,.55.67l.49,2.68a1,1,0,0,1-.26.84l-4.16,3.87a.76.76,0,0,0-.16.8l2.27,4.4a.72.72,0,0,0,.74.32l5.48-1.23a1,1,0,0,1,.83.27l2,2.1a.94.94,0,0,1,.23.83L43.3,73.42a.75.75,0,0,0,.3.76l4.28,2.41a.74.74,0,0,0,.8-.14l4-4a1,1,0,0,1,.84-.23l2.82.63a.91.91,0,0,1,.65.57l1.77,5.31a.77.77,0,0,0,.67.49h.47a44.63,44.63,0,0,0,4.49-.37.74.74,0,0,0,.6-.56l1.17-5.56a1,1,0,0,1,.59-.65l2.48-.95a1,1,0,0,1,.85.12l4.35,3.51a.73.73,0,0,0,.81,0l4.09-3.1a.75.75,0,0,0,.2-.79l-2-5.35a1,1,0,0,1,.13-.87L79,62.83a.91.91,0,0,1,.78-.36l5.57.6a.73.73,0,0,0,.7-.41l1.82-5a.75.75,0,0,0-.25-.78L83,53.48a1,1,0,0,1-.36-.8l.12-1.9ZM59.87,67.12A16.87,16.87,0,1,1,76.73,50.25,16.87,16.87,0,0,1,59.87,67.12Z"/><path class="cls-2" d="M82.71,50.78a1,1,0,0,1,.46-.73l5-2.52a.74.74,0,0,0,.37-.72l-1.16-5.34a.77.77,0,0,0-.64-.52l-5.72-.37a1,1,0,0,1-.73-.48l-.78-1.43a1,1,0,0,1,0-.87l2.89-4.88a.75.75,0,0,0-.07-.81l-3.9-4a.75.75,0,0,0-.81-.09l-5,2.76a.93.93,0,0,1-.87,0L70.46,30a1,1,0,0,1-.46-.74l-.2-5.71a.77.77,0,0,0-.5-.65l-5.4-1.29a.73.73,0,0,0-.73.36l-2.68,5c-.13.25-.35.44-.49.44h-.13c-.77,0-1.8.08-1.8.08a1,1,0,0,1-.79-.38L54,22.41a.77.77,0,0,0-.77-.28l-5.15,1.74a.72.72,0,0,0-.43.69l.44,5.6a.91.91,0,0,1-.39.77l-1.63,1.14a1,1,0,0,1-.87.11L39.9,30a.77.77,0,0,0-.8.18l-3.3,4.1a.71.71,0,0,0,0,.81l3.38,4.45a.91.91,0,0,1,.09.86l-.92,2.2a1,1,0,0,1-.67.57l-5.63,1a.75.75,0,0,0-.57.59,46.41,46.41,0,0,0-.55,5.52h0a2.61,2.61,0,0,0,.47.2l5.25,1.92a.92.92,0,0,1,.55.67l.49,2.68a1,1,0,0,1-.26.84l-4.16,3.87a.76.76,0,0,0-.16.8l2.27,4.4a.72.72,0,0,0,.74.32l5.48-1.23a1,1,0,0,1,.83.27l2,2.1a.94.94,0,0,1,.23.83L43.3,73.42a.75.75,0,0,0,.3.76l4.28,2.41a.74.74,0,0,0,.8-.14l4-4a1,1,0,0,1,.84-.23l2.82.63a.91.91,0,0,1,.65.57l1.77,5.31a.77.77,0,0,0,.67.49h.47a44.63,44.63,0,0,0,4.49-.37.74.74,0,0,0,.6-.56l1.17-5.56a1,1,0,0,1,.59-.65l2.48-.95a1,1,0,0,1,.85.12l4.35,3.51a.73.73,0,0,0,.81,0l4.09-3.1a.75.75,0,0,0,.2-.79l-2-5.35a1,1,0,0,1,.13-.87L79,62.83a.91.91,0,0,1,.78-.36l5.57.6a.73.73,0,0,0,.7-.41l1.82-5a.75.75,0,0,0-.25-.78L83,53.48a1,1,0,0,1-.36-.8l.12-1.9ZM59.87,67.12A16.87,16.87,0,1,1,76.73,50.25,16.87,16.87,0,0,1,59.87,67.12Z"/><path class="cls-4" d="M59.87,66.45c-.06.09,0,.28.12.24l.1-.34Z"/><path class="cls-4" d="M60.9,67a.68.68,0,0,0,.21-.76c-.15.33-.2.2-.37.59a.2.2,0,0,1-.24-.22c0,.09-.24-.06-.31.15a.44.44,0,0,0,.7,0C61,66.86,60.9,67,60.9,67Z"/><path class="cls-4" d="M74,60.29l-.09.06A.24.24,0,0,0,74,60.29Z"/><path class="cls-4" d="M77.32,51.41c0,.08,0,.11.06.12S77.35,51.4,77.32,51.41Z"/><path class="cls-4" d="M77.71,49.76v.1S77.74,49.78,77.71,49.76Z"/><path class="cls-4" d="M74,60.29l.24-.15C74.13,60.07,74.07,60.2,74,60.29Z"/><path class="cls-4" d="M62.8,66a.29.29,0,0,0-.11.11l.11,0Z"/><path class="cls-4" d="M71.31,63.6l0,0a.8.8,0,0,0,0,.15Z"/><path class="cls-4" d="M68.66,65.54c.07,0,0-.29-.09-.41a.25.25,0,0,1,0,.25A.83.83,0,0,0,68.66,65.54Z"/><path class="cls-4" d="M63.71,67l-.08.06Z"/><path class="cls-4" d="M73,62a.26.26,0,0,0,.1,0Z"/><path class="cls-4" d="M56.53,65.43v0S56.55,65.43,56.53,65.43Z"/><path class="cls-4" d="M59.87,67.19h0a.88.88,0,0,0,0,.16Z"/><path class="cls-4" d="M77.74,46.62v0C77.78,46.71,77.76,46.67,77.74,46.62Z"/><path class="cls-4" d="M56.05,32.64c.36.17-.43.44.09.6C56.07,33.14,56.48,32.7,56.05,32.64Z"/><path class="cls-4" d="M62.88,66,63,66A.22.22,0,0,0,62.88,66Z"/><path class="cls-4" d="M56.14,33.24Z"/><path class="cls-4" d="M74.79,40.09a.31.31,0,0,0-.05.12S74.78,40.16,74.79,40.09Z"/><path class="cls-4" d="M76.74,45v-.13A.27.27,0,0,0,76.74,45Z"/><path class="cls-4" d="M72.76,38.2c0-.07,0-.11-.11-.16a.09.09,0,0,0,0,.05S72.74,38.11,72.76,38.2Z"/><path class="cls-4" d="M70.68,36.3a.22.22,0,0,0,0,.08l.08,0Z"/><path class="cls-4" d="M49.74,62.21a.77.77,0,0,1-.08.27C49.76,62.3,50.08,62.5,49.74,62.21Z"/><path class="cls-4" d="M62.83,66.14a.14.14,0,0,1,.05-.13l-.08,0A.15.15,0,0,0,62.83,66.14Z"/><path class="cls-4" d="M71.07,39.64l-.23-.32A1.6,1.6,0,0,0,71.07,39.64Z"/><path class="cls-4" d="M44.77,45.91V46A.09.09,0,0,0,44.77,45.91Z"/><path class="cls-4" d="M70,38.56a.64.64,0,0,0,0-.29.12.12,0,0,0-.08,0Z"/><path class="cls-4" d="M49.66,62.48Z"/><path class="cls-4" d="M52.19,63.43c-.32-.2-.34.22-.52.36-.44-.15,0-.34-.06-.58-.3-.06-.67.11-.83,0,0-.06,0-.1.09-.14-.41.06-.72-.51-1.23-.44a.31.31,0,0,1,0-.11,1.52,1.52,0,0,1-.28.43c-.14-.11-.4,0-.29-.27.07.08.14,0,.23,0l-.2,0c.1-.37.26.08.43-.12-.34-.15-.84-.22-1-.48.19-.28.55.35.49-.12l.22.38c.12-.61.16.2.33-.43-.32-.44-.58-.26-.88-.72-.22,0-.17.22-.39.26-.79-.36.22-1-.5-1.14-.27,0-.63.25-.7-.22l.38-.12c-.28-.45-.62.08-.75-.52.19,0,.36.26.35.17,0-.46-.33-.07-.5-.3l.25-.24c-.32-.45-.9-.83-1.23-1.38.11,0,.25,0,.28-.14a3.55,3.55,0,0,1-.55-1.1,8.94,8.94,0,0,1-.16-1.21L44.83,55c0-.06.09-.16.16-.1,0-.32-.18,0-.32-.07a.14.14,0,0,1,.21-.18c-.36-.42-.9-1.33-.64-1.93l.1.09c0-.44-.67-.4-.46-.84l.06.07c.06-.94-.26-2,.25-2.68-.42-.17.23-.9-.32-1,.37-.49.45-.33.76-1,0-.19-.3-.36-.3-.62l.3.06-.23-.4.4-.08,0-.24a.23.23,0,0,1-.26.11c-.06-.39.43-.79.6-.74l.05-.88c.1.06.1.21.13.34-.14-.54.33,0,.2-.45-.08,0-.16-.1-.21-.13a1.47,1.47,0,0,0,.53-.89l.17.15c.28-.54.53-1.19.89-1.8a.26.26,0,0,1-.41-.28l.31.11c-.09-.23-.21.12-.27-.26.19-.2.41.06.41.24l.1-.32c.09,0,.08.13.17.22-.08-.22.59-.24.42-.6l.09,0c.4-.57.57-.83.93-1.28-.19-.2,0-.32,0-.61a5.72,5.72,0,0,0,1.24-.74c.18-.34-.07-.25,0-.49.18.19.58-.14.48.17a14.27,14.27,0,0,0,1.13-1.11c-.13-.05-.24,0-.24-.14s.34-.08.38,0v0a1.67,1.67,0,0,1,1.32-.55A1.52,1.52,0,0,0,54,35.71l0,0,.58-.51c.33-.07-.12.25.16.32.59-.71,1.19-.27,1.72-.73a1.22,1.22,0,0,0,1.18.12,5.43,5.43,0,0,1,.67-.16,1.08,1.08,0,0,1,.59.14l0-.18c.16-.18.21.1.34.13,0-.14-.19-.15-.09-.25a5.27,5.27,0,0,1,2.23.1c.37.09.73.23,1.09.34s.7.24,1,.38c.5.18.54-.81,1.09-.23l-.28.27a4,4,0,0,1,1.62.38,5.4,5.4,0,0,0,1.55.59c-.09,0-.14.12-.23.08.08.31.7.44.81.27.14.11-.06.17,0,.31s.66,0,.62.3c0,0-.09,0-.14,0,.19,0,.53.44.58.13.24.35.71.36.85.7.36-.1.41.57.76.3-.33.31.28.72.59.79-.16,0,0,.26-.16.31.2.21.44.35.58.16,0,.73,1,.58.67,1.24l.52.41.44.46a6.35,6.35,0,0,1,.78,1c-.39.17-.46-.75-.86-.48.56.52,1,.78,1.29,1.49,0,.2-.23,0-.33,0,.48.61.49,1.35.93,1.9-.05,0-.11,0-.16-.1.05.12,0,.31.21.24l-.09-.1c.23-.3.73.34.89.33-.62-.08,0,.69-.78.51a.27.27,0,0,0,.31.11c0,.14-.08.19-.26.1.23.43.38.23.45.66-.1,0-.15-.07-.27-.09a.83.83,0,0,1,.42.74c-.06,0-.13,0-.15-.07.15.61.61,1,.47,1.74-.44-.2-.13.24-.5.27a3,3,0,0,1,.11.37l.19-.15c0,.32.23.62.1.9L75.91,51l0,.61.16-.33c.18.34.48,0,.35.43,0-.09,0,.34-.27.48h0a.58.58,0,0,1,.06.6c-.13,0-.4-.12-.49-.09.28.21,0,.77.26,1a.4.4,0,0,0-.3-.12l.22.19c-.12.13-.16.14-.31.08-.16.43.5,0,.16.45,0,0-.05,0-.06-.13-.24.5-.1,1.08-.41,1.51-.41,0,.06-.44-.3-.39a7.82,7.82,0,0,0-.15,1.11,2.51,2.51,0,0,1-.34,1l.09-.1c.43.32-.46.36-.4.78,0-.09-.2-.23-.16-.19a5.46,5.46,0,0,0-.64,1.61l-.06-.15c-.27.16-.5.55-.73.76.05.15-.07.28.15.32a1.48,1.48,0,0,0-1,.92c-.19.42-.42.81-1,.85.07-.07.09-.25,0-.2l-.44.57c.2.14.16,0,.4.08a.69.69,0,0,1-.2.51c.14-.35-.24-.28-.43-.3.06,0,.07.13.13.18-.56-.1.24.4-.35.49l0-.11c-.12.16-.17.4-.36.5-.22-.17.1-.23,0-.41-.22.18-.17.77-.55.68.06-.13.22-.22.27-.36a.72.72,0,0,0-.6.05h0l-.49.13h.15c0,.77-.54.51-.78,1.11.23-.59-.05-.25-.15-.54-.15,0-.36,0-.35-.12-.1.32-.42,0-.56.45,0-.08-.22.09-.27-.15-.23.2.13.12.15.25-.29.51-1.13,0-1.59.66-.49.34-.51.67-1,1-.21-.11.06-.38.06-.38a.89.89,0,0,0-.76.17c0-.09,0-.15-.14-.25-.21.06-.08.38-.39.28a1.18,1.18,0,0,1,.15-.42c-.24.12-.46.34-.71.47-.1-.16.12-.28.2-.4-.28.12-.74.27-.81.53l.2.08c-.11,0-.08-.22,0-.28.23-.25.37,0,.4.13l-.18.09c.27.54.76-.2,1.13-.23l-.08.44.33-.4c.1.09.21.31,0,.4.32.15.21-.2.5,0,0,0,0,.05,0,.08l.24-.19c0,.09.11.27-.07.25.56.11.71-.5,1-.24l0,0c.62-.34,0-.31.35-.81l.58.59,0-.31c.07,0,.21,0,.23.08.17-.29-.09-.11,0-.35.44.16.82-.47,1.09-.07,0-.26-.37,0-.11-.32.32.42.35-.27.73-.19,0,.28-.3.29.1.36,0-.48.61-.18.79-.41-.17-.32.43-.43.75-.77,0,.14.8-.32,1.22-.48l0,.06c-.16-.35.24-.53.42-.81a.42.42,0,0,1,.08.47l.23-.2a.46.46,0,0,1,.12-.41l.12.26c.29-.29.39-.77.87-1-.16-.19-.77-.21-.54-.71.11.08.29.23.24.37,0,0,0-.2.13-.22l0,.32c.23-.1-.06-.23.08-.35.14.14.19,0,.29.12s-.17.07-.16.17A.82.82,0,0,1,73,62c-.1-.06-.2-.18-.11-.31.25-.3.27.06.5,0,0-.16.23-.27,0-.47.07-.09.19,0,.28,0,0-.24.55-.8.16-.79l-.05,0v0h0c.18-.68.89-1.07,1.14-1.7l.09.05a3.39,3.39,0,0,0,.27-1.17c0-.1.29-.17.37-.08a1,1,0,0,1,.29-.72c.05.35.18,0,0,.34.21-.34.4-.37.29-.87.19.23.4-.18.4-.38l-.27.2a1.9,1.9,0,0,1,.21-.55l.28.2c.61-.71-.26-1.61.51-2.08-.2-.26-.23.41-.47.16.1-.35.63-.67.65-.79.26-.5-.39-.55-.22-1.07a.37.37,0,0,1-.53-.31c.06-.36.52-.43.61-.18,0,.09,0,.13-.08.13s.08.29.22.15l-.12-.06c.13-.18.15-.71.33-.58-.1-.29-.19-.13-.26.08a4.83,4.83,0,0,0,.15-1.26c-.06.08-.2.15-.2.07.11-.74-.24-.31-.32-.8.17-.29.44.07.26-.42.1-.31.31-.09.41,0-.23-.45,0-.88.05-1.16l.14.23a1,1,0,0,1-.12-.38l-.21.17c0-.14,0-.27.1-.28-.18-.12-.37.17-.63-.08.09-.2-.2-.54.08-.66,0,.61.3-.13.44.36a.57.57,0,0,1-.06-.36s.07,0,.1,0c.13-.62-.42-.18-.56-.76.2,0,.3-.22.24-.3,0,.23-.26.18-.45,0,0-.41-.2-.37-.23-.57v.24c-.19,0-.21-.21-.36-.44.13-.06.17.2.2.09-.39-.17.08-.72-.26-1,0-.23.31-.14.32-.33-.36-.35,0-.56-.35-.93-.16.23-.09.22-.45,0l.5.65-.54-.32c.09.22.36.39.37.54-.27-.15-.21-.14-.34,0,.18-.44-.47-.49-.41-.92l.54-.25c0-.65-.73-.76-1-1.46l0,.26c-.26,0-.27-.37-.47-.52.18-.09.16-.26.21-.42-.12.1-.32-.44-.68-.26v-.42c-.27-.55-.83-.2-1.16-.65.28,0,.21-.3.59-.12-.13-.14-.22-.29-.33-.2,0-.17-.55-.21-.53-.47-.11,0-.28.13-.41,0s.07-.07.07-.07-.33-.14-.35.14c0-.81-1.18-1.06-1.27-1.74-.37-.2-.8-.45-1.11-.65.05,0,.05-.08.1,0-.34-.43-.58.31-1-.16-.09-.43.36,0,.26-.19.26-.59-.64-.31-.81-.81h.1c-.17-.33-.78-.11-1.2-.36a.19.19,0,0,0,0-.09,3.82,3.82,0,0,1-1.54,0c.22-.19.25,0,.25-.33-.21,0-.08.42-.5.34-.08-.17-.32-.4-.28-.67.13,0,.25.08.38.12-.08-.42-.5-.15-.69-.26l.07-.14c-.62-.11-.72.27-1.34.08l0,.13c-.43.3-.26-.27-.66,0l0-.41a9.13,9.13,0,0,1-1.29.28c.26-.28.77-.34,1.11-.47-.24,0-.81-.09-1,.08.1,0,.23-.1.31,0a1.62,1.62,0,0,1-1.16.36c.12-.76-1.2-.27-1.56-.8a2.92,2.92,0,0,1-1.28.12,7.58,7.58,0,0,0-1.4.09c.46.53-.28.06-.1.65-.21.07-.3.1-.32.06l-.75-.19c-.21-.13.17-.18.12-.31-.5.08-.27-.2-.65-.27.13.2-.08.35-.39.34L55,33c-.59.48-.75-.31-1.33.23l.15-.26c-.31.23-1.3.47-1.41,1.1-.08,0-.23-.15-.11-.26a3.85,3.85,0,0,0-1.15.8,2.08,2.08,0,0,1-1,.66l0-.16c-.11.13-.09.38-.34.38,0-.06,0-.16-.09-.13s-.2.48-.42.54l.05-.25a1.56,1.56,0,0,0-.77.75,4.17,4.17,0,0,1-.46.92c-.29-.33-.91,0-1.18.21l0,0a6.5,6.5,0,0,0-1.27,2.35,1.79,1.79,0,0,0-1,.89c-.29.44-.61.92-.91,1.29.13-.09.29.18.26.34s0,.66-.33.46l0-.06c-.42,0-.54.42-.66.75l.47.25a1.78,1.78,0,0,0-.74,1.41c-.05.55-.08,1-.48,1.2a5,5,0,0,0,.12.74L42,47a5,5,0,0,0-.26,1.64l-.19-.17c0,.43.78.6.78,1l-.43.1c-.06.72-.35,1.49.06,2.19a.19.19,0,0,1-.21-.13c0,.34-.12,1.38.43,1.17-.37.06.07.76.31,1.11h-.29c.43.25.53.24.74.66,0,.11-.19.14-.16,0-.05.39.33.2.29.66l-.21-.11c.08.37.15.32.42.45a.62.62,0,0,1-.05.81c.17,0,.43.12.43.35-.07.06-.16,0-.2,0,0,.67.67.71.59,1.21A.26.26,0,0,0,44,58a6.29,6.29,0,0,1-.34-.79c-.23.1-.1.49-.56.34.32.22.94.54,1,.95a.9.9,0,0,1,0,.09l-.05,0a.33.33,0,0,0,.15.21,1.09,1.09,0,0,0,.1.32c-.16.14.15.46.24.64.24-.17.33.08.4-.25,0,0,0,0-.12-.12l-.07-.06h0l-.27-.42c.21.07.39.15.37.41h.53c-.2.44-.09,1-.23,1.2.51.39.94,1.13,1.62,1,.16.08,0,.24,0,.35s-.18-.14-.28-.13c.34.17.74.73,1,.53.18.43-.41.07.05.45l-.14,0a1.66,1.66,0,0,0,1.26.93,1.68,1.68,0,0,1,1.34,1c-.05-.09-.07-.13-.05-.2,1.06,1.12,2.72,1.31,3.89,2.26.36.24.48,0,.77,0V67l.52-.22c.64-.12.84,1,1.72.66l-.06-.22c.27.08.88,0,.8.24,0,0,.12-.2.21-.07v.15a4.72,4.72,0,0,0,.71-.2c.51.14-.14.62.65.69.3,0,.84-.42.73-.53s-.3-.11-.3-.27l.26-.07c0-.46.22-.93-.36-1.29l-.42.27L58.93,66h.34c-.19-.22-.32,0-.46.08a.44.44,0,0,0-.15-.26l-.44.43c0-.19.21-.34,0-.48-.21.18.13.44-.19.52-.18-.24-.09-.4-.35-.25a.22.22,0,0,1,.14-.24c-.22.12-.53,0-.68.21-.16-.27-.7,0-.58-.48a1.06,1.06,0,0,1-.61.21c.46-.42-.68-.2-.43-.72-.38.4-.91-.1-1.42,0,0,0,.11-.08.14,0-.22-.13-.24-.28-.35-.42-.18.35-.57.26-.87.38-.12-.47.36-.33.43-.7-.12.29-.62,0-.64.34-.11-.32-.13-.19-.09-.53-.27.41-.24,0-.55.14-.17-.39.15-.45-.24-.51C51.82,63.41,52.19,63.43,52.19,63.43Zm-6.63-5.78h0l.09.17ZM45.22,57a1.94,1.94,0,0,0,.14.3c-.08.07-.18.09-.21,0S45.2,57.1,45.22,57Zm-.93,2.42c-.1-.1-.08-.16,0-.21l.15.19h0Z"/><path class="cls-4" d="M44.74,59.4s0,0,0,0a.34.34,0,0,0,0-.1h-.1Z"/><path class="cls-4" d="M73.87,60.36h0Z"/><polygon class="cls-4" points="44.7 46.75 44.63 46.73 44.67 46.81 44.7 46.75"/><path class="cls-4" d="M70.17,62.9a.09.09,0,0,0-.09,0Z"/><path class="cls-4" d="M68.64,63.92l-.28,0A1.3,1.3,0,0,0,68.64,63.92Z"/><path class="cls-4" d="M67.36,64.51a.21.21,0,0,0,0,.12h0Z"/><path class="cls-4" d="M75,45.65s0,0,0,0S74.9,45.58,75,45.65Z"/><path class="cls-4" d="M76.19,52.15a1.15,1.15,0,0,1-.1-.23C76.05,52,76,52.13,76.19,52.15Z"/><polygon class="cls-4" points="71.1 39.68 71.1 39.67 71.07 39.64 71.1 39.68"/><path class="cls-4" d="M76.11,51.61a.34.34,0,0,0,0,.31A.54.54,0,0,0,76.11,51.61Z"/><path class="cls-4" d="M61.57,66.15H61.5v0Z"/><path class="cls-4" d="M61.5,66.19l-.07,0S61.49,66.22,61.5,66.19Z"/><path class="cls-4" d="M61.28,66.3l.15-.07C61.37,66.23,61.3,66.22,61.28,66.3Z"/><path class="cls-4" d="M63.41,66v-.1A.17.17,0,0,0,63.41,66Z"/><path class="cls-4" d="M64,65.8c-.14,0-.38-.13-.54,0v.08C63.46,65.69,63.87,66,64,65.8Z"/><path class="cls-4" d="M66.67,66.21c-.17.05-.34.07-.51.11.12.07.29.16.08.27C67,66.66,66,66.41,66.67,66.21Z"/><path class="cls-4" d="M68.16,65.67c-.22.16.08.13.1.19C68.37,65.69,68.39,65.65,68.16,65.67Z"/><path class="cls-4" d="M75.84,57.39l.22.13C76.12,57.31,76,57.48,75.84,57.39Z"/><path class="cls-4" d="M75.35,55l-.21.13.2.16A1.38,1.38,0,0,0,75.35,55Z"/><polygon class="cls-4" points="77.43 54.18 77.44 54.28 77.44 53.91 77.43 54.18"/><path class="cls-4" d="M71.24,36.41l-.15.29C71.23,36.75,71.48,36.5,71.24,36.41Z"/><path class="cls-4" d="M63.55,33.05a.28.28,0,0,0-.44-.18C63.29,32.91,63.45,33.06,63.55,33.05Z"/><polygon class="cls-4" points="42.89 43.99 42.85 43.79 42.83 44.13 42.89 43.99"/><path class="cls-4" d="M83.37,50.8c-.08-.14-.27,0-.26.31l.32.27Z"/><path class="cls-4" d="M82.74,53.14a.7.7,0,0,0,.66.15.34.34,0,0,0,.27-.27h0a.53.53,0,0,1-.39,0l-.42-.21c0-.31.13-.53.24-.47-.07-.14.11-.55-.08-.76a1.56,1.56,0,0,0-.25.76.76.76,0,0,0,.22.74C83,53.19,82.81,53.14,82.74,53.14Z"/><path class="cls-4" d="M74.93,74.35a.45.45,0,0,0,.16,0Z"/><path class="cls-4" d="M60,78.56c.08,0,.19,0,.18-.07S60,78.53,60,78.56Z"/><path class="cls-4" d="M59,76.25l.05.22A.34.34,0,0,0,59,76.25Z"/><path class="cls-4" d="M74.93,74.35a.59.59,0,0,1-.37-.2C74.5,74.25,74.72,74.37,74.93,74.35Z"/><path class="cls-4" d="M87,55.41a1.7,1.7,0,0,0-.3-.12l.25.15Z"/><path class="cls-4" d="M77.66,68.11l-.06-.17-.18-.09Z"/><path class="cls-4" d="M80.56,61.77c-.16,0-.25.25-.32.36a.52.52,0,0,1,.38-.15A.34.34,0,0,0,80.56,61.77Z"/><path class="cls-4" d="M87.45,57.24a.49.49,0,0,0-.13-.12A.71.71,0,0,1,87.45,57.24Z"/><path class="cls-4" d="M77.94,71.72a.28.28,0,0,0-.12,0A.15.15,0,0,0,77.94,71.72Z"/><path class="cls-4" d="M89.64,45.47h0S89.65,45.53,89.64,45.47Z"/><path class="cls-4" d="M82.64,50.78a.29.29,0,0,1,0-.13l-.15-.07A.62.62,0,0,0,82.64,50.78Z"/><path class="cls-4" d="M54.16,71h0C54.37,71,54.27,71,54.16,71Z"/><path class="cls-4" d="M35.23,44.77c-.73-.12,1.07-.52,0-.61C35.33,44.25,34.34,44.76,35.23,44.77Z"/><path class="cls-4" d="M87.12,55.55l.24.18A1,1,0,0,0,87.12,55.55Z"/><path class="cls-4" d="M35.21,44.16Z"/><path class="cls-4" d="M45,71.79a.45.45,0,0,0-.16.12S44.87,71.89,45,71.79Z"/><path class="cls-4" d="M50.2,73.78,50,74A1.72,1.72,0,0,0,50.2,73.78Z"/><path class="cls-4" d="M44,65.51a1,1,0,0,0-.27-.32.25.25,0,0,0,0,.07A.49.49,0,0,1,44,65.51Z"/><path class="cls-4" d="M37.62,64.83l.13,0,.19,0Z"/><path class="cls-4" d="M82.92,34.44a1.08,1.08,0,0,1-.36.12C82.78,34.58,82.37,35.4,82.92,34.44Z"/><path class="cls-4" d="M86.9,55.54a.22.22,0,0,1,.22,0l-.18-.11A.08.08,0,0,0,86.9,55.54Z"/><path class="cls-4" d="M42.25,66.86l-.33-.37-.17-.19c-.07-.08,0,0,0-.07s0,0,0,.06l.16.18Z"/><path class="cls-4" d="M55,21.87l.25.3A1.13,1.13,0,0,0,55,21.87Z"/><path class="cls-4" d="M40.12,66.54a1.71,1.71,0,0,0-.59-.07.45.45,0,0,0-.1.09Z"/><path class="cls-4" d="M82.55,34.56h0Z"/><path class="cls-4" d="M81.55,39l0-.06-.07-.11a.6.6,0,0,0-.13-.14.18.18,0,0,0-.19,0c-.11,0-.2.18-.34.14l-.16-.24a.25.25,0,0,1,0-.07c0-.15.29-.14.42-.2a.39.39,0,0,1-.21-.18s0-.19,0-.32A1.38,1.38,0,0,1,81,37.4c.07,0,.15-.08.15.06.13-.79,1.12-1.91,1.25-2.85a.24.24,0,0,1,.13,0,.58.58,0,0,1-.5-.15c.22-.38.18-.76.51-.85-.18.29-.08.32-.08.48l.06-.22.11-.28c.3-.16.22,0,.09.28s-.22.42-.11.49l.14-.34.21-.5a1.55,1.55,0,0,0,.08-1.26,3.75,3.75,0,0,0-.66-.87c0-.18.52.2.75.54.11.18.15.36.19.4s.08-.06,0-.39a1.65,1.65,0,0,1-.21,1.48c.72-.73.22.07.2.22s0,0,0,0a1,1,0,0,0,.36-.26,1.93,1.93,0,0,0,.06-1.41,1.87,1.87,0,0,0-.6-.87l-.65-.59a7.26,7.26,0,0,1-.57-.61c-.35-.08-.13.27-.48.19a2,2,0,0,1-1-1.36,1.54,1.54,0,0,0-.17-.51.84.84,0,0,0-.22-.25c-.12-.1-.17-.12-.47-.34a3.34,3.34,0,0,0-.82-.22,2.93,2.93,0,0,0-1.38-.14,1.88,1.88,0,0,1,.5-.47,1.62,1.62,0,0,0-1.07.39,1.81,1.81,0,0,0-.4.41c-.11.19-.25.36-.91.58.14-.25.84-.61.64-.56-.92.17-.44.5-1,.83l-.29-.23c-.41.25-.82.52-1.24.81l-.63.44-.32.22-.15.11-.07.05a.46.46,0,0,1-.61.06c.09-.07.19-.13.14-.28l-.42-.2-.33-.16a.31.31,0,0,1-.2-.33l0-1.13c0-.86.08-1.7.14-2.49l-.32-.71c0-.17.12-.32.18-.14,0-.09,0-.16,0-.21a.81.81,0,0,0,0-.2c0-.08,0-.06-.08,0s-.17.22-.24-.06a2.4,2.4,0,0,1,0-.27c0-.45.08-.61.23-.27a1.94,1.94,0,0,0-1.13-1.36,4.75,4.75,0,0,0-1.05-.24l-.7-.1a9.35,9.35,0,0,1-2.46-.7L66,21a2,2,0,0,0-1.15,0,5.17,5.17,0,0,1-.68,0,3.34,3.34,0,0,0-.85,0,1.15,1.15,0,0,1,.25-.12,1.49,1.49,0,0,0-1,.56,3.06,3.06,0,0,0-.33.52l-.25.47-.76,1.42c-.25.47-.5.92-.76,1.35-.13.21-.25.41-.39.6s-.29.44-.33.43a.27.27,0,0,1-.14,0,.19.19,0,0,1,0,.22.58.58,0,0,1-.23,0c-.21,0-1,0-1,.07a.43.43,0,0,0-.15.22A.48.48,0,0,1,58,26.2a7.65,7.65,0,0,0-.67-1.42c-.26-.43-.73-.4-1.13-.87l.25-.19-.74-.49.05-.58-.2-.21a2.92,2.92,0,0,1-.23-.27.87.87,0,0,1,.15.37c0,.1,0,.18,0,.19a2,2,0,0,1-.22-.27c-.1-.13-.22-.3-.32-.46a2.14,2.14,0,0,0-1.22-1c-.42-.13-.74-.1-.76-.17l-.45.18-.37.16-.48.23-1,.46c0-.13.33-.28.57-.45-1,.66-.3-.24-1.19.37.15,0,0,.19,0,.26a4.74,4.74,0,0,0-1.14.22c-.24.11-1.47.38-1.85.91,0-.11,0-.23.05-.34a2.12,2.12,0,0,0-.79,1.89l.09.92.07.64c.1.84.21,1.72.27,2.6,0-.64.43-.53.51,0l-.31.23c.22.32.08-.55.38.11,0,.67-.34.48-.47.11,0,.2.1.53.14.52v0a1.49,1.49,0,0,1-.18,0l-.09,0,0,0c.06,0,0,.08-.11.07s0-.1-.2.24l-.09-.06-.51.37-.22.15c-.05,0,0,0,0,0a.17.17,0,0,1-.15.07l-1.32-.5c-.14.25-.63,0-1.11,0-.47-.24-1-.53-1.48-.81-.32-.13-1.54-1-2.52-.58a1.26,1.26,0,0,0-.53.45c-.07.1-.07.15-.06.18s.13.05,0,.34c-.11-.07-.53.36-.67.46s-.32.25-.19-.06c-.46.61-.76,1-1.07,1.43s-.71,1.06-1.33,2c.31-.22.56-.45.52-.26-.32.39-.73.88-.8.82l0-.13a1.76,1.76,0,0,0,0,1.11,5.07,5.07,0,0,0,.63,1c.32.47.59.94.86,1.42s.53,1,.8,1.4c.14.21.28.42.42.61s.33.43.33.38l.17.07,0,0a.31.31,0,0,1,.12.26v.08l0,.22L38,41c-.36.74,0-.53-.37,0,0,.18-.07.35-.11.52s-.09.34-.08.34a.25.25,0,0,1-.18.24l-.52.06a7.72,7.72,0,0,0-1.75.4,2.8,2.8,0,0,0-1.26-.1l-.77.12-1.09.22a2.12,2.12,0,0,0-1.27.78A2.55,2.55,0,0,0,30.12,45l-.09.52-.08.39a3.88,3.88,0,0,1-.22.68l.19-.07c.12.45-.16.51-.24.83.15,0,.21-.46.28-.17q-.08,1.23-.15,2.49v.47a.87.87,0,0,0,.05.43l.11.38h0l.09-.05h0v0l0,0,0,.08.11.17a2.52,2.52,0,0,0,.8.42l.76.3,2.06.89,1,.46.52.23.26.11c.1,0,0,0,.06,0a.07.07,0,0,1,0,.09h0s0,0,0,.09l0,.14.07.58a1.39,1.39,0,0,0,.34.8.89.89,0,0,0,.39.28c.12,0,.19.27-.11.33a.56.56,0,0,0-.25-.23.11.11,0,0,1,0,.08v0s-.11.12-.15.18c-.24.25-.48.51-.73.75-.5.5-1,1-1.53,1.44l-.77.71-.59.56a2,2,0,0,0-.5.72c-.55,1.1.6,2.43.8,2.78-.14-.11-.23-.07-.35-.3,0,.62,1,1.88,1.13,1.8.17.38-.11.16-.08.44a1.24,1.24,0,0,0,.2.42l.15.21.23.34c.31.53.65.8.8,1,.06.08-.27-.1-.39-.22a2.46,2.46,0,0,0,1.5.61c.59,0,1-.23.72-.28l.92-.16.68-.19a5,5,0,0,1,1.27-.25c.44-.42,1.72-.24,1.79-.7a.15.15,0,0,0,.1.13s0,.07.09.09a3.71,3.71,0,0,1,.84.5c-.25-.06.29.5,0,.45.5.52,1,1,1.09.67v.06a.8.8,0,0,0,0,.26.43.43,0,0,0,0,.11.49.49,0,0,1,0,.16l0,.22c-.06.58-.14,1.09-.55,1.36l-.23,1.58-.12.74-.05.37-.12.57a1.75,1.75,0,0,0,1,2l.53.27.34.17.67.32c-.15.18-.62-.07-1.08-.32a8.45,8.45,0,0,1-1-.57c-.24-.17-.39-.32-.47-.23a2.09,2.09,0,0,0,.89.69l.5.24.28.1,1.06.4c.34.13.68.27,1,.44l.53.28.74.44c.32.19.22.19,0,.14s-.62-.23-.68-.22a8.39,8.39,0,0,0,1,.46,1.79,1.79,0,0,0,1,0,2,2,0,0,0,.88-.55l.63-.63a16.66,16.66,0,0,0,1.69-1.9s-.07.2-.16.34c.22-.24.58-.49.41-.61l-.19.27c-.57.16.46-1.36.39-1.51,0,.2.09.24.21.19a3.82,3.82,0,0,0,.36-.21c.21-.15.35-.09.37.34a.51.51,0,0,0,0-.34c.17,0,.18.12.1.28.09,0,.15,0,.21-.07a2.18,2.18,0,0,1,.29,0,2,2,0,0,1,.86.07c0,.1-.24.09-.37.18.23,0,.46-.06.72-.07a2.75,2.75,0,0,1,.4,0,1.92,1.92,0,0,1,.36,0,.42.42,0,0,1,.21.08c-.06,0,0,.12-.17.09a.56.56,0,0,1,.41.3l.07.11.12.23.23.45a8,8,0,0,1,.78,2c-.57-.33,0,.59-.28.79l.39.82,0-.4c0,.11.08.22.13.33l.19.45a1.64,1.64,0,0,0,1.53,1,1.59,1.59,0,0,1-.84,0,2.11,2.11,0,0,0,1,.16c.4,0,.62,0,.88,0l-.44-.06a5.42,5.42,0,0,1-.54-.08c.55-.07.49-.21.5-.29s.05-.12.58-.09a9.23,9.23,0,0,1,1.23.14h0a2.83,2.83,0,0,1,1.36-.29c.16.1-.08.43,0,.49a1.05,1.05,0,0,1,.45-.2c.25-.06.58-.1.87-.19a1.1,1.1,0,0,0,.65-.56,1.07,1.07,0,0,0,.07-.69c0,.22.19.34.25.29s-.09-.36-.14-.52c.16-.39.2-.4.35-.32.27-1.06-.54.25-.07-1,0,.11,0,.07,0,.28.37-1.25.37-2.52.73-3.65.44-.26-.12,1,.27.7l.08-.53c0-.15,0-.2,0-.31a.63.63,0,0,1,.36-.44c.56-.29,1.36-.68,1.88-.9a.64.64,0,0,1,.6,0,.72.72,0,0,0-.2-.09c.37-.6.63.72,1.46,1-.18-.1-.4.06-.31.05a10.78,10.78,0,0,0,1.45,1.1l2.06,1.33-.28,0a1.54,1.54,0,0,0,.65.41,1.23,1.23,0,0,0,.86-.09,6.13,6.13,0,0,0,.77-.52l.51-.35c.09-.24.44-.48.12-.48a5.11,5.11,0,0,0,1.48-.79,7.79,7.79,0,0,0,.63-.51c.15-.15.51-.43.72-.66A1.22,1.22,0,0,0,80,71.2a2.74,2.74,0,0,0-.28-.91,4.81,4.81,0,0,1-.37-1.53c.09.23.32.49.25.32l-.72-1.56c-.17.21-.06.26-.1.66a2.45,2.45,0,0,1-.62-1c.41.66.34-.14.34-.49,0,.07-.16,0-.21,0,.07-1-.5,0-.66-1.19l.15,0a.85.85,0,0,1,.06-1.16c.33,0-.16.41.08.51,0-.12.1-.22.14-.36l.17-.48a1.44,1.44,0,0,1,.57-.79c-.12.28-.37.62-.48.9a2.52,2.52,0,0,0,.61-.42c.1-.1.23-.29.33-.38l0,0,0,0a.59.59,0,0,1,.58-.2.7.7,0,0,0-.19-.06c.13-.42.58-.35,1.07-.31a3.87,3.87,0,0,0,1.58,0c-1.17.31-.21.23-.33.52.29.12.73.26.59.33.57-.18.89.29,1.7,0,0,.05.13.06.32.11s.35.09.26.21c1.11,0-.28-.19-.16-.31a4.8,4.8,0,0,0,1.18-.13,1.63,1.63,0,0,0,.9-1c.24-.54.37-.76.51-1.14a4.28,4.28,0,0,0,.25-1.15,7.09,7.09,0,0,0,.18-1.52c0-.2,0-.4.05-.65a2.16,2.16,0,0,0,0-.77c0-.23.14-.18.24,0a.67.67,0,0,1,.09.36.91.91,0,0,0-.21-1.05,4.61,4.61,0,0,0-.91-.58c.16,0,.09-.13,0-.34-.44-.28-.5.08-1-.44a1.77,1.77,0,0,1,.66,0c-.55-.29-1.15-.51-1.71-.81,0-.24.46,0,.7.06-.62-.36-1.58-1-1.92-.89l.31.35c-.21-.15,0-.27.22-.19.62.19.66.6.63.7l-.41-.22c0,.74,1.52,1,2.24,1.58L86.2,56l1,.27c.12.23,0,.47-.34.26a.82.82,0,0,0,.43.36c.12.05.29.08.29.35,0,.07-.05.05-.09,0a.56.56,0,0,1,.17.5c-.07-.1-.31.1-.21-.2-.07.23-.19.38-.22.54a4.56,4.56,0,0,0-.12.58c-.07.38-.11.66-.33.81v-.1c-.42,1.55.23.25.16,1.5l-1,.5.24.25c-.08.16-.2.42-.28.31,0,.59.15,0,.21.38-.13.13-.19.34-.38.47a.87.87,0,0,1-.64.13c-.41,0-.81-.1-.87-.36-.31.2.73.26-.13.33-.18-.54-1,0-1.67-.33.25-.24.92,0,.22-.34-.48.4-1.39-.25-2-.23-.06.15-.23.18-.71.15a1.31,1.31,0,0,0-1.34.63q-.15.23-.24.39c0-.06-.36.3-.76.76l-.35.42a1.47,1.47,0,0,0-.31.56A1.9,1.9,0,0,0,77,66l-.07,0c.45.13.71,1,1,1.67-.22,0-.34,0-.57-.37l.24.63a1.58,1.58,0,0,1,.49.67l-.32-.06c.17.42.41.81.63,1.24.11.22.22.45.32.68a1.4,1.4,0,0,1,.11.49c.15,0,.31-.1.45-.18a.21.21,0,0,1,.26,0,.63.63,0,0,1,.2.61.36.36,0,0,1-.41-.33c0,.09.08.38-.13.5a.74.74,0,0,0-.07-.46c-.09.19-.09.24,0,.3s.09.14-.08.24c-.17-.12-.31.06-.4-.07s.29-.1.29-.23a1.47,1.47,0,0,1-.47.23,1.44,1.44,0,0,1-.48.13c.1.07.16.21-.1.44-.71.56-.39,0-.87.23-.09.24-.63.48-.46.72-.21.16-.33.08-.46.07a2.71,2.71,0,0,1-.38.37l-.26.22-.14.14c-.17.18-.35.34-.16.42l.08,0,0,0h0a.56.56,0,0,1-.84,0c-.23-.18-.52-.46-.81-.73a16.61,16.61,0,0,0-1.76-1.53L71.8,72c-.39-.24-.78-.53-1.18-.82a1.79,1.79,0,0,0-.71-.39,1,1,0,0,0-.65.08,1.26,1.26,0,0,1-.33.05c-.22,0-.38,0-.33-.13a4.33,4.33,0,0,1-1.64.64c.59-.4-.27,0,.62-.36l-.55.13-.22,0-.3.09a1.33,1.33,0,0,0-.93,1.09c0-.26-.2-.11-.32.28a5.28,5.28,0,0,0-.14.51,2,2,0,0,0-.05.39l.3-.58a10.82,10.82,0,0,1-.27,1.29L64.82,74a6,6,0,0,0-.41,2.48,7.5,7.5,0,0,1-.09,1.06c0,.18-.12.37-.37.29,0,.15.11.16.23.08s.17-.2.27,0c-.08.29-.49.27-.68.14a1.38,1.38,0,0,0-.3-.14,1,1,0,0,0-.31,0c-1.14-.07-1,.6-2.19.55.16.11.32.43-.56.58-.88,0-.69-.5-.43-.59.08,0,.22,0,.2.07.26,0,.6-.12.28-.23l-.1.12c-.08,0-.3,0-.34-.07l-.2,0c-.12,0-.15-.14,0-.2-.12,0-.17,0-.19.06a.25.25,0,0,0,.12.21.66.66,0,0,1-.23-.41l-.2-.57c-.08-.26-.17-.55-.24-.88,0,.18-.09.38-.15.22-.37-1.6-.44-.61-.83-1.64,0-.66.48.07,0-.93-.1-.69.26-.24.43,0a3.4,3.4,0,0,1-.27-.59,6,6,0,0,0-.33-.92,2.23,2.23,0,0,0-1.29-1.11l-.37-.11.4.05a2.37,2.37,0,0,1,.57.14,2.74,2.74,0,0,0-.57-.16l-.7-.14.25.3c-.3-.11-.56-.17-.53-.26-.35.08.15.44-.52.51-.4-.22-1.18-.14-1.5-.52a2.24,2.24,0,0,0,.7.14c.07,0,.05-.06,0-.11s-.09-.25.46-.15a2.58,2.58,0,0,1-.36-.05l-.2-.06L53.92,71c-.08,0,.09,0,.24,0-1-.39-1.34-.14-1.54,0s-.34.33-.77.81l-.34.38c0-.24-.46,0-.58.16.37-.37.39,0,.15.47-.69.5-.57.72-.88,1l.39-.31c0,.24-.3.52-.67,1-.13-.07.31-.45.12-.34a1.65,1.65,0,0,1-.78.76c-.33.2-.78.51-.81.68-.19,0-.17-.29-.29-.3-.09.2-.22,0-.24,0s0-.08-.1-.15a2.32,2.32,0,0,0-.57-.28c.14.36.22.33-.55.17l.81.35.19.09.09,0,.16,0-.26.05a3.65,3.65,0,0,1-.53-.1,3,3,0,0,0,.36.18l.23.08.31.09c-.27.13-.28,0-.14.34-.22-.33-.32-.33-.74-.49a2.56,2.56,0,0,1-1-.55l.32-.51a5,5,0,0,0-1.58-.84,1.1,1.1,0,0,0-.27-.08l-.22-.06a.31.31,0,0,1-.07-.45,1.1,1.1,0,0,0-.15.26c-.13,0-.11-.14-.07-.28a4.15,4.15,0,0,0,.19-.79c.18.09.33-.21.51-.4-.15,0,.3-1.15,0-1.39l.43-.63a3,3,0,0,0,.13-1.45,2.31,2.31,0,0,0-.55-1.66c.25.12.29,0,.37,0s.26,0,.5.6a1.52,1.52,0,0,0-.56-1c-.06,0-.1-.06-.13,0a.92.92,0,0,0-.11-.15l-.13-.11a3.74,3.74,0,0,0-.36-.26c-.25-.19-.52-.39-.58-.59s-.38,0-.7-.32c0-.08.08-.07.08-.07s-.77-.56-.52,0a1.09,1.09,0,0,0-1.28-.57l-.53.1-.48.11-1,.23a3.86,3.86,0,0,1-1.64.14l-.69.21-.36.1-.22.07a.75.75,0,0,1-.44.07.48.48,0,0,1-.3-.27c.06,0,.08-.07.1,0-.08-.35-.22-.33-.46-.48s-.43-.24-.64-.87c0-.74.47.54.39.11.49-.45-.81-1.36-.87-2.32l.13.17c0-.07-.06-.2-.06-.23a.93.93,0,0,0,0-.1,1.33,1.33,0,0,1-.19-.24.32.32,0,0,1,0-.34,1.43,1.43,0,0,1,.35-.39s0,.08.07.08a12.34,12.34,0,0,1,2-2.6c-.06.41-.26.43.07.48.32-.35-.39-.21.26-.91.16-.06.37-.17.61-.27a2,2,0,0,1,.68-.26,2.79,2.79,0,0,1-.44.47l-.34.33a.67.67,0,0,0,.38-.15,2.28,2.28,0,0,0,.46-.47,2.4,2.4,0,0,0,.3-1.17l.16.11a2.36,2.36,0,0,0-.06-.5c-.35-1.3-.61-1-.91-2.67l-.06.24a5.75,5.75,0,0,1-.44-.7.68.68,0,0,0-.56-.43l-.26,0-.1-.46c-.53-.09-1.88-.28-2.8-.53a13.11,13.11,0,0,1,2.42.22,6.82,6.82,0,0,0-2-.5,1.66,1.66,0,0,1,.67.17A6,6,0,0,1,32,50.38.3.3,0,0,0,32,50a1.56,1.56,0,0,0-.19-.14s-.11,0-.09-.09v-.16l0-.33.07-.46a1.77,1.77,0,0,1,.34-.84,9,9,0,0,1,.17-2.07,1.9,1.9,0,0,1,.14-.57.32.32,0,0,1,.32-.12.43.43,0,0,0,.15,0l.37,0L34.1,45c-.86-.45.62-.13.38-.71.49-.13.68-.15.73-.12l1.57.09c.38.11-.45.22-.38.34.54-.07.67,0,.75,0a.56.56,0,0,0,.14.1.4.4,0,0,0,.13,0l.1,0h.19c-.35-.23.73-.22,1.55-1a2.25,2.25,0,0,1-1.45.51,3,3,0,0,0,1.09-.64,4.05,4.05,0,0,0,.54-.63c.22-.34.33-.39.47-.61a2.64,2.64,0,0,0,.33-.92V42c0-.11.07-.25.13-.41l.28-.74a2.27,2.27,0,0,0-.39-2.16L40,38.36l-.15-.16-.31-.28a1.84,1.84,0,0,0-.57-.36c0-.16,0-.41.24-.16a23.06,23.06,0,0,0-2-2.28A.85.85,0,0,0,37,35l-.11-.1a.26.26,0,0,1-.12-.24c0-.09.08-.16.14-.21s.09-.06.27-.22l0,.2c.19-.3.17-.66.57-.91,0,.06,0,.21.13.08a4.19,4.19,0,0,1,.75-1.21l-.12.42c.63-.62,1.15-1.43,1.06-1.54a.35.35,0,0,1,.31-.29h.25a3.56,3.56,0,0,1,.52.15c-.17.41,1.12,1.1,1.77,1.44l-.05.05a15.41,15.41,0,0,0,1.72.64l.6.2a2.16,2.16,0,0,0,2-.43c.28-.22.36-.31.5-.43l.39-.37.21-.18.32-.26a2,2,0,0,0,.55-.68A1.55,1.55,0,0,0,49.17,30V28.62l-.08-1.42L49,25.74v-.53c0-.06,0,0,0-.06s0-.08.06-.1-.39-.13-.34-.3.31-.47.49-.13l-.1,0c0,.09.21.11.36.1a2.06,2.06,0,0,0,.52-.08c.36-.1.76-.26,1.12-.38l0-.54a5.18,5.18,0,0,0,1.82-.3c.13,0,.19-.09.31-.11a.31.31,0,0,1,.26.14l.12.11.22.3c.15.19.28.38.39.55a2.06,2.06,0,0,1,.38,1c.38.31.72.79,1.09,1.11l-.24.14.35.56.16.26.27.41a2.27,2.27,0,0,0,2,.94l.58,0,.57,0-.31.21a.82.82,0,0,0,.28,0c.09,0,.33-.06.46-.1a1.34,1.34,0,0,0,.67-.36,3.87,3.87,0,0,0,.7-1.27l.06-.13.27-.06h.25c.37-.7.83-1.37,1.25-2.06a10.74,10.74,0,0,0,.58-1.05,5.38,5.38,0,0,0,.24-.55l0-.14s0,0,0-.06V23c0,.05.13.15.12.2a.21.21,0,0,1,.26-.1s0,0,.31,0,.28-.08.25-.24c-.07.37,1.6.42,2.48.46l-.2.24a7,7,0,0,1,.85-.18,1.7,1.7,0,0,1,.4,0c.17,0,.24,0,.43,0s0,.23-.14.12a.89.89,0,0,0,.4.12c.12,0,.25.12.18.44v0l0,0L69,24a.83.83,0,0,0,0,.16,1.11,1.11,0,0,0,.09.32c.06.12.13.21.22.4.13.52,0,1.57-.26,1.7a1.26,1.26,0,0,1,.32,1.05c-.09.07-.16-.11-.19-.2a4.69,4.69,0,0,0,0,.92c0,.14,0,.27,0,.39l0,.18,0,.25a2.29,2.29,0,0,0,.9,1.54v0c0,.08,0,.16.11.24l-.2-.12a1.82,1.82,0,0,1-1-1.57v-.48c0-.08,0-.12,0-.1s-.19.16-.27.45-.18.33-.38-.24a3.15,3.15,0,0,0,.4,1.19A2.22,2.22,0,0,0,70,31a5.87,5.87,0,0,1,1.37.69,1.07,1.07,0,0,1,.14.16l-.15,0a1.32,1.32,0,0,0,.87.16,1.76,1.76,0,0,0,1.06-.19l.07,0s.23,0,.34-.06l.36-.17.74-.43c-.17-.22.36-.47-.23-.41.07,0,0,.07-.31.23l-.15.11,0,0-.95.54L73,31.6l.15-.13.26-.24a1.54,1.54,0,0,1,.75-.39c.11-.27.24-.55.32-.7.72.05,1.84-.33,2.1-.2.28-.2.59-.4.9-.6s.23-.23.4-.28.28.05.44.1l.12.05.2.1a2,2,0,0,0,.38.14c.31.22.2.42.24.58-.19-.12-.37-.32-.51-.35.63.45,1.63,1.59,2,1.46.56.81-.62-.15.35.76l-.2,0a5.33,5.33,0,0,0,.43.64.53.53,0,0,1,0,.46,6.53,6.53,0,0,1-.29.87c-.12.35-.25.7-.41,1.06A6.62,6.62,0,0,1,79.27,37c.15-.15.22-.23.29-.23l-.3.42a3,3,0,0,0-.34.58,1.55,1.55,0,0,0,.14,1.31l.53,1a1.91,1.91,0,0,0,.91,1,3.41,3.41,0,0,0,1.24.16l1,0c.68,0,1.35.07,2,.14a7,7,0,0,1,1.65.31,1.43,1.43,0,0,1,.39.29,1.63,1.63,0,0,1,.34.33l-.26.26.55.87a4.54,4.54,0,0,1,.2,1.93,4.17,4.17,0,0,0,0,.5c0,.15,0,.4,0,.46s.16.37.12.66a.82.82,0,0,0,.27,0c-.07.24-.43.37-.68.52s-.64.31-.64.18a.4.4,0,0,1-.36.29l-.09-.13-1.25.93c-1.11.43-.11-.64-1.68.11a3.63,3.63,0,0,0-.45.33l-.12.1a1.57,1.57,0,0,0-.24.21,1.36,1.36,0,0,0-.29.43c-.24.56,0,1,0,.81,0-.46.5-.81.62-.69a1.11,1.11,0,0,0-.26.61,1.1,1.1,0,0,0,.67.17c-.08,0,.14,0,.3,0s.12.05.09,0l-.15-.16a.71.71,0,0,1-.1-.14v0h0c-.23-.46.32.63.26.52h0l.07,0,.77-.7.39,0-.75.4a1.28,1.28,0,0,0,1-.6.67.67,0,0,0,.49,0l.69-.84c.19.11-.24.52.4.31.33-.39-.58-.16,0-.63.53,0,.48.19.9-.22.13.07.06.19-.12.34a4.8,4.8,0,0,1,.93-.6c.45-.24.69-.57.69-.8a1,1,0,0,0,.36-.62,2.06,2.06,0,0,0,0-.85,2.67,2.67,0,0,1-.09-.64.2.2,0,0,1,.17-.21,3.88,3.88,0,0,1-.65-1.24c.7.72-.33-1.7.27-1.6a1.49,1.49,0,0,1-.37-.58,1.94,1.94,0,0,1-.08-.21l-.1-.36a2.94,2.94,0,0,0-.26-.72,1.85,1.85,0,0,0-1.21-.9,4.11,4.11,0,0,0-1.32,0,.38.38,0,0,1,.28-.07A5.58,5.58,0,0,1,85,39.44c-.1.38-1.08.41-1.62.62-.74-.43.5-.43.28-.81,0,.32-1.35.23-1.11.51-.57-.27-.49-.14-.77-.49a.29.29,0,0,1-.27.25.34.34,0,0,0-.27,0,.31.31,0,0,1,.09-.35.15.15,0,0,0,0-.06l0,0-.17-.23c0-.23.08-.18.21-.08s.12.12.17.17S81.54,39,81.55,39Zm-9.69-9h0a1.48,1.48,0,0,0,.22.11Zm-1.09-.76a.48.48,0,0,0,.28.32.15.15,0,0,1-.23.09C70.91,29.6,70.72,29.39,70.77,29.2ZM74,31.47a.57.57,0,0,1-.44.16c.17-.1.27-.17.46-.3v0A.38.38,0,0,1,74,31.47Z"/><path class="cls-4" d="M74.26,30.89a.87.87,0,0,1,.1-.08l-.18,0-.05.13Z"/><path class="cls-4" d="M75.11,74.33h0S75.13,74.34,75.11,74.33Z"/><polygon class="cls-4" points="56.45 23.68 56.4 23.72 56.54 23.82 56.45 23.68"/><path class="cls-4" d="M78.5,66.73a.22.22,0,0,0,0-.15A.36.36,0,0,0,78.5,66.73Z"/><path class="cls-4" d="M79.26,63.44h0a.7.7,0,0,1,.3-.17.54.54,0,0,0-.3.17Z"/><path class="cls-4" d="M81.9,63.46a.25.25,0,0,0,.08-.12h0Z"/><path class="cls-4" d="M51.7,74.93l-.08.1C51.44,75.29,51.57,75.13,51.7,74.93Z"/><path class="cls-4" d="M61.93,79.53l-.52.17C61.7,79.7,61.93,79.69,61.93,79.53Z"/><polygon class="cls-4" points="42.32 66.94 42.33 66.94 42.25 66.86 42.32 66.94"/><path class="cls-4" d="M60.65,79.74a2.06,2.06,0,0,0,.76,0A3.23,3.23,0,0,0,60.65,79.74Z"/><path class="cls-4" d="M84.56,53.59l-.12-.11a0,0,0,0,1,0,0Z"/><path class="cls-4" d="M84.4,53.5l-.17-.08C84.3,53.47,84.36,53.51,84.4,53.5Z"/><path class="cls-4" d="M83.88,53.25l.35.17C84.12,53.34,84,53.24,83.88,53.25Z"/><path class="cls-4" d="M88.33,56.64h.14A.17.17,0,0,0,88.33,56.64Z"/><path class="cls-4" d="M88.35,58.49a5.4,5.4,0,0,0,.36-.82,1.18,1.18,0,0,0-.14-1l-.1,0a1,1,0,0,1,.18.87A7.6,7.6,0,0,0,88.35,58.49Z"/><path class="cls-4" d="M85,62.55a.56.56,0,0,0,.71-.29c-.15.07-.32.06-.22-.23-.12.14-.23.14-.25.17s0,0,.06.09a.15.15,0,0,1,.09.14C85.39,62.49,85.28,62.61,85,62.55Z"/><path class="cls-4" d="M81.66,62c.62,0,0-.16,0-.21C81.31,61.87,81.21,61.89,81.66,62Z"/><path class="cls-4" d="M68.32,70.77l0-.26C67.86,70.71,68.32,70.6,68.32,70.77Z"/><polygon class="cls-4" points="66.38 74.86 66.63 74.44 66.44 74.18 66.38 74.86"/><path class="cls-4" d="M64,77.33v.12l0,.14v-.11A.43.43,0,0,1,64,77.33Z"/><path class="cls-4" d="M38.65,64.34l.21.27C39.16,64.49,39.15,64.13,38.65,64.34Z"/><path class="cls-4" d="M37.93,53a1,1,0,0,0-.1-.73,1,1,0,0,0-.66-.54A1.87,1.87,0,0,1,37.93,53Z"/><polygon class="cls-4" points="52.08 23.83 51.76 24.05 52.4 23.74 52.08 23.83"/></g></g></svg>