<svg xmlns="http://www.w3.org/2000/svg" viewBox="0 0 71 71.4"><defs><style>.cls-1{fill:#2c233f;}</style></defs><g id="Calque_2" data-name="Calque 2"><g id="Calque_1-2" data-name="Calque 1"><path class="cls-1" d="M49.7,11.9H2.37C0,11.9,0,13.45,0,14.28V23.8H52.07V14.28C52.07,11.9,52.07,11.9,49.7,11.9ZM7.4,20.82a1.49,1.49,0,1,1,1.48-1.5h0a1.48,1.48,0,0,1-1.47,1.49Zm5.91,0a1.49,1.49,0,1,1,1.48-1.5h0a1.48,1.48,0,0,1-1.47,1.49Zm5.92,0a1.49,1.49,0,1,1,1.48-1.5h0a1.48,1.48,0,0,1-1.47,1.49Z"/><path class="cls-1" d="M54.43,23.8V54.74h14.2C71,54.74,71,53.19,71,52.36V14.28H54.43Z"/><path class="cls-1" d="M68.63,0H18.93c-2.36,0-2.36,1.55-2.36,2.38V9.55h35.2c1.92,0,2.66,0,2.66,2.38H71V2.38C71,1.55,71,0,68.63,0ZM25.15,6a1.49,1.49,0,1,1,1.47-1.51v0A1.49,1.49,0,0,1,25.15,6Zm5.91,0a1.49,1.49,0,1,1,1.48-1.5h0A1.49,1.49,0,0,1,31.06,6ZM37,6a1.49,1.49,0,1,1,1.48-1.5h0A1.49,1.49,0,0,1,37,6Z"/><path class="cls-1" d="M23.72,50.44H18c-1.43,0-3-.16-3.23,1.84-.2,1.75-.1,3.56,1.8,4.41a9.62,9.62,0,0,0,4.58,1.1c1.08-.15,2.18-.28,3.24-.5v.05c2.53-.54,3.91-2.18,3.67-4.69C27.84,49.87,25.62,50.44,23.72,50.44Z"/><path class="cls-1" d="M21.08,45.78c2.34.1,3.44-1.13,3.73-3.36-.1-2.17-1.27-3.49-3.5-3.49-1.93,0-3.33.82-3.43,3S18.74,45.68,21.08,45.78Z"/><path class="cls-1" d="M32.1,45.76h.12a1.8,1.8,0,0,0,1.49-2,.81.81,0,0,0,0-.22v0a1.89,1.89,0,0,0-2.14-1.6h-.21a1.89,1.89,0,0,0-1.79,2C29.65,45.07,30.47,45.76,32.1,45.76Z"/><path class="cls-1" d="M0,26.18V69c0,.82,0,2.38,2.37,2.38H49.7c2.37,0,2.37-1.55,2.37-2.38V26.18ZM28.23,43.05a3.25,3.25,0,0,1,3.59-2.85H32a3.33,3.33,0,0,1,3.23,3.39c0,2.47-1.31,3.86-3.4,3.86-2.34.1-3.74-1.41-3.6-3.84A5.23,5.23,0,0,1,28.23,43.05ZM16.12,41.92a4.86,4.86,0,0,1,5-4.72h.6A4.75,4.75,0,0,1,26.44,42c.28,3.35-1.8,5-4.86,5.7-3.07-.34-5.18-1.9-5.41-4.91a4,4,0,0,1-.05-.84Zm5.2,17.4C16,59.29,13,57,13.14,53c.25-6.17,5.2-3.32,8.2-4.27,3,1,7.93-1.94,8.13,4.3C29.59,57.13,26.65,59.35,21.32,59.32Zm14.7-4c-1.24,2.38-3.33,2.44-6.33,2.66,1.72-2.45,4.41-1.84,5.35-3.74,1.2-4.11-2.5-3.46-5.5-4.35,2.88-1.47,4.89-1.34,6.38,0C37.55,51.36,37.48,53.37,36,55.27Z"/></g></g></svg>